<svg xmlns="http://www.w3.org/2000/svg" viewBox="0 0 64 64"><defs><style>.cls-1{fill:#575962;}</style></defs><title>coupon</title><g id="Layer_2" data-name="Layer 2"><g id="Layer_1-2" data-name="Layer 1"><path class="cls-1" d="M16.28,24.28a7,7,0,1,0,7-7,7,7,0,0,0-7,7ZM33.72,39.72a7,7,0,1,0,7-7,7,7,0,0,0-7,7Zm8.59-22.44H38.69l-17,29.44h3.62l17-29.44ZM30.27,63l-3-5.17a3,3,0,0,0-4.11-1.12l-.26.17L18,59.71A2,2,0,0,1,15,58V52.15A3,3,0,0,0,12,49H6a2,2,0,0,1-1.73-3l2.87-5,.13-.21a3,3,0,0,0-1.1-4.1L1,33.73A2,2,0,0,1,.27,31,2,2,0,0,1,1,30.26l4.9-2.83.3-.15a3,3,0,0,0,1.1-4.1L7.19,23,4.29,18A2,2,0,0,1,6,15H11.7L12,15a3,3,0,0,0,3-3V6a2,2,0,0,1,2-2,2,2,0,0,1,1,.27l5,2.87.22.14a3,3,0,0,0,4.1-1.1l3-5.2a2,2,0,0,1,3.46,0l2.8,4.85a3.08,3.08,0,0,0,.17.35,3,3,0,0,0,4.1,1.1l.2-.13,5-2.88A2,2,0,0,1,49,6v5.64A2.94,2.94,0,0,0,49,12a3,3,0,0,0,3,3l.31,0H58a2,2,0,0,1,1.73,3l-2.86,4.95-.15.24a3,3,0,0,0,1.1,4.1l.31.15L63,30.27A2,2,0,0,1,63.73,33a2,2,0,0,1-.73.73l-5,2.9-.18.1a3,3,0,0,0-1.1,4.1,2.69,2.69,0,0,0,.18.27L59.71,46A2,2,0,0,1,58,49H52a3,3,0,0,0-3,3,2.84,2.84,0,0,0,0,.31V58a2,2,0,0,1-3,1.73l-4.94-2.85-.24-.16a3,3,0,0,0-4.24,1.37L33.74,63a2,2,0,0,1-2.73.73,2,2,0,0,1-.73-.73Zm-10-38.72a3,3,0,1,1,3,3,3,3,0,0,1-3-3ZM37.72,39.72a3,3,0,1,1,3,3,3,3,0,0,1-3-3Z"/></g></g></svg>