<svg xmlns="http://www.w3.org/2000/svg" width="378.201" height="218.358" viewBox="0 0 378.201 218.358">
  <g id="Group_848" data-name="Group 848" transform="translate(-255.999 -435.5)">
    <path id="Union_8" data-name="Union 8" d="M22723.879,4536.858a13.206,13.206,0,0,1,0-26.411h265.1a13.206,13.206,0,0,1,0,26.411Zm10.156-26.411a13.2,13.2,0,1,1,0-26.405h278.3a13.2,13.2,0,0,1,0,26.405Zm-30.834-26.405a13.206,13.206,0,0,1,0-26.411h71.463a13.2,13.2,0,0,0,0-26.4H23055a13.2,13.2,0,1,1,0,26.4h-103.1a13.2,13.2,0,0,0,0,26.405v.006Zm51.148-52.816a13.206,13.206,0,1,1,0-26.411h249.689a13.048,13.048,0,0,1,5.088,1.019h-12.348a13.206,13.206,0,0,0-5.09,25.393Zm-30.471-26.411a13.2,13.2,0,1,1,0-26.405h288.461a13.2,13.2,0,1,1,0,26.405Zm30.471-26.405a13.206,13.206,0,0,1,0-26.411h280.332a13.206,13.206,0,0,1,0,26.411Z" transform="translate(-22434.002 -3883)" fill="#ffecec"/>
    <g id="Group_841" data-name="Group 841" transform="translate(-146 60)">
      <g id="Group_840" data-name="Group 840" transform="translate(473.5 415.5)">
        <line id="Line_486" data-name="Line 486" y2="5.153" transform="translate(12.367 6.184) rotate(90)" fill="none" stroke="#ff5d5c" stroke-width="2"/>
        <line id="Line_487" data-name="Line 487" y2="5.153" transform="translate(6.184)" fill="none" stroke="#ff5d5c" stroke-width="2"/>
        <line id="Line_488" data-name="Line 488" y2="5.153" transform="translate(6.184 7.214)" fill="none" stroke="#ff5d5c" stroke-width="2"/>
        <line id="Line_489" data-name="Line 489" y2="5.153" transform="translate(5.153 6.184) rotate(90)" fill="none" stroke="#ff5d5c" stroke-width="2"/>
      </g>
    </g>
    <g id="Group_843" data-name="Group 843" transform="translate(-6 5)">
      <circle id="Ellipse_792" data-name="Ellipse 792" cx="1.685" cy="1.685" r="1.685" transform="translate(383.742 436)" fill="#ff5d5c"/>
      <circle id="Ellipse_793" data-name="Ellipse 793" cx="1.685" cy="1.685" r="1.685" transform="translate(383.742 449.483)" fill="#ff5d5c"/>
      <circle id="Ellipse_794" data-name="Ellipse 794" cx="1.685" cy="1.685" r="1.685" transform="translate(390.483 442.742)" fill="#ff5d5c"/>
      <circle id="Ellipse_795" data-name="Ellipse 795" cx="1.685" cy="1.685" r="1.685" transform="translate(377 442.742)" fill="#ff5d5c"/>
    </g>
    <g id="Group_845" data-name="Group 845" transform="translate(123 49)">
      <circle id="Ellipse_796" data-name="Ellipse 796" cx="1.5" cy="1.5" r="1.5" transform="matrix(0.914, -0.407, 0.407, 0.914, 415.079, 435.259)" fill="#ffc88f"/>
      <circle id="Ellipse_797" data-name="Ellipse 797" cx="1.5" cy="1.5" r="1.5" transform="matrix(0.914, -0.407, 0.407, 0.914, 419.96, 446.221)" fill="#ffc88f"/>
      <circle id="Ellipse_798" data-name="Ellipse 798" cx="1.5" cy="1.5" r="1.5" transform="matrix(0.914, -0.407, 0.407, 0.914, 423.001, 438.299)" fill="#ffc88f"/>
      <circle id="Ellipse_799" data-name="Ellipse 799" cx="1.5" cy="1.5" r="1.5" transform="matrix(0.914, -0.407, 0.407, 0.914, 412.038, 443.18)" fill="#ffc88f"/>
      <g id="Group_844" data-name="Group 844" transform="translate(-132.335 641.526) rotate(-69)">
        <circle id="Ellipse_792-2" data-name="Ellipse 792" cx="1.5" cy="1.5" r="1.5" transform="translate(383 436)" fill="#ffc88f"/>
        <circle id="Ellipse_793-2" data-name="Ellipse 793" cx="1.5" cy="1.5" r="1.5" transform="translate(383 448)" fill="#ffc88f"/>
        <circle id="Ellipse_794-2" data-name="Ellipse 794" cx="1.5" cy="1.5" r="1.5" transform="translate(389 442)" fill="#ffc88f"/>
        <circle id="Ellipse_795-2" data-name="Ellipse 795" cx="1.5" cy="1.5" r="1.5" transform="translate(377 442)" fill="#ffc88f"/>
      </g>
    </g>
    <g id="Group_846" data-name="Group 846" transform="translate(-146 20)">
      <g id="Group_840-2" data-name="Group 840" transform="translate(473.5 415.5)">
        <line id="Line_486-2" data-name="Line 486" y2="8.897" transform="translate(21.354 10.677) rotate(90)" fill="none" stroke="#ffa342" stroke-width="2"/>
        <line id="Line_487-2" data-name="Line 487" y2="8.897" transform="translate(10.677)" fill="none" stroke="#ffa342" stroke-width="2"/>
        <line id="Line_488-2" data-name="Line 488" y2="8.897" transform="translate(10.677 12.456)" fill="none" stroke="#ffa342" stroke-width="2"/>
        <line id="Line_489-2" data-name="Line 489" y2="8.897" transform="translate(8.897 10.677) rotate(90)" fill="none" stroke="#ffa342" stroke-width="2"/>
      </g>
    </g>
    <line id="Line_490" data-name="Line 490" y1="33" x2="24" transform="translate(473.5 453.5)" fill="none" stroke="#ff908f" stroke-linecap="round" stroke-width="5"/>
    <line id="Line_491" data-name="Line 491" y1="10" x2="12" transform="translate(491.5 483.5)" fill="none" stroke="#ff908f" stroke-linecap="round" stroke-width="5"/>
    <line id="Line_492" data-name="Line 492" x1="1" y1="11" transform="translate(453.5 456.5)" fill="none" stroke="#ff908f" stroke-linecap="round" stroke-width="5"/>
    <line id="Line_493" data-name="Line 493" x1="9" y1="12" transform="translate(423.5 474.5)" fill="none" stroke="#ff908f" stroke-linecap="round" stroke-width="5"/>
    <line id="Line_494" data-name="Line 494" x1="4.893" y1="6.102" transform="translate(412.5 461.5)" fill="none" stroke="#ff908f" stroke-linecap="round" stroke-width="5"/>
    <g id="Ellipse_800" data-name="Ellipse 800" transform="translate(453 480)" fill="#fff" stroke="#ff908f" stroke-width="2">
      <circle cx="2.5" cy="2.5" r="2.5" stroke="none"/>
      <circle cx="2.5" cy="2.5" r="1.5" fill="none"/>
    </g>
    <g id="shopping-cart">
      <path id="Path_2243" data-name="Path 2243" d="M44.83,81.53h73.93a4.077,4.077,0,0,0,3.919-2.956L138.985,21.5a4.076,4.076,0,0,0-3.919-5.2H35.429L32.515,3.192A4.077,4.077,0,0,0,28.535,0H4.076a4.076,4.076,0,1,0,0,8.153H25.265c.516,2.324,13.945,62.755,14.718,66.232a12.228,12.228,0,0,0,4.858,23.45H118.76a4.076,4.076,0,0,0,0-8.153H44.841a4.076,4.076,0,0,1-.011-8.152Zm84.831-57.071L115.685,73.376H48.11L37.24,24.459Zm0,0" transform="translate(371 500.19)" fill="#ff5d5c"/>
      <path id="Path_2244" data-name="Path 2244" d="M150,372.229A12.229,12.229,0,1,0,162.229,360,12.243,12.243,0,0,0,150,372.229Zm12.229-4.076a4.076,4.076,0,1,1-4.076,4.076A4.082,4.082,0,0,1,162.229,368.153Zm0,0" transform="translate(261.764 238.024)" fill="#ff5d5c"/>
      <path id="Path_2245" data-name="Path 2245" d="M362,372.229A12.229,12.229,0,1,0,374.229,360,12.243,12.243,0,0,0,362,372.229Zm12.229-4.076a4.076,4.076,0,1,1-4.076,4.076A4.082,4.082,0,0,1,374.229,368.153Zm0,0" transform="translate(107.378 238.024)" fill="#ff5d5c"/>
    </g>
    <line id="Line_495" data-name="Line 495" x2="12" transform="translate(383.5 542.5)" fill="none" stroke="#ff5d5c" stroke-linecap="round" stroke-width="8"/>
    <line id="Line_496" data-name="Line 496" x2="37" transform="translate(362.5 563.188)" fill="none" stroke="#ff5d5c" stroke-linecap="round" stroke-width="8"/>
    <line id="Line_497" data-name="Line 497" x2="19" transform="translate(376.5 581.576)" fill="none" stroke="#ff5d5c" stroke-linecap="round" stroke-width="8"/>
    <g id="Group_847" data-name="Group 847" transform="translate(46 31)">
      <g id="Group_840-3" data-name="Group 840" transform="translate(473.5 415.5)">
        <line id="Line_486-3" data-name="Line 486" y2="5.153" transform="translate(12.367 6.184) rotate(90)" fill="none" stroke="#ffa342" stroke-width="2"/>
        <line id="Line_487-3" data-name="Line 487" y2="5.153" transform="translate(6.184)" fill="none" stroke="#ffa342" stroke-width="2"/>
        <line id="Line_488-3" data-name="Line 488" y2="5.153" transform="translate(6.184 7.214)" fill="none" stroke="#ffa342" stroke-width="2"/>
        <line id="Line_489-3" data-name="Line 489" y2="5.153" transform="translate(5.153 6.184) rotate(90)" fill="none" stroke="#ffa342" stroke-width="2"/>
      </g>
    </g>
    <path id="Subtraction_7" data-name="Subtraction 7" d="M22697.074,4371.073A7.083,7.083,0,0,1,22690,4364h14.148A7.08,7.08,0,0,1,22697.074,4371.073Z" transform="translate(-22244 -3812.074)" fill="#ff5d5c"/>
    <g id="Ellipse_803" data-name="Ellipse 803" transform="translate(461 544)" fill="#fce8e8" stroke="#ff5d5c" stroke-width="2">
      <circle cx="4" cy="4" r="4" stroke="none"/>
      <circle cx="4" cy="4" r="3" fill="none"/>
    </g>
    <rect id="Rectangle_3895" data-name="Rectangle 3895" width="10" height="4" transform="translate(460 548)" fill="#fce8e8"/>
    <g id="Group_850" data-name="Group 850" transform="translate(-19 7)">
      <g id="Ellipse_803-2" data-name="Ellipse 803" transform="translate(456 537)" fill="#fce8e8" stroke="#ff5d5c" stroke-width="2">
        <circle cx="4" cy="4" r="4" stroke="none"/>
        <circle cx="4" cy="4" r="3" fill="none"/>
      </g>
      <rect id="Rectangle_3895-2" data-name="Rectangle 3895" width="10" height="4" transform="translate(455 541)" fill="#fce8e8"/>
    </g>
  </g>
</svg>
