<?xml version="1.0" encoding="utf-8"?>
<!-- Generator: Adobe Illustrator 21.1.0, SVG Export Plug-In . SVG Version: 6.00 Build 0)  -->
<svg version="1.1" id="Layer_1" xmlns="http://www.w3.org/2000/svg" xmlns:xlink="http://www.w3.org/1999/xlink" x="0px" y="0px"
	 viewBox="0 0 100 125" style="enable-background:new 0 0 100 125;" xml:space="preserve">
<style type="text/css">
	.st0{fill:none;stroke:#7E8085;stroke-miterlimit:10;}
	.st1{fill:#FF5D5C;}
	.st2{fill:#FFA342;}
</style>
<path class="st0" d="M36.2,42.7c0,3.9,3.1,7,7,7s7-3.1,7-7s-3.1-7-7-7S36.2,38.8,36.2,42.7L36.2,42.7z M53.7,58.1c0,3.9,3.1,7,7,7
	s7-3.1,7-7s-3.1-7-7-7S53.7,54.2,53.7,58.1L53.7,58.1z M62.2,35.7h-3.6l-17,29.4h3.6L62.2,35.7L62.2,35.7z M50.2,81.4l-3-5.2
	c-0.8-1.5-2.7-2-4.1-1.1c-0.1,0.1-0.2,0.1-0.3,0.2l-4.9,2.8c-0.3,0.2-0.7,0.3-1,0.3c-0.7,0-1.4-0.4-1.7-1c-0.2-0.3-0.3-0.6-0.3-1
	v-5.8c0-1.8-1.3-3.2-3-3.2l-0.2,0H26c-0.4,0-0.7-0.1-1-0.3c-0.6-0.4-1-1-1-1.7c0-0.3,0.1-0.7,0.3-1l2.9-5l0.1-0.2
	c0.8-1.4,0.3-3.3-1.1-4.1l-5.2-3c-0.3-0.2-0.6-0.4-0.7-0.7c-0.4-0.6-0.3-1.4,0-2c0.2-0.3,0.4-0.5,0.7-0.7l4.9-2.8
	c0.1,0,0.2-0.1,0.3-0.1c1.4-0.8,1.9-2.7,1.1-4.1l-0.1-0.2l-2.9-5c-0.2-0.3-0.3-0.7-0.3-1c0-0.7,0.4-1.4,1-1.7c0.3-0.2,0.6-0.3,1-0.3
	l5.7,0c0.1,0,0.2,0,0.3,0c1.7,0,3-1.3,3-3l0-0.2l0-5.8c0-0.4,0.1-0.7,0.3-1c0.4-0.6,1-1,1.7-1c0.3,0,0.7,0.1,1,0.3l5,2.9l0.2,0.1
	c1.4,0.8,3.3,0.3,4.1-1.1l3-5.2c0.2-0.3,0.4-0.6,0.7-0.7c0.6-0.4,1.4-0.3,2,0c0.3,0.2,0.5,0.4,0.7,0.7l2.8,4.8
	c0,0.1,0.1,0.2,0.2,0.4c0.8,1.4,2.7,1.9,4.1,1.1l0.2-0.1l5-2.9c0.3-0.2,0.7-0.3,1-0.3c0.7,0,1.4,0.4,1.7,1c0.2,0.3,0.3,0.6,0.3,1
	v5.6c0,0.1,0,0.2,0,0.4c0,1.7,1.3,3,3,3c0.1,0,0.2,0,0.3,0l5.7,0c0.4,0,0.7,0.1,1,0.3c0.6,0.4,1,1,1,1.7c0,0.3-0.1,0.7-0.3,1
	l-2.9,4.9l-0.2,0.2c-0.8,1.4-0.3,3.3,1.1,4.1c0.1,0.1,0.2,0.1,0.3,0.2l4.9,2.8c0.3,0.2,0.6,0.4,0.7,0.7c0.4,0.6,0.3,1.4,0,2
	c-0.2,0.3-0.4,0.5-0.7,0.7l-5,2.9l-0.2,0.1c-1.4,0.8-1.9,2.7-1.1,4.1c0.1,0.1,0.1,0.2,0.2,0.3l2.8,4.9c0.2,0.3,0.3,0.7,0.3,1
	c0,0.7-0.4,1.4-1,1.7c-0.3,0.2-0.6,0.3-1,0.3h-5.8l-0.2,0c-1.7,0-3,1.3-3,3c0,0.1,0,0.2,0,0.3l0,5.7c0,0.4-0.1,0.7-0.3,1
	c-0.4,0.6-1,1-1.7,1c-0.3,0-0.7-0.1-1-0.3L61,75.3l-0.2-0.2c-1.4-0.8-3.3-0.3-4.1,1.1c-0.1,0.1-0.1,0.2-0.1,0.3l-2.8,4.9
	c-0.2,0.3-0.4,0.6-0.7,0.7c-0.6,0.4-1.4,0.3-2,0C50.7,81.9,50.4,81.7,50.2,81.4L50.2,81.4z M40.2,42.7c0-1.7,1.3-3,3-3
	c1.7,0,3,1.3,3,3c0,1.7-1.3,3-3,3C41.6,45.7,40.2,44.3,40.2,42.7L40.2,42.7z M57.7,58.1c0-1.7,1.3-3,3-3s3,1.3,3,3c0,1.7-1.3,3-3,3
	S57.7,59.8,57.7,58.1L57.7,58.1z"/>
<circle class="st1" cx="-135" cy="-49" r="10"/>
<circle class="st2" cx="205" cy="186" r="10"/>
<circle class="st1" cx="-75" cy="241" r="10"/>
</svg>
