<svg xmlns="http://www.w3.org/2000/svg" viewBox="0 0 199.67 355.8"><defs><style>.cls-1{fill:#fff;}</style></defs><title>electricity_1</title><g id="Layer_2" data-name="Layer 2"><g id="Layer_1-2" data-name="Layer 1"><path class="cls-1" d="M76.18,247.63c-43.49-6.08-71.36-30-75.08-65.39-1.92-18.35-.71-37-.88-55.57q-.06-8.88,0-17.76c.12-17,5.26-22.33,22.38-23.35,1.54-.09,3-.42,6.16-.87V31.79c0-4.73-.22-9.47.07-14.2C29.51,6.65,36.76-.24,47,0c9.56.24,16.74,7.1,17,17.54.43,16.55.14,33.13.17,49.7v17.4h71.29c0-21.8-.15-43.35,0-64.92.12-13.56,8.74-21.61,20.75-19.37,10.67,2,14.72,9.36,14.67,19.73-.09,21.24,0,42.47,0,64.47,3.79.43,6.77.8,9.76,1.09,11.79,1.06,18.44,7.17,18.58,18.7.29,24.84.93,49.75-.33,74.54-1.7,33.71-31.16,63.12-65.7,67.48-2.7.33-5.42.57-9.83,1v29.28c0,18.54.29,37.08-.12,55.62-.3,14.37-10.46,23.82-24.15,23.49-13.16-.31-22.51-9.64-22.7-23.7-.33-24.06-.15-48.11-.17-72.17C76.18,256,76.18,252.15,76.18,247.63Z"/></g></g></svg>