<svg xmlns="http://www.w3.org/2000/svg" viewBox="0 0 390 390"><defs><style>.cls-1{fill:#ffecec;}.cls-2{fill:#ff5d5c;}.cls-3{fill:#ffa342;}.cls-4{fill:#fff;}.cls-5{fill:#7c2121;}.cls-6{fill:#fdfcef;}</style></defs><title>confirm</title><g id="Layer_2" data-name="Layer 2"><g id="Layer_1-2" data-name="Layer 1"><circle class="cls-1" cx="195" cy="195" r="185"/><circle class="cls-2" cx="10" cy="90" r="10"/><circle class="cls-3" cx="330" cy="10" r="5"/><circle class="cls-3" cx="360" cy="20" r="20"/><circle class="cls-2" cx="380" cy="65" r="10"/><circle class="cls-3" cx="350" cy="325" r="10"/><circle class="cls-3" cx="20" cy="260" r="20"/><circle class="cls-2" cx="70" cy="380" r="10"/><circle class="cls-4" cx="37.5" cy="212.5" r="12.5"/><circle class="cls-3" cx="50" cy="280" r="5"/><circle class="cls-4" cx="345" cy="115" r="5"/><circle class="cls-2" cx="195" cy="195" r="119.79"/><path class="cls-5" d="M195,77A118,118,0,1,1,77,195,118.13,118.13,0,0,1,195,77m0-7A125,125,0,1,0,320,195,125,125,0,0,0,195,70Z"/><circle class="cls-6" cx="195" cy="195" r="97.5"/><path class="cls-5" d="M293.81,179.77a2.5,2.5,0,1,0-4.94.76A95.21,95.21,0,1,1,273.26,141a2.5,2.5,0,0,0,4.11-2.85,100.58,100.58,0,1,0,16.44,41.63Z"/><path class="cls-5" d="M282.85,159a2.5,2.5,0,1,0,4.63-1.9,99.22,99.22,0,0,0-4.63-9.89,2.5,2.5,0,0,0-3.4-1,2.47,2.47,0,0,0-.57.43,2.51,2.51,0,0,0-.43,3A91.35,91.35,0,0,1,282.85,159Z"/><path class="cls-2" d="M150,186.88a8.12,8.12,0,0,0-5.74,13.87l35,35a8.07,8.07,0,0,0,5.74,2.38V240l.15-1.87a8.16,8.16,0,0,0,5.83-2.63l55-60a8.13,8.13,0,0,0-.5-11.48,7.93,7.93,0,0,0-5.84-2.13,8.06,8.06,0,0,0-5.63,2.63l-49.27,53.75-29-29A8.09,8.09,0,0,0,150,186.88Z"/><path class="cls-5" d="M240,163.75h0a6.25,6.25,0,0,1,4.61,10.47l-55,60a6.34,6.34,0,0,1-4.61,2,6.21,6.21,0,0,1-4.42-1.83l-35-35a6.25,6.25,0,0,1,8.84-8.84L182,218.19,184.8,221l2.64-2.88,47.95-52.31a6.17,6.17,0,0,1,4.61-2m0-3.75a10,10,0,0,0-7.37,3.24l-47.95,52.3-27.61-27.61a10,10,0,0,0-14.14,14.14l35,35A10,10,0,0,0,185,240h.21a10,10,0,0,0,7.15-3.24l55-60A10,10,0,0,0,240,160Z"/></g></g></svg>