<svg xmlns="http://www.w3.org/2000/svg" width="50" height="50" viewBox="0 0 50 50"><g transform="translate(-172.818 -172.818)"><circle cx="25" cy="25" r="25" transform="translate(172.818 172.818)" fill="#28c76f"/><path d="M221.878,213.986l-.392,7.5-7.5.392L194.6,202.491a14.939,14.939,0,0,0,7.876-7.859l2.451,2.492-.548,3.75,5.311.939,1.25,5.547,6.25,1.953-.629,3.75Z" fill="#fff"/><circle cx="14.918" cy="14.918" r="14.918" transform="translate(173.839 173.839)" fill="#fff"/><path d="M217.426,212.426l.621-3.668-6.479-1.953-1.168-5.629-5.155-.939.547-3.358-2.508-2.574a14.724,14.724,0,0,0,1.013-5.629,15.7,15.7,0,1,0-15.695,15.7,15.881,15.881,0,0,0,5.785-1.094h0l19.3,19.3,8.6-.392.392-8.9ZM174.46,188.758A14.142,14.142,0,1,1,188.6,202.9,14.143,14.143,0,0,1,174.46,188.758Zm21.487,13.9c.7-.392,1.4-.858,2.108-1.332l19.608,19.535-3.284.155Zm24.837,18.121h-1.1l-20.466-20.466a15.805,15.805,0,0,0,3.44-4.453l1.487,1.487-.621,4.143,5.629,1.013,1.168,5.465,6.013,1.88-.621,3.831,5.392.94Z" fill="#239a58"/><path d="M188.758,177.075a11.683,11.683,0,1,0,11.682,11.683A11.68,11.68,0,0,0,188.758,177.075Zm-3.955,9.918a2.508,2.508,0,1,1,2.508-2.508A2.509,2.509,0,0,1,184.8,186.993Z" fill="#81fbb8"/><rect width="1.561" height="1.642" transform="translate(189.564 195.997) rotate(-44.996)" fill="#237146"/><rect width="1.56" height="1.642" transform="translate(192.261 193.363) rotate(-45)" fill="#237146"/><rect width="1.56" height="1.642" transform="translate(194.909 190.677) rotate(-44.992)" fill="#237146"/></g></svg>