<svg xmlns="http://www.w3.org/2000/svg" width="61.532" height="50" viewBox="0 0 61.532 50"><g transform="translate(-167.052 -172.818)"><path d="M227.619,176.658v8.657H188.106l-3.941,3.941H168.017V173.773h15.856l3.75,2.886Z" fill="#fff"/><path d="M227.619,176.658v8.657H188.106l-3.941,3.941H168.017V173.773h15.856l3.75,2.886Z" fill="#fff"/><path d="M223.778,180.891v4.424H188.106l-3.941,3.941H171.858V186.18l5.188-5.289Z" fill="#6bdb9d"/><path d="M227.619,221.852h-59.6v-32.6h16.147l3.941-3.941h39.513Z" fill="#fff"/><path d="M188.015,175.7l-3.75-2.885H167.052v50h61.532V175.7Zm38.649,45.184H168.972V190.222h15.574l4.042-4.042h38.076v34.707Zm0-36.537H187.723l-4.041,4.042h-14.71V174.738h14.619l3.75,2.886h39.323v6.726Z" fill="#239a58"/><path d="M171.858,218V194.163h12.98l5.1-5.007h33.843V218Z" fill="#28c76f"/><rect width="1.92" height="1.92" transform="translate(175.709 212.14)" fill="#239a58"/><rect width="1.92" height="1.92" transform="translate(180.796 212.14)" fill="#239a58"/><rect width="1.92" height="1.92" transform="translate(185.803 212.14)" fill="#239a58"/><path d="M171.858,186.18h5.2v-5.289Z" fill="#81fbb8"/><rect width="15.484" height="1.92" transform="translate(203.489 192.041)" fill="#fff"/><rect width="15.484" height="1.92" transform="translate(203.489 196.847)" fill="#fff"/><rect width="15.484" height="1.92" transform="translate(203.489 201.563)" fill="#fff"/></g></svg>