<svg xmlns="http://www.w3.org/2000/svg" width="50.628" height="50" viewBox="0 0 50.628 50"><g transform="translate(-172.504 -172.818)"><path d="M222.338,185.8v36.235H173.3V185.8h14.709c2.01,6.7,9.819,18.117,9.819,18.117s7.81-11.407,9.82-18.117Z" fill="#81fbb8"/><path d="M203.352,203.907a5.534,5.534,0,1,1-8.537-4.649c1.688,2.73,3,4.649,3,4.649s1.316-1.919,3-4.649A5.507,5.507,0,0,1,203.352,203.907Z" fill="#fff"/><path d="M201.235,198.588c-.29.471-.563.918-.836,1.348a4.749,4.749,0,1,1-5.162,0c-.265-.422-.546-.877-.836-1.348a6.329,6.329,0,1,0,6.834,0Z" fill="#239a58"/><rect width="1.58" height="1.58" transform="translate(192.838 217.516)" fill="#239a58"/><rect width="1.58" height="1.58" transform="translate(197.024 217.516)" fill="#239a58"/><rect width="1.58" height="1.58" transform="translate(201.218 217.516)" fill="#239a58"/><path d="M222.338,206.993a9.746,9.746,0,0,0-3.086-.472,10.974,10.974,0,0,0-10.994,11,10.654,10.654,0,0,0,.951,4.508h13.129Z" fill="#fff"/><path d="M173.3,198.29a8.813,8.813,0,0,0,2.531.314,9.1,9.1,0,0,0,9.1-9.1,9.315,9.315,0,0,0-.794-3.714H173.3Z" fill="#fff"/><path d="M207.853,185c-.116.5-.282,1.026-.472,1.58h12.591l-14.32,10.6.952,1.266,14.948-11.077v18.589a10.815,10.815,0,0,0-2.291-.24,11.7,11.7,0,0,0-11.152,15.5H175.672l14.32-10.6-.951-1.265-14.957,11.085v-21.2a6.514,6.514,0,0,0,1.737.157,9.885,9.885,0,0,0,9.886-9.885,9.146,9.146,0,0,0-.472-2.929h3.02c-.19-.554-.356-1.084-.472-1.58H172.5v37.814h50.628V185Zm-33.769,1.58h9.5a7.38,7.38,0,0,1,.554,2.929,8.305,8.305,0,0,1-8.306,8.3,6.514,6.514,0,0,1-1.737-.157V186.584Zm47.468,34.646H209.764a10.042,10.042,0,0,1-.712-3.714,10.236,10.236,0,0,1,10.209-10.209,11.942,11.942,0,0,1,2.291.24V221.23Z" fill="#239a58"/><path d="M187.535,183.184a10.283,10.283,0,1,1,20.566,0c0,5.7-10.283,20.723-10.283,20.723S187.535,188.876,187.535,183.184Z" fill="#28c76f"/><circle cx="4.666" cy="4.666" r="4.666" transform="translate(193.152 177.807)" fill="#fff"/></g></svg>