<svg xmlns="http://www.w3.org/2000/svg" width="53.697" height="50" viewBox="0 0 53.697 50"><g transform="translate(-170.323 -172.172)"><rect width="40.827" height="48.319" transform="translate(171.159 173.017)" fill="#fff"/><path d="M212.832,222.172H170.323v-50h42.509ZM172,220.491H211.15V173.853H172Z" fill="#239a58"/><rect width="34.093" height="41.585" transform="translate(174.531 176.38)" fill="#28c76f"/><path d="M204.39,195.147H178.738v7.579H204.5v-7.579Z" fill="#fff"/><path d="M177.893,194.311v9.261h27.439v-9.261Zm8.592,7.571h-6.9v-5.889h6.9Zm8.583,0h-6.9v-5.889h6.9Zm8.582,0h-6.9v-5.889h6.9Z" fill="#239a58"/><rect width="9.428" height="1.681" transform="translate(177.893 179.329)" fill="#fff"/><rect width="27.359" height="1.681" transform="translate(177.893 184.038)" fill="#fff"/><rect width="27.359" height="1.681" transform="translate(177.893 188.668)" fill="#fff"/><rect width="1.681" height="1.681" transform="translate(185.217 213.334)" fill="#239a58"/><rect width="1.681" height="1.681" transform="translate(190.772 213.334)" fill="#239a58"/><rect width="1.681" height="1.681" transform="translate(196.327 213.334)" fill="#239a58"/><circle cx="8.248" cy="8.248" r="8.248" transform="translate(205.252 203.994)" fill="#6bdb9d"/><path d="M213.835,215.438l-4.12-4.965,1.347-1.092,2.861,3.53,8.838-9.6,1.259,1.092Z" fill="#239a58"/></g></svg>