<svg xmlns="http://www.w3.org/2000/svg" width="444.265" height="272.629" viewBox="0 0 444.265 272.629">
  <path id="bike" d="M380.152,230.217a64.08,64.08,0,0,0-52.7,27.67l-16.688-7.148v-10.46l52.274-21.69,13.421-30.941h6.168l30.923,36.726a6.034,6.034,0,1,0,9.232-7.773L398.4,187.647h3.877a6.034,6.034,0,0,0,0-12.068h-9.065l7.9-3.743a7.542,7.542,0,0,0,3.611-9.989l-4.548-9.8a7.544,7.544,0,0,0-6.774-4.369l-83.7-.758h-.068a7.546,7.546,0,0,0-5.522,2.4c-.156.166-17.254,17.871-48.8,21.981a70.948,70.948,0,0,0-10.448-14.584,61.522,61.522,0,0,0-46.109-19.891,78.785,78.785,0,0,0-11.265.836l-.061.01a474.25,474.25,0,0,0-51.092,11.588c-.318.017-.777.033-1.34.033-3.344,0-11.462-.6-14.625-6.119a10.461,10.461,0,0,1-.653-1.381l13.942-2.532a7.166,7.166,0,1,0-2.561-14.1l-11.234,2.04c1.719-7.1,5.623-16.795,13.383-30.019a7.543,7.543,0,0,0-9.17-10.875,115.871,115.871,0,0,0-38.691,26.767,102.136,102.136,0,0,0-27.6,56.062,27.625,27.625,0,0,1,3.888-5.731s20.592,13.441,8.968,32.9H56.995c.327,3.953.837,8.028,1.565,12.24a7.547,7.547,0,0,0,2.329,4.27l16.844,15.477C22.347,220.86,2.426,256.806,2.426,256.806c-4.154,5.53-2.064,11.491,4.639,8.326a64.1,64.1,0,1,0,121.161,29.2,64.715,64.715,0,0,0-.484-7.746h78.34l-30.925-23.052s-36.7,3.545-62.88-24.947c2.74-.138,5.729-.226,8.906-.226,21.23,0,50.784,3.821,71.012,22.023a7.624,7.624,0,0,0,.829.647l69.392,46.77a7.542,7.542,0,0,0,9.549-.922l27.959-27.959,16.668,7.139a64.1,64.1,0,1,0,63.56-55.842ZM310.76,214.672l47.245-22.4-6.386,14.719L310.76,223.946ZM64.112,328.276a33.943,33.943,0,0,1,0-67.886c.79,0,1.571.037,2.348.09L52.419,289.428,79.565,302.6l12.981-26.765a33.917,33.917,0,0,1-28.434,52.445Zm316.04,0a33.986,33.986,0,0,1-33.627-29.4l25.678,11,11.88-27.734-27.806-11.909a33.934,33.934,0,1,1,23.875,58.041Z" transform="translate(0 -85.818)" fill="#fff" stroke="#fff" stroke-linecap="round" stroke-linejoin="round"/>
</svg>
