<svg xmlns="http://www.w3.org/2000/svg" width="50" height="50" viewBox="0 0 50 50"><g transform="translate(-231 -231)"><path d="M272.933,267.607a.892.892,0,0,1-.567-1.582,18.751,18.751,0,1,0-27.244-25.271.892.892,0,1,1-1.459-1.028A20.536,20.536,0,1,1,273.5,267.4.887.887,0,0,1,272.933,267.607Z" fill="#81fbb8"/><path d="M273.366,271.8l-11.155-6.422a2.763,2.763,0,0,0-3.332.44l-2.2,2.2a2.344,2.344,0,0,1-3.128.173,65.044,65.044,0,0,1-9.739-9.739,2.344,2.344,0,0,1,.173-3.128l2.2-2.2a2.762,2.762,0,0,0,.44-3.331L240.2,238.634a2.762,2.762,0,0,0-4.347-.574l-3.311,3.31c-4.314,4.315.714,16.338,11.23,26.855s22.54,15.544,26.855,11.23l3.31-3.311A2.762,2.762,0,0,0,273.366,271.8Z" fill="#28c76f"/><path d="M234.925,238.991,244.2,255.1l1.984-1.983a2.763,2.763,0,0,0,.44-3.332L240.2,238.634a2.762,2.762,0,0,0-4.347-.574Z" fill="#239a58"/><path d="M273.009,277.075l.931-.931a2.762,2.762,0,0,0-.574-4.347l-11.155-6.422a2.763,2.763,0,0,0-3.332.44l-2.034,2.035Z" fill="#239a58"/><path d="M270.285,253.322h-.892v-8.929a.893.893,0,1,0-1.786,0v8.929H263.32l1.594-8.769a.893.893,0,1,0-1.757-.319l-1.786,9.821a.893.893,0,0,0,.879,1.053h5.357v1.785a.893.893,0,1,0,1.785,0v-1.785h.893a.893.893,0,1,0,0-1.786Z" fill="#28c76f"/><path d="M259.571,257.786h-7.143a.893.893,0,0,1-.893-.893c0-2.732,2.074-3.95,3.9-5.025,1.739-1.022,3.24-1.9,3.24-3.9a2.679,2.679,0,1,0-5.357,0,.893.893,0,1,1-1.786,0,4.464,4.464,0,1,1,8.929,0c0,3.02-2.285,4.363-4.121,5.442-1.494.878-2.526,1.538-2.884,2.593h6.112a.893.893,0,0,1,0,1.786Z" fill="#28c76f"/><path d="M272.071,268.5a.892.892,0,0,1-.875-1.068l.892-4.464a.893.893,0,0,1,1.751.35l-.63,3.151,3.151-.63a.893.893,0,0,1,.351,1.751l-4.465.893A.866.866,0,0,1,272.071,268.5Z" fill="#81fbb8"/><path d="M260.464,238.143a.893.893,0,0,1-.893-.893v-1.785a.893.893,0,1,1,1.786,0v1.785A.893.893,0,0,1,260.464,238.143Z" fill="#239a58"/><path d="M276.535,252.429H274.75a.893.893,0,1,1,0-1.786h1.785a.893.893,0,1,1,0,1.786Z" fill="#239a58"/><path d="M268.052,239.284a.893.893,0,0,1-.772-1.339l.447-.774a.893.893,0,0,1,1.546.893l-.446.774A.9.9,0,0,1,268.052,239.284Z" fill="#81fbb8"/><path d="M252.876,239.284a.893.893,0,0,1-.775-.447l-.446-.773a.893.893,0,0,1,1.546-.893l.447.774a.893.893,0,0,1-.772,1.339Z" fill="#81fbb8"/><path d="M247.318,244.84a.888.888,0,0,1-.445-.12l-.774-.446a.893.893,0,0,1,.893-1.547l.774.447a.893.893,0,0,1-.448,1.666Z" fill="#81fbb8"/><path d="M274.381,260.465a.888.888,0,0,1-.445-.12l-.773-.446a.893.893,0,0,1,.892-1.547l.774.447a.893.893,0,0,1-.448,1.666Z" fill="#81fbb8"/><path d="M273.61,244.84a.893.893,0,0,1-.448-1.666l.774-.447a.893.893,0,0,1,.893,1.547l-.774.446A.888.888,0,0,1,273.61,244.84Z" fill="#81fbb8"/></g></svg>