<?xml version="1.0" encoding="utf-8"?>
<!-- Generator: Adobe Illustrator 21.1.0, SVG Export Plug-In . SVG Version: 6.00 Build 0)  -->
<svg version="1.1" id="Layer_1" xmlns="http://www.w3.org/2000/svg" xmlns:xlink="http://www.w3.org/1999/xlink" x="0px" y="0px"
	 viewBox="0 0 555.3 340.5" style="enable-background:new 0 0 555.3 340.5;" xml:space="preserve">
<style type="text/css">
	.st0{clip-path:url(#SVGID_2_);}
	.st1{fill:#FFA200;}
	.st2{opacity:0.3;}
	.st3{fill:url(#SVGID_3_);}
	.st4{fill:#FFFFFF;}
	.st5{fill:url(#SVGID_4_);}
	.st6{fill:url(#SVGID_5_);}
	.st7{fill:url(#SVGID_6_);}
	.st8{fill:url(#SVGID_7_);}
	.st9{fill:url(#SVGID_8_);}
	.st10{fill:url(#SVGID_9_);}
	.st11{fill:url(#SVGID_10_);}
	.st12{fill:url(#SVGID_11_);}
	.st13{fill:url(#SVGID_12_);}
	.st14{fill:url(#SVGID_13_);}
	.st15{fill:url(#SVGID_14_);}
	.st16{fill:url(#SVGID_15_);}
	.st17{fill:url(#SVGID_16_);}
	.st18{fill:url(#SVGID_17_);}
	.st19{fill:url(#SVGID_18_);}
	.st20{fill:url(#SVGID_19_);}
	.st21{fill:url(#SVGID_20_);}
	.st22{fill:url(#SVGID_21_);}
	.st23{fill:url(#SVGID_22_);}
	.st24{fill:url(#SVGID_23_);}
	.st25{opacity:0.8;}
	.st26{fill:url(#SVGID_24_);}
	.st27{opacity:0.25;}
	.st28{fill:#404041;}
</style>
<title>card-new</title>
<g>
	<g id="Layer_2">
		<g id="Layer_1-2">
			<g>
				<defs>
					<path id="SVGID_1_" d="M9.3,0.2h534c5.2,0,9.3,4.2,9.3,9.4v321.6c0,5.2-4.2,9.4-9.3,9.4H9.3c-5.2,0-9.4-4.2-9.4-9.4V9.5
						C0,4.4,4.2,0.2,9.3,0.2z"/>
				</defs>
				<clipPath id="SVGID_2_">
					<use xlink:href="#SVGID_1_"  style="overflow:visible;"/>
				</clipPath>
				<g class="st0">
					<rect x="0" y="0.2" class="st1" width="552.7" height="340.3"/>
				</g>
			</g>
			<g class="st2">
				
					<linearGradient id="SVGID_3_" gradientUnits="userSpaceOnUse" x1="200.1017" y1="264.2" x2="307.6317" y2="264.2" gradientTransform="matrix(1.06 0 0 -0.8 -29.38 266.5)">
					<stop  offset="0" style="stop-color:#FFCD00"/>
					<stop  offset="1" style="stop-color:#E87123"/>
				</linearGradient>
				<path class="st3" d="M216.6,58.3l-34.7,26.4l33.6,25.4l80-60.7L230.3,0.2h-37.7l24,18.2C231.2,29.4,231.2,47.3,216.6,58.3z"/>
				<polygon class="st4" points="139.4,340.5 256.2,340.4 197.7,296.2 				"/>
				
					<linearGradient id="SVGID_4_" gradientUnits="userSpaceOnUse" x1="394.4952" y1="-18.3885" x2="-332.1348" y2="-728.5884" gradientTransform="matrix(-1.06 0 0 0.8 520.64 424.8499)">
					<stop  offset="0" style="stop-color:#FFCD00"/>
					<stop  offset="1" style="stop-color:#E87123"/>
				</linearGradient>
				<polygon class="st5" points="139.4,340.5 256.2,340.4 197.7,296.2 				"/>
				<path class="st4" d="M295.4,49.5l-80,60.7l42.1,31.9c20.6,15.6,20.6,40.9,0,56.6l-82.9,62.9c-4,3-8.5,5.5-13.2,7.3l36.2,27.4
					l211.6-160.5L295.4,49.5z"/>
				
					<linearGradient id="SVGID_5_" gradientUnits="userSpaceOnUse" x1="355.2797" y1="-220.4856" x2="-371.3504" y2="-930.6757" gradientTransform="matrix(-1.06 0 0 0.8 520.64 424.8499)">
					<stop  offset="0" style="stop-color:#FFCD00"/>
					<stop  offset="1" style="stop-color:#E87123"/>
				</linearGradient>
				<path class="st6" d="M295.4,49.5l-80,60.7l42.1,31.9c20.6,15.6,20.6,40.9,0,56.6l-82.9,62.9c-4,3-8.5,5.5-13.2,7.3l36.2,27.4
					l211.6-160.5L295.4,49.5z"/>
				<path class="st4" d="M510.4,120.2l44.8,33.9V85.7L510,119.9L510.4,120.2z"/>
				
					<linearGradient id="SVGID_6_" gradientUnits="userSpaceOnUse" x1="246.1073" y1="-108.7885" x2="-480.5228" y2="-818.9785" gradientTransform="matrix(-1.06 0 0 0.8 520.64 424.8499)">
					<stop  offset="0" style="stop-color:#FFCD00"/>
					<stop  offset="1" style="stop-color:#E87123"/>
				</linearGradient>
				<path class="st7" d="M510.4,120.2l44.8,33.9V85.7L510,119.9L510.4,120.2z"/>
				<path class="st4" d="M510,119.9l-35.8,27.2c-13.7,10.4-36,10.4-49.8,0l-15.1-11.4L197.7,296.2l58.4,44.2l299.1-0.1l-0.1-186.2
					l-44.8-33.9L510,119.9z"/>
				
					<linearGradient id="SVGID_7_" gradientUnits="userSpaceOnUse" x1="327.0081" y1="50.6551" x2="-399.622" y2="-659.5349" gradientTransform="matrix(-1.06 0 0 0.8 520.64 424.8499)">
					<stop  offset="0" style="stop-color:#FFCD00"/>
					<stop  offset="1" style="stop-color:#E87123"/>
				</linearGradient>
				<path class="st8" d="M510,119.9l-35.8,27.2c-13.7,10.4-36,10.4-49.8,0l-15.1-11.4L197.7,296.2l58.4,44.2l299.1-0.1l-0.1-186.2
					l-44.8-33.9L510,119.9z"/>
				
					<linearGradient id="SVGID_8_" gradientUnits="userSpaceOnUse" x1="205.9334" y1="-67.6803" x2="-520.6967" y2="-777.8703" gradientTransform="matrix(-1.06 0 0 0.8 520.64 424.8499)">
					<stop  offset="0" style="stop-color:#FFCD00"/>
					<stop  offset="1" style="stop-color:#E87123"/>
				</linearGradient>
				<path class="st9" d="M510,119.9l-35.8,27.2c-13.7,10.4-36,10.4-49.8,0l-15.1-11.4L197.7,296.2l58.4,44.2l299.1-0.1l-0.1-186.2
					l-44.8-33.9L510,119.9z"/>
				<polygon class="st4" points="360.5,0.1 230.3,0.2 295.4,49.5 				"/>
				
					<linearGradient id="SVGID_9_" gradientUnits="userSpaceOnUse" x1="-217.2975" y1="-367.3083" x2="355.7625" y2="-557.9883" gradientTransform="matrix(-1.06 0 0 0.8 520.64 424.8499)">
					<stop  offset="0" style="stop-color:#FFCD00"/>
					<stop  offset="1" style="stop-color:#E87123"/>
				</linearGradient>
				<polygon class="st10" points="360.5,0.1 230.3,0.2 295.4,49.5 				"/>
				<path class="st4" d="M409.3,135.7l20.4-15.5c22.1-16.8,58-16.9,80.3-0.3l45.2-34.3V0L360.5,0.1l-65,49.4L409.3,135.7z"/>
				
					<linearGradient id="SVGID_10_" gradientUnits="userSpaceOnUse" x1="338.8149" y1="-203.6411" x2="-387.8152" y2="-913.8311" gradientTransform="matrix(-1.06 0 0 0.8 520.64 424.8499)">
					<stop  offset="0" style="stop-color:#FFCD00"/>
					<stop  offset="1" style="stop-color:#E87123"/>
				</linearGradient>
				<path class="st11" d="M409.3,135.7l20.4-15.5c22.1-16.8,58-16.9,80.3-0.3l45.2-34.3V0L360.5,0.1l-65,49.4L409.3,135.7z"/>
				
					<linearGradient id="SVGID_11_" gradientUnits="userSpaceOnUse" x1="-215.6762" y1="-362.4443" x2="357.3838" y2="-553.1244" gradientTransform="matrix(-1.06 0 0 0.8 520.64 424.8499)">
					<stop  offset="0" style="stop-color:#FFCD00"/>
					<stop  offset="1" style="stop-color:#E87123"/>
				</linearGradient>
				<path class="st12" d="M409.3,135.7l20.4-15.5c22.1-16.8,58-16.9,80.3-0.3l45.2-34.3V0L360.5,0.1l-65,49.4L409.3,135.7z"/>
				<path class="st4" d="M474.2,147.1l35.8-27.2c-22.3-16.6-58.2-16.5-80.3,0.3l-20.4,15.5l15.1,11.4
					C438.2,157.5,460.4,157.5,474.2,147.1z"/>
				
					<linearGradient id="SVGID_12_" gradientUnits="userSpaceOnUse" x1="406.1865" y1="-30.3528" x2="-320.4434" y2="-740.5329" gradientTransform="matrix(-1.06 0 0 0.8 520.64 424.8499)">
					<stop  offset="0" style="stop-color:#FFCD00"/>
					<stop  offset="1" style="stop-color:#E87123"/>
				</linearGradient>
				<path class="st13" d="M474.2,147.1l35.8-27.2c-22.3-16.6-58.2-16.5-80.3,0.3l-20.4,15.5l15.1,11.4
					C438.2,157.5,460.4,157.5,474.2,147.1z"/>
				
					<linearGradient id="SVGID_13_" gradientUnits="userSpaceOnUse" x1="285.106" y1="-148.6923" x2="-441.524" y2="-858.8724" gradientTransform="matrix(-1.06 0 0 0.8 520.64 424.8499)">
					<stop  offset="0" style="stop-color:#FFCD00"/>
					<stop  offset="1" style="stop-color:#E87123"/>
				</linearGradient>
				<path class="st14" d="M474.2,147.1l35.8-27.2c-22.3-16.6-58.2-16.5-80.3,0.3l-20.4,15.5l15.1,11.4
					C438.2,157.5,460.4,157.5,474.2,147.1z"/>
				
					<linearGradient id="SVGID_14_" gradientUnits="userSpaceOnUse" x1="-189.9799" y1="-285.2254" x2="383.0801" y2="-475.9055" gradientTransform="matrix(-1.06 0 0 0.8 520.64 424.8499)">
					<stop  offset="0" style="stop-color:#FFCD00"/>
					<stop  offset="1" style="stop-color:#E87123"/>
				</linearGradient>
				<path class="st15" d="M474.2,147.1l35.8-27.2c-22.3-16.6-58.2-16.5-80.3,0.3l-20.4,15.5l15.1,11.4
					C438.2,157.5,460.4,157.5,474.2,147.1z"/>
				<path class="st4" d="M100,27.7L37,75.6l34,25.7l29-22c20.6-15.6,54-15.7,74.6,0l7.2,5.5l34.7-26.4c14.6-11,14.6-29,0-40
					l-24-18.2h-80.9C113.8,9.9,109.9,20.2,100,27.7z"/>
				
					<linearGradient id="SVGID_15_" gradientUnits="userSpaceOnUse" x1="358.9505" y1="-458.6684" x2="494.3105" y2="-605.8884" gradientTransform="matrix(-1.06 0 0 0.8 520.64 424.8499)">
					<stop  offset="0" style="stop-color:#FFCD00"/>
					<stop  offset="1" style="stop-color:#E87123"/>
				</linearGradient>
				<path class="st16" d="M100,27.7L37,75.6l34,25.7l29-22c20.6-15.6,54-15.7,74.6,0l7.2,5.5l34.7-26.4c14.6-11,14.6-29,0-40
					l-24-18.2h-80.9C113.8,9.9,109.9,20.2,100,27.7z"/>
				<path class="st4" d="M14.4,58.4L37,75.6l63-47.8c9.9-7.5,13.8-17.8,11.7-27.5l-73.3,0l-24,18.2C-0.2,29.5-0.2,47.4,14.4,58.4z"
					/>
				
					<linearGradient id="SVGID_16_" gradientUnits="userSpaceOnUse" x1="380.5815" y1="-438.7878" x2="515.9415" y2="-585.9978" gradientTransform="matrix(-1.06 0 0 0.8 520.64 424.8499)">
					<stop  offset="0" style="stop-color:#FFCD00"/>
					<stop  offset="1" style="stop-color:#E87123"/>
				</linearGradient>
				<path class="st17" d="M14.4,58.4L37,75.6l63-47.8c9.9-7.5,13.8-17.8,11.7-27.5l-73.3,0l-24,18.2C-0.2,29.5-0.2,47.4,14.4,58.4z"
					/>
				
					<linearGradient id="SVGID_17_" gradientUnits="userSpaceOnUse" x1="511.6628" y1="-428.9" x2="283.6328" y2="-651.77" gradientTransform="matrix(-1.06 0 0 0.8 520.64 424.8499)">
					<stop  offset="0" style="stop-color:#FFCD00"/>
					<stop  offset="1" style="stop-color:#E87123"/>
				</linearGradient>
				<path class="st18" d="M14.4,58.4L37,75.6l63-47.8c9.9-7.5,13.8-17.8,11.7-27.5l-73.3,0l-24,18.2C-0.2,29.5-0.2,47.4,14.4,58.4z"
					/>
				<path class="st4" d="M124.2,179.4l91.3-69.3l-33.6-25.4l-40,30.3c-14.6,11-38.2,11.1-52.8,0L71,101.3l-53.8,40.8
					c-20.6,15.6-20.6,41,0,56.6l82.9,62.8c16.6,12.6,41.6,15,61.4,7.3l-37.3-28.2C101.9,223.7,101.9,196.3,124.2,179.4z"/>
				
					<linearGradient id="SVGID_18_" gradientUnits="userSpaceOnUse" x1="436.6482" y1="-245.8976" x2="151.4182" y2="-524.6675" gradientTransform="matrix(-1.06 0 0 0.8 520.64 424.8499)">
					<stop  offset="0" style="stop-color:#FFCD00"/>
					<stop  offset="1" style="stop-color:#E87123"/>
				</linearGradient>
				<path class="st19" d="M124.2,179.4l91.3-69.3l-33.6-25.4l-40,30.3c-14.6,11-38.2,11.1-52.8,0L71,101.3l-53.8,40.8
					c-20.6,15.6-20.6,41,0,56.6l82.9,62.8c16.6,12.6,41.6,15,61.4,7.3l-37.3-28.2C101.9,223.7,101.9,196.3,124.2,179.4z"/>
				<path class="st4" d="M257.6,198.6c20.6-15.6,20.6-41,0-56.6l-42.1-31.9l-91.3,69.3c-22.3,16.9-22.3,44.3,0,61.2l37.3,28.2
					c4.7-1.8,9.2-4.3,13.2-7.3L257.6,198.6z"/>
				
					<linearGradient id="SVGID_19_" gradientUnits="userSpaceOnUse" x1="370.9037" y1="-236.477" x2="-355.7163" y2="-946.667" gradientTransform="matrix(-1.06 0 0 0.8 520.64 424.8499)">
					<stop  offset="0" style="stop-color:#FFCD00"/>
					<stop  offset="1" style="stop-color:#E87123"/>
				</linearGradient>
				<path class="st20" d="M257.6,198.6c20.6-15.6,20.6-41,0-56.6l-42.1-31.9l-91.3,69.3c-22.3,16.9-22.3,44.3,0,61.2l37.3,28.2
					c4.7-1.8,9.2-4.3,13.2-7.3L257.6,198.6z"/>
				
					<linearGradient id="SVGID_20_" gradientUnits="userSpaceOnUse" x1="399.8224" y1="-208.2156" x2="114.5924" y2="-486.9856" gradientTransform="matrix(-1.06 0 0 0.8 520.64 424.8499)">
					<stop  offset="0" style="stop-color:#FFCD00"/>
					<stop  offset="1" style="stop-color:#E87123"/>
				</linearGradient>
				<path class="st21" d="M257.6,198.6c20.6-15.6,20.6-41,0-56.6l-42.1-31.9l-91.3,69.3c-22.3,16.9-22.3,44.3,0,61.2l37.3,28.2
					c4.7-1.8,9.2-4.3,13.2-7.3L257.6,198.6z"/>
				<path class="st4" d="M141.9,115l40-30.3l-7.2-5.5c-20.6-15.6-54-15.6-74.6,0l-29,22L89.2,115C103.7,126.1,127.4,126.1,141.9,115
					z"/>
				
					<linearGradient id="SVGID_21_" gradientUnits="userSpaceOnUse" x1="387.7538" y1="-432.1897" x2="523.1139" y2="-579.3998" gradientTransform="matrix(-1.06 0 0 0.8 520.64 424.8499)">
					<stop  offset="0" style="stop-color:#FFCD00"/>
					<stop  offset="1" style="stop-color:#E87123"/>
				</linearGradient>
				<path class="st22" d="M141.9,115l40-30.3l-7.2-5.5c-20.6-15.6-54-15.6-74.6,0l-29,22L89.2,115
					C103.7,126.1,127.4,126.1,141.9,115z"/>
				
					<linearGradient id="SVGID_22_" gradientUnits="userSpaceOnUse" x1="489.3973" y1="-299.868" x2="204.1672" y2="-578.6381" gradientTransform="matrix(-1.06 0 0 0.8 520.64 424.8499)">
					<stop  offset="0" style="stop-color:#FFCD00"/>
					<stop  offset="1" style="stop-color:#E87123"/>
				</linearGradient>
				<path class="st23" d="M141.9,115l40-30.3l-7.2-5.5c-20.6-15.6-54-15.6-74.6,0l-29,22L89.2,115
					C103.7,126.1,127.4,126.1,141.9,115z"/>
				<path class="st4" d="M109.3,302.1L75,265.9c-7.9-8.5-21.1-9.1-29.7-1.2c-0.4,0.4-0.8,0.8-1.2,1.2L9.9,302.2
					c-8.5,9.2-8.5,23.4,0,32.6l5.4,5.7h88.6l5.4-5.7C117.9,325.6,117.9,311.4,109.3,302.1z"/>
				
					<linearGradient id="SVGID_23_" gradientUnits="userSpaceOnUse" x1="490.674" y1="-91.4788" x2="326.084" y2="-252.3388" gradientTransform="matrix(-0.77 0 0 0.8 403.41 424.91)">
					<stop  offset="0" style="stop-color:#FFCD00"/>
					<stop  offset="1" style="stop-color:#E87123"/>
				</linearGradient>
				<path class="st24" d="M109.2,302.1l-34.9-36.2c-8.2-8.7-21.8-9-30.5-0.9c-0.3,0.3-0.6,0.6-0.9,0.9L8.2,302.2
					c-8.7,9.2-8.7,23.5,0,32.6l5.5,5.7h90l5.5-5.7C117.9,325.7,117.9,311.3,109.2,302.1z"/>
			</g>
			<g class="st25">
				
					<linearGradient id="SVGID_24_" gradientUnits="userSpaceOnUse" x1="27.08" y1="221.665" x2="87.08" y2="221.665" gradientTransform="matrix(1 0 0 -1 0 342)">
					<stop  offset="1.000000e-02" style="stop-color:#EBC17D"/>
					<stop  offset="0.19" style="stop-color:#DFB77C"/>
					<stop  offset="0.19" style="stop-color:#DFB77C"/>
					<stop  offset="0.28" style="stop-color:#E7C696"/>
					<stop  offset="0.38" style="stop-color:#EDD1A9"/>
					<stop  offset="0.48" style="stop-color:#F0D7B4"/>
					<stop  offset="0.6" style="stop-color:#F1D9B8"/>
					<stop  offset="1" style="stop-color:#EABE81"/>
				</linearGradient>
				<path class="st26" d="M34,98.2h46.1c3.8,0,7,3.1,7,7v30.4c0,3.8-3.1,7-7,7H34c-3.8,0-7-3.1-7-7v-30.4
					C27.1,101.3,30.2,98.2,34,98.2z"/>
				<g class="st27">
					<path class="st28" d="M75.5,109.8h11.6v-1.4H72.1V98.2h-1.4v10.2h-6.1c-1.2-2.8-3.8-4.6-6.8-4.9v-5.3h-1.4v5.3
						c-3,0.3-5.6,2.1-6.8,4.9h-7.7V98.2h-1.5v10.2H27.1v1.4h13.3V125H27.1v1.4h13.3v16.1h1.4v-16.1h10c1.3,1.1,2.9,1.7,4.5,1.8v14.2
						h1.5v-10.8h12.9v10.8h1.4v-10.8h14.9v-1.4H75.5V109.8z M41.8,125v-15.2H49c-0.5,2.1-0.2,4.2,0.9,6.1c-1.7,2.9-1.5,6.5,0.6,9.1
						H41.8z M57.1,126.9c-3.8,0-6.8-3.1-6.9-6.8c0-1.2,0.3-2.4,0.9-3.4l0.4-0.7l-0.4-0.7c-1.9-3.3-0.8-7.5,2.5-9.4s7.5-0.8,9.4,2.5
						c1.2,2.1,1.2,4.7,0,6.9l-0.4,0.7l0.4,0.7c1.9,3.3,0.8,7.5-2.5,9.3C59.5,126.6,58.3,126.9,57.1,126.9L57.1,126.9z M74,130.3
						H57.8v-2c4.6-0.4,7.9-4.4,7.5-9c-0.1-1.2-0.5-2.4-1.1-3.4c1.1-1.8,1.4-4,0.9-6.1H74V130.3z"/>
				</g>
			</g>
		</g>
	</g>
</g>
</svg>
