<?xml version="1.0" encoding="utf-8"?>
<!-- Generator: Adobe Illustrator 23.0.2, SVG Export Plug-In . SVG Version: 6.00 Build 0)  -->
<svg version="1.1" id="Layer_1" xmlns="http://www.w3.org/2000/svg" xmlns:xlink="http://www.w3.org/1999/xlink" x="0px" y="0px"
	 viewBox="0 0 553.6 340.5" style="enable-background:new 0 0 553.6 340.5;" xml:space="preserve">
<style type="text/css">
	.st0{clip-path:url(#SVGID_2_);}
	.st1{fill:#1FBCC4;}
	.st2{opacity:0.3;}
	.st3{fill:url(#SVGID_3_);}
	.st4{fill:url(#SVGID_4_);}
	.st5{fill:url(#SVGID_5_);}
	.st6{fill:url(#SVGID_6_);}
	.st7{fill:url(#SVGID_7_);}
	.st8{fill:url(#SVGID_8_);}
	.st9{fill:url(#SVGID_9_);}
	.st10{fill:url(#SVGID_10_);}
	.st11{fill:url(#SVGID_11_);}
	.st12{fill:url(#SVGID_12_);}
	.st13{fill:url(#SVGID_13_);}
	.st14{fill:url(#SVGID_14_);}
	.st15{fill:url(#SVGID_15_);}
	.st16{fill:url(#SVGID_16_);}
	.st17{fill:url(#SVGID_17_);}
	.st18{fill:url(#SVGID_18_);}
	.st19{fill:url(#SVGID_19_);}
	.st20{fill:url(#SVGID_20_);}
	.st21{fill:url(#SVGID_21_);}
	.st22{fill:url(#SVGID_22_);}
	.st23{fill:url(#SVGID_23_);}
	.st24{fill:url(#SVGID_24_);}
	.st25{fill:url(#SVGID_25_);}
	.st26{fill:url(#SVGID_26_);}
	.st27{fill:url(#SVGID_27_);}
	.st28{fill:url(#SVGID_28_);}
	.st29{fill:url(#SVGID_29_);}
	.st30{fill:url(#SVGID_30_);}
	.st31{fill:url(#SVGID_31_);}
	.st32{fill:url(#SVGID_32_);}
	.st33{fill:url(#SVGID_33_);}
	.st34{fill:url(#SVGID_34_);}
	.st35{fill:url(#SVGID_35_);}
	.st36{fill:url(#SVGID_36_);}
	.st37{fill:#FFF4C1;}
	.st38{fill:#FCE575;}
	.st39{fill:#E58D23;}
	.st40{fill:#BF6C0D;}
	.st41{fill:#FFDF74;}
	.st42{fill:#FFA730;}
	.st43{fill:#A56021;}
	.st44{fill:#F9BB32;}
	.st45{fill:#DB9C2E;}
	.st46{fill:#FFD551;}
</style>
<title>credit-2_1</title>
<g>
	<defs>
		<path id="SVGID_1_" d="M9.8,0.1h534c5.2,0,9.3,4.2,9.3,9.4v321.6c0,5.2-4.2,9.4-9.3,9.4H9.8c-5.2,0-9.3-4.2-9.3-9.4V9.5
			C0.4,4.3,4.6,0.1,9.8,0.1z"/>
	</defs>
	<clipPath id="SVGID_2_">
		<use xlink:href="#SVGID_1_"  style="overflow:visible;"/>
	</clipPath>
	<g class="st0">
		<rect x="0.4" y="0.1" class="st1" width="552.7" height="340.3"/>
	</g>
</g>
<g class="st2">
	
		<linearGradient id="SVGID_3_" gradientUnits="userSpaceOnUse" x1="180.2081" y1="286.86" x2="293.7982" y2="286.86" gradientTransform="matrix(1 0 0 -1 0 342)">
		<stop  offset="0" style="stop-color:#18B5B1"/>
		<stop  offset="1" style="stop-color:#157D82"/>
	</linearGradient>
	<path class="st3" d="M214.9,58.3l-34.7,26.4l33.6,25.4l80-60.7L228.6,0.2h-37.7l24,18.2C229.5,29.4,229.5,47.3,214.9,58.3z"/>
	
		<linearGradient id="SVGID_4_" gradientUnits="userSpaceOnUse" x1="137.6781" y1="23.655" x2="254.4781" y2="23.655" gradientTransform="matrix(1 0 0 -1 0 342)">
		<stop  offset="0" style="stop-color:#18B5B1"/>
		<stop  offset="1" style="stop-color:#157D82"/>
	</linearGradient>
	<polygon class="st4" points="137.7,340.5 254.5,340.4 196.1,296.2 	"/>
	
		<linearGradient id="SVGID_5_" gradientUnits="userSpaceOnUse" x1="137.6781" y1="23.655" x2="254.4781" y2="23.655" gradientTransform="matrix(1 0 0 -1 0 342)">
		<stop  offset="0" style="stop-color:#18B5B1"/>
		<stop  offset="1" style="stop-color:#157D82"/>
	</linearGradient>
	<polygon class="st5" points="137.7,340.5 254.5,340.4 196.1,296.2 	"/>
	
		<linearGradient id="SVGID_6_" gradientUnits="userSpaceOnUse" x1="159.7881" y1="169.17" x2="407.6182" y2="169.17" gradientTransform="matrix(1 0 0 -1 0 342)">
		<stop  offset="0" style="stop-color:#18B5B1"/>
		<stop  offset="1" style="stop-color:#157D82"/>
	</linearGradient>
	<path class="st6" d="M293.8,49.5l-80,60.7l42.1,31.9c20.6,15.6,20.6,40.9,0,56.6L173,261.5c-4.1,3-8.5,5.5-13.2,7.3l36.2,27.4
		l211.6-160.5L293.8,49.5z"/>
	
		<linearGradient id="SVGID_7_" gradientUnits="userSpaceOnUse" x1="159.7881" y1="169.17" x2="407.6182" y2="169.17" gradientTransform="matrix(1 0 0 -1 0 342)">
		<stop  offset="0" style="stop-color:#18B5B1"/>
		<stop  offset="1" style="stop-color:#157D82"/>
	</linearGradient>
	<path class="st7" d="M293.8,49.5l-80,60.7l42.1,31.9c20.6,15.6,20.6,40.9,0,56.6L173,261.5c-4.1,3-8.5,5.5-13.2,7.3l36.2,27.4
		l211.6-160.5L293.8,49.5z"/>
	
		<linearGradient id="SVGID_8_" gradientUnits="userSpaceOnUse" x1="508.3181" y1="222.105" x2="553.5181" y2="222.105" gradientTransform="matrix(1 0 0 -1 0 342)">
		<stop  offset="0" style="stop-color:#18B5B1"/>
		<stop  offset="1" style="stop-color:#157D82"/>
	</linearGradient>
	<path class="st8" d="M508.7,120.2l44.8,34V85.7l-45.2,34.3L508.7,120.2z"/>
	
		<linearGradient id="SVGID_9_" gradientUnits="userSpaceOnUse" x1="508.3181" y1="222.105" x2="553.5181" y2="222.105" gradientTransform="matrix(1 0 0 -1 0 342)">
		<stop  offset="0" style="stop-color:#18B5B1"/>
		<stop  offset="1" style="stop-color:#157D82"/>
	</linearGradient>
	<path class="st9" d="M508.7,120.2l44.8,34V85.7l-45.2,34.3L508.7,120.2z"/>
	
		<linearGradient id="SVGID_10_" gradientUnits="userSpaceOnUse" x1="196.0181" y1="111.82" x2="553.5681" y2="111.82" gradientTransform="matrix(1 0 0 -1 0 342)">
		<stop  offset="0" style="stop-color:#18B5B1"/>
		<stop  offset="1" style="stop-color:#157D82"/>
	</linearGradient>
	<path class="st10" d="M508.3,119.9l-35.8,27.2c-13.7,10.4-36,10.4-49.8,0l-15.1-11.4L196,296.2l58.4,44.2l299.1-0.1l-0.1-186.2
		l-44.8-33.9L508.3,119.9z"/>
	
		<linearGradient id="SVGID_11_" gradientUnits="userSpaceOnUse" x1="196.0181" y1="111.82" x2="553.5681" y2="111.82" gradientTransform="matrix(1 0 0 -1 0 342)">
		<stop  offset="0" style="stop-color:#18B5B1"/>
		<stop  offset="1" style="stop-color:#157D82"/>
	</linearGradient>
	<path class="st11" d="M508.3,119.9l-35.8,27.2c-13.7,10.4-36,10.4-49.8,0l-15.1-11.4L196,296.2l58.4,44.2l299.1-0.1l-0.1-186.2
		l-44.8-33.9L508.3,119.9z"/>
	
		<linearGradient id="SVGID_12_" gradientUnits="userSpaceOnUse" x1="196.0181" y1="111.82" x2="553.5681" y2="111.82" gradientTransform="matrix(1 0 0 -1 0 342)">
		<stop  offset="0" style="stop-color:#18B5B1"/>
		<stop  offset="1" style="stop-color:#157D82"/>
	</linearGradient>
	<path class="st12" d="M508.3,119.9l-35.8,27.2c-13.7,10.4-36,10.4-49.8,0l-15.1-11.4L196,296.2l58.4,44.2l299.1-0.1l-0.1-186.2
		l-44.8-33.9L508.3,119.9z"/>
	
		<linearGradient id="SVGID_13_" gradientUnits="userSpaceOnUse" x1="228.6481" y1="317.225" x2="358.8082" y2="317.225" gradientTransform="matrix(1 0 0 -1 0 342)">
		<stop  offset="0" style="stop-color:#18B5B1"/>
		<stop  offset="1" style="stop-color:#157D82"/>
	</linearGradient>
	<polygon class="st13" points="358.8,0.1 228.6,0.2 293.8,49.5 	"/>
	
		<linearGradient id="SVGID_14_" gradientUnits="userSpaceOnUse" x1="228.6481" y1="317.225" x2="358.8082" y2="317.225" gradientTransform="matrix(1 0 0 -1 0 342)">
		<stop  offset="0" style="stop-color:#18B5B1"/>
		<stop  offset="1" style="stop-color:#157D82"/>
	</linearGradient>
	<polygon class="st14" points="358.8,0.1 228.6,0.2 293.8,49.5 	"/>
	
		<linearGradient id="SVGID_15_" gradientUnits="userSpaceOnUse" x1="293.7581" y1="274.16" x2="553.4981" y2="274.16" gradientTransform="matrix(1 0 0 -1 0 342)">
		<stop  offset="0" style="stop-color:#18B5B1"/>
		<stop  offset="1" style="stop-color:#157D82"/>
	</linearGradient>
	<path class="st15" d="M407.6,135.7l20.4-15.5c22.1-16.8,58-16.9,80.3-0.3l45.2-34.3V0L358.8,0.1l-65.1,49.4L407.6,135.7z"/>
	
		<linearGradient id="SVGID_16_" gradientUnits="userSpaceOnUse" x1="293.7581" y1="274.16" x2="553.4981" y2="274.16" gradientTransform="matrix(1 0 0 -1 0 342)">
		<stop  offset="0" style="stop-color:#18B5B1"/>
		<stop  offset="1" style="stop-color:#157D82"/>
	</linearGradient>
	<path class="st16" d="M407.6,135.7l20.4-15.5c22.1-16.8,58-16.9,80.3-0.3l45.2-34.3V0L358.8,0.1l-65.1,49.4L407.6,135.7z"/>
	
		<linearGradient id="SVGID_17_" gradientUnits="userSpaceOnUse" x1="293.7581" y1="274.16" x2="553.4981" y2="274.16" gradientTransform="matrix(1 0 0 -1 0 342)">
		<stop  offset="0" style="stop-color:#18B5B1"/>
		<stop  offset="1" style="stop-color:#157D82"/>
	</linearGradient>
	<path class="st17" d="M407.6,135.7l20.4-15.5c22.1-16.8,58-16.9,80.3-0.3l45.2-34.3V0L358.8,0.1l-65.1,49.4L407.6,135.7z"/>
	
		<linearGradient id="SVGID_18_" gradientUnits="userSpaceOnUse" x1="407.6182" y1="210.7715" x2="508.3181" y2="210.7715" gradientTransform="matrix(1 0 0 -1 0 342)">
		<stop  offset="0" style="stop-color:#18B5B1"/>
		<stop  offset="1" style="stop-color:#157D82"/>
	</linearGradient>
	<path class="st18" d="M472.5,147.1l35.8-27.2c-22.3-16.6-58.2-16.5-80.3,0.3l-20.4,15.5l15.1,11.4
		C436.5,157.5,458.8,157.5,472.5,147.1z"/>
	
		<linearGradient id="SVGID_19_" gradientUnits="userSpaceOnUse" x1="407.6182" y1="210.7715" x2="508.3181" y2="210.7715" gradientTransform="matrix(1 0 0 -1 0 342)">
		<stop  offset="0" style="stop-color:#18B5B1"/>
		<stop  offset="1" style="stop-color:#157D82"/>
	</linearGradient>
	<path class="st19" d="M472.5,147.1l35.8-27.2c-22.3-16.6-58.2-16.5-80.3,0.3l-20.4,15.5l15.1,11.4
		C436.5,157.5,458.8,157.5,472.5,147.1z"/>
	
		<linearGradient id="SVGID_20_" gradientUnits="userSpaceOnUse" x1="407.6182" y1="210.7715" x2="508.3181" y2="210.7715" gradientTransform="matrix(1 0 0 -1 0 342)">
		<stop  offset="0" style="stop-color:#18B5B1"/>
		<stop  offset="1" style="stop-color:#157D82"/>
	</linearGradient>
	<path class="st20" d="M472.5,147.1l35.8-27.2c-22.3-16.6-58.2-16.5-80.3,0.3l-20.4,15.5l15.1,11.4
		C436.5,157.5,458.8,157.5,472.5,147.1z"/>
	
		<linearGradient id="SVGID_21_" gradientUnits="userSpaceOnUse" x1="407.6182" y1="210.7715" x2="508.3181" y2="210.7715" gradientTransform="matrix(1 0 0 -1 0 342)">
		<stop  offset="0" style="stop-color:#18B5B1"/>
		<stop  offset="1" style="stop-color:#157D82"/>
	</linearGradient>
	<path class="st21" d="M472.5,147.1l35.8-27.2c-22.3-16.6-58.2-16.5-80.3,0.3l-20.4,15.5l15.1,11.4
		C436.5,157.5,458.8,157.5,472.5,147.1z"/>
	
		<linearGradient id="SVGID_22_" gradientUnits="userSpaceOnUse" x1="35.3181" y1="291.275" x2="225.8444" y2="291.275" gradientTransform="matrix(1 0 0 -1 0 342)">
		<stop  offset="0" style="stop-color:#18B5B1"/>
		<stop  offset="1" style="stop-color:#157D82"/>
	</linearGradient>
	<path class="st22" d="M98.3,27.7l-63,47.8l34,25.7l29-22c20.6-15.6,54-15.7,74.6,0l7.2,5.5l34.7-26.4c14.6-11,14.6-29,0-40
		l-24-18.2H110C112.1,9.9,108.2,20.2,98.3,27.7z"/>
	
		<linearGradient id="SVGID_23_" gradientUnits="userSpaceOnUse" x1="35.3181" y1="291.275" x2="225.8444" y2="291.275" gradientTransform="matrix(1 0 0 -1 0 342)">
		<stop  offset="0" style="stop-color:#18B5B1"/>
		<stop  offset="1" style="stop-color:#157D82"/>
	</linearGradient>
	<path class="st23" d="M98.3,27.7l-63,47.8l34,25.7l29-22c20.6-15.6,54-15.7,74.6,0l7.2,5.5l34.7-26.4c14.6-11,14.6-29,0-40
		l-24-18.2H110C112.1,9.9,108.2,20.2,98.3,27.7z"/>
	
		<linearGradient id="SVGID_24_" gradientUnits="userSpaceOnUse" x1="1.7931" y1="304.11" x2="110.5579" y2="304.11" gradientTransform="matrix(1 0 0 -1 0 342)">
		<stop  offset="0" style="stop-color:#18B5B1"/>
		<stop  offset="1" style="stop-color:#157D82"/>
	</linearGradient>
	<path class="st24" d="M12.7,58.4l22.6,17.1l63-47.8c9.9-7.5,13.8-17.8,11.7-27.5l-73.3,0l-24,18.2C-1.9,29.5-1.8,47.4,12.7,58.4z"
		/>
	
		<linearGradient id="SVGID_25_" gradientUnits="userSpaceOnUse" x1="1.7931" y1="304.11" x2="110.5579" y2="304.11" gradientTransform="matrix(1 0 0 -1 0 342)">
		<stop  offset="0" style="stop-color:#18B5B1"/>
		<stop  offset="1" style="stop-color:#157D82"/>
	</linearGradient>
	<path class="st25" d="M12.7,58.4l22.6,17.1l63-47.8c9.9-7.5,13.8-17.8,11.7-27.5l-73.3,0l-24,18.2C-1.9,29.5-1.8,47.4,12.7,58.4z"
		/>
	
		<linearGradient id="SVGID_26_" gradientUnits="userSpaceOnUse" x1="1.7931" y1="304.11" x2="110.5579" y2="304.11" gradientTransform="matrix(1 0 0 -1 0 342)">
		<stop  offset="0" style="stop-color:#18B5B1"/>
		<stop  offset="1" style="stop-color:#157D82"/>
	</linearGradient>
	<path class="st26" d="M12.7,58.4l22.6,17.1l63-47.8c9.9-7.5,13.8-17.8,11.7-27.5l-73.3,0l-24,18.2C-1.9,29.5-1.8,47.4,12.7,58.4z"
		/>
	
		<linearGradient id="SVGID_27_" gradientUnits="userSpaceOnUse" x1="2.189422e-02" y1="163.0651" x2="213.7981" y2="163.0651" gradientTransform="matrix(1 0 0 -1 0 342)">
		<stop  offset="0" style="stop-color:#18B5B1"/>
		<stop  offset="1" style="stop-color:#157D82"/>
	</linearGradient>
	<path class="st27" d="M122.5,179.4l91.3-69.3l-33.6-25.4l-40,30.3c-14.6,11-38.2,11.1-52.8,0l-18.1-13.7l-53.9,40.8
		c-20.6,15.6-20.6,41,0,56.6l82.9,62.8c16.6,12.6,41.6,15,61.4,7.3l-37.3-28.2C100.3,223.7,100.2,196.3,122.5,179.4z"/>
	
		<linearGradient id="SVGID_28_" gradientUnits="userSpaceOnUse" x1="2.189422e-02" y1="163.0651" x2="213.7981" y2="163.0651" gradientTransform="matrix(1 0 0 -1 0 342)">
		<stop  offset="0" style="stop-color:#18B5B1"/>
		<stop  offset="1" style="stop-color:#157D82"/>
	</linearGradient>
	<path class="st28" d="M122.5,179.4l91.3-69.3l-33.6-25.4l-40,30.3c-14.6,11-38.2,11.1-52.8,0l-18.1-13.7l-53.9,40.8
		c-20.6,15.6-20.6,41,0,56.6l82.9,62.8c16.6,12.6,41.6,15,61.4,7.3l-37.3-28.2C100.3,223.7,100.2,196.3,122.5,179.4z"/>
	
		<linearGradient id="SVGID_29_" gradientUnits="userSpaceOnUse" x1="105.8194" y1="152.555" x2="271.3744" y2="152.555" gradientTransform="matrix(1 0 0 -1 0 342)">
		<stop  offset="0" style="stop-color:#18B5B1"/>
		<stop  offset="1" style="stop-color:#157D82"/>
	</linearGradient>
	<path class="st29" d="M255.9,198.6c20.6-15.6,20.6-41,0-56.6l-42.1-31.9l-91.3,69.3c-22.3,16.9-22.3,44.3,0,61.2l37.3,28.2
		c4.7-1.8,9.2-4.3,13.2-7.3L255.9,198.6z"/>
	
		<linearGradient id="SVGID_30_" gradientUnits="userSpaceOnUse" x1="105.8194" y1="152.555" x2="271.3744" y2="152.555" gradientTransform="matrix(1 0 0 -1 0 342)">
		<stop  offset="0" style="stop-color:#18B5B1"/>
		<stop  offset="1" style="stop-color:#157D82"/>
	</linearGradient>
	<path class="st30" d="M255.9,198.6c20.6-15.6,20.6-41,0-56.6l-42.1-31.9l-91.3,69.3c-22.3,16.9-22.3,44.3,0,61.2l37.3,28.2
		c4.7-1.8,9.2-4.3,13.2-7.3L255.9,198.6z"/>
	
		<linearGradient id="SVGID_31_" gradientUnits="userSpaceOnUse" x1="105.8194" y1="152.555" x2="271.3744" y2="152.555" gradientTransform="matrix(1 0 0 -1 0 342)">
		<stop  offset="0" style="stop-color:#18B5B1"/>
		<stop  offset="1" style="stop-color:#157D82"/>
	</linearGradient>
	<path class="st31" d="M255.9,198.6c20.6-15.6,20.6-41,0-56.6l-42.1-31.9l-91.3,69.3c-22.3,16.9-22.3,44.3,0,61.2l37.3,28.2
		c4.7-1.8,9.2-4.3,13.2-7.3L255.9,198.6z"/>
	
		<linearGradient id="SVGID_32_" gradientUnits="userSpaceOnUse" x1="69.3881" y1="246.6006" x2="180.2381" y2="246.6006" gradientTransform="matrix(1 0 0 -1 0 342)">
		<stop  offset="0" style="stop-color:#18B5B1"/>
		<stop  offset="1" style="stop-color:#157D82"/>
	</linearGradient>
	<path class="st32" d="M140.2,115l40-30.3l-7.2-5.5c-20.6-15.6-54-15.6-74.6,0l-29,22L87.5,115C102.1,126.1,125.7,126.1,140.2,115z"
		/>
	
		<linearGradient id="SVGID_33_" gradientUnits="userSpaceOnUse" x1="69.3881" y1="246.6006" x2="180.2381" y2="246.6006" gradientTransform="matrix(1 0 0 -1 0 342)">
		<stop  offset="0" style="stop-color:#18B5B1"/>
		<stop  offset="1" style="stop-color:#157D82"/>
	</linearGradient>
	<path class="st33" d="M140.2,115l40-30.3l-7.2-5.5c-20.6-15.6-54-15.6-74.6,0l-29,22L87.5,115C102.1,126.1,125.7,126.1,140.2,115z"
		/>
	
		<linearGradient id="SVGID_34_" gradientUnits="userSpaceOnUse" x1="69.3881" y1="246.6006" x2="180.2381" y2="246.6006" gradientTransform="matrix(1 0 0 -1 0 342)">
		<stop  offset="0" style="stop-color:#18B5B1"/>
		<stop  offset="1" style="stop-color:#157D82"/>
	</linearGradient>
	<path class="st34" d="M140.2,115l40-30.3l-7.2-5.5c-20.6-15.6-54-15.6-74.6,0l-29,22L87.5,115C102.1,126.1,125.7,126.1,140.2,115z"
		/>
	
		<linearGradient id="SVGID_35_" gradientUnits="userSpaceOnUse" x1="1.7852" y1="42.1579" x2="114.0752" y2="42.1579" gradientTransform="matrix(1 0 0 -1 0 342)">
		<stop  offset="0" style="stop-color:#18B5B1"/>
		<stop  offset="1" style="stop-color:#157D82"/>
	</linearGradient>
	<path class="st35" d="M107.6,302.1l-34.3-36.2c-7.9-8.5-21.1-9.1-29.7-1.2c0,0,0,0,0,0c-0.4,0.4-0.8,0.8-1.2,1.2L8.2,302.2
		c-8.5,9.2-8.5,23.4,0,32.6l5.4,5.7h88.6l5.4-5.7C111.5,327.7,102.3,314.2,107.6,302.1z"/>
	
		<linearGradient id="SVGID_36_" gradientUnits="userSpaceOnUse" x1="2.270561e-02" y1="42.1544" x2="114.0437" y2="42.1544" gradientTransform="matrix(1 0 0 -1 0 342)">
		<stop  offset="0" style="stop-color:#18B5B1"/>
		<stop  offset="1" style="stop-color:#157D82"/>
	</linearGradient>
	<path class="st36" d="M107.5,302.1l-34.8-36.2c-8.2-8.7-21.8-9-30.5-0.9c-0.3,0.3-0.6,0.6-0.9,0.9L6.5,302.2
		c-8.7,9.2-8.7,23.5,0,32.6l5.5,5.7h90l5.5-5.7C116.2,325.7,116.2,311.3,107.5,302.1z"/>
</g>
<g>
	<path class="st37" d="M38.4,116.4h4.8v24.1h-4.8V116.4z"/>
	<path class="st37" d="M68.6,116.4h4.8v24.1h-4.8V116.4z"/>
	<path class="st37" d="M53.6,116.4h4.8v24.1h-4.8V116.4z"/>
	<path class="st38" d="M38.4,116.4h2.4v24.1h-2.4V116.4z"/>
	<path class="st38" d="M68.6,116.4H71v24.1h-2.4V116.4z"/>
	<path class="st38" d="M53.6,116.4H56v24.1h-2.4V116.4z"/>
	<path class="st39" d="M76.6,116.4H35.3c-0.2,0-0.4-0.2-0.4-0.4v-3.2H77v3.2C77,116.2,76.8,116.4,76.6,116.4z"/>
	<path class="st40" d="M78.8,112.8H33.5c-0.4,0-0.6-0.5-0.2-0.7L55.7,98c0.3-0.2,0.6-0.2,0.9,0L79,112
		C79.4,112.2,79.2,112.8,78.8,112.8z"/>
	<path class="st37" d="M74.4,112.7H37.9l17.8-11.2c0.3-0.2,0.6-0.2,0.9,0L74.4,112.7z"/>
	<g>
		<path class="st41" d="M44.6,119.4h-7.2c-0.4,0-0.8-0.4-0.8-0.8v-2.2h8.8v2.2C45.4,119,45,119.4,44.6,119.4z"/>
		<path class="st41" d="M45.4,140.4h-8.8v-2.2c0-0.4,0.4-0.8,0.8-0.8h7.2c0.4,0,0.8,0.4,0.8,0.8V140.4z"/>
		<path class="st41" d="M74.6,119.4h-7.2c-0.4,0-0.8-0.4-0.8-0.8v-2.2h8.8v2.2C75.4,119,75.1,119.4,74.6,119.4z"/>
		<path class="st41" d="M75.4,140.4h-8.8v-2.2c0-0.4,0.4-0.8,0.8-0.8h7.2c0.4,0,0.8,0.4,0.8,0.8V140.4z"/>
		<path class="st41" d="M59.6,119.4h-7.2c-0.4,0-0.8-0.4-0.8-0.8v-2.2h8.8v2.2C60.4,119,60.1,119.4,59.6,119.4z"/>
		<path class="st41" d="M60.4,140.4h-8.8v-2.2c0-0.4,0.4-0.8,0.8-0.8h7.2c0.4,0,0.8,0.4,0.8,0.8V140.4z"/>
	</g>
	<path class="st42" d="M76.8,142.8H34.7v-2c0-0.2,0.2-0.4,0.4-0.4h41.3c0.2,0,0.4,0.2,0.4,0.4V142.8z"/>
	<path class="st40" d="M79,112L56.6,98c-0.3-0.2-0.6-0.2-0.9,0L33.3,112c-0.3,0.2-0.2,0.7,0.2,0.7h45.3
		C79.2,112.8,79.4,112.2,79,112z M37.9,112.7l17.8-11.2c0.3-0.2,0.6-0.2,0.9,0l17.8,11.2H37.9z"/>
	<path class="st43" d="M37.3,112l20.9-13.1l-1.6-1c-0.3-0.2-0.6-0.2-0.9,0L33.3,112c-0.3,0.2-0.2,0.7,0.2,0.7h4
		C37.1,112.8,37,112.2,37.3,112z"/>
	<path class="st38" d="M56.6,101.6c-0.3-0.2-0.6-0.2-0.9,0l-17.8,11.2h4l16.2-10.2L56.6,101.6z"/>
	<path class="st44" d="M58.2,104.8l-1.9,4.2c-0.1,0.2-0.3,0.2-0.4,0l-1.9-4.2c0-0.1-0.1-0.1-0.2-0.1h-1.1c-0.1,0-0.2,0.1-0.2,0.2
		v6.4c0,0.1,0.1,0.2,0.2,0.2h1.1c0.1,0,0.2-0.1,0.2-0.2v-2.5c0-0.2,0.3-0.3,0.4-0.1l1.2,2.7c0,0.1,0.1,0.1,0.2,0.1h0.7
		c0.1,0,0.2,0,0.2-0.1l1.2-2.7c0.1-0.2,0.4-0.1,0.4,0.1v2.5c0,0.1,0.1,0.2,0.2,0.2h1.1c0.1,0,0.2-0.1,0.2-0.2v-6.4
		c0-0.1-0.1-0.2-0.2-0.2h-1.1C58.4,104.7,58.3,104.7,58.2,104.8z"/>
	<path class="st45" d="M54.2,105.1l-0.1-0.2c0-0.1-0.1-0.1-0.2-0.1h-1.1c-0.1,0-0.2,0.1-0.2,0.2v1.2L54.2,105.1z"/>
	<path class="st40" d="M40.5,116v-3.2h-5.6v3.2c0,0.2,0.2,0.4,0.4,0.4h5.6C40.7,116.4,40.5,116.2,40.5,116z"/>
	<path class="st46" d="M39,117.6h6.4v-1.2h-8.8v2.2c0,0.4,0.4,0.8,0.8,0.8H39V117.6z"/>
	<path class="st46" d="M69,117.6h6.4v-1.2h-8.8v2.2c0,0.4,0.4,0.8,0.8,0.8H69V117.6z"/>
	<path class="st46" d="M54,117.6h6.4v-1.2h-8.8v2.2c0,0.4,0.4,0.8,0.8,0.8H54V117.6z"/>
	<path class="st46" d="M39.8,137.4h-2.4c-0.4,0-0.8,0.4-0.8,0.8v2.2H39v-2.2C39,137.8,39.3,137.4,39.8,137.4z"/>
	<path class="st46" d="M69.8,137.4h-2.4c-0.4,0-0.8,0.4-0.8,0.8v2.2H69v-2.2C69,137.8,69.4,137.4,69.8,137.4z"/>
	<path class="st46" d="M54.8,137.4h-2.4c-0.4,0-0.8,0.4-0.8,0.8v2.2H54v-2.2C54,137.8,54.4,137.4,54.8,137.4z"/>
	<path class="st39" d="M40.7,140.4h-5.6c-0.2,0-0.4,0.2-0.4,0.4v2h5.6v-2C40.3,140.6,40.4,140.4,40.7,140.4z"/>
	<path class="st38" d="M52,110.3c0,1-0.8,1.8-1.8,1.8s-1.8-0.8-1.8-1.8s0.8-1.8,1.8-1.8S52,109.3,52,110.3z"/>
	<path class="st42" d="M75.4,115.4h-8.8c-0.3,0-0.6-0.3-0.6-0.6c0-0.3,0.3-0.6,0.6-0.6h8.8c0.3,0,0.6,0.3,0.6,0.6
		C76.1,115.1,75.8,115.4,75.4,115.4z"/>
</g>
</svg>
