<svg xmlns="http://www.w3.org/2000/svg" width="49.98" height="50" viewBox="0 0 49.98 50"><g transform="translate(-207.104 -207)"><path d="M246.188,221.841a14.33,14.33,0,0,0-1.258-3.016l2.993-3.9-4.9-4.846-3.867,3.039a14.3,14.3,0,0,0-3.032-1.224l-.64-4.891-6.894.039-.585,4.9a14.281,14.281,0,0,0-3.016,1.259l-3.9-2.994-4.843,4.9,3.039,3.87A14.328,14.328,0,0,0,218.061,222l-4.891.64.02,3.447,3.447-.02,6.032-.034,1.723-.01,15.512-.086,7.755-.045,3.447-.019-.02-3.447Z" fill="#237146"/><path d="M207.1,225.978h49.98v24.128H207.1Z" fill="#28c76f"/><path d="M232.094,218.222a7.755,7.755,0,0,0-7.756,7.756h15.511A7.755,7.755,0,0,0,232.094,218.222Z" fill="#6bdb9d"/><path d="M238.988,238.042a6.894,6.894,0,1,1-6.894-6.894A6.895,6.895,0,0,1,238.988,238.042Z" fill="#6bdb9d"/><path d="M257.084,235.457v-9.479H247.6a9.473,9.473,0,0,0,9.479,9.479Z" fill="#239a58"/><path d="M247.6,250.106h9.479v-9.479a9.473,9.473,0,0,0-9.479,9.479Z" fill="#239a58"/><path d="M216.583,225.978H207.1v9.479a9.474,9.474,0,0,0,9.479-9.479Z" fill="#239a58"/><path d="M207.1,240.627v9.479h9.479a9.474,9.474,0,0,0-9.479-9.479Z" fill="#239a58"/><path d="M257.084,250.106H207.1v3.447h49.98Z" fill="#26c66d"/><path d="M207.1,253.553h49.98V257H207.1Z" fill="#239a58"/><path d="M232.955,237.18h-1.723a.861.861,0,1,1,0-1.723h1.723a.861.861,0,0,1,.862.861h1.724a2.586,2.586,0,0,0-2.586-2.585v-.862h-1.723v.862a2.586,2.586,0,0,0,0,5.171h1.723a.861.861,0,1,1,0,1.723h-1.723a.862.862,0,0,1-.862-.862h-1.723a2.585,2.585,0,0,0,2.585,2.585v.862h1.723v-.862a2.585,2.585,0,1,0,0-5.17Z" fill="#81fbb8"/></g></svg>