<svg xmlns="http://www.w3.org/2000/svg" width="50.828" height="50" viewBox="0 0 50.828 50"><g transform="translate(-210.086 -210.344)"><path d="M214.362,235.344A21.552,21.552,0,0,0,235.914,256.9v-43.1A21.552,21.552,0,0,0,214.362,235.344Z" fill="#81fbb8"/><path d="M235.914,213.792v43.1a21.552,21.552,0,1,0,0-43.1Z" fill="#81fbb8"/><path d="M235.914,210.344a24.9,24.9,0,0,0-14.069,4.336l-.02.013-4.015-4.349-1.724,12.931,12.069-1.724-3.956-4.286.06-.042A21.552,21.552,0,1,1,235.914,256.9c-.629,0-1.25-.035-1.862-.087l-1.328,3.328a25.767,25.767,0,0,0,3.19.207,25,25,0,0,0,0-50Z" fill="#28c76f"/><path d="M212.215,239.952a24.412,24.412,0,0,1-.4-3.3.863.863,0,0,0-1.724.094,26.09,26.09,0,0,0,.431,3.534.863.863,0,0,0,.845.7.921.921,0,0,0,.165-.015.862.862,0,0,0,.687-1.01Z" fill="#239a58"/><path d="M216.066,249.085a.862.862,0,1,0-1.418.982,25.863,25.863,0,0,0,2.225,2.781.862.862,0,1,0,1.27-1.166A24.237,24.237,0,0,1,216.066,249.085Z" fill="#239a58"/><path d="M210.93,234.111q.036,0,.072,0a.861.861,0,0,0,.862-.791,23.689,23.689,0,0,1,.5-3.288.864.864,0,1,0-1.686-.378,25.77,25.77,0,0,0-.542,3.527.863.863,0,0,0,.792.93Z" fill="#239a58"/><path d="M223.263,255.906a24.194,24.194,0,0,1-2.705-1.936.862.862,0,1,0-1.1,1.329,26.188,26.188,0,0,0,2.9,2.075.862.862,0,1,0,.906-1.465Z" fill="#239a58"/><path d="M212.2,227.35a.848.848,0,0,0,.3.056.861.861,0,0,0,.807-.559,23.616,23.616,0,0,1,.994-2.279.862.862,0,0,0-1.542-.771,25.932,25.932,0,0,0-1.066,2.443A.861.861,0,0,0,212.2,227.35Z" fill="#239a58"/><path d="M213.069,243.165a.863.863,0,0,0-1.632.559,26.069,26.069,0,0,0,1.387,3.284.862.862,0,0,0,1.538-.779A24.087,24.087,0,0,1,213.069,243.165Z" fill="#239a58"/><path d="M229.341,258.576a23.9,23.9,0,0,1-3.131-1.12.862.862,0,0,0-.69,1.579,25.92,25.92,0,0,0,3.357,1.207.882.882,0,0,0,.234.033.862.862,0,0,0,.234-1.693Z" fill="#239a58"/><path d="M215,242.592a.862.862,0,0,0,1.6-.656,19.265,19.265,0,0,1-.995-3.144.863.863,0,0,0-1.685.373A21.186,21.186,0,0,0,215,242.592Z" fill="#239a58"/><path d="M215.154,229.6a.844.844,0,0,0,.259.04.86.86,0,0,0,.822-.6,20.76,20.76,0,0,1,1.236-3.067.863.863,0,0,0-1.541-.776,22.47,22.47,0,0,0-1.339,3.323.862.862,0,0,0,.563,1.083Z" fill="#239a58"/><path d="M215.224,235.52v-.165a22.157,22.157,0,0,1,.259-3.1.862.862,0,1,0-1.7-.258,23.822,23.822,0,0,0-.279,3.332v.229a.844.844,0,0,0,.862.842A.879.879,0,0,0,215.224,235.52Z" fill="#239a58"/><path d="M224.779,252.227a23.946,23.946,0,0,1-2.555-2.127.862.862,0,0,0-1.192,1.244,25.467,25.467,0,0,0,2.741,2.284.862.862,0,0,0,1.006-1.4Z" fill="#239a58"/><path d="M230.655,255.213a19.7,19.7,0,0,1-3.051-1.254.862.862,0,0,0-.784,1.536,21.389,21.389,0,0,0,3.319,1.362.862.862,0,1,0,.517-1.644Z" fill="#239a58"/><path d="M219.842,248.851a.864.864,0,0,0,.138-1.212,24.3,24.3,0,0,1-1.9-2.737.862.862,0,1,0-1.479.882,26.212,26.212,0,0,0,2.028,2.931.862.862,0,0,0,1.212.137Z" fill="#239a58"/><path d="M235.914,218.965a.861.861,0,0,0-.862.862v15.517a.865.865,0,0,0,.252.609l8.621,8.621a.862.862,0,0,0,1.219-1.219l-8.368-8.368v-15.16A.861.861,0,0,0,235.914,218.965Z" fill="#239a58"/></g></svg>