<?xml version="1.0" encoding="utf-8"?>
<!-- Generator: Adobe Illustrator 22.0.0, SVG Export Plug-In . SVG Version: 6.00 Build 0)  -->
<svg version="1.1" id="Layer_1" xmlns="http://www.w3.org/2000/svg" xmlns:xlink="http://www.w3.org/1999/xlink" x="0px" y="0px"
	 viewBox="0 0 1024 1024" style="enable-background:new 0 0 1024 1024;" xml:space="preserve">
<style type="text/css">
	.st0{fill:#FFFFFF;}
</style>
<g>
	<path class="st0" d="M1010.5,320.9c-5.2,23.6-10.6,47.1-15.5,70.8c-21,101.9-41.9,203.9-62.9,305.8c-5.5,26.6-19.5,37.6-47,37.6
		c-180.3,0-360.6,0-540.9-0.1c-6.7,0-13.8-0.5-19.9-2.9c-11.4-4.5-15.6-16.4-12.5-31.4c14.4-70,28.8-139.9,43.2-209.9
		c11.3-54.8,22.6-109.5,33.7-164.3c5.6-27.4,19.2-39,46.8-39c180.6,0,361.2,0.1,541.9-0.2c15.1,0,26.4,3.9,33,18.1
		C1010.5,310.5,1010.5,315.7,1010.5,320.9z M654.4,540c7.6-2.6,14.9-4.4,21.5-7.5c25.8-12.1,51.3-24.5,77-36.9
		c53.9-26,107.7-52,161.6-77.9c13.9-6.7,23.9-16.4,27.1-32c3.4-16.8-8-32-25.1-31.5c-8,0.2-16.5,3-23.9,6.5
		c-71.5,34.1-142.8,68.5-214,103.2c-6.6,3.2-11.2,3.1-17.6-0.8c-56.6-34.4-113.6-68.3-170.3-102.7c-12.1-7.4-24.2-9-36.7-2.4
		c-13.8,7.2-22.6,18.5-23.6,34.3c-0.9,14.3,8.7,21.7,19.8,28.4c61.9,37,123.6,74.4,185.5,111.4C641.3,535.5,647.9,537.3,654.4,540z"
		/>
	<path class="st0" d="M222.7,371.3c-38.5,0-77,0.1-115.6,0c-13.9,0-22.4-5.8-25.6-16.4c-3.9-12.7,3.2-25.3,16.1-28.3
		c4-0.9,8.3-1.4,12.5-1.4c75.4-0.1,150.8-0.1,226.3-0.1c21.2,0,33.3,13.7,27.3,30.7c-3.5,10.2-12.3,15.4-26.4,15.5
		C299.1,371.3,260.9,371.3,222.7,371.3z"/>
	<path class="st0" d="M158.6,579.9c-37.6,0-75.1,0.1-112.7-0.1c-5.4,0-11.2-0.3-16.2-2.1c-8.9-3.1-14.6-13.5-13.7-22.5
		c1.1-10,8.4-18.3,18.1-20.2c3.1-0.6,6.4-0.7,9.7-0.7c76.4,0,152.8,0,229.2-0.1c10.8,0,20,2.4,25.4,12.6
		c7.5,14.3-1.9,31.7-18.5,32.6c-18.7,1-37.5,0.5-56.3,0.5C202,579.9,180.3,579.9,158.6,579.9z"/>
	<path class="st0" d="M239.1,474.3c-23,0-45.9,0.2-68.9-0.1c-18.8-0.3-30-14.6-24.2-30.7c3.8-10.4,12.2-15.1,22.6-15.2
		c46.9-0.3,93.8-0.5,140.6,0.1c15.1,0.2,24.2,10.6,23.6,24c-0.6,12.8-10.2,21.6-24.9,21.8C285,474.5,262,474.3,239.1,474.3z"/>
	<path class="st0" d="M208.5,637.3c12,0,24-0.2,35.9,0.1c14.6,0.4,24.1,9.4,24.2,22.4c0.1,13-9.1,22.6-23.7,22.9
		c-24.6,0.5-49.2,0.6-73.8,0.1c-14.9-0.3-24.7-10.4-24.3-23.4c0.4-13.2,10.3-21.9,25.6-22.1C184.6,637.2,196.6,637.3,208.5,637.3z"
		/>
</g>
</svg>
