<svg xmlns="http://www.w3.org/2000/svg" width="47.555" height="50" viewBox="0 0 47.555 50"><g transform="translate(-232.701 -231)"><path d="M274.269,249.18v4.7l-16.755,13.155a1.678,1.678,0,0,1-2.071,0l-16.755-13.155v-4.7H232.7v30.087A1.733,1.733,0,0,0,234.434,281h44.089a1.733,1.733,0,0,0,1.733-1.733V249.18Z" fill="#239a58"/><path d="M235.635,279.267V249.18H232.7v30.087A1.733,1.733,0,0,0,234.434,281h2.933A1.733,1.733,0,0,1,235.635,279.267Z" fill="#237146"/><path d="M274.269,249.18v-4.7l5.987,4.7Z" fill="#239a58"/><path d="M238.688,249.18H232.7l5.987-4.7Z" fill="#239a58"/><path d="M238.688,244.48l-5.987,4.7h2.934l3.053-2.4Z" fill="#237146"/><path d="M238.688,249.18H232.7l5.987,4.7Z" fill="#28c76f"/><path d="M235.635,249.18H232.7l2.934,2.3Z" fill="#239a58"/><path d="M274.269,249.18v4.7l5.987-4.7Z" fill="#28c76f"/><path d="M257.514,267.036a1.678,1.678,0,0,1-2.071,0l-3.581-2.812L232.7,279.267A1.733,1.733,0,0,0,234.434,281h44.089a1.733,1.733,0,0,0,1.733-1.733L261.1,264.224Z" fill="#28c76f"/><path d="M237.367,281a1.733,1.733,0,0,1-1.732-1.733v-2.3l-2.934,2.3A1.735,1.735,0,0,0,234.434,281Z" fill="#239a58"/><path d="M255.434,267.032a1.69,1.69,0,0,0,2.089,0l16.9-13.271V232.323A1.323,1.323,0,0,0,273.1,231H239.853a1.323,1.323,0,0,0-1.323,1.323v21.438Z" fill="#81fbb8"/><path d="M241.529,232.205a1.5,1.5,0,0,1,.606-1.205h-2.282a1.323,1.323,0,0,0-1.323,1.323v21.438l3,2.354v-23.91Z" fill="#6bdb9d"/><path d="M256.561,241.073a.749.749,0,0,1-.75-.749v-3.035a.749.749,0,0,1,1.5,0v3.035A.749.749,0,0,1,256.561,241.073Z" fill="#237146"/><path d="M261.27,244.812V244.2a4.842,4.842,0,0,0-4.709-4.87,4.792,4.792,0,0,0-4.874,4.791v.692a10.56,10.56,0,0,1-3.067,7.442h15.717A10.562,10.562,0,0,1,261.27,244.812Z" fill="#28c76f"/><path d="M254.686,244.812v-.692a4.791,4.791,0,0,1,3.288-4.549,4.716,4.716,0,0,0-1.413-.242,4.792,4.792,0,0,0-4.874,4.791v.692a10.56,10.56,0,0,1-3.067,7.442h3A10.562,10.562,0,0,0,254.686,244.812Z" fill="#239a58"/><path d="M253.627,255.249a2.934,2.934,0,0,0,5.867,0Z" fill="#28c76f"/><path d="M256.561,255.249h-2.934a2.934,2.934,0,0,0,4.4,2.482A2.931,2.931,0,0,1,256.561,255.249Z" fill="#239a58"/><path d="M264.522,252.054H248.435a1.234,1.234,0,0,0-1.23,1.23v.936a1.233,1.233,0,0,0,1.23,1.229h16.087a1.233,1.233,0,0,0,1.23-1.229v-.936A1.234,1.234,0,0,0,264.522,252.054Z" fill="#28c76f"/><path d="M264.522,253.228H248.435a1.233,1.233,0,0,1-1.046-.587,1.221,1.221,0,0,0-.184.643v.935a1.234,1.234,0,0,0,1.23,1.23h16.087a1.234,1.234,0,0,0,1.23-1.23v-.935a1.221,1.221,0,0,0-.184-.643A1.231,1.231,0,0,1,264.522,253.228Z" fill="#239a58"/></g></svg>