<?xml version="1.0" encoding="iso-8859-1"?>
<!-- Generator: Adobe Illustrator 16.0.0, SVG Export Plug-In . SVG Version: 6.00 Build 0)  -->
<!DOCTYPE svg PUBLIC "-//W3C//DTD SVG 1.1//EN" "http://www.w3.org/Graphics/SVG/1.1/DTD/svg11.dtd">
<svg xmlns="http://www.w3.org/2000/svg" xmlns:xlink="http://www.w3.org/1999/xlink" version="1.1" id="Capa_1" x="0px" y="0px" width="512px" height="512px" viewBox="0 0 173.008 173.008" style="enable-background:new 0 0 173.008 173.008;" xml:space="preserve">
<g>
	<g>
		<path d="M164.994,69.855c-8.993-0.851-63.739-2.824-71.602,0c-7.866,2.815-44.021,32.132-52.892,38.61    c-8.875,6.479,2.577,18.639,13.022,11.574c10.439-7.041,27.004-17.532,34.303-22.276c7.305-4.739,15.671,3.95,9.324,10.15    c-4.701,4.601-32.812,25.101-38.781,25.373c-5.967,0.285-32.812,0-47.735,0c-14.916,0-13.424,18.052,0,18.052    c8.951,0,66.01,3.104,71.599,0c5.593-3.097,47.743-35.523,52.92-36.684c5.188-1.155,17.565,0,29.841,0    C177.26,114.655,173.972,70.698,164.994,69.855z" fill="#FFFFFF"/>
		<path d="M35.642,86.852c13.258,0,24.006-10.736,24.006-24c0-13.262-24.006-42.561-24.006-42.561S11.64,49.59,11.64,62.852    C11.64,76.115,22.387,86.852,35.642,86.852z" fill="#FFFFFF"/>
	</g>
</g>
<g>
</g>
<g>
</g>
<g>
</g>
<g>
</g>
<g>
</g>
<g>
</g>
<g>
</g>
<g>
</g>
<g>
</g>
<g>
</g>
<g>
</g>
<g>
</g>
<g>
</g>
<g>
</g>
<g>
</g>
</svg>
