<?xml version="1.0" encoding="iso-8859-1"?>
<!-- Generator: Adobe Illustrator 16.0.0, SVG Export Plug-In . SVG Version: 6.00 Build 0)  -->
<!DOCTYPE svg PUBLIC "-//W3C//DTD SVG 1.1//EN" "http://www.w3.org/Graphics/SVG/1.1/DTD/svg11.dtd">
<svg xmlns="http://www.w3.org/2000/svg" xmlns:xlink="http://www.w3.org/1999/xlink" version="1.1" id="Capa_1" x="0px" y="0px" width="512px" height="512px" viewBox="0 0 45.861 45.861" style="enable-background:new 0 0 45.861 45.861;" xml:space="preserve">
<g>
	<g>
		<path d="M29.852,24.725l-5.409,13.053V18.276c-0.537,0.073-1.005,0.112-1.511,0.112s-0.974-0.039-1.511-0.112v19.501    l-5.409-13.053c-0.423,0.254-0.868,0.479-1.333,0.672c-0.464,0.191-0.937,0.348-1.417,0.467l7.711,18.609    c0.151,0.363,0.528,1.389,1.96,1.389c1.47,0,1.809-1.024,1.96-1.389l7.711-18.609c-0.48-0.119-0.954-0.275-1.417-0.467    C30.721,25.204,30.276,24.979,29.852,24.725z" fill="#FFFFFF"/>
		<path d="M18.717,17.445c-2.536-1.197-4.485-3.439-5.289-6.167l-0.059,0.142c-0.108,0.263-0.338,0.456-0.616,0.517    c-0.062,0.014-0.125,0.02-0.187,0.02c-0.217,0-0.428-0.081-0.59-0.23L8.562,8.573c-0.164-0.151-0.375-0.23-0.59-0.23    c-0.112,0-0.226,0.021-0.333,0.066c-0.313,0.13-0.522,0.43-0.536,0.769l-0.184,4.643c-0.011,0.284-0.161,0.544-0.4,0.698    c-0.142,0.09-0.305,0.137-0.469,0.137c-0.113,0-0.226-0.022-0.333-0.066L3.79,13.792c-0.107-0.044-0.22-0.066-0.332-0.066    c-0.181,0-0.359,0.057-0.511,0.166c-0.244,0.177-0.379,0.468-0.356,0.77c0.135,1.769,0.479,3.417,0.976,4.615    c1.264,3.05,4.213,4.891,7.321,4.891c1.01,0,2.037-0.195,3.029-0.605C16.571,22.464,18.309,20.089,18.717,17.445z" fill="#FFFFFF"/>
		<path d="M22.932,16.403c0.741,0,1.458-0.102,2.136-0.292c0.017-1.24,0.269-2.479,0.758-3.659c0.573-1.382,1.604-2.975,2.902-4.486    c0.509-0.593,1.233-0.949,2.009-0.991c-0.137-0.973-0.393-2.045-0.75-3.132c-0.094-0.287-0.331-0.504-0.624-0.575    c-0.067-0.016-0.135-0.024-0.202-0.024c-0.228,0-0.45,0.089-0.613,0.254l-1.476,1.475c-0.165,0.165-0.387,0.255-0.615,0.255    c-0.051,0-0.102-0.004-0.152-0.014c-0.28-0.05-0.518-0.233-0.637-0.492L23.72,0.503C23.579,0.197,23.271,0,22.932,0    s-0.647,0.197-0.789,0.505l-1.948,4.219c-0.119,0.258-0.356,0.442-0.637,0.492c-0.051,0.009-0.102,0.014-0.152,0.014    c-0.229,0-0.45-0.09-0.615-0.255L17.315,3.5c-0.165-0.165-0.387-0.254-0.614-0.254c-0.067,0-0.135,0.007-0.203,0.023    c-0.293,0.07-0.53,0.289-0.624,0.575c-0.553,1.686-0.866,3.34-0.866,4.638C15.01,12.856,18.557,16.403,22.932,16.403z" fill="#FFFFFF"/>
		<path d="M42.915,13.892c-0.15-0.109-0.33-0.166-0.511-0.166c-0.113,0-0.225,0.021-0.332,0.066l-1.927,0.798    c-0.106,0.044-0.22,0.066-0.332,0.066c-0.164,0-0.327-0.047-0.469-0.137c-0.239-0.153-0.39-0.414-0.4-0.698L38.76,9.178    c-0.014-0.339-0.224-0.639-0.536-0.769c-0.108-0.045-0.222-0.066-0.333-0.066c-0.214,0-0.426,0.079-0.59,0.23l-3.415,3.152    c-0.162,0.15-0.373,0.23-0.591,0.23c-0.062,0-0.125-0.006-0.187-0.02c-0.278-0.061-0.508-0.254-0.616-0.517l-0.798-1.927    c-0.116-0.279-0.368-0.479-0.666-0.526c-0.046-0.007-0.091-0.011-0.137-0.011c-0.251,0-0.493,0.109-0.66,0.303    c-1.156,1.346-2.078,2.755-2.575,3.953c-1.674,4.042,0.244,8.676,4.286,10.351c0.992,0.412,2.019,0.605,3.029,0.605    c3.107,0,6.057-1.841,7.321-4.891c0.497-1.198,0.842-2.846,0.977-4.615C43.294,14.36,43.16,14.069,42.915,13.892z" fill="#FFFFFF"/>
	</g>
</g>
<g>
</g>
<g>
</g>
<g>
</g>
<g>
</g>
<g>
</g>
<g>
</g>
<g>
</g>
<g>
</g>
<g>
</g>
<g>
</g>
<g>
</g>
<g>
</g>
<g>
</g>
<g>
</g>
<g>
</g>
</svg>
