<svg id="forgot-password" xmlns="http://www.w3.org/2000/svg" xmlns:xlink="http://www.w3.org/1999/xlink" width="647" height="483" viewBox="0 0 647 483">
  <defs>
    <linearGradient id="linear-gradient" x1="0.5" x2="0.5" y2="1" gradientUnits="objectBoundingBox">
      <stop offset="0" stop-color="#3943b7"/>
      <stop offset="1" stop-color="#2b306c"/>
    </linearGradient>
    <linearGradient id="linear-gradient-2" x1="0.5" x2="0.5" y2="1" gradientUnits="objectBoundingBox">
      <stop offset="0" stop-color="#272e7d"/>
      <stop offset="1" stop-color="#3943b7"/>
    </linearGradient>
  </defs>
  <g id="Mobile_Screen1-Copy-18" transform="translate(-53 -226)">
    <g id="_32614" data-name="32614" transform="translate(53 226)">
      <path id="Fill-3" d="M359.16,483c-19.055,0-38.111-.449-57.162-.9l-86.772-2.045L20.874,475.48c-20.593-.487-29.5-10.5-10.131-18.218,7.781-3.1,19.728-3.815,31.359-3.815,9.4,0,18.6.465,25.223.509,47.184.312,90.861.825,133.007,1.337l.592,8.478,11.581-.409,1.426-7.9q15.949.194,31.687.38l.435,4.123,10.618-.915.365-3.076c38.1.434,75.662.787,114.248.9l.325,3.935,13.072-2.677.159-1.228q6.064.008,12.161.009c41.315,0,84.177-.307,130.409-1.11,13.651-.237,32.6-1.08,52.5-1.08,19.951,0,40.856.848,58.324,4,14.682,2.654-.641,17.571-15.574,17.571h-.076c-27.173-.093-56.306-.636-83.075-.636-21.089,0-40.711.337-56.747,1.5-35.723,2.586-71.471,5.173-107.288,5.723q-8.154.125-16.309.12" fill-rule="evenodd" fill="url(#linear-gradient)"/>
      <path id="Fill-4" d="M36.7,442.872l.03,13.328-7.5.018L29.2,441.442l7.5,1.43" fill="#edd3b8" fill-rule="evenodd"/>
      <path id="Fill-5" d="M68.75,441.09l1.6,14.2,8.757-.875-1.776-15.749L68.75,441.09" fill="#edd3b8" fill-rule="evenodd"/>
      <path id="Fill-6" d="M78.861,453.447,71.3,455.1l-2.4,2.116-.15,5.585,19.672,3.572a4.426,4.426,0,0,0-1.584-6.9l-.892-.41-7.085-5.621" fill="#22286c" fill-rule="evenodd"/>
      <path id="Fill-7" d="M36.983,455.312l-7.86-.017-2.753,3.465.549,5.5,20.17,1.2.579-1.254a4.031,4.031,0,0,0-3.3-5.639l-.447-.057-6.934-3.192" fill="#22286c" fill-rule="evenodd"/>
      <path id="Fill-8" d="M8.476,318.883l7.507,66.5,2.984,65.2,25.467.088L54.623,272.438l-41.045.636-5.1,45.808" fill-rule="evenodd" fill="url(#linear-gradient-2)"/>
      <path id="Fill-9" d="M84.822,310.057l5.588,64.956-7.075,75.665-25.016-.731-3.61-73.261-4.235-59.246-4.327-44.16,29.953-.841,8.722,37.619" fill-rule="evenodd" fill="url(#linear-gradient-2)"/>
      <path id="Fill-10" d="M63.23,171.774l-28.7,1.036L19.317,186.282l-9.4,49.727-5.21,42.6,67.083.3,16.735-4.182-5.261-44.65-8.332-42.7-11.7-15.6" fill="#22286c" fill-rule="evenodd"/>
      <path id="Fill-11" d="M37.045,129.117a18.1,18.1,0,0,1,12.62-5.364c16.353-.17,17.935,15.33,15.152,27.47-1.226,5.35-3.8,10.626-8.286,13.928a15.3,15.3,0,0,1-4.047,2.11l0,.007c.269.821.434,10.826,1.157,10.715a22.82,22.82,0,0,1-11.308-1.159c.048-2.987-.423-6.655-.194-9.886a10.71,10.71,0,0,1-1.344-.761c-4.443-3.013-5.985-8.653-6.915-13.855-1.209-6.757-2.088-17.814,3.162-23.205" fill="#eac5b0" fill-rule="evenodd"/>
      <path id="Fill-12" d="M39.944,136.15c-3.046,3.629-3.267,8.8-3.117,13.544.2,6.3.847,12.776,3.72,18.386l-11.71-8.955a13.386,13.386,0,0,1-3.87-3.916,12.956,12.956,0,0,1-1.2-5.428c-.664-9.935-.2-20.758,5.988-28.546a23.056,23.056,0,0,1,16.171-8.551c5.106-.371,26.467,6.182,18.055,14.154-2.425,2.3-8.406,2.658-11.51,3.495-4.431,1.195-9.413,2.1-12.531,5.817" fill="#2731a3" fill-rule="evenodd"/>
      <path id="Fill-13" d="M58.959,134.47a4.217,4.217,0,0,1,1.813.378,3.991,3.991,0,0,1,1.421,1.667,33.271,33.271,0,0,1,.606,30.641c8.144-2.616,14.214-10.251,15.828-18.662s-.929-17.34-5.992-24.243C67.9,117.8,60.259,112.771,52.316,113.7A16.733,16.733,0,0,0,40.5,120.968c-9.968,15.021,8.846,12.946,18.457,13.5" fill="#2731a3" fill-rule="evenodd"/>
      <path id="Fill-14" d="M210.769,464.865l-1.13,5.877-12.18,3.947-4.4-6.841,6.655-4.912,12.18-3.947-1.13,5.876" fill="#22286c" fill-rule="evenodd"/>
      <path id="Fill-15" d="M245.8,459.059l.527,6,12.1,5.009,5.263-6.5-6.316-5.506-11.578.994" fill="#22286c" fill-rule="evenodd"/>
      <path id="Fill-16" d="M193.591,287.214l-5.236,18.768,2.714,8.577-.258-.03L194.062,364l6.875,99.6,11.577-.414,20.8-116.417,1.514,5.388,11.229,107.594,10.615-.924L273.115,318.42V289.946l-79.524-2.732" fill-rule="evenodd" fill="url(#linear-gradient-2)"/>
      <path id="Fill-17" d="M240.162,169.3l-13.574-1.117c-30.332-2.5-32.491,39.224-36.426,59.978-5.7,30.061-8.207,60.861-5.295,91.372,9.539-5.14,22.761-4.07,33.606-4.44,19.975-.681,40.646-1.22,59.9,1.811,3.6.565,2.024-24.992,1.3-29.743q-2.227-14.51-4.452-29.02L267.175,205.7l-.236-1.539a15.342,15.342,0,0,0-1.883-5.349l-12.573-21.751a15.7,15.7,0,0,0-12.321-7.754" fill="#22286c" fill-rule="evenodd"/>
      <path id="Fill-18" d="M241.707,124.848a32.717,32.717,0,0,0-3.672-8.393c-3.147-4.958-8.384-8.941-14.307-9.287-10.9-.636-22.906,6.41-23.587,17.879-.429,7.23-1.214,15,1.085,22.01a19.654,19.654,0,0,0,6.485,9.5c2.238,1.69,6.866,1.991,8.54,3.911,5.483,6.286-2.049,9.564,7.7,13.667a2.914,2.914,0,0,0,3.574-.475l3.59-2.476a1.108,1.108,0,0,0,.369-.349,1.087,1.087,0,0,0,0-.8c-2.6-9.911,8.934-13.222,11.249-22.354a35.974,35.974,0,0,0,.75-14.656,68.578,68.578,0,0,0-1.778-8.182" fill="#eac5b0" fill-rule="evenodd"/>
      <path id="Fill-19" d="M361.84,143.281a52.56,52.56,0,0,0,11.1,8.176,84.359,84.359,0,0,1-8.222-22.256,2.245,2.245,0,0,0-.825-1.566,2.287,2.287,0,0,0-1.7-.051c-10.109,2.482-6.111,10.147-.354,15.7" fill="#2731a3" fill-rule="evenodd"/>
      <path id="Fill-20" d="M390.764,153.619a14.811,14.811,0,0,0,1.571-2.11c6.079-9.887,5.8-46.973-21.375-42.094-24.676,4.43-8.76,32.841,1.621,42.868a18.086,18.086,0,0,0,7.382,4.65c.785.222.55,7.676,1.245,8.8,1.392,2.247,4.682,2.91,7.033,1.863a9.288,9.288,0,0,0,4.466-5.737c.324-1.506-2.512-7.6-1.943-8.24" fill="#eac5b0" fill-rule="evenodd"/>
      <path id="Fill-21" d="M390.876,142.747c2.484,1.3,5.406-.8,7.093-3.008a26.326,26.326,0,0,0-.31-31.589c-5.946-7.469-19.82-8.481-16.742,2.865,1.091,4.023,5.937,7.971,7.479,12.273,2.2,6.148,2.265,13.023,2.48,19.458" fill="#2731a3" fill-rule="evenodd"/>
      <path id="Fill-22" d="M344.647,109.553c-7.5,11.158-5.408,26.156-11.259,38.21A41.043,41.043,0,0,0,361.7,134.051c6.878-7.884,26.445-20.589,17.348-30.96-9.26-10.557-27.837-3.315-34.4,6.462" fill="#2731a3" fill-rule="evenodd"/>
      <path id="Fill-23" d="M396.549,458.989l-2.011,2.355-.876,2.53,6.045,8.722,5.71,2.093,6.4-.524s2.742-.959,1.1-3.052-6.033-3.14-6.033-3.14l.64-7.043-10.971-1.941" fill="#22286c" fill-rule="evenodd"/>
      <path id="Fill-24" d="M373.555,459.353l-.826,4.448-4.5,7.562,2.019,2.4,7.522-.623,4.586-6.316V454.371l-8.623.8-.183,4.182" fill="#22286c" fill-rule="evenodd"/>
      <path id="Fill-25" d="M363.229,283.52l-4.412,24,12.447,153.318,13.029-2.712,21.613-169.47-42.677-5.133" fill-rule="evenodd" fill="url(#linear-gradient-2)"/>
      <path id="Fill-26" d="M431.613,280.668l2.546,98.679L408.575,464.53,393.662,459.1l12.56-75.965L394.691,279.826l36.922.842" fill-rule="evenodd" fill="url(#linear-gradient-2)"/>
      <path id="Fill-27" d="M355.232,182.168c-2.381,5.073-2.822,10.682-3.609,16.795a281.333,281.333,0,0,0-2.19,31.895c-.178,12.379.355,24.751,1.353,37.082.5,6.167,1.115,12.325,1.818,18.473.364,3.185-1.07,11.362,2.449,13.038,1.954.931,4.32.728,6.532.5l58.517-6.018c3.128-.321,6.366-.677,9.073-2.146,4.848-2.633,4.007-7.8,4.773-12.162a90.063,90.063,0,0,0,1.123-17.462c-.248-11.983-2.123-23.848-3-35.786-.948-12.836-3.048-30.051-8.018-42.254a40.345,40.345,0,0,0-9.688-13.875c-5.373-4.916-10.318-6.155-17.555-7.439a1.891,1.891,0,0,1-.852-.3,1.589,1.589,0,0,1-.456-.794q-.692-2.072-1.385-4.144a2.121,2.121,0,0,0-.913-1.352,2.585,2.585,0,0,0-1.685-.008l-14.539,3.238a8.561,8.561,0,0,1,.365,3.3,3.241,3.241,0,0,1-2.016,2.613c-4.958,1.724-10.137,5.552-14.144,9.031a23.16,23.16,0,0,0-5.95,7.77" fill="#22286c" fill-rule="evenodd"/>
      <path id="Fill-28" d="M494.073,147.252a65.235,65.235,0,0,0,4.846-5.984,5.89,5.89,0,0,0,.967-1.606,5.959,5.959,0,0,0,.166-2.259q-.091-1.655-.181-3.308a7.085,7.085,0,0,0-.312-2.034c-.6-1.666-2.317-2.6-3.893-3.381a2.18,2.18,0,0,0-1.018-.311,1.5,1.5,0,0,0-1.261,1.132c-.555,1.839-.383,2.522-1.687,4.245a21.285,21.285,0,0,1-3.733,4.058,4.666,4.666,0,0,1-.344-2.413c-.018-.727-.109-1.585-.735-1.944-.834-.478-1.829.354-2.264,1.217-.873,1.731-.863,3.762-1.264,5.662-.6,2.826-3.45,7.046-1.359,9.376,1.272,1.417,3.389,2.473,4.936,3.6l4.982-4.06a24.046,24.046,0,0,0,2.153-1.991" fill="#fee7de" fill-rule="evenodd"/>
      <path id="Fill-29" d="M404.636,188.951q-3.181-3.166-6.24-6.448c-4.505-4.831-10.624-11.489-7.77-18.232,3.208-7.581,11.439-7.021,17.539-3.986,6.938,3.451,24.235,22.251,31.174,25.7,0,0,25.664-25.618,41.244-40.994,2.248,1.7,7.04,3.477,7.979,6.315,2.2,6.654-12.754,25.008-16.353,30.268a157.406,157.406,0,0,1-30.125,32.831,6.235,6.235,0,0,1-3.2,1.682c-1.485.139-2.846-.753-4.051-1.615a243.069,243.069,0,0,1-30.2-25.523" fill="#22286c" fill-rule="evenodd"/>
      <path id="Fill-30" d="M401.042,435.9l-143.975-.11a5.559,5.559,0,0,1-5.613-5.5l.186-230.857a5.557,5.557,0,0,1,5.62-5.493l143.975.11a5.558,5.558,0,0,1,5.612,5.5l-.185,230.857a5.558,5.558,0,0,1-5.621,5.493" fill="#2731a3" fill-rule="evenodd"/>
      <path id="Fill-31" d="M398.206,412.813l-139.218-.106.166-206.762,139.217.106-.165,206.762" fill="#c7caed" fill-rule="evenodd"/>
      <path id="Fill-32" d="M337.153,426.665l-16.949-.013,0-3.681,16.949.012,0,3.682" fill="#fff" fill-rule="evenodd"/>
      <path id="Fill-34" d="M120.645,109.554l-1.981-90.008a1.3,1.3,0,0,1,1.279-1.324l159.273-3.446a1.3,1.3,0,0,1,1.335,1.268l1.981,90.008a1.3,1.3,0,0,1-1.279,1.324L121.98,110.822a1.3,1.3,0,0,1-1.335-1.268" fill="#2731a3" fill-rule="evenodd"/>
      <path id="Fill-35" d="M143,102.511l-1.734-78.448,131.057-2.822,1.734,78.448L143,102.511" fill="#f7f7f7" fill-rule="evenodd"/>
      <path id="Fill-36" d="M126.633,73.1,126.2,54.491a.825.825,0,0,1,.836-.816l5.389-.11a.832.832,0,0,1,.874.782l.435,18.609a.826.826,0,0,1-.837.816l-5.388.11a.832.832,0,0,1-.874-.782" fill="#fff" fill-rule="evenodd"/>
      <path id="Fill-37" d="M525.359,134.465,449.25,146.822a1.305,1.305,0,0,1-1.5-1.062L425.7,13.855a1.29,1.29,0,0,1,1.077-1.48L502.886.017a1.3,1.3,0,0,1,1.5,1.062l22.048,131.905a1.291,1.291,0,0,1-1.077,1.48" fill="#22286c" fill-rule="evenodd"/>
      <path id="Fill-38" d="M517.977,116.543l-67.391,10.9L432.275,18.291l67.391-10.9,18.31,109.155" fill="#fff" fill-rule="evenodd"/>
      <path id="Fill-39" d="M493.757,134.075l-15.612,2.6a.808.808,0,0,1-.927-.671l-.668-4.089a.814.814,0,0,1,.665-.936l15.613-2.594a.807.807,0,0,1,.927.671l.667,4.089a.812.812,0,0,1-.664.935" fill="#fff" fill-rule="evenodd"/>
      <path id="Fill-40" d="M153.146,365.713H54.987a1.3,1.3,0,0,1-1.306-1.291V194.307a1.3,1.3,0,0,1,1.306-1.291h98.158a1.3,1.3,0,0,1,1.305,1.291V364.423a1.3,1.3,0,0,1-1.305,1.291" fill="#2731a3" fill-rule="evenodd"/>
      <path id="Fill-41" d="M61.215,341.7h85.7V202.25h-85.7Z" fill="#fff" fill-rule="evenodd"/>
      <path id="Fill-42" d="M114.069,358.325H93.121a.825.825,0,0,1-.827-.824v-5.74a.825.825,0,0,1,.827-.824h20.948a.825.825,0,0,1,.827.824v5.74a.825.825,0,0,1-.827.824" fill="#fff" fill-rule="evenodd"/>
      <path id="Fill-43" d="M78.817,280.412a2.573,2.573,0,0,0,.828.265c2.774.358,6.308-.681,9-1.327,2.081-.5,2.35-3.372,2.635-5.122a2.057,2.057,0,0,0-.137-1.5,1.471,1.471,0,0,0-.7-.495c-1.539-.6-3.049.279-4.6.233a2.335,2.335,0,0,1-1.986-.762c-.981-1.514,1.184-1.554,2.074-1.9.029-2.519-1.953-2.019-3.662-1.772a43.764,43.764,0,0,0-6.252,1.373c-1.593.473-2.4.518-2.688,2.282a37.009,37.009,0,0,0-.788,4.538c1.454.944,2.908,1.887,4.354,2.843a20.341,20.341,0,0,0,1.923,1.344" fill="#eac5b0" fill-rule="evenodd"/>
      <path id="Fill-44" d="M43.547,194a9.483,9.483,0,0,1-.324,3.586q-2.068,9.3-3.739,18.677c-1.024,5.726-3.807,13.886-2.971,19.647.709,4.882,7.331,9.654,10.963,13.256a103.1,103.1,0,0,0,13.988,12.026c1.978,1.359,14.387,6.321,13.862,8.989-.705,3.222-1.41,6.44-2.2,9.645.093-.379-17.685-7.262-19.084-7.847-11.311-4.734-21-11.263-30.62-18.926a19.349,19.349,0,0,1-4.9-5.042,19.864,19.864,0,0,1-1.939-5.711c-2.369-10.331-1.547-20.941-.369-31.367.557-4.937.312-10.972,1.727-15.713,1.314-4.4,5.495-8.844,8.521-12.274a5.707,5.707,0,0,1,2.045-1.668c4.68-1.859,10.4,6.441,12.849,9.109a8.273,8.273,0,0,1,2.079,3.14,4.288,4.288,0,0,1,.106.472" fill="#22286c" fill-rule="evenodd"/>
      <path id="Fill-45" d="M240.434,136.259c-1.47,1.8-8.412,1.056-10.815,1.185-2.7.146-3.955.017-4.393-3.1a15.3,15.3,0,0,1-.036-2.408,1.271,1.271,0,0,0,.214-.038,51.463,51.463,0,0,1,11.246-1.987q1.3-.069,2.608-.067,2.468-.209,1.753,2.349C241.088,133.613,241.357,135.13,240.434,136.259Zm-25.479-1.848c-.236,1.812-.493,1.93-2.249,2.067-1.352.1-2.7.218-4.053.366-2.469.271-4.922.65-7.366,1.094.007-1.561-1.013-5.447.206-6.711,1.127-1.169,5.454-.508,7.03-.459C211.278,130.855,215.474,130.418,214.955,134.411Zm31.446-6.526a11.159,11.159,0,0,0-2.514,2c-.2.194-.416.393-.628.6a3.957,3.957,0,0,0-1.163-2.4c-1.59-1.163-5.146-.417-6.925-.281a51.172,51.172,0,0,0-10.249,1.882,1.1,1.1,0,0,0-.727.617.564.564,0,0,0-.2.251,13.548,13.548,0,0,0-.766,4.109l-.026-.007c-1.452-.112-2.93-.049-4.386-.017-.514.011-1.062-.024-1.584.024.005-.364,0-.742-.011-1.134-.058-2.281.035-4.051-2.449-4.612-4.629-1.045-10.038-.633-14.731-.278a1.284,1.284,0,0,0-.767,2.224c-1.08,2.42-.3,5.769-.184,8.346a1.123,1.123,0,0,0,1.343,1.14c4.638-.874,9.441-.867,14.039-1.741a2.871,2.871,0,0,0,2.576-2.228,15.809,15.809,0,0,0,1.669.075c1.454.057,2.929.144,4.383.057a1,1,0,0,0,.181-.045,8.957,8.957,0,0,0,.294,1.582c.509,1.72,1.574,1.536,3.207,1.528,3.625-.018,7.266-.229,10.887-.4,1.679-.078,3.729.07,4.867-1.442.645-.857,1-3.019.945-5.107.553-.467,1.068-.984,1.612-1.453a23.282,23.282,0,0,0,2.414-2.111c.577-.659-.4-1.538-1.111-1.185Z" fill="#2731a3" fill-rule="evenodd"/>
      <path id="Fill-46" d="M151.773,112.144l-7.648,1.449-3.8-12.71,5.873-5.761,6.76,1.818-1.867,6.036,1.434-.272,1.161-1.769,1.707,1.226-3.62,9.983" fill="#eac5b0" fill-rule="evenodd"/>
      <path id="Fill-47" d="M210.334,193.332c3.284-11.266,5.5-21.855,5.323-21.849-8.132.266-16.268.541-24.406.549-5.153.005-12.458,2.411-15.725-1.452-4.16-4.919-5.783-16.307-7.947-22.426q-3.618-10.233-7.236-20.467c-1.426-4.033-3.884-16.657-7.629-17.768-.793-.235-10.487,1.669-10.505,1.493q1.46,15.7,2.919,31.4,1.091,11.736,2.182,23.471c1.279,13.749,5.235,18.906,15.7,27.918,10.369,8.931,21.447,17.011,32.5,25.08,4.847,3.538,10.681-11.743,14.823-25.948" fill="#22286c" fill-rule="evenodd"/>
      <path id="Fill-48" d="M271.231,296.449H380.477V270.591H271.231Z" fill="#fff" fill-rule="evenodd"/>
      <path id="Fill-49" d="M273.115,349.09H382.361V323.231H273.115Z" fill="#fff" fill-rule="evenodd"/>
      <path id="Fill-50" d="M284.709,340.778l-1.83-1.383,2.371-3.005-3.66-1.037.722-2.233,3.5,1.383-.18-3.883H287.9l-.18,3.856,3.53-1.356.7,2.233-3.634,1.011,2.372,3.032-1.856,1.383-2.063-3.244-2.061,3.244" fill="#272e7d" fill-rule="evenodd"/>
      <path id="Fill-51" d="M299.778,340.778l-1.83-1.383,2.371-3.005-3.66-1.037.722-2.233,3.5,1.383-.18-3.883h2.268l-.18,3.856,3.53-1.356.7,2.233-3.634,1.011,2.372,3.032-1.856,1.383-2.063-3.244-2.061,3.244" fill="#272e7d" fill-rule="evenodd"/>
      <path id="Fill-52" d="M313.9,340.778l-1.83-1.383,2.371-3.005-3.66-1.037.722-2.233,3.5,1.383-.18-3.883H317.1l-.181,3.856,3.531-1.356.7,2.233-3.634,1.011,2.371,3.032-1.855,1.383-2.063-3.244-2.061,3.244" fill="#272e7d" fill-rule="evenodd"/>
      <path id="Fill-53" d="M328.973,340.778l-1.83-1.383,2.37-3.005-3.659-1.037.721-2.233,3.5,1.383-.18-3.883h2.268l-.181,3.856,3.531-1.356.7,2.233-3.634,1.011,2.371,3.032-1.855,1.383-2.063-3.244-2.061,3.244" fill="#272e7d" fill-rule="evenodd"/>
      <g id="Group-3" transform="translate(163.836 60.609) rotate(-2)">
        <path id="Fill-50-Copy" d="M3.118,10.159,1.289,8.776,3.66,5.771,0,4.733.722,2.5l3.5,1.383L4.046,0H6.314l-.18,3.856L9.664,2.5l.7,2.233L6.726,5.744,9.1,8.776,7.242,10.159,5.179,6.915,3.118,10.159" fill="#272e7d" fill-rule="evenodd"/>
        <path id="Fill-51-Copy" d="M27.118,10.159l-1.83-1.383L27.66,5.771,24,4.733,24.722,2.5l3.5,1.383L28.046,0h2.268l-.18,3.856L33.664,2.5l.7,2.233L30.726,5.744,33.1,8.776l-1.856,1.383L29.179,6.915l-2.061,3.244" fill="#272e7d" fill-rule="evenodd"/>
        <path id="Fill-52-Copy" d="M54.118,10.159l-1.83-1.383L54.66,5.771,51,4.733,51.722,2.5l3.5,1.383L55.046,0h2.268l-.181,3.856L60.664,2.5l.7,2.233L57.726,5.744,60.1,8.776l-1.855,1.383L56.179,6.915l-2.061,3.244" fill="#272e7d" fill-rule="evenodd"/>
        <path id="Fill-53-Copy" d="M84.118,10.159l-1.83-1.383,2.37-3.005L81,4.733,81.721,2.5l3.5,1.383L85.046,0h2.268l-.181,3.856L90.664,2.5l.7,2.233L87.726,5.744,90.1,8.776l-1.855,1.383L86.179,6.915l-2.061,3.244" fill="#272e7d" fill-rule="evenodd"/>
      </g>
      <path id="Fill-54" d="M578.25,457.743v5.4l-13.812,6.927-6.907-6.927,6.907-6.926h.891l.222,1.525h12.7" fill="#22286c" fill-rule="evenodd"/>
      <path id="Fill-55" d="M612.771,456.218h.953l6.906,6.926-6.906,6.927-13.813-6.927v-5.4h12.7l.16-1.525" fill="#22286c" fill-rule="evenodd"/>
      <path id="Fill-56" d="M646.91,285.118c-.134-3.926-.372-7.211-.406-8.386a296.65,296.65,0,0,0-2.821-32.043c-1.335-9.681-3.029-19.388-4.864-29.141-2.878-15.294-5.494-28.77-11.262-43.316-2.049-5.166-4.151-10.424-7.687-14.725-4.779-5.813-14.543-9.985-22.12-9.733-.135.3-.7,3.751-.317,3.707l-.347.041,1.608-.015,8.714,17.607s1.8,46.031,2.2,59.968c.134,4.634,1.6,13.179,3.473,22.437,3.638,17.964,8.816,38.616,8.816,38.616s-.714,1.055-6.456.759a56.179,56.179,0,0,1,9.859,3.485,42.876,42.876,0,0,1,4.388,2.427c3.956,2.468,7.49,5.293,11.976,7.457a3.453,3.453,0,0,0,1.857.487c3.487-.411,3.667-11.408,3.387-19.631" fill="#22286c" fill-rule="evenodd"/>
      <path id="Fill-57" d="M586.546,148.686a38.363,38.363,0,0,0-5.707,1.463c-10.185,3.506-16,10.565-19.447,20.587l-8.32,24.189c-2.276,6.621-4.555,13.246-6.529,19.962-5.168,17.584-8.223,35.705-10.467,53.869-1.125,9.107-2.046,18.237-2.934,27.37-.543,5.6,1.2,4.512,5.192,1.773,2.7-1.855,5.343-4.219,8.592-5.081.565-.15,1.136-.309,1.71-.474,7.977-2.291,16.617-5.826,24.948-5.752.885.008,1.771.031,2.657.052-11.979-.892-20.258-1.087-20.258-1.087s1.79-16.954,3.332-32.646c.975-9.915,1.851-19.328,2.115-23.64.693-11.343,19.553-77.155,19.553-77.155l6.684-.063a5.208,5.208,0,0,1-1-2.728,6.236,6.236,0,0,0-.119-.638" fill="#22286c" fill-rule="evenodd"/>
      <path id="Fill-58" d="M548.71,292.064c7.936-2.3,16.534-5.846,24.824-5.772.88.008,1.762.031,2.643.052q1.106.083,2.255.175c5.554.442,11.8,1.033,18.311,1.817.32.039.638.076.959.116a114.048,114.048,0,0,0,17.259,2.683,55.08,55.08,0,0,1,9.758,3.5,42.432,42.432,0,0,1,4.344,2.437l.043,8.968L613.217,458.361H600.189v1.551h-.074L585.79,357.74l-.059-.575-7.848,102.747h-.074v-1.551H564.718l-16.6-114.416.6-51.881" fill-rule="evenodd" fill="url(#linear-gradient-2)"/>
      <path id="Fill-59" d="M556.59,285.006s8.194.194,20.049,1.085q1.1.083,2.243.174c5.524.44,11.733,1.028,18.214,1.807.318.038.634.075.954.115a113.431,113.431,0,0,0,17.167,2.669c5.653.3,6.356-.758,6.356-.758s-5.1-20.629-8.68-38.574c-1.845-9.248-3.288-17.783-3.419-22.412-.545-14.567-.89-29.14-1.331-43.71q-.329-10.915-.767-21.828c-.135-3.228.427-7.74-2.232-10.174-4.044-3.7-9.18-.949-13.819-1.105-3.459-.116-8.606-1.652-10.917,1.878-1.421,2.171-1.684,6.913-2.421,9.571q-3.28,11.832-6.44,23.7c-3.524,13.275-8.728,27.582-9.565,41.374-.261,4.305-1.128,13.7-2.093,23.6-1.526,15.666-3.3,32.591-3.3,32.591" fill="#fff" fill-rule="evenodd"/>
      <path id="Fill-60" d="M575.246,109.448a24.452,24.452,0,0,0-2.323,10.963c.007,1,0,2.164-.762,2.8-.815.678,0,2.027-.688,1.214s-3.022-3.638-3.174-4.7a40.666,40.666,0,0,1-.368-7.532,11.019,11.019,0,0,1,1.725-6.217,12.092,12.092,0,0,1,2.893-2.5,15.287,15.287,0,0,1,4.883-2.561c3.082-.757,5.049.285,2.415,2.651a19.393,19.393,0,0,0-4.6,5.89" fill="#2731a3" fill-rule="evenodd"/>
      <path id="Fill-61" d="M597.216,150.015a6.552,6.552,0,0,1-.936,3.35,7.224,7.224,0,0,1-2.747,2.249,10.225,10.225,0,0,1-4.247,1.377,4.857,4.857,0,0,1-4.028-1.584c-2.726-3.383-2.725-10.651-3.056-14.749-3.806-.449-8.307-1.433-9.8-5.289a12.8,12.8,0,0,1-.633-3.871q-.483-8.147-.966-16.294a15.63,15.63,0,0,1,.342-5.592c.979-3.118,3.776-5.09,6.551-6.382,7.083-3.3,15.522-3.613,22.416.212a12.18,12.18,0,0,1,4.71,4.242c1.733,2.9,1.726,6.6,1.659,10.056q-.091,4.785-.184,9.571c-.071,3.67-.406,7.907-3.166,9.985-1.466,1.1-3.42,1.391-4.66,2.785-2.368,2.661-1.105,6.556-1.258,9.936" fill="#eac5b0" fill-rule="evenodd"/>
      <path id="Fill-62" d="M585.335,134.977a5.65,5.65,0,0,0,5.151.3c.91-.329,1.382,1.217.473,1.546a7.029,7.029,0,0,1-6.307-.409C583.813,135.908,584.49,134.464,585.335,134.977Zm-14-.218a13.468,13.468,0,0,0,5.494,8.334c3.228,2.013,7.148,1.964,10.854,1.86l6.081-.171c5.128-.145,10.19-1.079,12.548-6.67a16.731,16.731,0,0,0,1-8.346,5.423,5.423,0,0,0-.627-2.226,1.863,1.863,0,0,0-1.821-.994c-.9.176-1.4,1.192-1.943,1.99-1.19,1.743-3.395,2.794-5.26,1.993a7.049,7.049,0,0,1-1.525-.995c-.2-.156-.4-.312-.6-.46a13.023,13.023,0,0,0-6.771-2.251c-2.058-.163-5.107-.768-6.534,1.071l-2.492,3.21a4.975,4.975,0,0,1-1.148,1.185,3.273,3.273,0,0,1-1.569.461,3.377,3.377,0,0,1-3.49-1.851,6.975,6.975,0,0,1-.3-1.929,3.1,3.1,0,0,0-.612-1.809c-1.609-1.8-1.9,1.21-1.906,2.231a21.445,21.445,0,0,0,.616,5.366Z" fill="#2731a3" fill-rule="evenodd"/>
      <path id="Fill-63" d="M568.128,100.224a29.384,29.384,0,0,1-1.011-4.045,8.027,8.027,0,0,0,4,.137q-.057-1.194-.112-2.387c-.029-.663,8.858-1.587,9.58-1.684,6.75-.909,12.922-1.761,19.239,1.577a18.56,18.56,0,0,1,10.107,13.366A28.511,28.511,0,0,1,606.4,125.6c-.06-1.544.637-5.231.2-6.679a13.162,13.162,0,0,0-1.641-4.122,17.286,17.286,0,0,0-6.368-6.068,33.427,33.427,0,0,0-13.436-3.787c-4.257-.372-9.436-.651-13.554.69-1.98.644-2.287,1.167-3.607-.805a34.574,34.574,0,0,1-1.98-4.461l2.111-.141" fill="#2731a3" fill-rule="evenodd"/>
      <path id="Fill-64" d="M616.859,339.1l-87.166,24.719a1.309,1.309,0,0,1-1.616-.883L484.124,211.991a1.286,1.286,0,0,1,.894-1.595l87.166-24.719a1.309,1.309,0,0,1,1.616.883L617.754,337.5a1.287,1.287,0,0,1-.9,1.595" fill="#2731a3" fill-rule="evenodd"/>
      <path id="Fill-65" d="M605.562,319.127l-76.674,21.651L492.549,216.514l76.675-21.651,36.339,124.265" fill="#c7caed" fill-rule="evenodd"/>
      <path id="Fill-66" d="M580.476,341.879l-18.561,5.331a.828.828,0,0,1-1.025-.567l-1.443-5.017a.828.828,0,0,1,.568-1.025l18.561-5.331a.828.828,0,0,1,1.025.567l1.443,5.017a.828.828,0,0,1-.568,1.025" fill="#fff" fill-rule="evenodd"/>
      <path id="Fill-67" d="M527.126,253.6a5.981,5.981,0,0,1-4.067,7.491,6.142,6.142,0,0,1-7.64-3.988,5.982,5.982,0,0,1,4.067-7.492,6.142,6.142,0,0,1,7.64,3.989" fill="#fff" fill-rule="evenodd"/>
      <path id="Fill-68" d="M551.613,246.213a5.982,5.982,0,0,1-4.067,7.492,6.143,6.143,0,0,1-7.64-3.989,5.982,5.982,0,0,1,4.067-7.492,6.141,6.141,0,0,1,7.64,3.989" fill="#fff" fill-rule="evenodd"/>
      <path id="Fill-69" d="M575.157,239.748a5.982,5.982,0,0,1-4.068,7.492,6.142,6.142,0,0,1-7.639-3.989,5.982,5.982,0,0,1,4.067-7.492,6.143,6.143,0,0,1,7.64,3.989" fill="#fff" fill-rule="evenodd"/>
      <path id="Fill-70" d="M534.661,278.536a5.982,5.982,0,0,1-4.067,7.492,6.141,6.141,0,0,1-7.64-3.989,5.982,5.982,0,0,1,4.067-7.491,6.142,6.142,0,0,1,7.64,3.988" fill="#fff" fill-rule="evenodd"/>
      <path id="Fill-71" d="M559.147,271.148a5.981,5.981,0,0,1-4.067,7.491,6.142,6.142,0,0,1-7.64-3.988,5.982,5.982,0,0,1,4.067-7.492,6.142,6.142,0,0,1,7.64,3.989" fill="#fff" fill-rule="evenodd"/>
      <path id="Fill-72" d="M582.691,263.76a5.982,5.982,0,0,1-4.068,7.491,6.142,6.142,0,0,1-7.639-3.988,5.981,5.981,0,0,1,4.067-7.491,6.141,6.141,0,0,1,7.64,3.988" fill="#fff" fill-rule="evenodd"/>
      <path id="Fill-73" d="M542.195,302.547a5.982,5.982,0,0,1-4.067,7.492,6.142,6.142,0,0,1-7.64-3.989,5.981,5.981,0,0,1,4.067-7.491,6.142,6.142,0,0,1,7.64,3.988" fill="#fff" fill-rule="evenodd"/>
      <path id="Fill-74" d="M566.681,296.083a5.982,5.982,0,0,1-4.067,7.491,6.142,6.142,0,0,1-7.64-3.988,5.982,5.982,0,0,1,4.067-7.492,6.141,6.141,0,0,1,7.64,3.989" fill="#fff" fill-rule="evenodd"/>
      <path id="Fill-75" d="M590.225,288.7a5.981,5.981,0,0,1-4.068,7.491,6.141,6.141,0,0,1-7.639-3.988,5.982,5.982,0,0,1,4.067-7.492,6.142,6.142,0,0,1,7.64,3.989" fill="#fff" fill-rule="evenodd"/>
      <path id="Fill-76" d="M548.114,222.429l-18.688,5.68-1.089-3.556,18.688-5.679,1.089,3.555" fill="#fff" fill-rule="evenodd"/>
      <path id="Fill-78" d="M465.336,59.385q1.539,2.892,3.08,5.783c.485.912,1.915.108,1.431-.8l-3.081-5.783c-.485-.912-1.915-.108-1.43.8" fill="#272e7d" fill-rule="evenodd"/>
      <path id="Fill-79" d="M477.725,58.757a20.557,20.557,0,0,0-1.185,6c-.055,1.091,1.589,1.088,1.642,0a19,19,0,0,1,1.126-5.546c.369-1.024-1.218-1.466-1.584-.451" fill="#272e7d" fill-rule="evenodd"/>
      <path id="Fill-80" d="M459.28,71.81l4.85,1.12c1.112.258,1.586-1.337.474-1.594l-4.851-1.121c-1.112-.257-1.586,1.337-.473,1.595" fill="#272e7d" fill-rule="evenodd"/>
      <path id="Fill-81" d="M464.7,84.689l3.143-3.735c.7-.832-.42-2.092-1.122-1.257q-1.572,1.867-3.143,3.736c-.7.832.42,2.091,1.122,1.257" fill="#272e7d" fill-rule="evenodd"/>
      <path id="Fill-82" d="M473.781,84.184l1.923,4.8c.42,1.05,2.135.591,1.71-.473q-.961-2.4-1.923-4.8c-.42-1.05-2.136-.592-1.71.473" fill="#272e7d" fill-rule="evenodd"/>
      <path id="Fill-83" d="M482.784,79.222l4.015,1.091a.837.837,0,0,0,.446-1.613l-4.015-1.091a.837.837,0,0,0-.446,1.613" fill="#272e7d" fill-rule="evenodd"/>
      <path id="Fill-84" d="M483.419,69.191l4.942-2.141c.946-.41.13-1.813-.809-1.407l-4.942,2.141c-.946.41-.131,1.813.809,1.407" fill="#272e7d" fill-rule="evenodd"/>
      <path id="Fill-85" d="M111.464,276.08c-1.2-2.684-4.2-4.414-7.045-3.3-1.243.488-.7,2.517.558,2.021a3.733,3.733,0,0,1,4.813,2.784c.554,2.048-.253,4.318-1.007,6.2a90.045,90.045,0,0,1-4.231,8.818c-1.562,2.923-3.236,5.786-4.995,8.595-1.775,2.836-3.561,5.85-6.235,7.934-2.579,2.011-6.438,3.03-9.235.834-2.991-2.35-2.124-6.885-1.2-10.033a58.988,58.988,0,0,1,9.075-17.776c.545-.757-.707-1.736-1.3-1a52.277,52.277,0,0,0-7.46,12.312c-1.626,3.755-3.387,8.08-3.116,12.254.5,7.733,8.962,9.252,14.39,5.107,3.463-2.645,5.733-6.725,7.961-10.375a128.76,128.76,0,0,0,6.948-12.888c1.577-3.4,3.773-7.706,2.087-11.481" fill="#272e7d" fill-rule="evenodd"/>
      <path id="Fill-86" d="M95.783,279.061a5.76,5.76,0,0,0,7.188,3.165c1.251-.5.668-2.51-.6-2a3.791,3.791,0,0,1-4.919-2.688c-.594-2.025.187-4.291.92-6.17a88.791,88.791,0,0,1,4.144-8.821c1.534-2.927,3.185-5.795,4.922-8.612,1.753-2.843,3.514-5.864,6.188-7.976,2.58-2.036,6.472-3.11,9.34-.973,3.067,2.286,2.261,6.8,1.381,9.943a58.123,58.123,0,0,1-8.907,17.793c-.54.761.745,1.712,1.337.977a51.693,51.693,0,0,0,7.358-12.342c1.586-3.754,3.3-8.076,2.961-12.217-.63-7.67-9.225-9.046-14.656-4.845-3.466,2.68-5.7,6.766-7.9,10.425a127.083,127.083,0,0,0-6.83,12.905c-1.543,3.4-3.7,7.711-1.93,11.433" fill="#272e7d" fill-rule="evenodd"/>
      <path id="Fill-87" d="M591.782,255.987a1.25,1.25,0,0,0-.584.5,1.3,1.3,0,0,0,.01.868l.557,2.259c-.012-.043,2.383-.33,2.781.052,1.044.993.138,2.37-.645,3.147l-4.35,4.32,2.187,2.986a3.574,3.574,0,0,0,.672.757c3.221,2.472,7.61-2.821,9.026-5.151a31.469,31.469,0,0,0,3.092-7.5,1.238,1.238,0,0,0,.066-.678,1.218,1.218,0,0,0-.532-.6c-1.667-1.187-3.795-3.808-5.925-3.9-2.061-.084-4.611,2-6.355,2.94" fill="#eac5b0" fill-rule="evenodd"/>
      <path id="Fill-88" d="M615.738,223.5c.292,2.73.314,5.469-.884,7.839a62.921,62.921,0,0,1-11.492,15.305c-1.8,1.835-4.274,2.98-6.214,4.668-1.06.923-2.3,1.826-1.852,3.19.438,1.335,3.377,3.239,4.43,4.23.746.7,2.639,3.4,3.6,3.538,1.237.174,3.419-2.013,4.373-2.705,2.984-2.164,5.875-4.452,8.646-6.875,8.757-7.656,14.085-16.892,21.505-25.575a9.287,9.287,0,0,0,2.494-4.293,9.15,9.15,0,0,0-.518-3.92l-11.052-38.836c-1.745-6.134-3.677-12.581-8.36-16.987-1.8-1.691-4.449-3.062-6.707-2.031-2.763,1.263-2.932,5-2.685,7.979q1.348,16.327,2.7,32.654.674,8.163,1.349,16.327c.144,1.745.47,3.617.669,5.492" fill="#22286c" fill-rule="evenodd"/>
    </g>
  </g>
</svg>
