<?xml version="1.0" encoding="utf-8"?>
<!-- Generator: Adobe Illustrator 23.0.1, SVG Export Plug-In . SVG Version: 6.00 Build 0)  -->
<svg version="1.1" id="Layer_1" xmlns="http://www.w3.org/2000/svg" xmlns:xlink="http://www.w3.org/1999/xlink" x="0px" y="0px"
	 viewBox="0 0 48 48" style="enable-background:new 0 0 48 48;" xml:space="preserve">
<style type="text/css">
	.st0{fill-rule:evenodd;clip-rule:evenodd;fill:#FFA200;}
	.st1{fill-rule:evenodd;clip-rule:evenodd;fill:#FFFFFF;}
</style>
<title>Icons/freeze</title>
<desc>Created with Sketch.</desc>
<path id="Rectangle-2" class="st0" d="M6,0h36c3.3,0,6,2.7,6,6v36c0,3.3-2.7,6-6,6H6c-3.3,0-6-2.7-6-6V6C0,2.7,2.7,0,6,0z"/>
<g id="Group-6" transform="translate(10.000000, 8.000000)">
	<g id="Rectangle" transform="translate(0.234043, 0.191489)">
		<path id="Page-1" class="st1" d="M26.9,17.3c-0.3-0.6-1-0.8-1.6-0.4L21.6,19l-5.4-3.1l5.4-3.1l3.6,2.1c0.2,0.1,0.4,0.2,0.6,0.2
			c0.4,0,0.8-0.2,1-0.6c0.3-0.6,0.1-1.3-0.4-1.6L24,11.3l2.3-1.3c0.6-0.3,0.8-1.1,0.4-1.6c-0.3-0.6-1-0.8-1.6-0.4l-2.3,1.3V6.4
			c0-0.7-0.5-1.2-1.2-1.2c-0.7,0-1.2,0.5-1.2,1.2v4.2l-5.4,3.1V7.5l3.6-2.1c0.6-0.3,0.8-1.1,0.4-1.6c-0.3-0.6-1-0.8-1.6-0.4
			l-2.4,1.4V2c0-0.7-0.5-1.2-1.2-1.2S12.7,1.3,12.7,2v2.7l-2.4-1.4C9.7,2.9,9,3.1,8.7,3.7S8.5,5,9.1,5.3l3.6,2.1v6.3l-5.4-3.1V6.4
			c0-0.7-0.5-1.2-1.2-1.2S5,5.7,5,6.4v2.9L2.7,7.9C2.1,7.5,1.4,7.7,1.1,8.3C0.7,8.9,0.9,9.6,1.5,9.9l2.3,1.3l-2.4,1.4
			c-0.6,0.3-0.8,1.1-0.4,1.6c0.2,0.4,0.6,0.6,1,0.6c0.2,0,0.4-0.1,0.6-0.2l3.6-2.1l5.4,3.1L6.2,19l-3.6-2.1
			c-0.6-0.3-1.3-0.1-1.6,0.4c-0.3,0.6-0.1,1.3,0.4,1.6l2.4,1.4l-2.3,1.3c-0.6,0.3-0.8,1.1-0.4,1.6c0.2,0.4,0.6,0.6,1,0.6
			c0.2,0,0.4-0.1,0.6-0.2L5,22.4v2.9c0,0.7,0.5,1.2,1.2,1.2c0.7,0,1.2-0.5,1.2-1.2V21l5.4-3.1v6.3l-3.6,2.1
			c-0.6,0.3-0.8,1.1-0.4,1.6c0.2,0.4,0.6,0.6,1,0.6c0.2,0,0.4-0.1,0.6-0.2l2.4-1.4v2.7c0,0.7,0.5,1.2,1.2,1.2c0.7,0,1.2-0.5,1.2-1.2
			v-2.7l2.4,1.4c0.2,0.1,0.4,0.2,0.6,0.2c0.4,0,0.8-0.2,1-0.6c0.3-0.6,0.1-1.3-0.4-1.6l-3.6-2.1v-6.3l5.4,3.1v4.2
			c0,0.7,0.5,1.2,1.2,1.2c0.7,0,1.2-0.5,1.2-1.2v-2.9l2.3,1.3c0.2,0.1,0.4,0.2,0.6,0.2c0.4,0,0.8-0.2,1-0.6c0.3-0.6,0.1-1.3-0.4-1.6
			L24,20.3l2.4-1.4C27,18.6,27.2,17.8,26.9,17.3L26.9,17.3z"/>
	</g>
</g>
</svg>
