<?xml version="1.0" encoding="utf-8"?>
<!-- Generator: Adobe Illustrator 23.0.1, SVG Export Plug-In . SVG Version: 6.00 Build 0)  -->
<svg version="1.1" id="Layer_1" xmlns="http://www.w3.org/2000/svg" xmlns:xlink="http://www.w3.org/1999/xlink" x="0px" y="0px"
	 viewBox="0 0 48 48" style="enable-background:new 0 0 48 48;" xml:space="preserve">
<style type="text/css">
	.st0{fill-rule:evenodd;clip-rule:evenodd;fill:#FFA200;}
	.st1{fill:#FFFFFF;}
	.st2{fill-rule:evenodd;clip-rule:evenodd;fill:#FFFFFF;}
</style>
<title>Icons/friends</title>
<desc>Created with Sketch.</desc>
<path id="Rectangle-2" class="st0" d="M6,0h36c3.3,0,6,2.7,6,6v36c0,3.3-2.7,6-6,6H6c-3.3,0-6-2.7-6-6V6C0,2.7,2.7,0,6,0z"/>
<g id="Group" transform="translate(7.000000, 14.000000)">
	<path id="Combined-Shape" class="st1" d="M10.2,12.9C10,13,9.9,13.2,9.8,13.4c-0.3,0.5-0.5,1-0.5,1.4v1.9H0.5v-2.8
		c0-0.8,1.1-1.1,2.3-1.4c0.2-0.1,1-0.2,1.1-0.2c0.1,0,0.2,0,0.2,0c0,0,0.1-0.2,0.1-0.4c0-0.2,0-0.4,0-0.6L3.8,11l0-0.2
		c0-0.1,0-0.3-0.1-0.4c0-0.1-0.1-0.2-0.1-0.2c-0.1-0.1-0.1-0.3-0.2-0.4c0-0.1-0.1-0.2-0.1-0.2C3.3,9.4,3.2,9.2,3.1,9
		c0,0,0-0.1,0-0.1c0,0-0.1-0.1-0.1-0.1C2.8,8.6,2.7,8.3,2.7,8.1S2.8,7.6,3,7.4c0-0.1,0-0.2-0.1-0.3c0-0.2-0.1-0.4-0.1-0.6
		c0-0.2,0-0.4,0-0.5c0-1.7,1.3-2.6,3.3-2.6c1.9,0,3.1,1,3.1,2.6c0,0.2,0,0.3,0,0.5c0,0.2,0,0.4,0,0.6c0,0.1,0,0.2,0,0.3c0,0,0,0,0,0
		c0.1,0.2,0.2,0.4,0.2,0.7S9.3,8.6,9.1,8.7c0,0-0.1,0.1-0.1,0.1C9,8.9,9,9,9,9C8.9,9.2,8.8,9.5,8.7,9.7C8.6,9.9,8.5,10,8.5,10.2
		c0,0,0,0.1-0.1,0.3c0,0.2-0.1,0.3-0.1,0.4l0,0.2L8,11.3c0,0.2,0,0.4,0,0.6c0,0.3,0.1,0.4,0.1,0.4c0.1,0.1,0.4,0.1,1.1,0.3
		C9.7,12.7,10,12.8,10.2,12.9z M26,16.7v-1.9c0-0.4-0.1-0.9-0.5-1.4c-0.1-0.2-0.3-0.3-0.4-0.5c0,0,0.1,0,0.1-0.1
		c0.3-0.1,0.6-0.3,0.8-0.4c0,0,0,0,0.1,0c0.6-0.3,0.9-0.5,1.1-0.6c0,0,0-0.2,0.1-0.4c0-0.2,0-0.4,0-0.6L27,10.6l0-0.2
		c0-0.1,0-0.3-0.1-0.4c0-0.1-0.1-0.2-0.1-0.2c-0.1-0.1-0.1-0.3-0.2-0.4c0-0.1-0.1-0.2-0.1-0.2c-0.1-0.2-0.1-0.4-0.2-0.5
		c0,0,0-0.1,0-0.1c0,0-0.1-0.1-0.1-0.1C26,8.1,26,7.9,26,7.6s0.1-0.5,0.2-0.7c0-0.1,0-0.2-0.1-0.3c0-0.2-0.1-0.4-0.1-0.6
		c0-0.2,0-0.4,0-0.5c0-0.6,0.2-1.2,0.6-1.5c0.3-0.2,0.6-0.3,0.9-0.3c0.1-0.3,0.3-0.5,0.6-0.7c0.4-0.2,1-0.2,1.5,0
		c0.7,0.3,1.1,0.4,2.1,0.2l0.5-0.1v0.5c0,0.2,0,0.3,0.1,0.7c0.1,0.5,0.2,0.7,0.2,1.1c0,0.2,0,0.3,0,0.5c0,0.2,0,0.4,0,0.6
		c0,0.1,0,0.2,0,0.3c0.2,0.2,0.3,0.5,0.3,0.7s-0.1,0.5-0.2,0.7c0,0-0.1,0.1-0.1,0.1c0,0,0,0.1-0.1,0.2C32.1,8.8,32,9,31.9,9.2
		c-0.1,0.2-0.2,0.4-0.2,0.5c0,0,0,0.1-0.1,0.3c0,0.2-0.1,0.3-0.1,0.4l0,0.2l-0.3,0.2c0,0.2,0,0.4,0,0.6c0,0.3,0.1,0.4,0.1,0.4
		c0,0,0,0,0.1,0c0.1,0,0.9,0.2,1.2,0.3c1.1,0.3,2.3,0.6,2.3,1.4c0,0.5,0,3.3,0,3.3L26,16.7z"/>
	<path id="Path" class="st2" d="M15.6,10.8v0.8c0,0-0.1,0.1-0.3,0.2c-0.8,0.4-2.5,0.9-2.5,0.9c0,0-0.6,0.1-1.6,0.6
		c-1,0.5-1.1,1.5-1.1,1.5v4.7h14.9v-4.7c0,0-0.1-1-1.1-1.5c-1-0.5-1.5-0.6-1.6-0.6c0,0-1.7-0.5-2.5-0.9c-0.2-0.1-0.3-0.2-0.3-0.2
		v-0.8c0,0,2.3,0.1,3.4-1c0,0-1.6-0.4-1.3-3.3C22,3.5,21.4,1,19.1,1.2c0,0-1-1.2-3-0.4c-0.7,0.3-2.5,0.9-2.4,4.9c0.1,4-1.4,4-1.4,4
		C12.2,9.7,13,10.8,15.6,10.8z"/>
</g>
</svg>
