<svg xmlns="http://www.w3.org/2000/svg" width="50" height="50" viewBox="0 0 50 50"><g transform="translate(-231 -231)"><path d="M281,250.141a4.389,4.389,0,0,0-4.395-4.4H241.254a1.445,1.445,0,0,0-.352.029,4.358,4.358,0,0,0-4.043,4.366V251.6l2.93,4.4-2.93,4.395v16.21a4.389,4.389,0,0,0,4.4,4.395h35.351A4.389,4.389,0,0,0,281,276.605Z" fill="#239a58"/><path d="M276.605,245.746H258.93V281h17.675A4.389,4.389,0,0,0,281,276.605V250.141A4.389,4.389,0,0,0,276.605,245.746Z" fill="#239a58"/><path d="M258.93,250.668l-2.842-4.922H241.254a1.445,1.445,0,0,0-.352.029L258.93,276.84l2.4,4.16h15.185Z" fill="#6bdb9d"/><path d="M276.517,281H261.332l-2.4-4.16V250.668Z" fill="#6bdb9d"/><path d="M253.07,233.021A6,6,0,0,0,248.578,231a5.834,5.834,0,0,0-4.394,2.021,5.836,5.836,0,0,0-4.4-2.021,5.961,5.961,0,0,0-5.859,5.957,5.876,5.876,0,0,0,5.859,5.859h8.789a6,6,0,0,0,4.492-2.021,5.639,5.639,0,0,0,1.465-3.838A5.888,5.888,0,0,0,253.07,233.021Zm-10.351,6.866h-2.93a2.939,2.939,0,0,1-2.93-2.93,2.932,2.932,0,1,1,5.86,0Zm5.859,0h-2.93v-2.93a3.024,3.024,0,0,1,2.93-3.027,3.108,3.108,0,0,1,3.027,3.027A3.024,3.024,0,0,1,248.578,239.887Z" fill="#237146"/><path d="M254.535,236.957a5.639,5.639,0,0,1-1.465,3.838v-7.774A5.888,5.888,0,0,1,254.535,236.957Z" fill="#237146"/><path d="M275.141,244.281a4.389,4.389,0,0,0-4.395-4.394H235.4a1.44,1.44,0,0,0-.352.029A4.358,4.358,0,0,0,231,244.281v1.465l2.93,4.4L231,254.535v16.211a4.389,4.389,0,0,0,4.4,4.395h35.351a4.389,4.389,0,0,0,4.395-4.395V254.535l-2.93-4.394,2.93-4.4Z" fill="#28c76f"/><path d="M270.746,239.887H253.07v35.254h17.676a4.389,4.389,0,0,0,4.395-4.395V254.535l-2.93-4.394,2.93-4.4v-1.465A4.389,4.389,0,0,0,270.746,239.887Z" fill="#26c66d"/><rect width="44.141" height="8.789" transform="translate(231 245.648)" fill="#6bdb9d"/><rect width="22.07" height="8.789" transform="translate(253.07 245.648)" fill="#6bdb9d"/><path d="M253.07,244.809l-2.939-4.922H235.4a1.44,1.44,0,0,0-.352.029L253.07,270.98l2.4,4.161h15.185Z" fill="#81fbb8"/><path d="M270.658,275.141H255.473l-2.4-4.16V244.809Z" fill="#6bdb9d"/></g></svg>