<?xml version="1.0"?>
<svg xmlns="http://www.w3.org/2000/svg" height="512px" viewBox="0 -72 472.0001 472" width="512px"><path d="m472 104c.050781-37.882812-20.527344-72.792969-53.703125-91.085938-33.171875-18.296874-73.675781-17.078124-105.6875 3.183594-.484375.304688-1 .558594-1.539063.75l-167.070312 60.753906v52.796876l167.070312 60.753906c.539063.195312 1.054688.445312 1.539063.75 32.011719 20.261718 72.515625 21.480468 105.6875 3.183594 33.175781-18.292969 53.753906-53.203126 53.703125-91.085938zm0 0" fill="#FFFFFF"/><path d="m328 217.054688v102.945312c0 4.417969 3.582031 8 8 8h64c4.417969 0 8-3.582031 8-8v-103c-25.851562 9.3125-54.136719 9.332031-80 .054688zm0 0" fill="#FFFFFF"/><path d="m112 80h16v48h-16zm0 0" fill="#FFFFFF"/><path d="m80 128h16v-48h-16c-4.417969 0-8 3.582031-8 8v32c0 4.417969 3.582031 8 8 8zm0 0" fill="#FFFFFF"/><path d="m0 96h48v16h-48zm0 0" fill="#FFFFFF"/><path d="m0 72h48v16h-48zm0 0" fill="#FFFFFF"/><path d="m0 120h48v16h-48zm0 0" fill="#FFFFFF"/></svg>
