<svg id="laundry" xmlns="http://www.w3.org/2000/svg" width="487.69" height="545.06" viewBox="0 0 487.69 545.06">
  <g id="Capa_1" data-name="Capa 1">
    <path id="Path_115" data-name="Path 115" d="M459,105.19a47.47,47.47,0,0,1,27.31,8.67L468.68,34.51C464.56,13.17,449.29,0,428.82,0H67.23C48.92,0,33,14.18,28.57,34.49L12.17,108.3a47.26,47.26,0,0,1,16.52-3.11ZM402.82,25.1a27.5,27.5,0,1,1-27.49,27.493A27.5,27.5,0,0,1,402.82,25.1Zm-86.06,0a27.5,27.5,0,1,0,.007,0ZM210.37,28.69h47.81V47.81H210.37Zm0,38.25h47.81V86.06H210.37Z" fill="#fff"/>
    <path id="Path_116" data-name="Path 116" d="M28.69,545.06H459a28.73,28.73,0,0,0,28.69-28.69V153a28.559,28.559,0,0,0-2.14-10.76,25.908,25.908,0,0,0-1.28-2.52,28.46,28.46,0,0,0-3.93-5.7,26.919,26.919,0,0,0-2.81-2.74,61.337,61.337,0,0,1-1.22,6.35,57,57,0,0,1-4.6,12.52c-.43.87-.87,1.74-1.36,2.57-6.63,11.34-17.39,19.4-31.93,19.4h-370c-12.43,0-25-6.47-34.29-16-.69-.71-1.35-1.44-2-2.18a54.8,54.8,0,0,1-9.52-15A42.56,42.56,0,0,1,19.32,126a28.27,28.27,0,0,0-6.51,3.11,29.71,29.71,0,0,0-4.74,4,29.715,29.715,0,0,0-2.2,2.67A28.46,28.46,0,0,0,0,153V516.38a28.72,28.72,0,0,0,28.69,28.68ZM245.44,212.77c81.73,0,148.22,66.48,148.22,148.21S327.17,509.2,245.44,509.2,97.22,442.72,97.22,361,163.71,212.77,245.44,212.77Z" fill="#fff"/>
    <path id="Path_117" data-name="Path 117" d="M68.39,153h370a15.74,15.74,0,0,0,5-.82c10.22-3.44,15.06-17.12,15.46-27.87H38.44C39.48,138,54.78,153,68.39,153Z" fill="#fff"/>
    <path id="Path_118" data-name="Path 118" d="M245.44,480.52A119.54,119.54,0,1,0,125.91,360.99,119.542,119.542,0,0,0,245.44,480.52Zm57.77-182.69a14.55,14.55,0,1,1-14.55,14.55A14.55,14.55,0,0,1,303.21,297.83Zm-47.82-28.68a14.55,14.55,0,1,1-14.54,14.543,14.55,14.55,0,0,1,14.54-14.543Zm-97.92,78.19c10-7.42,28.76-18.21,53.47-18,18.11.17,27.07,6.64,36.14,13.35a19.341,19.341,0,0,1-.25-2.54,19,19,0,1,1,28.59,16.36,75.687,75.687,0,0,0,12.83,1.28c25.68.45,37.27-12.72,42.42-22.87a89.11,89.11,0,1,1-174.33,26,86.489,86.489,0,0,1,1.13-13.58Z" fill="#fff"/>
  </g>
</svg>
