<svg id="Group_4" data-name="Group 4" xmlns="http://www.w3.org/2000/svg" xmlns:xlink="http://www.w3.org/1999/xlink" width="1920" height="1080" viewBox="0 0 1920 1080">
  <defs>
    <linearGradient id="linear-gradient" x1="0.872" y1="0.207" x2="-0.034" y2="0.9" gradientUnits="objectBoundingBox">
      <stop offset="0" stop-color="#3943b7"/>
      <stop offset="1" stop-color="#8d93d9"/>
    </linearGradient>
    <linearGradient id="linear-gradient-2" x1="0.048" y1="0.316" x2="0.991" y2="0.651" gradientUnits="objectBoundingBox">
      <stop offset="0" stop-color="#3943b7"/>
      <stop offset="1" stop-color="#2b306c"/>
    </linearGradient>
    <linearGradient id="linear-gradient-3" x1="0.811" y1="0.797" x2="0.285" y2="0.448" xlink:href="#linear-gradient-2"/>
    <linearGradient id="linear-gradient-4" x1="1.087" y1="0.737" x2="0.094" y2="0.458" xlink:href="#linear-gradient-2"/>
    <linearGradient id="linear-gradient-5" x1="0" y1="0.5" x2="1" y2="0.5" xlink:href="#linear-gradient-2"/>
    <linearGradient id="linear-gradient-6" x1="0.45" y1="-0.422" x2="0.515" y2="0.911" gradientUnits="objectBoundingBox">
      <stop offset="0" stop-color="#272e7d"/>
      <stop offset="1" stop-color="#3943b7"/>
    </linearGradient>
    <linearGradient id="linear-gradient-7" x1="0.388" y1="-0.422" x2="0.534" y2="0.911" xlink:href="#linear-gradient-6"/>
    <linearGradient id="linear-gradient-9" x1="0.32" y1="0" x2="0.695" y2="1" xlink:href="#linear-gradient-6"/>
    <linearGradient id="linear-gradient-10" x1="0.02" y1="0.232" x2="1.021" y2="0.768" gradientUnits="objectBoundingBox">
      <stop offset="0" stop-color="#272e7d"/>
      <stop offset="1" stop-color="#3943b7"/>
      <stop offset="1" stop-color="#c47d00"/>
    </linearGradient>
  </defs>
  <rect id="Rectangle_88" data-name="Rectangle 88" width="1920" height="1080" fill="#fff"/>
  <g id="login-bg">
    <g id="wave-bg" transform="translate(972 433)" opacity="0.935">
      <g id="log-in" transform="translate(-331 -217)">
        <path id="under" d="M808.543,614.553q-87.289-15.9-145.3,49.3c-58.016,65.2-136.8,57.087-220.717,87.54C394.384,768.857,356.876,807.2,331,864h948V217q-69.957,13.15-114.163,56.727c-77.417,76.316-19.628,105.06-189.878,177.509Q804.708,523.686,808.543,614.553Z" fill-rule="evenodd" fill="url(#linear-gradient)"/>
      </g>
    </g>
    <g id="user_signin" transform="translate(1307 366.882)">
      <g id="Mobile_Screen1-Copy-15" transform="translate(-116 -228)">
        <g id="Group-6" transform="translate(116 228)">
          <g id="Group-141" transform="translate(0 0.039)">
            <path id="Path-1243" d="M239.884,9.918Q258.319-4.3,269.126,2.03T419.269,96.8q32.9,27.744,32.9,62.783V538.558q-1.527,24.312-18.485,29.658T239.884,9.918Z" fill="#3943b7"/>
            <path id="Path-1242" d="M227.146,30.209V412.775l32.51,66.1,139.665,88.281q36.994,15.224,36.994-9.915t2.056-388.386q-7.007-48.415-34.611-64.709T263.683,16.866q-23.377-15.058-32.112,0A22.708,22.708,0,0,0,227.146,30.209Z" fill="#3943b7"/>
            <g id="Group-20" transform="translate(115.157 112.399)">
              <g id="Group-3" transform="translate(91.792 380.051)">
                <path id="Fill-1" d="M3.9,19.706C-.539,22.468-.554,26.937,3.844,29.7l147.279,92.332c4.406,2.762,11.549,2.762,15.985,0l34.529-17.439c4.428-2.756,4.459-7.225.053-9.989L54.411,2.265c-4.4-2.756-11.559-2.756-15.985,0Z" fill-rule="evenodd" fill="url(#linear-gradient-2)"/>
              </g>
              <path id="Fill-4" d="M55.134,13.935l.01,3.966a2.822,2.822,0,0,0,4.229,2.62L76.713,9.667a3.088,3.088,0,0,0,1.4-2.634l-.01-3.968A2.821,2.821,0,0,0,73.877.446L56.535,11.3a3.092,3.092,0,0,0-1.4,2.636" fill="#272e7d" fill-rule="evenodd"/>
              <path id="Fill-6" d="M.278,67.815l.01,3.975a2.822,2.822,0,0,0,4.224,2.621l72.248-45a3.089,3.089,0,0,0,1.409-2.639l-.01-3.974a2.821,2.821,0,0,0-4.224-2.621l-72.248,45A3.088,3.088,0,0,0,.278,67.815" fill="#272e7d" fill-rule="evenodd"/>
              <path id="Fill-8" d="M30.168,88.753l.01,3.975A2.823,2.823,0,0,0,34.4,95.35L76.863,68.9a3.086,3.086,0,0,0,1.409-2.639l-.01-3.974a2.822,2.822,0,0,0-4.224-2.623L31.576,86.114a3.092,3.092,0,0,0-1.409,2.639" fill="#272e7d" fill-rule="evenodd"/>
              <path id="Fill-10" d="M11.533,80.583l.01,3.975a2.822,2.822,0,0,0,4.224,2.621L76.811,49.158a3.089,3.089,0,0,0,1.409-2.639l-.01-3.974a2.822,2.822,0,0,0-4.224-2.623L12.941,77.943a3.092,3.092,0,0,0-1.409,2.639" fill="#272e7d" fill-rule="evenodd"/>
              <path id="Fill-12" d="M389.312,74.006a3.47,3.47,0,0,1,1.435,2.684l-.07,27.007c0,.987-.649,1.385-1.445.889L357.537,84.845A3.472,3.472,0,0,1,356.1,82.16l.07-27.007c0-.988.649-1.386,1.447-.889Z" fill="#272e7d" fill-rule="evenodd"/>
              <path id="Fill-14" d="M400.954,122.054a3.473,3.473,0,0,1,1.435,2.684l-.072,27.009c0,.985-.648,1.383-1.444.888l-31.7-19.742a3.467,3.467,0,0,1-1.435-2.683l.07-27.009c0-.988.649-1.385,1.447-.889Z" fill="#c7caed" fill-rule="evenodd"/>
              <path id="Fill-16" d="M78.584,147.544a2.246,2.246,0,0,1,.928,1.734l-.047,17.45c0,.637-.419.893-.933.574L58.054,154.548a2.25,2.25,0,0,1-.93-1.736l.045-17.448c0-.639.421-.9.935-.574Z" fill="#272e7d" fill-rule="evenodd"/>
              <path id="Fill-18" d="M86.105,178.588a2.246,2.246,0,0,1,.928,1.734l-.047,17.45c0,.637-.419.893-.933.574L65.575,185.592a2.25,2.25,0,0,1-.93-1.736l.045-17.448c0-.639.421-.9.935-.574Z" fill="#c7caed" fill-rule="evenodd"/>
            </g>
            <g id="Group-23" transform="translate(233.652 1.571)">
              <path id="Clip-22" d="M24.877.308c-.232,0-.456.025-.684.034h0c-.175.007-.354.016-.529.027h0C23.482.382,23.3.38,23.116.4h0a17.279,17.279,0,0,0-1.958.3h0l-.035.013h0c-.142.031-.275.088-.417.122h0a15.921,15.921,0,0,0-1.921.573h0c-.072.027-.142.065-.214.094h0c-.105.04-.2.09-.309.135h0A15.509,15.509,0,0,0,16.037,2.78h0L.851,12.3a16.026,16.026,0,0,1,2.23-1.143h0c.1-.043.2-.092.307-.135h0a16.359,16.359,0,0,1,2.138-.666h0c.14-.032.27-.09.414-.121h0a17.649,17.649,0,0,1,2.54-.346h0c.175-.013.352-.02.531-.027h0a19.747,19.747,0,0,1,2.58.056h0c.1.009.21.023.315.034h0a23.31,23.31,0,0,1,2.812.466h0c.1.022.2.047.294.07h0a27.844,27.844,0,0,1,2.991.9h0c.068.023.139.047.209.072h0a34.313,34.313,0,0,1,3.221,1.392h0l.222.112h0c1.107.556,2.226,1.177,3.363,1.883h0l144.974,90.3q1.722,1.072,3.4,2.33h0c.067.049.132.1.2.151h0c1.04.785,2.069,1.622,3.079,2.5h0l.34.3h0q1.467,1.3,2.887,2.72h0c.112.113.227.225.337.34h0q1.434,1.458,2.815,3.032h0c.078.09.157.176.235.265h0q1.47,1.7,2.867,3.507h0c.012.013.022.027.032.04h0q1.432,1.858,2.772,3.822h0l0,0h0c.816,1.2,1.6,2.427,2.367,3.675h0c.472.774.92,1.57,1.372,2.36h0c.376.657.766,1.305,1.127,1.975h0c.169.315.33.639.5.96h0c.591,1.125,1.17,2.261,1.712,3.412h0c.058.124.118.248.179.373h0c.653,1.4,1.275,2.818,1.854,4.245h0c.03.074.057.146.087.218h0a73.237,73.237,0,0,1,5.689,27.018h0l15.184-9.517a71.25,71.25,0,0,0-4.541-23.942h0l.023-.016q-.32-.891-.663-1.779h0c-.165-.429-.339-.855-.511-1.282h0l-.085-.218h0c-.035-.081-.065-.164-.1-.247h0c-.242-.592-.492-1.181-.746-1.768h0q-.423-.972-.87-1.935h0c-.045-.1-.093-.2-.14-.3h0c-.058-.126-.118-.248-.179-.371h0c-.24-.513-.482-1.024-.734-1.532h0c-.314-.637-.651-1.26-.981-1.889h0c-.165-.317-.325-.637-.494-.951h0c-.067-.124-.127-.252-.2-.376h0c-.3-.546-.628-1.069-.935-1.606h0c-.451-.789-.9-1.583-1.369-2.353h0c-.075-.124-.144-.254-.219-.376h0q-1.041-1.68-2.148-3.3h0v0q-.741-1.083-1.51-2.135h0q-.621-.853-1.263-1.683h0a.246.246,0,0,0-.03-.043h0a.088.088,0,0,0-.017-.02h0c-.429-.56-.868-1.113-1.312-1.656h0q-.651-.8-1.318-1.579h0c-.073-.085-.149-.166-.22-.248h0c-.08-.09-.159-.178-.237-.268h0c-.309-.353-.618-.709-.933-1.053h0c-.472-.519-.948-1.028-1.432-1.527h0c-.147-.153-.3-.3-.449-.45h0c-.112-.115-.227-.229-.34-.344h0c-.234-.232-.466-.475-.7-.7h0q-.749-.726-1.51-1.422h0c-.222-.2-.449-.392-.671-.591h0l-.339-.3h0c-.169-.146-.332-.3-.5-.438h0c-.494-.421-.99-.83-1.492-1.228h0c-.361-.288-.726-.562-1.09-.837h0c-.067-.05-.132-.1-.2-.153h0c-.063-.045-.125-.1-.187-.142h0c-.479-.353-.958-.7-1.442-1.028h0q-.713-.492-1.437-.949h0l-.334-.211h0L40.2,5.333c-.362-.227-.721-.443-1.078-.652h0c-.466-.272-.931-.531-1.392-.778h0c-.3-.16-.6-.306-.893-.456h0c-.073-.036-.145-.076-.219-.11h0c-.087-.043-.177-.094-.262-.135h0c-.457-.22-.91-.427-1.36-.621h0c-.459-.2-.915-.383-1.37-.555h0c-.078-.031-.154-.054-.232-.081h0c-.07-.029-.139-.05-.209-.076h0c-.307-.112-.616-.225-.92-.324h0c-.471-.153-.94-.293-1.4-.418h0c-.225-.059-.446-.106-.668-.16h0C30.1.945,30,.92,29.9.9h0c-.145-.032-.29-.074-.434-.1h0c-.5-.1-.995-.193-1.487-.263h0c-.3-.043-.6-.068-.895-.1h0c-.105-.011-.21-.027-.315-.034h0c-.1-.009-.2-.025-.3-.034h0c-.5-.038-1-.056-1.489-.056h-.107Z" fill="#22286c"/>
              <path id="Fill-21" d="M24.877.308c-.232,0-.456.025-.684.034h0c-.175.007-.354.016-.529.027h0C23.482.382,23.3.38,23.116.4h0a17.279,17.279,0,0,0-1.958.3h0l-.035.013h0c-.142.031-.275.088-.417.122h0a15.921,15.921,0,0,0-1.921.573h0c-.072.027-.142.065-.214.094h0c-.105.04-.2.09-.309.135h0A15.509,15.509,0,0,0,16.037,2.78h0L.851,12.3a16.026,16.026,0,0,1,2.23-1.143h0c.1-.043.2-.092.307-.135h0a16.359,16.359,0,0,1,2.138-.666h0c.14-.032.27-.09.414-.121h0a17.649,17.649,0,0,1,2.54-.346h0c.175-.013.352-.02.531-.027h0a19.747,19.747,0,0,1,2.58.056h0c.1.009.21.023.315.034h0a23.31,23.31,0,0,1,2.812.466h0c.1.022.2.047.294.07h0a27.844,27.844,0,0,1,2.991.9h0c.068.023.139.047.209.072h0a34.313,34.313,0,0,1,3.221,1.392h0l.222.112h0c1.107.556,2.226,1.177,3.363,1.883h0l144.974,90.3q1.722,1.072,3.4,2.33h0c.067.049.132.1.2.151h0c1.04.785,2.069,1.622,3.079,2.5h0l.34.3h0q1.467,1.3,2.887,2.72h0c.112.113.227.225.337.34h0q1.434,1.458,2.815,3.032h0c.078.09.157.176.235.265h0q1.47,1.7,2.867,3.507h0c.012.013.022.027.032.04h0q1.432,1.858,2.772,3.822h0l0,0h0c.816,1.2,1.6,2.427,2.367,3.675h0c.472.774.92,1.57,1.372,2.36h0c.376.657.766,1.305,1.127,1.975h0c.169.315.33.639.5.96h0c.591,1.125,1.17,2.261,1.712,3.412h0c.058.124.118.248.179.373h0c.653,1.4,1.275,2.818,1.854,4.245h0c.03.074.057.146.087.218h0a73.237,73.237,0,0,1,5.689,27.018h0l15.184-9.517a71.25,71.25,0,0,0-4.541-23.942h0l.023-.016q-.32-.891-.663-1.779h0c-.165-.429-.339-.855-.511-1.282h0l-.085-.218h0c-.035-.081-.065-.164-.1-.247h0c-.242-.592-.492-1.181-.746-1.768h0q-.423-.972-.87-1.935h0c-.045-.1-.093-.2-.14-.3h0c-.058-.126-.118-.248-.179-.371h0c-.24-.513-.482-1.024-.734-1.532h0c-.314-.637-.651-1.26-.981-1.889h0c-.165-.317-.325-.637-.494-.951h0c-.067-.124-.127-.252-.2-.376h0c-.3-.546-.628-1.069-.935-1.606h0c-.451-.789-.9-1.583-1.369-2.353h0c-.075-.124-.144-.254-.219-.376h0q-1.041-1.68-2.148-3.3h0v0q-.741-1.083-1.51-2.135h0q-.621-.853-1.263-1.683h0a.246.246,0,0,0-.03-.043h0a.088.088,0,0,0-.017-.02h0c-.429-.56-.868-1.113-1.312-1.656h0q-.651-.8-1.318-1.579h0c-.073-.085-.149-.166-.22-.248h0c-.08-.09-.159-.178-.237-.268h0c-.309-.353-.618-.709-.933-1.053h0c-.472-.519-.948-1.028-1.432-1.527h0c-.147-.153-.3-.3-.449-.45h0c-.112-.115-.227-.229-.34-.344h0c-.234-.232-.466-.475-.7-.7h0q-.749-.726-1.51-1.422h0c-.222-.2-.449-.392-.671-.591h0l-.339-.3h0c-.169-.146-.332-.3-.5-.438h0c-.494-.421-.99-.83-1.492-1.228h0c-.361-.288-.726-.562-1.09-.837h0c-.067-.05-.132-.1-.2-.153h0c-.063-.045-.125-.1-.187-.142h0c-.479-.353-.958-.7-1.442-1.028h0q-.713-.492-1.437-.949h0l-.334-.211h0L40.2,5.333c-.362-.227-.721-.443-1.078-.652h0c-.466-.272-.931-.531-1.392-.778h0c-.3-.16-.6-.306-.893-.456h0c-.073-.036-.145-.076-.219-.11h0c-.087-.043-.177-.094-.262-.135h0c-.457-.22-.91-.427-1.36-.621h0c-.459-.2-.915-.383-1.37-.555h0c-.078-.031-.154-.054-.232-.081h0c-.07-.029-.139-.05-.209-.076h0c-.307-.112-.616-.225-.92-.324h0c-.471-.153-.94-.293-1.4-.418h0c-.225-.059-.446-.106-.668-.16h0C30.1.945,30,.92,29.9.9h0c-.145-.032-.29-.074-.434-.1h0c-.5-.1-.995-.193-1.487-.263h0c-.3-.043-.6-.068-.895-.1h0c-.105-.011-.21-.027-.315-.034h0c-.1-.009-.2-.025-.3-.034h0c-.5-.038-1-.056-1.489-.056h-.107Z" fill="none" fill-rule="evenodd"/>
            </g>
            <g id="Group-26" transform="translate(426.58 135.962)">
              <path id="Clip-25" d="M6.4,10.051q.323.894.624,1.793h0c.209.623.411,1.244.6,1.869h0q.293.945.564,1.894h0c.184.643.357,1.289.524,1.934h0q.248.972.474,1.944h0q.22.959.414,1.919h0c.129.639.249,1.273.36,1.91h0c.107.619.205,1.235.3,1.851h0q.135.924.244,1.84h0q.105.9.185,1.8h0q.078.894.13,1.782h0c.035.592.062,1.183.077,1.77h0q.023.832.022,1.653h0L9.925,409.273c0,1.392-.065,2.726-.177,4.017h0c-.01.115-.022.23-.033.348h0q-.165,1.774-.462,3.415h0c-.025.146-.052.292-.08.436h0c-.2,1.059-.449,2.072-.729,3.045h0c-.053.182-.11.358-.167.537h0a26.751,26.751,0,0,1-.95,2.621h0c-.037.088-.067.187-.107.277h0a24.228,24.228,0,0,1-1.364,2.668h0c-.068.113-.147.211-.215.322h0a20.56,20.56,0,0,1-1.313,1.871h0c-.169.212-.345.416-.521.619h0a18,18,0,0,1-1.275,1.327h0c-.18.175-.362.353-.552.517h0a16.409,16.409,0,0,1-1.963,1.475h0L15.2,423.248a16.309,16.309,0,0,0,1.963-1.476h0c.192-.164.369-.34.554-.513h0a18.351,18.351,0,0,0,1.272-1.329h0c.175-.205.354-.407.522-.621h0a20.04,20.04,0,0,0,1.313-1.869h0c.067-.113.147-.209.214-.324h0c.015-.023.033-.047.048-.072h0a23.932,23.932,0,0,0,1.283-2.506h0a.761.761,0,0,1,.033-.086h0c.038-.092.072-.191.108-.284h0c.237-.556.464-1.118.671-1.712h0c.1-.292.184-.6.275-.9h0c.057-.182.115-.36.169-.542h0c.048-.164.1-.319.149-.486h0c.167-.6.315-1.228.452-1.869h0c.047-.223.085-.457.127-.684h0c.03-.148.055-.293.082-.441h0c.042-.223.087-.439.125-.666h0q.138-.859.242-1.75h0c.038-.326.063-.664.1-1h0c.012-.117.023-.23.032-.347h0c.013-.14.032-.275.042-.416h0c.043-.565.075-1.142.1-1.727h0c.022-.58.035-1.17.037-1.77h0c0-.034,0-.068,0-.1h0L26.1,24.488c0-.549-.007-1.1-.022-1.653h0q-.025-.883-.077-1.773h0c-.035-.591-.078-1.186-.132-1.781h0c-.053-.6-.113-1.194-.185-1.8h0c-.07-.61-.154-1.226-.242-1.84h0q-.135-.924-.3-1.851h0q-.165-.953-.359-1.912h0c-.129-.637-.267-1.278-.414-1.917h0q-.225-.972-.476-1.944h0q-.25-.967-.522-1.935h0q-.27-.948-.564-1.894h0q-.288-.934-.6-1.867h0c-.2-.6-.409-1.2-.626-1.8h0Z" fill="#22286c"/>
              <path id="Fill-24" d="M6.4,10.051q.323.894.624,1.793h0c.209.623.411,1.244.6,1.869h0q.293.945.564,1.894h0c.184.643.357,1.289.524,1.934h0q.248.972.474,1.944h0q.22.959.414,1.919h0c.129.639.249,1.273.36,1.91h0c.107.619.205,1.235.3,1.851h0q.135.924.244,1.84h0q.105.9.185,1.8h0q.078.894.13,1.782h0c.035.592.062,1.183.077,1.77h0q.023.832.022,1.653h0L9.925,409.273c0,1.392-.065,2.726-.177,4.017h0c-.01.115-.022.23-.033.348h0q-.165,1.774-.462,3.415h0c-.025.146-.052.292-.08.436h0c-.2,1.059-.449,2.072-.729,3.045h0c-.053.182-.11.358-.167.537h0a26.751,26.751,0,0,1-.95,2.621h0c-.037.088-.067.187-.107.277h0a24.228,24.228,0,0,1-1.364,2.668h0c-.068.113-.147.211-.215.322h0a20.56,20.56,0,0,1-1.313,1.871h0c-.169.212-.345.416-.521.619h0a18,18,0,0,1-1.275,1.327h0c-.18.175-.362.353-.552.517h0a16.409,16.409,0,0,1-1.963,1.475h0L15.2,423.248a16.309,16.309,0,0,0,1.963-1.476h0c.192-.164.369-.34.554-.513h0a18.351,18.351,0,0,0,1.272-1.329h0c.175-.205.354-.407.522-.621h0a20.04,20.04,0,0,0,1.313-1.869h0c.067-.113.147-.209.214-.324h0c.015-.023.033-.047.048-.072h0a23.932,23.932,0,0,0,1.283-2.506h0a.761.761,0,0,1,.033-.086h0c.038-.092.072-.191.108-.284h0c.237-.556.464-1.118.671-1.712h0c.1-.292.184-.6.275-.9h0c.057-.182.115-.36.169-.542h0c.048-.164.1-.319.149-.486h0c.167-.6.315-1.228.452-1.869h0c.047-.223.085-.457.127-.684h0c.03-.148.055-.293.082-.441h0c.042-.223.087-.439.125-.666h0q.138-.859.242-1.75h0c.038-.326.063-.664.1-1h0c.012-.117.023-.23.032-.347h0c.013-.14.032-.275.042-.416h0c.043-.565.075-1.142.1-1.727h0c.022-.58.035-1.17.037-1.77h0c0-.034,0-.068,0-.1h0L26.1,24.488c0-.549-.007-1.1-.022-1.653h0q-.025-.883-.077-1.773h0c-.035-.591-.078-1.186-.132-1.781h0c-.053-.6-.113-1.194-.185-1.8h0c-.07-.61-.154-1.226-.242-1.84h0q-.135-.924-.3-1.851h0q-.165-.953-.359-1.912h0c-.129-.637-.267-1.278-.414-1.917h0q-.225-.972-.476-1.944h0q-.25-.967-.522-1.935h0q-.27-.948-.564-1.894h0q-.288-.934-.6-1.867h0c-.2-.6-.409-1.2-.626-1.8h0Z" fill="none" fill-rule="evenodd"/>
            </g>
            <g id="Group-29" transform="translate(223.03 10.574)">
              <path id="Clip-28" d="M1.565,26.794.581,402.061c-.062,23.238,15.1,51.572,33.849,63.248h0l144.974,90.3c18.747,11.676,34.01,2.294,34.07-20.946h0l.988-375.267c.06-23.256-15.1-51.572-33.849-63.248h0L35.639,5.848C30.164,2.438,24.989.823,20.4.825h0c-11.125,0-18.792,9.5-18.836,25.97" fill="#3943b7"/>
              <path id="Fill-27" d="M1.565,26.794.581,402.061c-.062,23.238,15.1,51.572,33.849,63.248h0l144.974,90.3c18.747,11.676,34.01,2.294,34.07-20.946h0l.988-375.267c.06-23.256-15.1-51.572-33.849-63.248h0L35.639,5.848C30.164,2.438,24.989.823,20.4.825h0c-11.125,0-18.792,9.5-18.836,25.97" fill="none" fill-rule="evenodd"/>
            </g>
            <g id="Group-32" transform="translate(308.146 85.549)">
              <path id="Fill-30" d="M.522,3.2a9.926,9.926,0,0,0,4.1,7.677h0L42.006,34.166c2.27,1.412,4.119.277,4.127-2.555h0a9.931,9.931,0,0,0-4.1-7.659h0L4.648.667A3.531,3.531,0,0,0,2.8.06h0C1.455.06.527,1.21.522,3.2" fill="none" fill-rule="evenodd"/>
            </g>
            <g id="Group-35" transform="translate(318.767 464.286)">
              <path id="Fill-33" d="M.626,9.553c-.02,7.589,4.93,16.838,11.05,20.649h0c6.122,3.813,11.1.751,11.123-6.838h0c.02-7.589-4.93-16.834-11.05-20.649h0A9.582,9.582,0,0,0,6.776,1.077h0c-3.633,0-6.137,3.1-6.15,8.477" fill="none" fill-rule="evenodd"/>
            </g>
            <g id="Group-48" transform="translate(235.32 72.946)">
              <path id="Fill-36" d="M187.287,114.713a8.225,8.225,0,0,1,3.4,6.354l-.824,313.56c-.007,2.333-1.537,3.277-3.423,2.1L4.026,323.115a8.225,8.225,0,0,1-3.4-6.354L1.449,3.2C1.456.865,2.988-.076,4.872,1.1Z" fill="#f9fbfc" fill-rule="evenodd"/>
              <path id="Fill-38" d="M210.127,223.495h0a2.244,2.244,0,0,1-2.155-2.324V151.448a2.161,2.161,0,1,1,4.309,0v69.722a2.244,2.244,0,0,1-2.155,2.324" fill="#f9fbfc" fill-rule="evenodd"/>
              <path id="Fill-40" d="M210.127,310.26h0a2.243,2.243,0,0,1-2.155-2.323V238.214a2.161,2.161,0,1,1,4.309,0v69.724a2.243,2.243,0,0,1-2.155,2.323" fill="#f9fbfc" fill-rule="evenodd"/>
              <path id="Fill-42" d="M210.127,416.879h0a2.244,2.244,0,0,1-2.155-2.324V378.434a2.161,2.161,0,1,1,4.309,0v36.121a2.244,2.244,0,0,1-2.155,2.324" fill="#3943b7" fill-rule="evenodd"/>
              <path id="Fill-44" d="M93.95,136.661c9.333,5.814,16.891,19.846,16.985,31.456,0,.094,0,.191,0,.284-.392.169-7.834,3.369-17.3-2.321-.11-.065-.22-.133-.33-.2-7.4-4.609-13.458-13.748-15.62-17.277-.551-.9-.834-1.412-.849-1.439.032-11.661,7.689-16.37,17.112-10.5" fill="#fff" fill-rule="evenodd"/>
              <path id="Fill-46" d="M170.741,237.808a9.409,9.409,0,0,1,3.894,7.258l-.047,17.682c-.007,2.677-1.759,3.756-3.92,2.409L20.757,171.786a9.414,9.414,0,0,1-3.894-7.276l.047-17.682c.007-2.659,1.759-3.736,3.919-2.391Z" fill="#e5e6f7" fill-rule="evenodd"/>
            </g>
            <g id="Group-51" transform="translate(300.409 163.612)">
              <path id="Fill-49" d="M3.453,8.612c-.2.383-.384.78-.564,1.188h0a26.657,26.657,0,0,0-1.9,7.054h0a38.692,38.692,0,0,0-.335,5.083h0c0,.535.01,1.075.028,1.615h0c0,.112.005.225.012.338h0q.03.791.088,1.59h0c.008.092.017.185.023.277h0c.042.51.087,1.019.162,1.716h0c.062.546.135,1.091.214,1.638h0c.017.119.035.234.053.353h0c.08.547.17,1.1.305,1.827h0c.093.52.2,1.039.307,1.559h0c.022.1.04.2.062.293h0c.118.547.247,1.1.381,1.644h0c.027.113.055.223.082.335h0q.426,1.7.948,3.39h0c.033.112.067.221.1.331h0c.174.551.35,1.1.537,1.651h0c.032.088.06.175.092.259h0c.179.524.365,1.044.629,1.755h0q.308.824.639,1.644h0c.045.113.09.225.137.338h0c.224.547.452,1.091.754,1.782h0q.335.77.693,1.534h0c.043.1.088.193.134.29h0q.376.8.766,1.581h0c.052.1.1.2.154.3h0c.267.526.536,1.046.838,1.613h0c.28.528.571,1.048.861,1.565h0c.063.108.124.216.185.324h0c.289.5.579,1,.88,1.5h0c.052.083.1.166.154.25h0c.282.463.569.92.99,1.581h0c.217.338.442.668.663,1h0c-.5-.825-.763-1.293-.774-1.318h0c.03-11.661,7.689-16.37,17.112-10.5h0c9.326,5.81,16.885,19.837,16.983,31.445h0c.157-.056.317-.1.566-.2h0c.3-.122.6-.257.89-.4h0c.062-.027.12-.058.179-.086h0c.282-.146.562-.3.834-.466h0c.053-.031.105-.065.157-.1h0c.28-.175.556-.358.88-.6h0c.262-.193.516-.4.764-.614h0l.117-.1h0c.247-.218.489-.45.726-.69h0c.045-.047.09-.092.134-.139h0c.237-.245.464-.5.686-.765h0c.033-.038.065-.079.1-.117h0c.229-.281.452-.567.674-.88h0c.214-.3.419-.618.616-.94h0c.032-.05.063-.1.092-.149h0c.19-.311.369-.634.541-.965h0c.035-.063.068-.13.1-.194h0c.172-.337.335-.682.556-1.181h0c.152-.353.3-.713.476-1.2h0c.139-.383.269-.78.392-1.185h0c.022-.072.045-.146.067-.218h0c.118-.4.227-.808.33-1.226h0c.02-.074.037-.148.055-.223h0c.1-.43.2-.87.3-1.44h0c.082-.441.152-.891.242-1.523h0c.062-.465.117-.942.16-1.422h0c.008-.094.018-.185.027-.281h0c.04-.484.073-.974.1-1.475h0c0-.081,0-.162.008-.243h0c.022-.526.037-1.06.037-1.606h0a47.924,47.924,0,0,0-.309-5.486h0a59.981,59.981,0,0,0-1.856-9.393h0q-.528-1.89-1.172-3.768h0c-.292-.85-.607-1.7-.93-2.539h0C47.445,22.8,38.709,10.884,28.736,4.67h0C24.223,1.86,19.957.529,16.175.529h0C10.646.529,6.157,3.378,3.453,8.612m25.8,34.2C23.519,39.235,18.874,30.55,18.889,23.442h0c.02-7.128,4.7-9.989,10.434-6.415h0c5.749,3.581,10.384,12.239,10.366,19.367h0c-.015,5.036-2.358,7.953-5.77,7.953h0a8.992,8.992,0,0,1-4.665-1.538" fill-rule="evenodd" fill="url(#linear-gradient-3)"/>
            </g>
            <g id="Group-56" transform="translate(252.01 179.015)">
              <path id="Fill-52" d="M77.722,1.624C83.472,5.205,88.106,13.864,88.088,20.99s-4.683,10-10.433,6.415S67.271,15.147,67.291,8.037C67.31.911,71.986-1.948,77.722,1.624" fill="#fff" fill-rule="evenodd"/>
              <path id="Fill-54" d="M153.951,170.222a9.421,9.421,0,0,1,3.894,7.276l-.047,17.68c-.007,2.679-1.761,3.74-3.92,2.393L3.966,104.2A9.379,9.379,0,0,1,.073,96.94L.119,79.26c.007-2.677,1.759-3.754,3.919-2.409Z" fill="#e5e6f7" fill-rule="evenodd"/>
            </g>
            <g id="Group-59" transform="translate(288.727 345.457)">
              <path id="Fill-57" d="M.928,7.938.92,12C.9,18.339,5.042,26.056,10.159,29.245h0l48.486,30.2c5.117,3.187,9.268.634,9.286-5.711h0l.012-4.056c.015-6.327-4.112-14.054-9.228-17.239h0L10.231,2.236A8.009,8.009,0,0,0,6.072.866h0C3.034.866.941,3.459.928,7.938" fill-rule="evenodd" fill="url(#linear-gradient-4)"/>
            </g>
            <g id="Group-69" transform="translate(186.921 361.018)">
              <g id="Group-62" transform="translate(0 226.856)">
                <path id="Fill-60" d="M111.051,35.545c0,19.5-24.667,35.316-55.1,35.316S.863,55.049.863,35.545,25.53.229,55.956.229s55.1,15.812,55.1,35.316" fill-rule="evenodd" fill="url(#linear-gradient-5)"/>
              </g>
              <path id="Fill-63" d="M111.887,22.408A26.451,26.451,0,0,0,116,18.858c.823-1.183,1.918-7.987.823-8.282s-1.919,4.436-1.919,4.436-.275-12.425-1.647-14.2-5.758,7.1-6.032,8.581-1.372,7.69-1.372,7.69,1.646,5.326,6.033,5.326" fill="#ff9d6f" fill-rule="evenodd"/>
              <path id="Fill-65" d="M28.073,58.078s-8.6,9.3-2.565,20.536S72.674,62.048,77.061,57.907s33.179-31.949,34.826-35.5-1.921-7.1-6.309-6.509S83.642,36.608,69.932,46.075c0,0-32.713,8.032-41.859,12" fill="#22286c" fill-rule="evenodd"/>
              <path id="Fill-67" d="M33.112,254.794s-.708,5.6.235,7.891a5.1,5.1,0,0,0,7.315,1.527,77.471,77.471,0,0,0,7.08-7.128s7.552-4.326,8.258-6.617-1.888-4.33-4.01-3.819-8.26,4.582-11.09,4.582-6.844.762-7.787,3.563" fill="#515dea" fill-rule="evenodd"/>
            </g>
            <g id="Group-72" transform="translate(211.955 496.051)">
              <path id="Fill-70" d="M7.726,121.536c.824,3.406,9.389,5.364,10.978-.049h0C19.712,118.054,22.2,9.242,22.2,9.242h0L.3.55S6.9,118.13,7.726,121.536" fill-rule="evenodd" fill="url(#linear-gradient-6)"/>
            </g>
            <path id="Fill-73" d="M241.872,622.808a1.887,1.887,0,0,0-.579,1.372c-.013,1.615.055,5.219.9,6.622a6.057,6.057,0,0,0,8.2,1.653c3.056-1.79,12.464-9.377,14.373-11.055a6.145,6.145,0,0,0,1.9-3.244,1.884,1.884,0,0,0-.966-2.134c-1.332-.641-3.613-1.44-5.653-.7-3.116,1.131-7.04,4.771-11.282,4.575-3.189-.148-5.8,1.891-6.9,2.911" fill="#515dea" fill-rule="evenodd"/>
            <g id="Group-77" transform="translate(220.3 492.411)">
              <path id="Fill-75" d="M25.258.648C15.733.094.985.535.467,8.507h0C-.3,20.318,4.833,28.742,9.783,34.475h0C13.44,38.71,15.875,46.812,16.9,50.762h0c.868,31.182,2.782,75.158,3.979,79.367h0C22.8,136.908,32.284,136.6,32.711,130h0C34.632,107.69,36.148,5.459,36.148,5.459h0C35.792,1.82,32.7.011,29.076.011h0a12.151,12.151,0,0,0-3.819.637" fill-rule="evenodd" fill="url(#linear-gradient-7)"/>
            </g>
            <g id="Group-105" transform="translate(13.352 359.86)">
              <path id="Fill-78" d="M243.122,141.692c-1.118,6.033-17.058,9.049-26.379,7.441s-19.36-6.543-19.028-18.2c0,0,1.771-27.873,1.061-32.837S196.3,84.346,196.3,75.183a28.265,28.265,0,0,1,5.342-15.948s5.22-6.437,21.626-2.816c0,0,13.365,3.142,19.517,13.8,0,0,4.247,11.71,2.832,36.148s-2.5,35.325-2.5,35.325" fill="#22286c" fill-rule="evenodd"/>
              <path id="Fill-80" d="M210.457,43.49s1.415,8.909,0,12.983c-.237,2.036,8.023,8.909,15.338,7.128,4.247-1.019,4.012-3.311,4.012-3.311s-3.54-6.363-3.068-12.473-11.327-5.6-16.282-4.326" fill="#ff7c40" fill-rule="evenodd"/>
              <path id="Fill-82" d="M238.065,25.544c0,11.6-8.715,21-19.467,21s-19.468-9.4-19.468-21,8.717-21,19.468-21,19.467,9.4,19.467,21" fill="#ff9d6f" fill-rule="evenodd"/>
              <path id="Fill-84" d="M238.065,26.943s.237,21.038-4.01,25.284-10.768-3.975-21.2-6.611c-10.424-2.89,8.453-24.763,8.453-24.763Z" fill="#ff9d6f" fill-rule="evenodd"/>
              <path id="Fill-86" d="M281.274,58.029s-1.851-8.21-1.233-8.876,3.084,2.886,3.084,2.886,1.235-8.431,2.263-9.319,5.142,3.55,5.758,5.99-2.467,12.2-3.7,12.427-5.553.886-6.17-3.108" fill="#ff9d6f" fill-rule="evenodd"/>
              <path id="Fill-88" d="M237.056,67.791s-8.637,4.438-4.937,15.975,31.263,15.974,34.554,12.423,17.686-21.742,21.8-35.5c0,0-1.646-5.324-8.228-3.106,0,0-15.63,21.3-18.1,23.519S241.17,66.9,237.056,67.791" fill="#22286c" fill-rule="evenodd"/>
              <path id="Fill-90" d="M201.939,9.54s6.067-8,16.514-8.727,15.5,2.91,19.547,2.546,7.751,3.273,6.4,8.725-4.381,10.909-11.12,10.909-8.426-1.093-8.426-1.093,5.392,2.546,6.067,7.636a121.939,121.939,0,0,1,.674,12.726h-1.686s-1.347-8.363-4.044-8.363-2.7,9.09-.337,10.545l2.36,1.453s-4.526,9.047-6.981,9.433-10.544-6.159-10.544-6.159-13.48-6.908-14.829-18.179,6.4-21.451,6.4-21.451" fill="#2731a3" fill-rule="evenodd"/>
              <g id="Group-94" transform="translate(0 169.242)">
                <path id="Fill-92" d="M110.924,35.8c0,19.506-24.665,35.316-55.092,35.316S.738,55.306.738,35.8,25.4.484,55.833.484,110.924,16.3,110.924,35.8" fill-rule="evenodd" fill="url(#linear-gradient-5)"/>
              </g>
              <path id="Fill-95" d="M27.925,108.452s3.7,25.293,6.786,39.27c0,0,.618,23.3,1.235,31.283S38.415,204.3,38.415,204.3a4.192,4.192,0,0,0,4.626.668s3.086-49.588,3.7-57.575,2.777-43.927,2.777-43.927-7.095-6.989-21.594,4.991" fill="#f5b697" fill-rule="evenodd"/>
              <path id="Fill-97" d="M51.062,98.469s3.7,25.293,6.786,39.27c0,0,.618,23.3,1.235,31.283s2.467,25.291,2.467,25.291a4.194,4.194,0,0,0,4.628.668s3.084-49.588,3.7-57.575.926-43.6.926-43.6-5.244-7.321-19.744,4.66" fill="#f5b697" fill-rule="evenodd"/>
              <path id="Fill-99" d="M32.552,74.286s-8.74,10.315-3.7,45.26c.309,4.991,3.393,17.86,3.393,17.86a49.046,49.046,0,0,0,24.989-3.662c13.572-5.657,13.881-8.651,13.881-8.651s.618-43.819-2.468-55.133-36.092,4.326-36.092,4.326" fill="#22286c" fill-rule="evenodd"/>
              <path id="Fill-101" d="M66.332,192.649a5.321,5.321,0,0,0,2.16,4.492c2.467,2,7.095,5.659,7.866,7.821,0,1.664-5.861-.167-8.483-1.664a20.2,20.2,0,0,1-5.09-4.993l.155,1.5a2.514,2.514,0,0,1-1.7-.832c-.771-.832.154-5.99.154-5.99Z" fill="#404cd5" fill-rule="evenodd"/>
              <path id="Fill-103" d="M43.2,204.131a5.321,5.321,0,0,0,2.16,4.492c2.468,2,7.095,5.659,7.866,7.821,0,1.664-5.86-.167-8.483-1.664a20.207,20.207,0,0,1-5.089-4.993l.154,1.5a2.517,2.517,0,0,1-1.7-.832c-.771-.832.155-5.99.155-5.99Z" fill="#404cd5" fill-rule="evenodd"/>
            </g>
            <g id="Group-108" transform="translate(69.488 367.062)">
              <path id="Fill-106" d="M2.4,27.136c5.549,9.73,19.073,21.7,24.969,21.7h0c5.9,0,36.067-2.992,38.5-5.986h0c2.427-2.994.347-7.11-1.389-7.11h0c-1.732,0-23.582,1.125-28.783,0h0c-5.2-1.12-9.712-2.242-12.814-14.656h0C17.692,2.314,9.682.949,9.682.949h0A4.38,4.38,0,0,0,9.223.924h0C2.171.924-3.031,17.616,2.4,27.136" fill="none" fill-rule="evenodd"/>
            </g>
            <g id="Group-111" transform="translate(0 314.849)">
              <path id="Fill-109" d="M75.356,6.4S83.331,17.43,81.6,29.778,69.806,41.564,68.072,48.3s4.855,16.463-4.161,22.822-13.18,4.863-15.606,18.332-11.1,20.577-26.01,22.073S-3.021,93.568.792,79.35s16.993-9.726,19.767-21.324,1.736-20.765,11.1-25.253,5.9-21.514,15.259-26.751c9.565-5.349,21.5-8.23,28.439.374" fill="#2731a3" fill-rule="evenodd"/>
            </g>
            <g id="Group-114" transform="translate(33.379 363.461)">
              <path id="Fill-112" d="M21.207.8S4.054,14.02,2.358,18.419h0c-1.7,4.4-4.094,18.085,1.475,24.8h0C13.478,54.84,7.67,74.81,8.942,80.683h0c1.275,5.875,14.361,6.6,23.445,4.708h0c9.084-1.894,17.5-6.907,17.153-18.334h0C49.2,55.63,52,39.956,52.577,34.808h0c.574-5.147-.052-18.076-2.266-26.742h0c-.467-1.831-6.173-3.749-6.173-3.749h0S39.068.7,25.178.7h0Q23.3.7,21.207.8" fill-rule="evenodd" fill="url(#linear-gradient-9)"/>
            </g>
            <g id="Group-124" transform="translate(40.055 318.45)">
              <path id="Fill-115" d="M29.447,43.316a2.042,2.042,0,0,0,.007.6c.189,1.356.814,4.825.931,6.273.112,1.39-1.349,3.8-4.825,3.72s-9.373-1.644-11.335-6.113A111.491,111.491,0,0,0,13.647,34.6Z" fill="#ff7c40" fill-rule="evenodd"/>
              <path id="Fill-117" d="M39.081,18.382C37.221,7.655,29.343,1.568,20.434,3.815c0,0-9.656,1.044-13.947,10.194s2.011,16.847,6.047,21.7c1.7,1.991,2.987,3.531,3.8,4.508.294.369.582.745.888,1.082l.087.1.01-.009a19.93,19.93,0,0,0,8.255,5.4c3.885,1.25,8.48.535,10.96-2.319s4.411-15.372,2.55-26.1" fill="#ff9d6f" fill-rule="evenodd"/>
              <path id="Fill-119" d="M40.676,25.616s-7.11.749-11.27-4.489-10.059,0-14.914-4.49a17.855,17.855,0,0,1,0,11.224c-2.081,5.612-2.774,14.218-2.774,14.218L2.7,26.739V13.27l11.446-11.6L29.406.925l7.282,7.481s4.683,11.6,3.989,17.21" fill="#2731a3" fill-rule="evenodd"/>
            </g>
            <g id="Group-127" transform="translate(33.379 386.867)">
              <path id="Fill-125" d="M2.121,14.461C6.978,31.3,23.277,43.643,29.173,42.9h0C35.069,42.147,59,14.836,59,11.467h0C59,8.1,56.223,5.857,53.448,6.6h0C50.674,7.353,32.294,28.679,30.56,27.93h0C28.826,27.18,18.075,7.728,8.712.619h0A8.088,8.088,0,0,0,6.849.412h0c-3.021,0-8.308,1.629-4.728,14.049" fill-rule="evenodd" fill="url(#linear-gradient-10)"/>
            </g>
            <g id="Group-140" transform="translate(86.177 299.802)">
              <path id="Fill-128" d="M2.945,99.763A3.715,3.715,0,0,1,.653,95.024c.955-3.709,7.258-6.593,8.213-6.8s10.314,1.853,10.695,3.09-1.719,1.854-4.01,1.237a35.4,35.4,0,0,0-5.729-.825s2.482,2.884,2.291,4.121a7.747,7.747,0,0,1-3.438,4.739c-1.909,1.03-4.2-1.237-4.2-1.237Z" fill="#ff9d6f" fill-rule="evenodd"/>
              <path id="Fill-130" d="M44.908,103.555s7.562-6.943,7.986-5.7-2.584,4.688-2.584,4.688,10.122-4.184,10.241-2.765-5.344,5.868-6.788,6.919-6.6,2.56-6.6,2.56-2.831-4.091-2.255-5.7" fill="#ff9d6f" fill-rule="evenodd"/>
              <path id="Fill-132" d="M10.589,41.563a10.972,10.972,0,0,0-4.5,8.444l.3,114.7c.02,7.31,4.837,10.3,10.7,6.645l63.335-39.448a10.978,10.978,0,0,0,4.506-8.448l-.3-114.7c-.018-7.31-4.835-10.3-10.7-6.645Z" fill="#3943b7" fill-rule="evenodd"/>
              <path id="Fill-134" d="M20.308,83.13a3.245,3.245,0,0,0-1.342,2.5l.017,6.091c0,.922.606,1.293,1.35.83L71.975,60.386a3.245,3.245,0,0,0,1.34-2.5L73.3,51.789c0-.916-.606-1.287-1.35-.823Z" fill="#fff" fill-rule="evenodd"/>
              <path id="Fill-136" d="M20.343,96.387A3.248,3.248,0,0,0,19,98.895l.017,6.089c0,.922.606,1.287,1.35.823L72.01,73.644a3.235,3.235,0,0,0,1.34-2.5l-.017-6.089c0-.924-.6-1.295-1.349-.832Z" fill="#fff" fill-rule="evenodd"/>
              <path id="Fill-138" d="M40.5,106.258a7.7,7.7,0,0,0-3.179,5.94l.005,1.4c.005,2.186,1.435,3.064,3.2,1.968l16.7-10.4a7.7,7.7,0,0,0,3.184-5.941l-.005-1.4c-.005-2.179-1.442-3.063-3.2-1.962Z" fill="#fff" fill-rule="evenodd"/>
            </g>
          </g>
        </g>
      </g>
    </g>
  </g>
</svg>
