<svg xmlns="http://www.w3.org/2000/svg" xmlns:xlink="http://www.w3.org/1999/xlink" viewBox="0 0 747.38 847.37"><defs><style>.cls-1{fill:#6c63ff;opacity:0.1;isolation:isolate;}.cls-2,.cls-9{fill:#3943b7;}.cls-10,.cls-11,.cls-12,.cls-13,.cls-14,.cls-15,.cls-16,.cls-17,.cls-18,.cls-19,.cls-20,.cls-21,.cls-22,.cls-23,.cls-24,.cls-25,.cls-26,.cls-3,.cls-4,.cls-5,.cls-8,.cls-9{fill-rule:evenodd;}.cls-3{fill:url(#linear-gradient);}.cls-4{fill:#272e7d;}.cls-5{fill:#c7caed;}.cls-16,.cls-6{fill:#22286c;}.cls-7{fill:none;}.cls-8{fill:#f9fbfc;}.cls-10{fill:#fff;}.cls-11{fill:#e5e6f7;}.cls-12{fill:url(#linear-gradient-2);}.cls-13{fill:url(#linear-gradient-3);}.cls-14{fill:url(#linear-gradient-4);}.cls-15{fill:#ff9d6f;}.cls-17{fill:#515dea;}.cls-18{fill:url(#linear-gradient-5);}.cls-19{fill:url(#linear-gradient-6);}.cls-20{fill:#ff7c40;}.cls-21{fill:#2731a3;}.cls-22{fill:url(#linear-gradient-7);}.cls-23{fill:#f5b697;}.cls-24{fill:#404cd5;}.cls-25{fill:url(#linear-gradient-8);}.cls-26{fill:url(#linear-gradient-9);}</style><linearGradient id="linear-gradient" x1="64.17" y1="800.56" x2="65.11" y2="800.22" gradientTransform="matrix(204.42, 0, 0, -123.91, -12817.55, 99883.87)" gradientUnits="userSpaceOnUse"><stop offset="0" stop-color="#3943b7"/><stop offset="1" stop-color="#2b306c"/></linearGradient><linearGradient id="linear-gradient-2" x1="65.23" y1="799.45" x2="64.71" y2="799.8" gradientTransform="matrix(56, 0, 0, -76.91, -3220.51, 61859.95)" xlink:href="#linear-gradient"/><linearGradient id="linear-gradient-3" x1="65.42" y1="798.97" x2="64.43" y2="799.24" gradientTransform="matrix(67.02, 0, 0, -59.95, -3937.87, 48441.43)" xlink:href="#linear-gradient"/><linearGradient id="linear-gradient-4" x1="64.21" y1="799.5" x2="65.21" y2="799.5" gradientTransform="matrix(110.19, 0, 0, -70.63, -6803.95, 57250.1)" xlink:href="#linear-gradient"/><linearGradient id="linear-gradient-5" x1="65.39" y1="801.32" x2="65.45" y2="799.99" gradientTransform="matrix(21.9, 0, 0, -124.31, -1125.99, 100209.43)" gradientUnits="userSpaceOnUse"><stop offset="0" stop-color="#272e7d"/><stop offset="1" stop-color="#3943b7"/></linearGradient><linearGradient id="linear-gradient-6" x1="65.02" y1="801.42" x2="65.16" y2="800.09" gradientTransform="matrix(35.76, 0, 0, -135.07, -2004.87, 108839.96)" xlink:href="#linear-gradient-5"/><linearGradient id="linear-gradient-7" x1="64.21" y1="799.5" x2="65.21" y2="799.5" gradientTransform="matrix(110.19, 0, 0, -70.63, -6977.19, 57191.58)" xlink:href="#linear-gradient"/><linearGradient id="linear-gradient-8" x1="64.76" y1="800.38" x2="65.13" y2="799.38" gradientTransform="matrix(52.42, 0, 0, -85.62, -3258.66, 69048.24)" xlink:href="#linear-gradient-5"/><linearGradient id="linear-gradient-9" x1="64.39" y1="798.42" x2="65.39" y2="797.89" gradientTransform="matrix(58.08, 0, 0, -42.52, -3620.48, 34501.37)" gradientUnits="userSpaceOnUse"><stop offset="0" stop-color="#272e7d"/><stop offset="1" stop-color="#3943b7"/><stop offset="1" stop-color="#c47d00"/></linearGradient></defs><title>login-background</title><g id="Layer_2" data-name="Layer 2"><g id="Layer_1-2" data-name="Layer 1"><g id="login-illustration"><path id="Path_3" data-name="Path 3" class="cls-1" d="M434.24,139.71c-47.92-2.82-93.55-29-137.13-57.69S210.38,21.58,163.61,6.4C133.53-3.37,99.13-4.75,74.9,22.56,51.57,48.9,44,94.24,40,136.35c-3.05,31.68-4.85,65,3.51,94.67,5.8,20.6,16.09,37.9,23.21,57.63C91.49,357.28,74,441.9,47.13,508.91c-12.59,31.45-27.21,61.46-36.92,94.89S-4,675.6,4.49,709.74C12.92,743.6,33,769,54.76,786.85,99,823.16,151,833.54,201.8,839.43c112.4,13,225.39,7.38,338.09,1.74,41.72-2.1,83.6-4.22,124.63-15.14,22.79-6.07,46.31-15.69,62.85-38.94,21-29.51,26.2-79.47,12.13-116.48-23.6-62.07-88.84-77.48-105.36-144.09-9.07-36.67.25-77.5,13.45-111.51,28.31-72.94,75.76-136.94,78.25-220.32C727.56,137.43,704.75,80.08,669.48,53c-37-28.4-88.23-24.83-115.49,22.18-28.09,48.42-77.44,67-119.75,64.55Z"/></g><g id="login-bg"><g id="user_signin" data-name="user signin"><g id="Mobile_Screen1-Copy-15" data-name="Mobile Screen1-Copy-15"><g id="Group-6"><g id="Group-141"><path id="Path-1243" class="cls-2" d="M323.18,166q18.44-14.22,29.24-7.89t150.14,94.77q32.9,27.74,32.9,62.78v379q-1.53,24.3-18.48,29.65T323.18,166Z"/><path id="Path-1242" class="cls-2" d="M310.44,186.29V568.85L343,635l139.66,88.28q37,15.22,37-9.91t2-388.39q-7-48.4-34.61-64.71T347,172.94q-23.37-15-32.11,0A22.66,22.66,0,0,0,310.44,186.29Z"/><g id="Group-20"><g id="Group-3"><path id="Fill-1" class="cls-3" d="M294.14,668.23c-4.44,2.77-4.45,7.24-.06,10l147.28,92.33c4.41,2.76,11.55,2.76,16,0l34.53-17.44c4.43-2.75,4.46-7.22.05-10L344.65,650.79c-4.4-2.75-11.56-2.75-16,0Z"/></g><path id="Fill-4" class="cls-4" d="M253.58,282.41v4a2.83,2.83,0,0,0,2.64,3,2.76,2.76,0,0,0,1.59-.37l17.34-10.86a3.07,3.07,0,0,0,1.4-2.63v-4a2.82,2.82,0,0,0-2.64-3,2.91,2.91,0,0,0-1.58.37L255,279.78a3.12,3.12,0,0,0-1.4,2.63"/><path id="Fill-6" class="cls-4" d="M198.73,336.29v4a2.82,2.82,0,0,0,2.64,3,2.91,2.91,0,0,0,1.58-.37l72.25-45a3.12,3.12,0,0,0,1.41-2.64v-4a2.83,2.83,0,0,0-2.64-3,2.94,2.94,0,0,0-1.59.37l-72.24,45a3.07,3.07,0,0,0-1.41,2.64"/><path id="Fill-8" class="cls-4" d="M228.62,357.23v4a2.83,2.83,0,0,0,2.64,3,2.91,2.91,0,0,0,1.58-.37l42.46-26.45a3.1,3.1,0,0,0,1.41-2.64v-4a2.82,2.82,0,0,0-4.22-2.62L230,354.59a3.09,3.09,0,0,0-1.4,2.64"/><path id="Fill-10" class="cls-4" d="M210,349.06v4a2.83,2.83,0,0,0,2.64,3,2.92,2.92,0,0,0,1.59-.37l61-38a3.12,3.12,0,0,0,1.41-2.64v-4a2.83,2.83,0,0,0-2.64-3,2.77,2.77,0,0,0-1.59.37l-61,38a3.12,3.12,0,0,0-1.41,2.64"/><path id="Fill-12" class="cls-4" d="M587.76,342.48a3.48,3.48,0,0,1,1.44,2.69l-.07,27c0,1-.65,1.39-1.45.89L556,353.32a3.44,3.44,0,0,1-1.44-2.68l.07-27c0-1,.65-1.39,1.45-.89Z"/><path id="Fill-14" class="cls-5" d="M599.4,390.53a3.48,3.48,0,0,1,1.44,2.69l-.07,27c0,1-.65,1.39-1.45.89l-31.7-19.74a3.5,3.5,0,0,1-1.43-2.68l.07-27c0-1,.65-1.39,1.44-.89Z"/><path id="Fill-16" class="cls-4" d="M277,416a2.28,2.28,0,0,1,.93,1.74l0,17.45c0,.63-.42.89-.93.57L256.5,423a2.28,2.28,0,0,1-.93-1.74l.05-17.45c0-.64.42-.9.93-.57Z"/><path id="Fill-18" class="cls-5" d="M284.55,447.07a2.21,2.21,0,0,1,.93,1.73l-.05,17.45c0,.64-.41.89-.93.57L264,454.07a2.28,2.28,0,0,1-.93-1.74l.05-17.44c0-.64.42-.9.93-.58Z"/></g><g id="Group-23"><path id="Clip-22" class="cls-6" d="M341.82,158c-.23,0-.46,0-.68,0h0l-.53,0h0c-.18,0-.37,0-.55,0h0a16.28,16.28,0,0,0-2,.3h0c-.15,0-.28.09-.42.12h0a16.3,16.3,0,0,0-1.92.58h0l-.22.09h0l-.3.14h0a15.1,15.1,0,0,0-2.23,1.14h0L317.79,170a16.16,16.16,0,0,1,2.23-1.14h0l.31-.14h0a16,16,0,0,1,2.14-.66h0l.41-.13h0a18.22,18.22,0,0,1,2.54-.34h0l.53,0h0a18.49,18.49,0,0,1,2.58.06h0l.32,0h0a22.26,22.26,0,0,1,2.81.47h0l.3.07h0a26.33,26.33,0,0,1,3,.9h0l.21.07h0c1.09.41,2.17.87,3.22,1.39h0l.22.11h0c1.11.56,2.22,1.18,3.36,1.89h0l145,90.3c1.14.71,2.28,1.49,3.4,2.33h0l.2.15h0c1,.78,2.06,1.62,3.07,2.5h0l.34.3h0c1,.86,1.94,1.77,2.89,2.72h0l.34.34h0c.95,1,1.89,2,2.81,3h0l.24.26h0c1,1.14,1.93,2.31,2.87,3.51h0l0,0h0c.95,1.24,1.88,2.51,2.77,3.82h0c.82,1.2,1.6,2.43,2.37,3.68h0c.47.77.92,1.57,1.37,2.36h0c.37.66.76,1.3,1.13,2h0c.16.32.33.64.5,1h0c.59,1.13,1.17,2.26,1.71,3.42h0l.18.37h0c.65,1.4,1.27,2.82,1.85,4.24h0l.09.22h0a73.37,73.37,0,0,1,5.69,27h0L536,316.52a71.24,71.24,0,0,0-4.54-23.94h0l0,0q-.32-.88-.66-1.77h0l-.51-1.29h0l-.09-.21h0a1.86,1.86,0,0,0-.1-.25h0c-.24-.59-.49-1.18-.74-1.77h0c-.28-.65-.57-1.29-.87-1.93h0c-.05-.1-.1-.2-.14-.3h0l-.18-.38h0c-.24-.51-.48-1-.74-1.53h0c-.31-.63-.65-1.26-1-1.89h0l-.49-.95h0l-.2-.37h0c-.3-.55-.63-1.07-.94-1.61h0c-.45-.79-.9-1.58-1.36-2.35h0l-.22-.38h0c-.7-1.12-1.41-2.22-2.15-3.3h0c-.5-.72-1-1.43-1.51-2.13h0l-1.26-1.69h0l0,0h0l0,0h0c-.43-.56-.87-1.11-1.31-1.66h0c-.44-.53-.88-1.06-1.32-1.57h0c-.07-.09-.15-.17-.22-.25h0l-.24-.27h0l-.93-1h0c-.47-.52-1-1-1.43-1.53h0l-.45-.45h0l-.34-.34h0l-.7-.7h0c-.5-.49-1-1-1.51-1.43h0l-.67-.59h0l-.34-.3h0l-.5-.44h0c-.5-.42-1-.83-1.49-1.22h0l-1.09-.84h0l-.2-.15h0l-.19-.15h0c-.48-.35-1-.7-1.44-1h0c-.48-.33-1-.65-1.44-.95h0l-.33-.21h0l-145-90.3-1.07-.65h0l-1.4-.78h0l-.89-.45h0l-.22-.11h0l-.26-.14h0c-.46-.22-.91-.43-1.36-.62h0c-.46-.2-.92-.38-1.37-.55h0l-.23-.09h0l-.21-.07h0l-.92-.33h0c-.47-.15-.94-.29-1.4-.41h0l-.67-.16h0l-.3-.07h0l-.43-.1h0c-.5-.1-1-.19-1.49-.26h0c-.3-.05-.6-.07-.89-.1h0l-.32,0h0l-.3,0h0c-.5,0-1-.06-1.49-.06Z"/><path id="Fill-21" class="cls-7" d="M341.82,158c-.23,0-.46,0-.68,0h0l-.53,0h0c-.18,0-.37,0-.55,0h0a16.28,16.28,0,0,0-2,.3h0c-.15,0-.28.09-.42.12h0a16.3,16.3,0,0,0-1.92.58h0l-.22.09h0l-.3.14h0a15.1,15.1,0,0,0-2.23,1.14h0L317.79,170a16.16,16.16,0,0,1,2.23-1.14h0l.31-.14h0a16,16,0,0,1,2.14-.66h0l.41-.13h0a18.22,18.22,0,0,1,2.54-.34h0l.53,0h0a18.49,18.49,0,0,1,2.58.06h0l.32,0h0a22.26,22.26,0,0,1,2.81.47h0l.3.07h0a26.33,26.33,0,0,1,3,.9h0l.21.07h0c1.09.41,2.17.87,3.22,1.39h0l.22.11h0c1.11.56,2.22,1.18,3.36,1.89h0l145,90.3c1.14.71,2.28,1.49,3.4,2.33h0l.2.15h0c1,.78,2.06,1.62,3.07,2.5h0l.34.3h0c1,.86,1.94,1.77,2.89,2.72h0l.34.34h0c.95,1,1.89,2,2.81,3h0l.24.26h0c1,1.14,1.93,2.31,2.87,3.51h0l0,0h0c.95,1.24,1.88,2.51,2.77,3.82h0c.82,1.2,1.6,2.43,2.37,3.68h0c.47.77.92,1.57,1.37,2.36h0c.37.66.76,1.3,1.13,2h0c.16.32.33.64.5,1h0c.59,1.13,1.17,2.26,1.71,3.42h0l.18.37h0c.65,1.4,1.27,2.82,1.85,4.24h0l.09.22h0a73.37,73.37,0,0,1,5.69,27h0L536,316.52a71.24,71.24,0,0,0-4.54-23.94h0l0,0q-.32-.88-.66-1.77h0l-.51-1.29h0l-.09-.21h0a1.86,1.86,0,0,0-.1-.25h0c-.24-.59-.49-1.18-.74-1.77h0c-.28-.65-.57-1.29-.87-1.93h0c-.05-.1-.1-.2-.14-.3h0l-.18-.38h0c-.24-.51-.48-1-.74-1.53h0c-.31-.63-.65-1.26-1-1.89h0l-.49-.95h0l-.2-.37h0c-.3-.55-.63-1.07-.94-1.61h0c-.45-.79-.9-1.58-1.36-2.35h0l-.22-.38h0c-.7-1.12-1.41-2.22-2.15-3.3h0c-.5-.72-1-1.43-1.51-2.13h0l-1.26-1.69h0l0,0h0l0,0h0c-.43-.56-.87-1.11-1.31-1.66h0c-.44-.53-.88-1.06-1.32-1.57h0c-.07-.09-.15-.17-.22-.25h0l-.24-.27h0l-.93-1h0c-.47-.52-1-1-1.43-1.53h0l-.45-.45h0l-.34-.34h0l-.7-.7h0c-.5-.49-1-1-1.51-1.43h0l-.67-.59h0l-.34-.3h0l-.5-.44h0c-.5-.42-1-.83-1.49-1.22h0l-1.09-.84h0l-.2-.15h0l-.19-.15h0c-.48-.35-1-.7-1.44-1h0c-.48-.33-1-.65-1.44-.95h0l-.33-.21h0l-145-90.3-1.07-.65h0l-1.4-.78h0l-.89-.45h0l-.22-.11h0l-.26-.14h0c-.46-.22-.91-.43-1.36-.62h0c-.46-.2-.92-.38-1.37-.55h0l-.23-.09h0l-.21-.07h0l-.92-.33h0c-.47-.15-.94-.29-1.4-.41h0l-.67-.16h0l-.3-.07h0l-.43-.1h0c-.5-.1-1-.19-1.49-.26h0c-.3-.05-.6-.07-.89-.1h0l-.32,0h0l-.3,0h0c-.5,0-1-.06-1.49-.06Z"/></g><g id="Group-26"><path id="Clip-25" class="cls-6" d="M516.27,302.09c.22.6.42,1.19.63,1.79h0c.2.63.41,1.25.6,1.87h0c.19.63.38,1.26.56,1.9h0c.18.64.36,1.29.52,1.93h0q.25,1,.48,1.95h0c.14.63.28,1.27.41,1.91h0c.13.64.25,1.28.36,1.91h0q.17.93.3,1.86h0c.09.61.17,1.22.25,1.84h0q.11.9.18,1.8h0c.05.59.1,1.19.13,1.78h0c0,.59.06,1.18.08,1.77h0c0,.55,0,1.1,0,1.65h0l-1,375.26c0,1.4-.07,2.73-.18,4h0l0,.35h0c-.11,1.18-.27,2.32-.47,3.41h0c0,.15,0,.3-.08.44h0c-.2,1.06-.44,2.07-.72,3h0c-.06.19-.11.36-.17.54h0a26.37,26.37,0,0,1-.95,2.62h0c0,.09-.07.19-.11.28h0a23.92,23.92,0,0,1-1.36,2.67h0l-.22.32h0a20.22,20.22,0,0,1-1.31,1.87h0l-.52.62h0a17.82,17.82,0,0,1-1.28,1.33h0c-.18.17-.36.35-.55.51h0a15.73,15.73,0,0,1-2,1.48h0l15.18-9.52a15.73,15.73,0,0,0,2-1.48h0c.2-.16.37-.34.56-.51h0c.44-.42.87-.87,1.27-1.33h0c.18-.2.35-.41.52-.62h0a20.32,20.32,0,0,0,1.32-1.87h0c.06-.11.14-.21.21-.32h0a.35.35,0,0,1,.05-.08h0a25.57,25.57,0,0,0,1.28-2.5h0l0-.09h0c0-.09.08-.19.11-.28h0c.24-.56.47-1.12.67-1.71h0c.1-.3.19-.6.28-.9h0c0-.19.11-.36.17-.55h0c0-.16.1-.31.15-.48h0c.16-.6.31-1.23.45-1.87h0l.12-.68h0l.09-.45h0c0-.22.08-.43.12-.66h0c.09-.57.17-1.16.24-1.75h0c0-.33.07-.67.1-1h0c0-.12,0-.23,0-.35h0c0-.14,0-.27,0-.41h0c0-.57.07-1.15.1-1.73h0q0-.87,0-1.77h0v-.1h0l1-375.27c0-.55,0-1.1,0-1.65h0c0-.59,0-1.18-.08-1.78h0c0-.59-.08-1.18-.13-1.78h0c0-.6-.11-1.19-.18-1.8h0c-.07-.61-.16-1.22-.25-1.84h0c-.09-.61-.19-1.23-.3-1.85h0c-.11-.64-.23-1.27-.36-1.91h0c-.12-.64-.26-1.28-.41-1.92h0c-.15-.65-.31-1.29-.48-1.94h0c-.16-.65-.34-1.29-.52-1.94h0c-.18-.63-.37-1.26-.56-1.89h0c-.19-.62-.39-1.25-.6-1.87h0q-.3-.9-.63-1.8h0Z"/><path id="Fill-24" class="cls-7" d="M516.27,302.09c.22.6.42,1.19.63,1.79h0c.2.63.41,1.25.6,1.87h0c.19.63.38,1.26.56,1.9h0c.18.64.36,1.29.52,1.93h0q.25,1,.48,1.95h0c.14.63.28,1.27.41,1.91h0c.13.64.25,1.28.36,1.91h0q.17.93.3,1.86h0c.09.61.17,1.22.25,1.84h0q.11.9.18,1.8h0c.05.59.1,1.19.13,1.78h0c0,.59.06,1.18.08,1.77h0c0,.55,0,1.1,0,1.65h0l-1,375.26c0,1.4-.07,2.73-.18,4h0l0,.35h0c-.11,1.18-.27,2.32-.47,3.41h0c0,.15,0,.3-.08.44h0c-.2,1.06-.44,2.07-.72,3h0c-.06.19-.11.36-.17.54h0a26.37,26.37,0,0,1-.95,2.62h0c0,.09-.07.19-.11.28h0a23.92,23.92,0,0,1-1.36,2.67h0l-.22.32h0a20.22,20.22,0,0,1-1.31,1.87h0l-.52.62h0a17.82,17.82,0,0,1-1.28,1.33h0c-.18.17-.36.35-.55.51h0a15.73,15.73,0,0,1-2,1.48h0l15.18-9.52a15.73,15.73,0,0,0,2-1.48h0c.2-.16.37-.34.56-.51h0c.44-.42.87-.87,1.27-1.33h0c.18-.2.35-.41.52-.62h0a20.32,20.32,0,0,0,1.32-1.87h0c.06-.11.14-.21.21-.32h0a.35.35,0,0,1,.05-.08h0a25.57,25.57,0,0,0,1.28-2.5h0l0-.09h0c0-.09.08-.19.11-.28h0c.24-.56.47-1.12.67-1.71h0c.1-.3.19-.6.28-.9h0c0-.19.11-.36.17-.55h0c0-.16.1-.31.15-.48h0c.16-.6.31-1.23.45-1.87h0l.12-.68h0l.09-.45h0c0-.22.08-.43.12-.66h0c.09-.57.17-1.16.24-1.75h0c0-.33.07-.67.1-1h0c0-.12,0-.23,0-.35h0c0-.14,0-.27,0-.41h0c0-.57.07-1.15.1-1.73h0q0-.87,0-1.77h0v-.1h0l1-375.27c0-.55,0-1.1,0-1.65h0c0-.59,0-1.18-.08-1.78h0c0-.59-.08-1.18-.13-1.78h0c0-.6-.11-1.19-.18-1.8h0c-.07-.61-.16-1.22-.25-1.84h0c-.09-.61-.19-1.23-.3-1.85h0c-.11-.64-.23-1.27-.36-1.91h0c-.12-.64-.26-1.28-.41-1.92h0c-.15-.65-.31-1.29-.48-1.94h0c-.16-.65-.34-1.29-.52-1.94h0c-.18-.63-.37-1.26-.56-1.89h0c-.19-.62-.39-1.25-.6-1.87h0q-.3-.9-.63-1.8h0Z"/></g><g id="Group-29"><path id="Clip-28" class="cls-2" d="M307.89,193.45l-1,375.26C306.84,592,322,620.29,340.75,632h0l145,90.3c18.74,11.68,34,2.3,34.07-20.94h0l1-375.27c.06-23.26-15.1-51.57-33.85-63.25h0L342,172.5c-5.47-3.41-10.65-5-15.24-5h0c-11.12,0-18.79,9.5-18.83,26"/><path id="Fill-27" class="cls-7" d="M307.89,193.45l-1,375.26C306.84,592,322,620.29,340.75,632h0l145,90.3c18.74,11.68,34,2.3,34.07-20.94h0l1-375.27c.06-23.26-15.1-51.57-33.85-63.25h0L342,172.5c-5.47-3.41-10.65-5-15.24-5h0c-11.12,0-18.79,9.5-18.83,26"/></g><g id="Group-32"><path id="Fill-30" class="cls-7" d="M392,244.83a9.9,9.9,0,0,0,4.1,7.67h0l37.38,23.29c2.27,1.42,4.12.28,4.13-2.55h0a9.94,9.94,0,0,0-4.1-7.66h0l-37.38-23.29a3.51,3.51,0,0,0-1.85-.6h0c-1.35,0-2.28,1.15-2.28,3.14"/></g><g id="Group-35"><path id="Fill-33" class="cls-7" d="M402.68,629.92c0,7.59,4.93,16.84,11.05,20.65h0c6.13,3.81,11.1.75,11.13-6.84h0c0-7.59-4.93-16.84-11.05-20.65h0a9.65,9.65,0,0,0-5-1.64h0c-3.63,0-6.13,3.1-6.15,8.48"/></g><g id="Group-48"><path id="Fill-36" class="cls-8" d="M505.9,343.74a8.22,8.22,0,0,1,3.4,6.35l-.83,313.56c0,2.33-1.53,3.28-3.42,2.1L322.64,552.14a8.21,8.21,0,0,1-3.4-6.35l.82-313.57c0-2.33,1.54-3.27,3.42-2.1Z"/><path id="Fill-38" class="cls-8" d="M528.74,452.52h0a2.25,2.25,0,0,1-2.16-2.32V380.47a2.16,2.16,0,0,1,4.31-.33,1.82,1.82,0,0,1,0,.33v69.72a2.24,2.24,0,0,1-2.15,2.33"/><path id="Fill-40" class="cls-8" d="M528.74,539.28h0a2.24,2.24,0,0,1-2.16-2.32V467.24a2.16,2.16,0,0,1,4.31-.34,1.93,1.93,0,0,1,0,.34V537a2.24,2.24,0,0,1-2.15,2.33"/><path id="Fill-42" class="cls-9" d="M528.74,645.9h0a2.24,2.24,0,0,1-2.16-2.32V607.46a2.16,2.16,0,0,1,4.31-.34,1.93,1.93,0,0,1,0,.34v36.12a2.23,2.23,0,0,1-2.15,2.32"/><path id="Fill-44" class="cls-10" d="M412.56,365.69c9.33,5.81,16.89,19.84,17,31.45v.29c-.4.16-7.84,3.36-17.3-2.33l-.33-.2c-7.4-4.6-13.46-13.74-15.62-17.27-.55-.9-.84-1.41-.85-1.44,0-11.66,7.69-16.37,17.11-10.5"/><path id="Fill-46" class="cls-11" d="M489.35,466.83a9.41,9.41,0,0,1,3.9,7.26l-.05,17.68c0,2.68-1.76,3.76-3.92,2.41L339.37,400.81a9.42,9.42,0,0,1-3.9-7.28l0-17.68c0-2.66,1.76-3.73,3.92-2.39Z"/></g><g id="Group-51"><path id="Fill-49" class="cls-12" d="M387.15,328.3c-.2.39-.38.78-.56,1.19h0a27,27,0,0,0-1.9,7.05h0a39.44,39.44,0,0,0-.34,5.09h0c0,.53,0,1.07,0,1.61h0c0,.11,0,.23,0,.34h0q0,.8.09,1.59h0l0,.28h0c0,.51.08,1,.16,1.71h0c.06.55.13,1.09.21,1.64h0c0,.12,0,.24.05.35h0c.08.55.17,1.1.31,1.83h0c.09.52.2,1,.31,1.56h0l.06.29h0c.12.55.25,1.1.38,1.65h0c0,.11.05.22.08.33h0c.29,1.14.6,2.27.95,3.39h0c0,.11.07.22.1.33h0q.25.83.54,1.65h0l.09.26h0c.18.53.36,1.05.63,1.76h0c.2.55.42,1.1.64,1.64h0c0,.12.09.23.13.34h0c.23.55.46,1.09.76,1.78h0c.22.52.45,1,.69,1.54h0c0,.1.09.19.13.29h0c.26.53.51,1.06.77,1.58h0l.15.3h0l.84,1.61h0c.28.53.57,1.05.86,1.57h0a3.37,3.37,0,0,1,.19.32h0c.29.5.58,1,.88,1.5h0l.15.25h0c.28.46.57.92,1,1.58h0c.22.34.44.67.67,1h0c-.5-.82-.77-1.29-.78-1.32h0c0-11.66,7.69-16.37,17.11-10.5h0c9.33,5.81,16.89,19.84,17,31.45h0c.15-.06.31-.1.56-.2h0c.3-.12.6-.26.89-.4h0l.18-.09h0c.28-.14.56-.3.84-.46h0l.15-.1h0c.28-.18.56-.36.88-.6h0c.26-.2.52-.4.77-.62h0l.11-.1h0c.25-.22.49-.45.73-.69h0l.13-.14h0c.24-.24.47-.5.69-.76h0l.1-.12h0c.23-.28.45-.57.67-.88h0c.22-.3.42-.62.62-.94h0l.09-.15h0q.29-.47.54-1h0a1.86,1.86,0,0,0,.1-.2h0c.17-.33.34-.68.56-1.18h0c.15-.35.3-.71.47-1.2h0c.14-.38.27-.78.4-1.18h0l.06-.22h0q.18-.6.33-1.23h0l.06-.22h0c.1-.43.2-.87.3-1.44h0c.08-.44.15-.89.24-1.52h0c.06-.47.12-.95.16-1.43h0l0-.28h0c0-.48.07-1,.1-1.47h0a1.93,1.93,0,0,1,0-.24h0c0-.53,0-1.06,0-1.61h0A48,48,0,0,0,440,371h0a59.06,59.06,0,0,0-1.85-9.39h0c-.35-1.26-.75-2.52-1.17-3.77h0c-.3-.85-.61-1.7-.93-2.54h0c-4.94-12.82-13.68-24.74-23.65-30.95h0c-4.52-2.81-8.78-4.14-12.56-4.14h0c-5.53,0-10,2.85-12.73,8.08M413,362.5c-5.73-3.57-10.38-12.26-10.36-19.37h0c0-7.13,4.7-10,10.43-6.41h0c5.75,3.58,10.39,12.24,10.37,19.36h0c0,5-2.36,8-5.77,8h0A9.08,9.08,0,0,1,413,362.5"/></g><g id="Group-56"><path id="Fill-52" class="cls-10" d="M413,336.72c5.75,3.58,10.39,12.24,10.37,19.36s-4.68,10-10.43,6.42-10.39-12.26-10.37-19.37,4.7-10,10.43-6.41"/><path id="Fill-54" class="cls-11" d="M489.25,505.32a9.4,9.4,0,0,1,3.9,7.27l0,17.68c0,2.68-1.76,3.74-3.92,2.39L339.27,439.29a9.39,9.39,0,0,1-3.9-7.26l.05-17.68c0-2.67,1.76-3.75,3.92-2.41Z"/></g><g id="Group-59"><path id="Fill-57" class="cls-13" d="M373,509.47v4.07c0,6.33,4.12,14.05,9.24,17.24h0L430.66,561c5.12,3.19,9.27.63,9.29-5.71h0v-4.06c0-6.32-4.11-14.05-9.23-17.24h0l-48.48-30.2a8,8,0,0,0-4.16-1.37h0c-3,0-5.13,2.59-5.14,7.07"/></g><g id="Group-69"><g id="Group-62"><path id="Fill-60" class="cls-14" d="M381.26,779.5c0,19.5-24.66,35.31-55.1,35.31S271.08,799,271.08,779.5s24.66-35.32,55.09-35.32,55.1,15.81,55.1,35.32"/></g><path id="Fill-63" class="cls-15" d="M382.1,539.5a25.25,25.25,0,0,0,4.11-3.55c.83-1.18,1.92-8,.83-8.28s-1.92,4.44-1.92,4.44-.28-12.43-1.65-14.2-5.76,7.1-6,8.58-1.37,7.69-1.37,7.69,1.64,5.33,6,5.33"/><path id="Fill-65" class="cls-16" d="M298.29,575.17s-8.6,9.3-2.57,20.54,47.17-16.57,51.55-20.71,33.18-32,34.83-35.5-1.92-7.1-6.31-6.51-21.94,20.71-35.65,30.18c0,0-32.71,8-41.85,12"/><path id="Fill-67" class="cls-17" d="M303.32,771.89s-.7,5.6.24,7.89a5.09,5.09,0,0,0,7,1.73,3.28,3.28,0,0,0,.31-.2,75.63,75.63,0,0,0,7.08-7.13s7.56-4.33,8.26-6.62-1.89-4.33-4-3.82-8.26,4.59-11.09,4.59-6.84.76-7.78,3.56"/></g><g id="Group-72"><path id="Fill-70" class="cls-18" d="M303,773.67c.83,3.4,9.39,5.36,11,0h0c1-3.44,3.5-112.25,3.5-112.25h0l-21.9-8.69s6.6,117.58,7.42,121"/></g><path id="Fill-73" class="cls-17" d="M325.16,778.89a1.89,1.89,0,0,0-.58,1.37c0,1.61.06,5.22.9,6.62a6.06,6.06,0,0,0,8.2,1.65c3.06-1.79,12.47-9.37,14.38-11a6.2,6.2,0,0,0,1.9-3.25,1.88,1.88,0,0,0-1-2.13c-1.33-.64-3.61-1.44-5.65-.7-3.12,1.13-7,4.77-11.28,4.58-3.19-.15-5.8,1.89-6.9,2.91"/><g id="Group-77"><path id="Fill-75" class="cls-19" d="M328.85,649.14c-9.53-.56-24.27-.12-24.79,7.86h0c-.77,11.81,4.36,20.23,9.31,26h0c3.66,4.24,6.1,12.34,7.12,16.29h0c.87,31.18,2.78,75.16,4,79.37h0c1.92,6.78,11.41,6.47,11.83-.13h0c1.92-22.31,3.44-124.54,3.44-124.54h0c-.36-3.64-3.45-5.45-7.07-5.45h0a12.1,12.1,0,0,0-3.82.64"/></g><g id="Group-105"><path id="Fill-78" class="cls-16" d="M339.77,657.63c-1.12,6-17.06,9-26.38,7.44s-19.36-6.54-19-18.2c0,0,1.77-27.87,1.06-32.84s-2.48-13.75-2.48-22.91a28.26,28.26,0,0,1,5.35-16s5.22-6.43,21.62-2.81c0,0,13.37,3.14,19.52,13.8,0,0,4.25,11.71,2.83,36.15s-2.5,35.32-2.5,35.32"/><path id="Fill-80" class="cls-20" d="M307.1,559.43s1.42,8.91,0,13c-.24,2,8,8.91,15.34,7.13,4.25-1,4-3.31,4-3.31s-3.54-6.36-3.07-12.47-11.32-5.6-16.28-4.33"/><path id="Fill-82" class="cls-15" d="M334.71,541.48c0,11.6-8.72,21-19.47,21s-19.47-9.4-19.47-21,8.72-21,19.47-21,19.47,9.4,19.47,21"/><path id="Fill-84" class="cls-15" d="M334.71,542.88s.24,21-4,25.29-10.77-4-21.2-6.62c-10.43-2.89,8.45-24.76,8.45-24.76Z"/><path id="Fill-86" class="cls-15" d="M377.92,574s-1.85-8.21-1.24-8.88,3.09,2.89,3.09,2.89,1.23-8.43,2.26-9.32,5.14,3.55,5.76,6-2.47,12.2-3.7,12.43-5.55.88-6.17-3.11"/><path id="Fill-88" class="cls-16" d="M333.7,583.73s-8.64,4.44-4.94,16,31.27,16,34.56,12.43,17.68-21.74,21.8-35.5c0,0-1.65-5.33-8.23-3.11,0,0-15.63,21.3-18.1,23.52s-21-14.2-25.09-13.31"/><path id="Fill-90" class="cls-21" d="M298.58,525.48s6.07-8,16.52-8.73,15.5,2.91,19.54,2.55,7.75,3.27,6.4,8.72-4.38,10.91-11.12,10.91-8.42-1.09-8.42-1.09,5.39,2.54,6.06,7.63a120.35,120.35,0,0,1,.68,12.73h-1.69s-1.34-8.36-4-8.36-2.7,9.09-.34,10.54l2.36,1.46s-4.52,9-7,9.43S307,565.11,307,565.11s-13.48-6.91-14.83-18.18,6.4-21.45,6.4-21.45"/><g id="Group-94"><path id="Fill-92" class="cls-22" d="M207.57,721c0,19.51-24.67,35.32-55.09,35.32S97.38,740.49,97.38,721s24.66-35.32,55.1-35.32,55.09,15.82,55.09,35.32"/></g><path id="Fill-95" class="cls-23" d="M124.57,624.39s3.7,25.29,6.78,39.27c0,0,.62,23.3,1.24,31.28s2.47,25.3,2.47,25.3a4.2,4.2,0,0,0,4.62.67s3.09-49.59,3.7-57.58,2.78-43.93,2.78-43.93-7.09-7-21.59,5"/><path id="Fill-97" class="cls-23" d="M147.71,614.41s3.7,25.29,6.78,39.27c0,0,.62,23.3,1.24,31.28s2.46,25.29,2.46,25.29a4.2,4.2,0,0,0,4.63.67s3.09-49.59,3.7-57.58.93-43.6.93-43.6-5.25-7.32-19.75,4.66"/><path id="Fill-99" class="cls-16" d="M129.2,590.22s-8.74,10.32-3.7,45.26c.3,5,3.39,17.86,3.39,17.86a49,49,0,0,0,25-3.66C167.45,644,167.76,641,167.76,641s.62-43.82-2.47-55.13-36.09,4.32-36.09,4.32"/><path id="Fill-101" class="cls-24" d="M163,708.59a5.32,5.32,0,0,0,2.16,4.49c2.46,2,7.09,5.66,7.86,7.82,0,1.66-5.86-.17-8.48-1.66a20.16,20.16,0,0,1-5.09-5l.15,1.5a2.5,2.5,0,0,1-1.7-.83c-.77-.83.16-6,.16-6Z"/><path id="Fill-103" class="cls-24" d="M139.84,720.07a5.32,5.32,0,0,0,2.16,4.49c2.47,2,7.1,5.66,7.87,7.82,0,1.67-5.86-.16-8.48-1.66a20.12,20.12,0,0,1-5.09-5l.15,1.5a2.55,2.55,0,0,1-1.7-.84c-.77-.83.16-6,.16-6Z"/></g><g id="Group-108"><path id="Fill-106" class="cls-7" d="M155.18,550.28c5.55,9.73,19.07,21.7,25,21.7h0c5.9,0,36.07-3,38.5-6h0c2.43-3,.35-7.11-1.39-7.11h0c-1.73,0-23.58,1.13-28.78,0h0c-5.2-1.12-9.72-2.24-12.82-14.66h0c-5.19-18.77-13.2-20.13-13.2-20.13h0a3.44,3.44,0,0,0-.46,0h0c-7.05,0-12.25,16.7-6.82,26.22"/></g><g id="Group-111"><path id="Fill-109" class="cls-21" d="M158.65,477.33s8,11,6.24,23.38-11.79,11.78-13.53,18.52,4.86,16.46-4.16,22.82-13.18,4.86-15.6,18.33-11.1,20.58-26,22.07-25.32-18-21.51-32.17,17-9.73,19.77-21.33,1.74-20.76,11.1-25.25,5.9-21.51,15.26-26.75c9.56-5.35,21.5-8.23,28.44.37"/></g><g id="Group-114"><path id="Fill-112" class="cls-25" d="M137.88,520.34S120.72,533.56,119,538h0c-1.7,4.4-4.1,18.08,1.47,24.8h0c9.65,11.62,3.84,31.59,5.11,37.46h0c1.28,5.88,14.36,6.6,23.45,4.71h0c9.08-1.89,17.5-6.91,17.15-18.33h0c-.34-11.43,2.46-27.1,3-32.25h0c.57-5.15-.05-18.08-2.27-26.74h0c-.47-1.84-6.17-3.75-6.17-3.75h0s-5.07-3.62-19-3.62h0c-1.25,0-2.58,0-4,.1"/></g><g id="Group-124"><path id="Fill-115" class="cls-20" d="M152.79,517.84a2.4,2.4,0,0,0,0,.6c.19,1.36.81,4.83.93,6.28s-1.35,3.8-4.82,3.72-9.38-1.65-11.34-6.12a109.65,109.65,0,0,0-.58-13.19Z"/><path id="Fill-117" class="cls-15" d="M162.43,492.91c-1.86-10.73-9.74-16.81-18.65-14.57,0,0-9.66,1.05-13.95,10.2s2,16.84,6,21.7c1.7,2,3,3.53,3.8,4.51.29.36.58.74.89,1.08l.09.1h0a19.91,19.91,0,0,0,8.25,5.4c3.89,1.25,8.48.53,11-2.32s4.41-15.37,2.55-26.1"/><path id="Fill-119" class="cls-21" d="M164,500.14s-7.11.75-11.27-4.48-10.06,0-14.91-4.49a17.79,17.79,0,0,1,0,11.22c-2.08,5.61-2.78,14.22-2.78,14.22l-9-15.34V487.8l11.44-11.6,15.26-.75,7.28,7.48s4.69,11.6,4,17.21"/></g><g id="Group-127"><path id="Fill-125" class="cls-26" d="M118.79,557.41c4.86,16.84,21.16,29.18,27.05,28.44h0c5.9-.76,29.83-28.07,29.83-31.44h0c0-3.36-2.78-5.61-5.55-4.86h0c-2.78.75-21.16,22.07-22.89,21.33h0c-1.73-.75-12.48-20.21-21.85-27.32h0a7.74,7.74,0,0,0-1.86-.2h0c-3,0-8.31,1.63-4.73,14"/></g><g id="Group-140"><path id="Fill-128" class="cls-15" d="M172.41,555.64a3.7,3.7,0,0,1-2.29-4.72v0c1-3.7,7.26-6.59,8.21-6.8s10.32,1.86,10.7,3.09-1.72,1.86-4,1.24a34.55,34.55,0,0,0-5.73-.82s2.48,2.88,2.29,4.12a7.71,7.71,0,0,1-3.44,4.74c-1.91,1-4.2-1.24-4.2-1.24Z"/><path id="Fill-130" class="cls-15" d="M214.38,559.44s7.56-7,8-5.7-2.58,4.68-2.58,4.68,10.12-4.18,10.24-2.76-5.34,5.87-6.79,6.92-6.6,2.56-6.6,2.56-2.83-4.09-2.25-5.7"/><path id="Fill-132" class="cls-9" d="M180.06,497.44a11,11,0,0,0-4.5,8.45l.3,114.7c0,7.31,4.83,10.3,10.7,6.64l63.33-39.45a11,11,0,0,0,4.51-8.44l-.3-114.7c0-7.31-4.84-10.3-10.7-6.65Z"/><path id="Fill-134" class="cls-10" d="M189.78,539a3.25,3.25,0,0,0-1.35,2.5l0,6.09c0,.92.61,1.29,1.35.83l51.64-32.16a3.25,3.25,0,0,0,1.34-2.5v-6.1c0-.92-.61-1.29-1.35-.82Z"/><path id="Fill-136" class="cls-10" d="M189.81,552.27a3.24,3.24,0,0,0-1.34,2.51l0,6.08c0,.93.6,1.29,1.35.83l51.64-32.17a3.22,3.22,0,0,0,1.34-2.5l0-6.08c0-.93-.6-1.3-1.35-.84Z"/><path id="Fill-138" class="cls-10" d="M210,562.14a7.69,7.69,0,0,0-3.18,5.94v1.4c0,2.18,1.44,3.06,3.2,2l16.7-10.4a7.7,7.7,0,0,0,3.19-5.94v-1.4c0-2.18-1.44-3.07-3.2-2Z"/></g></g></g></g></g></g></g></g></svg>