<?xml version="1.0" encoding="utf-8"?>
<!-- Generator: Adobe Illustrator 23.0.1, SVG Export Plug-In . SVG Version: 6.00 Build 0)  -->
<svg version="1.1" id="Layer_1" xmlns="http://www.w3.org/2000/svg" xmlns:xlink="http://www.w3.org/1999/xlink" x="0px" y="0px"
	 viewBox="0 0 116 143" style="enable-background:new 0 0 116 143;" xml:space="preserve">
<style type="text/css">
	.st0{fill:#FFB57F;}
	.st1{fill-rule:evenodd;clip-rule:evenodd;fill:#FFA200;}
	.st2{fill-rule:evenodd;clip-rule:evenodd;fill:#8896EA;}
	.st3{fill-rule:evenodd;clip-rule:evenodd;fill:#364BEA;}
	.st4{fill-rule:evenodd;clip-rule:evenodd;fill:#FFFFFF;}
	.st5{fill-rule:evenodd;clip-rule:evenodd;fill:#FFB57F;}
	.st6{fill:#E59F2E;}
	.st7{fill-rule:evenodd;clip-rule:evenodd;fill:#E59F2E;}
</style>
<title>91C97EA3-4A0D-4049-BD89-19D946CF4EB2</title>
<desc>Created with sketchtool.</desc>
<g id="Dashboard_user">
	<g id="profile_payment" transform="translate(-244.000000, -297.000000)">
		<g id="money" transform="translate(244.000000, 297.000000)">
			<path id="Shape" class="st0" d="M52.2,116v-8c-0.2-0.2-0.4-0.3-0.6-0.5L22.3,78.4c-1.5-1.3,2.4,1.2,3.9,0.5l11.4,2.6L72.9,116
				H52.2z M75,116h27.4v-11.1c4.6-3.4,7.5-8.7,7.5-14.8c0-2.5-0.5-4.8-1.4-7L75,116z"/>
			<path id="Path" class="st1" d="M42.2,0L0,42.5l22.8,23c1.5-1.4,3.6-2.3,5.8-2.3h24.9c4.8,0,8.7,3.9,8.7,8.8s-3.9,8.8-8.7,8.8
				H37.9L73.8,117L116,74.5L42.2,0z"/>
			<rect id="Rectangle" x="47" y="116" class="st2" width="60" height="27"/>
			<path class="st3" d="M86,143H47v-27h23c8.9,0,16,7.2,16,16.1V143z"/>
			<circle id="Oval" class="st4" cx="71" cy="129" r="6"/>
			<path class="st5" d="M67,25c2.9-1.3,5-4.2,5-7.6c0-4.6-3.7-8.4-8.4-8.4c-3.4,0-6.4,2.1-7.6,5L67,25z"/>
			<path class="st5" d="M79,37c2.9-1.3,5-4.2,5-7.6c0-4.6-3.7-8.4-8.4-8.4c-3.4,0-6.4,2.1-7.6,5L79,37z"/>
			<path class="st5" d="M91,50c2.9-1.3,5-4.2,5-7.6c0-4.6-3.7-8.4-8.4-8.4c-3.4,0-6.4,2.1-7.6,5L91,50z"/>
			<path class="st5" d="M104,62c2.9-1.3,5-4.2,5-7.6c0-4.6-3.7-8.4-8.4-8.4c-3.4,0-6.4,2.1-7.6,5L104,62z"/>
			<path class="st5" d="M54.1,81H28.9C24,81,20,76.9,20,72s4-9,8.9-9h25.3c4.9,0,8.9,4.1,8.9,9S59,81,54.1,81z"/>
			<path class="st6" d="M57.5,30.5c-1,1-2.5,1-3.5,0L48.5,25c-4,2.7-9.7,2.7-13.7,0L23.9,36c2.7,4.2,2.7,9.7,0,13.9l5.5,5.5
				c1,1,1,2.6,0,3.6c-0.5,0.5-1.1,0.7-1.8,0.7c-0.6,0-1.3-0.2-1.8-0.7L17,50.1l1.8-1.8c2.9-2.9,2.9-7.7,0-10.7L17,35.9l17.6-17.8
				l1.8,1.8c2.8,2.9,7.7,2.9,10.6,0l1.8-1.8l8.8,8.9C58.5,28,58.5,29.5,57.5,30.5z M98,67.9L89.2,59c-1-1-2.5-1-3.5,0
				c-1,1-1,2.6,0,3.6l5.5,5.5c-2.7,4.2-2.7,9.7,0,13.9L80.2,93c-4-2.7-9.7-2.7-13.7,0L61,87.5c-1-1-2.5-1-3.5,0c-1,1-1,2.6,0,3.6
				l8.8,8.9l1.8-1.8c2.8-2.9,7.7-2.8,10.6,0l1.8,1.8L98,82.1l-1.8-1.8c-2.9-2.9-2.9-7.7,0-10.7L98,67.9z M103.3,73.2
				c-1-1-2.5-1-3.5,0c-1,1-1,2.6,0,3.6c1,1,2.5,1,3.5,0C104.2,75.8,104.2,74.2,103.3,73.2z M71.6,101.7c-1,1-1,2.6,0,3.6
				c1,1,2.5,1,3.5,0c1-1,1-2.6,0-3.6C74.1,100.7,72.6,100.7,71.6,101.7z M43.4,16.3c1-1,1-2.6,0-3.6c-1-1-2.5-1-3.5,0
				c-1,1-1,2.6,0,3.6C40.9,17.3,42.4,17.3,43.4,16.3z M11.7,41.2c-1,1-1,2.6,0,3.6c1,1,2.5,1,3.5,0c1-1,1-2.6,0-3.6
				C14.3,40.2,12.7,40.2,11.7,41.2z"/>
			<path class="st7" d="M73.4,42.6c-8.8-8.8-23-8.8-31.8,0C36,48.2,34,56,35.5,63.3H53c4.8,0,8.8,3.9,8.8,8.8c0,4.5-3.5,8.2-7.9,8.7
				c6.9,1.1,14.3-0.9,19.6-6.3C82.2,65.6,82.2,51.4,73.4,42.6z"/>
		</g>
	</g>
</g>
</svg>
