<svg xmlns="http://www.w3.org/2000/svg" viewBox="0 0 1000 900"><defs><style>.cls-1,.cls-3{fill:#1fbcc4;}.cls-1{opacity:0.1;}.cls-2{fill:#34c6c6;}.cls-4{fill:#62dddd;}.cls-5{fill:#6a79a8;}.cls-6{fill:#fff;opacity:0.5;}.cls-7{fill:#88d3d3;}</style></defs><title>not-found</title><g id="Layer_2" data-name="Layer 2"><g id="_ÎÓÈ_2" data-name="—ÎÓÈ_2"><path class="cls-1" d="M257.89,884.74C236.71,880.16-17.75,838.9,1,534.56S43.23,138.69,142.16,105.2,481.57-86.73,670.28,63.93s392.34,285.78,311.53,526.34-94,320.8-304.87,308.53S358.6,906.53,257.89,884.74Z"/><path class="cls-2" d="M771.13,822.69a23.06,23.06,0,0,0,3-32.46L599.83,580.73a229.32,229.32,0,0,0,68.68-143.8c11.61-126.48-81.84-238.83-208.32-250.44S221.36,268.34,209.75,394.82s81.84,238.82,208.32,250.44a229.09,229.09,0,0,0,134.47-29l10.9-7.21L738.67,819.71A23.06,23.06,0,0,0,771.13,822.69ZM619,432.38c-9.1,99.16-97.17,172.42-196.33,163.32S250.2,498.52,259.31,399.37,356.48,227,455.64,236.05,628.06,333.23,619,432.38Z"/><path class="cls-3" d="M236.13,306.67c-9.25,19.55-17.47,39.77-23.27,60.64-5.36,19.28-7.12,38.89-6.3,58.86A230,230,0,0,0,238.14,533.1c38.2,64.87,106.91,107.77,182,113.49,47.32,3.61,99.1-6.93,139-33.35,2-1.34-2.78-.86-3.72-.24-37,24.5-84.7,34.44-128.63,31.77A229.1,229.1,0,0,1,320.41,611c-61-37.8-101.94-103.64-108.31-175.18-1.93-21.66-1.09-43.62,4.31-64.74,5.75-22.51,14.58-44.28,24.49-65.25.4-.84-4.17-.47-4.77.82Z"/><path class="cls-3" d="M566,615.71l68,81.8,93.87,112.85c2.79,3.35,5.5,6.77,8.37,10,11.9,13.63,34.33,10.2,43-5.26.41-.73-4.07-.45-4.77.82-8.09,14.46-24.85,13.24-34.6,1.62-3.11-3.71-6.19-7.44-9.29-11.17l-38.82-46.67L593.89,642.09,570.54,614c-.79-.95-5.35.7-4.54,1.69Z"/><path class="cls-3" d="M346.85,262a177.51,177.51,0,0,1,166.48-8.86A180.39,180.39,0,0,1,616.54,433c-.07.76,4.7.22,4.83-1.3a181.32,181.32,0,0,0-182-197.48,188,188,0,0,0-96.2,27.48c-2.05,1.25,2.78.82,3.73.25Z"/><path class="cls-4" d="M783.36,805.41a23,23,0,0,0,3-32.46L612.07,563.45a229.32,229.32,0,0,0,68.68-143.8c11.61-126.48-81.85-238.82-208.33-250.43S233.6,251.06,222,377.54,303.83,616.37,430.31,628a229.09,229.09,0,0,0,134.47-29l10.9-7.21L750.91,802.43A23,23,0,0,0,783.36,805.41ZM631.19,415.1c-9.1,99.16-97.17,172.42-196.33,163.32S262.44,481.25,271.54,382.09s97.18-172.42,196.33-163.32S640.29,316,631.19,415.1Z"/><path class="cls-3" d="M785.36,806c10.56-9.41,11.26-24.22,2.43-35-2.89-3.52-5.83-7-8.75-10.51L739.55,713l-101-121.38-24.29-29.21c-.08.55-.15,1.09-.23,1.64a234,234,0,1,0-53.41,39c5.78-3.09,11.13-6.74,16.59-10.35l-3.79,0,67.37,81q48.26,58,96.5,116c3.56,4.29,7.09,8.6,10.69,12.86a26.37,26.37,0,0,0,36.92,3.74c2.58-2-1.37-3.33-3.13-2-10.32,8.08-22.43,4.48-30.18-4.84l-10-12.06L701,738.68q-49.69-59.74-99.4-119.5L577.9,590.75c-.9-1.08-2.82-.59-3.79,0-80.23,53.05-188.5,46.64-263.52-12.75C240.7,522.71,208.81,429.5,230.2,343c21.17-85.65,92.64-153.23,179.41-169.35C498.09,157.19,589.7,196.47,640,270.79A228.7,228.7,0,0,1,634.48,535a236.9,236.9,0,0,1-24.41,27.88,1.23,1.23,0,0,0-.22,1.63q31.71,38.13,63.43,76.27l95.41,114.69q6.55,7.86,13.09,15.74c.76.9,1.54,1.79,2.27,2.72a22.19,22.19,0,0,1-2.68,30.91C779.19,806.74,783.91,807.31,785.36,806Z"/><path class="cls-5" d="M628.76,415.33C621.7,489,568.88,552.68,497,571.71c-72.55,19.21-150.87-11-192.87-72.89s-40.7-146,3.59-206.34,123.67-87,195.39-65c70,21.53,120.87,86.06,126,159a183.28,183.28,0,0,1-.34,28.79c-.21,2.31,4.69,1.55,4.87-.45,6.69-76.17-36-150.28-105.73-182-69.08-31.46-152.45-16.05-206.1,37.47-54.56,54.42-69,140.06-34.59,209.15,34,68.32,108.91,109,184.78,100.16,74.29-8.65,137.87-63.42,156.64-135.95a184.74,184.74,0,0,0,5-28.78C633.85,412.57,629,413.33,628.76,415.33Z"/><circle class="cls-6" cx="451.37" cy="398.6" r="180.58" transform="translate(-149.65 435.91) rotate(-45)"/><path class="cls-3" d="M468.78,217.27c-75.36-6.62-149.44,34.55-182.42,102.91-33.37,69.18-18.57,154,36,207.91,54.35,53.71,139,67.58,207.81,34.54s111-106.8,103.28-182.84C625.87,304.6,570,240.37,496.77,222a190.71,190.71,0,0,0-28-4.74c-2-.19-5.07,2.69-1.81,3,73.63,7,136.77,60.22,156.25,131.62,19.68,72.1-8.76,150.94-70,193.8-61.74,43.23-146,41.89-206.7-2.72C286.74,499,259.82,420.51,280,349.08c20.12-71.11,84.52-124,158.33-129.15a180.86,180.86,0,0,1,28.6.34C469,220.45,472,217.56,468.78,217.27Z"/><path class="cls-3" d="M515,446.12c-9.91-12.08-25-21-39.78-25.47C450.39,413.08,423,418,401.47,432a71.28,71.28,0,0,0-14.1,11.51c-2,2.22,2.66,2.68,4,1.21,9.53-10.6,23.81-18,37.37-21.61,24.54-6.61,50.22-.88,70.31,14.4a67.65,67.65,0,0,1,11.48,10.63c1.27,1.55,5.89-.28,4.45-2Z"/><path class="cls-3" d="M396.93,373.12a9,9,0,1,0-9.09,9A9.06,9.06,0,0,0,396.93,373.12Z"/><circle class="cls-3" cx="511.98" cy="373.76" r="9.05" transform="translate(111.42 865.06) rotate(-86.94)"/><ellipse class="cls-7" cx="355.78" cy="413.97" rx="13.11" ry="17.48" transform="translate(-4.46 3.88) rotate(-0.62)"/><ellipse class="cls-7" cx="543.68" cy="411.93" rx="13.11" ry="17.48" transform="translate(-4.43 5.91) rotate(-0.62)"/></g></g></svg>