<svg xmlns="http://www.w3.org/2000/svg" width="41.666" height="50" viewBox="0 0 41.666 50"><g transform="translate(-235.167 -231)"><path d="M272.63,261.494c1.357.783,1.217,4.354.745,4.825H238.624c-.471-.471-.612-4.042.746-4.825,3.79-2.188,5.127-8.12,5.575-13.943a11.083,11.083,0,0,1,22.11,0C267.5,253.374,268.84,259.307,272.63,261.494Z" fill="#28c76f"/><path d="M256,271.625a5.307,5.307,0,0,0,5.306-5.306H250.694A5.307,5.307,0,0,0,256,271.625Z" fill="#81fbb8"/><path d="M256,237.253a2.605,2.605,0,1,0-2.606-2.606A2.611,2.611,0,0,0,256,237.253Z" fill="#81fbb8"/><path d="M237.366,257.648a1.042,1.042,0,0,0-1.472-.065c-.12.111-.245.222-.373.335a1.042,1.042,0,0,0,1.375,1.565q.21-.185.406-.364A1.041,1.041,0,0,0,237.366,257.648Z" fill="#239a58"/><path d="M238.064,256.92a1.043,1.043,0,0,0,1.45-.26c1.715-2.465,1.973-4.9,2.315-9.348a1.042,1.042,0,1,0-2.077-.16c-.322,4.19-.539,6.293-1.948,8.318A1.042,1.042,0,0,0,238.064,256.92Z" fill="#239a58"/><path d="M269.9,245.437a1.042,1.042,0,0,0,1.018.825,1.025,1.025,0,0,0,.218-.024,1.041,1.041,0,0,0,.8-1.235c-.043-.2-.09-.4-.141-.6a1.042,1.042,0,1,0-2.019.514C269.821,245.085,269.863,245.262,269.9,245.437Z" fill="#239a58"/><path d="M276.457,257.9c-3.049-2.536-3.719-5.007-4.144-9.939a1.041,1.041,0,1,0-2.075.179c.459,5.326,1.307,8.384,4.887,11.361a1.041,1.041,0,1,0,1.332-1.6Z" fill="#239a58"/><path d="M274.155,261.687a.918.918,0,0,0-.046-.08,2.613,2.613,0,0,0-.959-1.016c-2.811-1.622-4.512-6.036-5.057-13.12a12.253,12.253,0,0,0-9.024-10.858,3.647,3.647,0,1,0-6.139,0,12.254,12.254,0,0,0-9.024,10.858c-.544,7.084-2.246,11.5-5.057,13.12a3.7,3.7,0,0,0-1.529,2.886c-.121.92-.159,2.853.568,3.579a1.042,1.042,0,0,0,.736.3h11.115a6.346,6.346,0,0,0,12.521,0h11.116a1.042,1.042,0,0,0,.736-.3c.726-.726.689-2.66.568-3.58A5.363,5.363,0,0,0,274.155,261.687ZM256,233.083a1.564,1.564,0,1,1-1.564,1.564A1.566,1.566,0,0,1,256,233.083Zm0,37.5a4.271,4.271,0,0,1-4.135-3.222h8.269A4.27,4.27,0,0,1,256,270.583Zm16.624-5.3H239.375a6.143,6.143,0,0,1-.006-1.391c.1-.93.366-1.4.522-1.491,3.491-2.015,5.484-6.845,6.092-14.765a10.041,10.041,0,0,1,20.033,0,32.768,32.768,0,0,0,1.853,9.314h-3.916a1.042,1.042,0,1,0,0,2.083h4.914a10.265,10.265,0,0,0,1.582,2.083H260.062a1.042,1.042,0,1,0,0,2.084h12.447a4.867,4.867,0,0,1,.122.692A6.194,6.194,0,0,1,272.624,265.278Z" fill="#239a58"/><path d="M266.416,278.917H245.583a1.042,1.042,0,0,0,0,2.084h20.833a1.042,1.042,0,1,0,0-2.083Z" fill="#239a58"/><path d="M256.312,261.111h-.625a1.042,1.042,0,0,0,0,2.084h.625a1.042,1.042,0,0,0,0-2.084Z" fill="#239a58"/></g></svg>