<svg xmlns="http://www.w3.org/2000/svg" viewBox="0 0 64 64"><defs><style>.cls-1{fill:#74e2e2;}.cls-2{fill:#1fbcc4;}.cls-3{fill:#1f7c7c;}.cls-4{fill:#fff;}.cls-5,.cls-7{fill:none;stroke-linecap:round;stroke-linejoin:round;stroke-width:2px;}.cls-5{stroke:#000;}.cls-6{fill:#ffe0b8;}.cls-7{stroke:#fff;}</style></defs><title>notification_empty</title><g id="Layer_2" data-name="Layer 2"><g id="Layer_3" data-name="Layer 3"><path class="cls-1" d="M55.5,21A2.5,2.5,0,1,1,58,18.5,2.5,2.5,0,0,1,55.5,21Zm0-4A1.5,1.5,0,1,0,57,18.5,1.5,1.5,0,0,0,55.5,17Z"/><path class="cls-2" d="M6.5,53A2.5,2.5,0,1,1,9,50.5,2.5,2.5,0,0,1,6.5,53Zm0-4A1.5,1.5,0,1,0,8,50.5,1.5,1.5,0,0,0,6.5,49Z"/><path class="cls-1" d="M10.83,33.71c-.11-.06-.63-.35-.78-.42A.92.92,0,0,1,9.71,33l-.42-.78a.33.33,0,0,0-.58,0L8.29,33a.92.92,0,0,1-.34.34c-.15.07-.67.36-.78.42a.33.33,0,0,0,0,.58c.11.06.63.35.78.42a.92.92,0,0,1,.34.34l.42.78a.33.33,0,0,0,.58,0l.42-.78a.92.92,0,0,1,.34-.34c.15-.07.67-.36.78-.42a.33.33,0,0,0,0-.58Z"/><path class="cls-2" d="M54.83,8.71c-.11-.06-.63-.35-.78-.42A.92.92,0,0,1,53.71,8l-.42-.78a.33.33,0,0,0-.58,0L52.29,8a.92.92,0,0,1-.34.34c-.15.07-.67.36-.78.42a.33.33,0,0,0,0,.58c.11.06.63.35.78.42a.92.92,0,0,1,.34.34l.42.78a.33.33,0,0,0,.58,0l.42-.78a.92.92,0,0,1,.34-.34c.15-.07.67-.36.78-.42a.33.33,0,0,0,0-.58Z"/><path class="cls-1" d="M43.87,60.28,43.29,60a.51.51,0,0,1-.25-.25l-.32-.58a.25.25,0,0,0-.44,0l-.32.58a.51.51,0,0,1-.25.25l-.58.32a.25.25,0,0,0,0,.44l.58.32a.51.51,0,0,1,.25.25l.32.58a.25.25,0,0,0,.44,0l.32-.58a.51.51,0,0,1,.25-.25l.58-.32a.25.25,0,0,0,0-.44Z"/><path class="cls-3" d="M15.87,54.28,15.29,54a.51.51,0,0,1-.25-.25l-.32-.58a.25.25,0,0,0-.44,0l-.32.58a.51.51,0,0,1-.25.25l-.58.32a.25.25,0,0,0,0,.44l.58.32a.51.51,0,0,1,.25.25l.32.58a.25.25,0,0,0,.44,0l.32-.58a.51.51,0,0,1,.25-.25l.58-.32a.25.25,0,0,0,0-.44Z"/><path class="cls-1" d="M60.87,43.28,60.29,43a.51.51,0,0,1-.25-.25l-.32-.58a.25.25,0,0,0-.44,0l-.32.58a.51.51,0,0,1-.25.25l-.58.32a.25.25,0,0,0,0,.44l.58.32a.51.51,0,0,1,.25.25l.32.58a.25.25,0,0,0,.44,0l.32-.58a.51.51,0,0,1,.25-.25l.58-.32a.25.25,0,0,0,0-.44Z"/><circle class="cls-3" cx="43.75" cy="3.75" r="0.75"/><circle class="cls-2" cx="10.75" cy="15.75" r="0.75"/><circle class="cls-1" cx="34.75" cy="63.25" r="0.75"/><circle class="cls-2" cx="35.5" cy="0.5" r="0.5"/><circle class="cls-3" cx="5.5" cy="25.5" r="0.5"/><circle class="cls-2" cx="55.5" cy="37.5" r="0.5"/><circle class="cls-1" cx="47.5" cy="55.5" r="0.5"/><circle class="cls-1" cx="47.5" cy="13.5" r="0.5"/><circle class="cls-3" cx="63" cy="26" r="1"/><circle class="cls-3" cx="1" cy="45" r="1"/><path class="cls-2" d="M38,49a6,6,0,0,1-12,0Z"/><path class="cls-3" d="M35,49a6,6,0,0,1-4.5,5.81A6.16,6.16,0,0,0,32,55a6,6,0,0,0,6-6Z"/><path class="cls-4" d="M26,49a6,6,0,0,0,6,6,6.16,6.16,0,0,0,1.5-.19A6,6,0,0,1,29,49Z"/><path class="cls-5" d="M38,49a6,6,0,0,1-12,0Z"/><path class="cls-2" d="M49.66,41.11A3.73,3.73,0,0,1,48,38V30A16,16,0,0,0,36,14.5V12a4,4,0,0,0-8,0v2.5A16,16,0,0,0,16,30v8a3.73,3.73,0,0,1-1.66,3.11L13,42H51Z"/><path class="cls-3" d="M32,8a4,4,0,0,1,4,4v2.5A16,16,0,0,1,48,30v8a3.73,3.73,0,0,0,1.66,3.11L51,42H47l-1.34-.89A3.73,3.73,0,0,1,44,38V30a16,16,0,0,0-9-14.39A1.79,1.79,0,0,1,34,14h0V12a4,4,0,0,0-3-3.87A3.66,3.66,0,0,1,32,8Z"/><path class="cls-4" d="M32,8a4,4,0,0,0-4,4v2.5A16,16,0,0,0,16,30v8a3.73,3.73,0,0,1-1.66,3.11L13,42h4l1.34-.89A3.73,3.73,0,0,0,20,38V30a16,16,0,0,1,9-14.39A1.79,1.79,0,0,0,30,14h0V12a4,4,0,0,1,3-3.87A3.66,3.66,0,0,0,32,8Z"/><path class="cls-5" d="M48,33V30A16,16,0,0,0,36,14.5V12a4,4,0,0,0-8,0v2.5a16.07,16.07,0,0,0-7.16,4"/><path class="cls-5" d="M17.15,24A16,16,0,0,0,16,30v8a3.73,3.73,0,0,1-1.66,3.11L13,42H51l-1.34-.89A3.73,3.73,0,0,1,48,38V37"/><path class="cls-5" d="M19,20.67c-.2.28-.39.56-.57.86"/><path class="cls-5" d="M36,14.5c-.47-.12-1-.22-1.45-.3"/><path class="cls-5" d="M28,14.5c.47-.12,1-.22,1.45-.3"/><rect class="cls-2" x="12" y="41" width="40" height="8" rx="3"/><path class="cls-3" d="M52,44a3,3,0,0,0-3-3H45a3,3,0,0,1,3,3v2a3,3,0,0,1-3,3h4a3,3,0,0,0,3-3Z"/><path class="cls-4" d="M49,41H15a3,3,0,0,0-3,3v2a3,3,0,0,0,3,3h4a3,3,0,0,1-3-3V44.5A1.5,1.5,0,0,1,17.5,43H49a3,3,0,0,1,3,3V44A3,3,0,0,0,49,41Z"/><path class="cls-6" d="M49,41H45a3,3,0,0,1,2.83,2H49a3,3,0,0,1,3,3V44A3,3,0,0,0,49,41Z"/><path class="cls-5" d="M20,41H15a3,3,0,0,0-3,3v2a3,3,0,0,0,3,3H49a3,3,0,0,0,3-3V44a3,3,0,0,0-3-3H24"/><line class="cls-7" x1="40" y1="35" x2="40" y2="34"/><path class="cls-7" d="M40,31.07c0-4.52-1.25-8.54-3.18-11.07"/></g></g></svg>