<?xml version="1.0" encoding="utf-8"?>
<!-- Generator: Adobe Illustrator 23.0.2, SVG Export Plug-In . SVG Version: 6.00 Build 0)  -->
<svg version="1.1" id="Layer_1" xmlns="http://www.w3.org/2000/svg" xmlns:xlink="http://www.w3.org/1999/xlink" x="0px" y="0px"
	 viewBox="0 0 224.5 194.4" style="enable-background:new 0 0 224.5 194.4;" xml:space="preserve">
<style type="text/css">
	.st0{fill:#1FBCC4;}
	.st1{fill:none;}
	.st2{clip-path:url(#SVGID_2_);}
	.st3{fill:#43AFAF;}
	.st4{fill:#F1C27D;}
	.st5{fill:#2DD9DE;}
	.st6{clip-path:url(#SVGID_4_);}
	.st7{clip-path:url(#SVGID_6_);}
	.st8{clip-path:url(#SVGID_8_);}
</style>
<g id="Offline" transform="translate(0 -0.689)">
	<g id="Page_1">
		<path id="Fill_1" class="st0" d="M111,64.8c0,0,40.8,20.3,52.6,35.1c11.7,14.7,16.1,20,13.1,22.4c-3,2.4-10.7-5-17.6,3.8
			s-18.4,22.2-32.5,20.4s-15.4,4.7-13.5,8.6c1.8,3.9-18.7-11.4-23.2-29.1c-4.5-17.7-12.6-50.4-10.2-53.1C81.9,70.1,88.6,72,111,64.8
			"/>
		<g id="Group_5" transform="translate(157.367 171.566)">
			<path id="Clip_4-2" class="st1" d="M0.5,0h11.2v23.5H0.5V0z"/>
			<g>
				<defs>
					<rect id="SVGID_1_" x="0.5" y="0" width="11.2" height="23.5"/>
				</defs>
				<clipPath id="SVGID_2_">
					<use xlink:href="#SVGID_1_"  style="overflow:visible;"/>
				</clipPath>
				<g id="Group_5-2" class="st2">
					<path id="Fill_3" class="st0" d="M4.2,23.4c0,0-3.3,0.8-2.9-2.3C1.7,18,1.9,14.7,2,11.5c0-2.4-0.5-4.7-1.4-6.9
						C0.1,3.1,4.7-0.9,7,0.2s5.5,1.5,4.6,5.1S8.5,20.5,4.2,23.4"/>
				</g>
			</g>
		</g>
		<path id="Fill_6" class="st0" d="M175.3,190.8c0,0-3.1,0.8-2.8-2.3c0.4-3.2,0.6-6.4,0.7-9.6c0-4,0.1-5.9-0.3-7.5
			c-0.5-1.6,2.9-4.9,5.1-3.9c2.8,1.2,4.3,4.2,3.6,7.1C180.8,178.3,179.4,187.8,175.3,190.8"/>
		<path id="Fill_8" class="st3" d="M130.6,102.6l26.2,35l23.3,31.5l-7.2,5l-24.7-28.2L131,131.5l12,20.8l23.3,20.5l-7.8,6.3
			l-28.8-24.7c0,0-25.2-29.6-25.3-38.4S130.6,102.6,130.6,102.6"/>
		<path id="Fill_10" class="st4" d="M119.9,58.3c0,0,7-1.2,10.9,1.8s15,13.6,15,13.6s4.6,2.9,4,3.9c-0.6,1-2.2,4.9-4.2,4.8
			s-2.7,0.3-4-1.1c-0.8-1-1.2-2.3-1.1-3.6c0,0-13.4-12.4-18.9-11.4C116.2,67.3,119.9,58.3,119.9,58.3"/>
		<path id="Fill_12" class="st4" d="M99.3,60.9c0,0,0.7,5.3-6.9,6.9c-6.1,1.2-8.6-1.6-9.1-2.3c2.1-2.7,3.4-3.5,2.8-5.7
			c-0.1-0.5-1.1-0.9-1.1-1c0.2,0.1,1.5,0.9,4.9,0.3c3.7-0.8,4.3-2,4.4-2.8c0.1,0.4,0.4,0.8,0.5,1.1l-0.3,0.3
			C95.4,62,97.2,60.6,99.3,60.9"/>
		<path id="Fill_14" class="st4" d="M90.3,62.1c5.8-1.1,9.3-8.6,7.8-16.6s-7.5-13.7-13.4-12.6c-5.8,1.1-9.3,8.6-7.8,16.6
			C78.5,57.6,84.5,63.2,90.3,62.1"/>
		<path id="Fill_16" class="st0" d="M92.1,38.2c0,0,2.7,3.1,3.3,5.8c0.4,1.6,0.2,1,0.2,1s-0.1-1.4,1.6-1.2c0.4,0,0.9,0.1,1.3,0.4
			c-0.4-1.3-0.2-1-0.6-2.1c-0.5-1.6-2.6-9.5-6.8-9.9c-4.2-0.4-13-0.4-12.3,3.2c-5.9,3.3-3.5,4.9-2.5,10c0,0-1.3-3.3,5.4-3.6
			C90.8,40.5,89.5,35.7,92.1,38.2"/>
		<path id="Fill_18" class="st4" d="M96.8,44.6c0,0,3.1-0.3,3.4,2.6c0.2,3-3,3.2-3,3.2"/>
		<path id="Fill_20" class="st4" d="M34.7,28.3c0,0-1.1-3.7,1.3-3.7s5.2-0.9,6.3,1.7c1.1,2.6,5.1,8,7.7,10.8
			c2.6,2.8,21.8,17.9,23.7,21.2c2,3.3,1.2,11.3-1.7,10.7S60.7,58,57.9,55.4c-2.8-2.6-14.5-18.3-16.4-18.7
			C39.7,36.2,35,30.5,34.7,28.3"/>
		<path id="Fill_22" class="st5" d="M98.2,118.6c0,0,11.7-1.9,20.1-5.9c5.8-2.9,11.3-6.4,16.4-10.4l-17.7-33l7.2-0.2l-2-11.4
			c-2-0.3-4-0.4-6-0.4c-4.5,0.4-11.7-1-14.5,0.9c-5.4,5.8-3.3,6-8.3,8c-8.8,3.3-18.5-8.6-18.5-8.6l-10.1,6.9
			c0,0,11.5,11.8,15.2,17.1C83.6,86.8,98.2,118.6,98.2,118.6"/>
		<path id="Fill_24" class="st5" d="M197.8,131.6c0,1.6-1.3,2.9-2.9,2.9c-1.6,0-2.9-1.3-2.9-2.9c0-1.6,1.3-2.9,2.9-2.9c0,0,0,0,0,0
			C196.4,128.7,197.8,130,197.8,131.6C197.8,131.6,197.8,131.6,197.8,131.6"/>
		<path id="Fill_26" class="st0" d="M186,150.1c0,1.6-1.3,2.9-2.9,2.9c-1.6,0-2.9-1.3-2.9-2.9c0-1.6,1.3-2.9,2.9-2.9c0,0,0,0,0,0
			C184.7,147.2,186,148.5,186,150.1C186,150.1,186,150.1,186,150.1"/>
		<path id="Fill_28" class="st5" d="M102.7,167.8c0,1.6-1.3,2.9-2.9,2.9s-2.9-1.3-2.9-2.9s1.3-2.9,2.9-2.9c0,0,0,0,0,0
			C101.3,164.8,102.7,166.2,102.7,167.8C102.7,167.8,102.7,167.8,102.7,167.8"/>
		<path id="Fill_30" class="st0" d="M86.7,146.8c0,1.6-1.3,2.9-2.9,2.9s-2.9-1.3-2.9-2.9s1.3-2.9,2.9-2.9c0,0,0,0,0,0
			C85.4,143.8,86.7,145.1,86.7,146.8C86.7,146.8,86.7,146.8,86.7,146.8"/>
		<path id="Fill_32" class="st0" d="M209.5,112.3c0,1.6-1.3,2.9-2.9,2.9c-1.6,0-2.9-1.3-2.9-2.9c0-1.6,1.3-2.9,2.9-2.9c0,0,0,0,0,0
			C208.2,109.3,209.5,110.6,209.5,112.3"/>
		<path id="Fill_34" class="st0" d="M65.6,152.6c0,1.6-1.3,2.9-2.9,2.9c-1.6,0-2.9-1.3-2.9-2.9s1.3-2.9,2.9-2.9c0,0,0,0,0,0
			C64.3,149.7,65.6,151,65.6,152.6C65.6,152.6,65.6,152.6,65.6,152.6"/>
		<path id="Fill_36" class="st0" d="M102.7,189.6c0,1.6-1.3,2.9-2.9,2.9s-2.9-1.3-2.9-2.9s1.3-2.9,2.9-2.9c0,0,0,0,0,0
			C101.3,186.7,102.7,188,102.7,189.6"/>
		<path id="Fill_38" class="st0" d="M171.7,75.3c0,1.2-0.9,2.1-2.1,2.1c-1.2,0-2.1-0.9-2.1-2.1c0-1.2,0.9-2.1,2.1-2.1
			C170.7,73.2,171.7,74.1,171.7,75.3L171.7,75.3"/>
		<g id="Group_42" transform="translate(219.64 95.875)">
			<path id="Clip_41-2" class="st1" d="M0.6,0.2h4.3v4.3H0.6V0.2z"/>
			<g>
				<defs>
					<rect id="SVGID_3_" x="0.6" y="0.2" width="4.3" height="4.3"/>
				</defs>
				<clipPath id="SVGID_4_">
					<use xlink:href="#SVGID_3_"  style="overflow:visible;"/>
				</clipPath>
				<g id="Group_42-2" class="st6">
					<path id="Fill_40" class="st0" d="M4.9,2.3c0,1.2-1,2.1-2.1,2.1c-1.2,0-2.1-1-2.1-2.1s1-2.1,2.1-2.1c0,0,0,0,0,0
						C4,0.2,4.9,1.1,4.9,2.3"/>
				</g>
			</g>
		</g>
		<path id="Fill_43" class="st0" d="M223,153.5c0,1.2-0.9,2.1-2.1,2.1c-1.2,0-2.1-0.9-2.1-2.1c0-1.2,0.9-2.1,2.1-2.1
			C222.1,151.4,223,152.3,223,153.5L223,153.5"/>
		<path id="Fill_45" class="st0" d="M69.8,190.5c0,1.2-0.9,2.1-2.1,2.1c-1.2,0-2.1-0.9-2.1-2.1c0-1.2,0.9-2.1,2.1-2.1
			C68.9,188.4,69.8,189.3,69.8,190.5L69.8,190.5"/>
		<path id="Fill_47" class="st0" d="M130.4,181.2c0,1.2-0.9,2.1-2.1,2.1c-1.2,0-2.1-0.9-2.1-2.1c0-1.2,0.9-2.1,2.1-2.1
			C129.5,179.1,130.4,180.1,130.4,181.2L130.4,181.2"/>
		<path id="Fill_49" class="st0" d="M66.5,120.7c0,1.2-0.9,2.1-2.1,2.1c-1.2,0-2.1-0.9-2.1-2.1c0-1.2,0.9-2.1,2.1-2.1
			C65.5,118.6,66.5,119.5,66.5,120.7L66.5,120.7"/>
		<path id="Fill_51" class="st0" d="M31.1,75.3c0,1.2-0.9,2.1-2.1,2.1s-2.1-0.9-2.1-2.1c0-1.2,0.9-2.1,2.1-2.1
			C30.2,73.2,31.1,74.1,31.1,75.3L31.1,75.3"/>
		<path id="Fill_53" class="st5" d="M154,56.8c0,1.2-0.9,2.1-2.1,2.1c-1.2,0-2.1-0.9-2.1-2.1c0-1.2,0.9-2.1,2.1-2.1
			C153.1,54.7,154,55.6,154,56.8L154,56.8"/>
		<g id="Group_57" transform="translate(128.755)">
			<path id="Clip_56-2" class="st1" d="M0.4,0.7h4.3V5H0.4V0.7z"/>
			<g>
				<defs>
					<rect id="SVGID_5_" x="0.4" y="0.7" width="4.3" height="4.3"/>
				</defs>
				<clipPath id="SVGID_6_">
					<use xlink:href="#SVGID_5_"  style="overflow:visible;"/>
				</clipPath>
				<g id="Group_57-2" class="st7">
					<path id="Fill_55" class="st0" d="M4.7,2.8C4.7,4,3.7,5,2.5,5S0.4,4,0.4,2.8c0-1.2,1-2.1,2.1-2.1c0,0,0,0,0,0
						C3.7,0.7,4.7,1.6,4.7,2.8L4.7,2.8"/>
				</g>
			</g>
		</g>
		<path id="Fill_58" class="st0" d="M144.7,24c0,1.2-0.9,2.1-2.1,2.1c-1.2,0-2.1-0.9-2.1-2.1c0-1.2,0.9-2.1,2.1-2.1
			C143.8,21.9,144.7,22.8,144.7,24L144.7,24"/>
		<path id="Fill_60" class="st0" d="M200.3,47.5c0,1.2-0.9,2.1-2.1,2.1c-1.2,0-2.1-0.9-2.1-2.1c0-1.2,0.9-2.1,2.1-2.1
			C199.3,45.4,200.3,46.4,200.3,47.5L200.3,47.5"/>
		<path id="Fill_62" class="st0" d="M70.7,18.1c0,1.2-0.9,2.1-2.1,2.1c-1.2,0-2.1-0.9-2.1-2.1c0-1.2,0.9-2.1,2.1-2.1
			C69.7,16,70.7,16.9,70.7,18.1L70.7,18.1"/>
		<path id="Fill_64" class="st0" d="M194.4,98c0,1.6-1.3,2.9-2.9,2.9c-1.6,0-2.9-1.3-2.9-2.9c0-1.6,1.3-2.9,2.9-2.9c0,0,0,0,0,0
			C193.1,95,194.4,96.4,194.4,98C194.4,98,194.4,98,194.4,98"/>
		<path id="Fill_66" class="st5" d="M196.1,73.6c0,2.1-1.7,3.8-3.8,3.8s-3.8-1.7-3.8-3.8c0-2.1,1.7-3.8,3.8-3.8c0,0,0,0,0,0
			C194.4,69.8,196.1,71.5,196.1,73.6C196.1,73.6,196.1,73.6,196.1,73.6"/>
		<g id="Group_70" transform="translate(0 60.553)">
			<path id="Clip_69-2" class="st1" d="M0,0.1h7.4v7.4H0V0.1z"/>
			<g>
				<defs>
					<rect id="SVGID_7_" y="0.1" width="7.4" height="7.4"/>
				</defs>
				<clipPath id="SVGID_8_">
					<use xlink:href="#SVGID_7_"  style="overflow:visible;"/>
				</clipPath>
				<g id="Group_70-2" class="st8">
					<path id="Fill_68" class="st0" d="M7.4,3.8c0,2-1.7,3.7-3.7,3.7S0,5.9,0,3.8s1.7-3.7,3.7-3.7c0,0,0,0,0,0
						C5.7,0.1,7.4,1.8,7.4,3.8"/>
				</g>
			</g>
		</g>
		<path id="Fill_71" class="st0" d="M128.8,43.3c0,2.1-1.7,3.8-3.8,3.8c-2.1,0-3.8-1.7-3.8-3.8c0-2.1,1.7-3.8,3.8-3.8c0,0,0,0,0,0
			C127.1,39.5,128.8,41.2,128.8,43.3"/>
		<path id="Fill_73" class="st5" d="M101.8,16.4c0,2.1-1.7,3.8-3.8,3.8c-2.1,0-3.8-1.7-3.8-3.8s1.7-3.8,3.8-3.8c0,0,0,0,0,0
			C100.1,12.6,101.8,14.3,101.8,16.4C101.8,16.4,101.8,16.4,101.8,16.4"/>
		<path id="Fill_75" class="st5" d="M38.7,122.4c0,2.1-1.7,3.8-3.8,3.8s-3.8-1.7-3.8-3.8c0-2.1,1.7-3.8,3.8-3.8c0,0,0,0,0,0
			C37,118.6,38.7,120.3,38.7,122.4C38.7,122.4,38.7,122.4,38.7,122.4"/>
		<path id="Fill_77" class="st0" d="M173.4,43.3c0,2.1-1.7,3.8-3.8,3.8c-2.1,0-3.8-1.7-3.8-3.8c0-2.1,1.7-3.8,3.8-3.8c0,0,0,0,0,0
			C171.7,39.5,173.4,41.2,173.4,43.3"/>
		<path id="Fill_79" class="st0" d="M58.9,94.6c0,2.1-1.7,3.8-3.8,3.8c-2.1,0-3.8-1.7-3.8-3.8c0-2.1,1.7-3.8,3.8-3.8c0,0,0,0,0,0
			C57.2,90.8,58.9,92.5,58.9,94.6C58.9,94.6,58.9,94.6,58.9,94.6"/>
	</g>
</g>
</svg>
