<?xml version="1.0" encoding="utf-8"?>
<!-- Generator: Adobe Illustrator 23.0.2, SVG Export Plug-In . SVG Version: 6.00 Build 0)  -->
<svg version="1.1" id="Layer_1" xmlns="http://www.w3.org/2000/svg" xmlns:xlink="http://www.w3.org/1999/xlink" x="0px" y="0px"
	 viewBox="0 0 160.5 224.8" style="enable-background:new 0 0 160.5 224.8;" xml:space="preserve">
<style type="text/css">
	.st0{fill:#1FBCC4;}
	.st1{fill:#F1C27D;}
	.st2{fill:#43AFAF;}
	.st3{fill:#2DD9DE;}
</style>
<g id="Group_2" transform="translate(-0.079)">
	<g id="payment-04">
		<path id="Shape" class="st0" d="M78.2,214.4c0,0,4.6,6.3,2.9,8s-20.3,4-21.4,0.6c-1.1-3.4,5.4-3.2,7-4.2s4.9-1.8,4.6-3.3
			C71.1,213.9,78.2,214.4,78.2,214.4z"/>
		<path id="Shape-2" class="st0" d="M87.8,214.4c0,0-4.6,6.3-2.9,8s20.3,4,21.4,0.6s-5.4-3.2-7-4.2s-4.9-1.8-4.6-3.3
			S87.8,214.4,87.8,214.4z"/>
		<path id="Shape-3" class="st1" d="M73.7,105c0,0,5-1.5,4.6-5.9c-0.3-4.4,0.1-3.6,0.1-3.6s0.1,1.2,4.4,1.3c4.4,0.2,4.9-1,4.9-1
			s-1.1,6.4,1.1,7.7c2.2,1.3,2.2,3,2.2,3S78.6,106.5,73.7,105z"/>
		<path id="Shape-4" class="st1" d="M76.1,103.1l-3.8,7.1c0,0-13.7-2.3-16.7-9.7c-3-7.5-3.7-20.8-3.7-20.8c-0.2-1.3-0.3-3.6-1.6-5.4
			c-0.4-0.6-1-0.9-1.6-0.9c-2.5-0.2-6-6.1-5.6-7c0.4-0.9,2.7-3.9,4.5-2.7s3.3,3.9,4.1,3.9c0.8,0-1.4-2.2-0.3-3.1
			c1.1-0.9,1.8,0.7,2.3,2.4c0.5,1.7,1.6,5.4,2.9,9.2c1.6,3.4,3.8,16.3,8.4,21.7C68.1,100.8,76.1,103.1,76.1,103.1z"/>
		<path id="Shape-5" class="st1" d="M89.1,102.4l3.8,7.1c0,0,13.7-2.3,16.7-9.7c3-7.4,3.7-20.8,3.7-20.8c0.2-1.3,0.3-3.6,1.6-5.4
			c0.4-0.6,1-0.9,1.6-0.9c2.5-0.2,6-6.1,5.6-7c-0.4-0.9-2.7-3.9-4.5-2.7c-1.8,1.2-3.3,3.9-4.1,3.9s1.4-2.2,0.3-3.1s-1.8,0.7-2.3,2.4
			c-0.5,1.7-1.6,5.4-2.9,9.2c-1.6,3.4-3.8,16.3-8.4,21.7C97.1,100.2,89.1,102.4,89.1,102.4z"/>
		<path id="Shape-6" class="st2" d="M65.8,150.8c0,0-3.2,25.4-2,36.1c1.2,10.7,5,30.7,5,30.7c1.9,0.8,3.9,0.9,5.9,0.3
			c1.7-0.4,3.3-1,4.7-2c0,0-6.4-16.6-5.7-30.5s6-31.6,6-31.6s3.8-8,5.9,0c0,0,5.3,17.7,6,31.6c-0.4,14.4-5.4,30.3-5.4,30.3
			c1.6,1,3.4,1.7,5.3,2.2c3.5,1,5.1-0.3,5.1-0.3s3.8-20.1,5-30.7c1.2-10.7-2-36.1-2-36.1l-1-7.3H66.2
			C66.3,145.9,66.1,148.4,65.8,150.8z"/>
		<path id="Shape-7" class="st3" d="M66.2,143.4c5.9,1,11.8,1.6,17.8,2c4.9,0.2,9.8-0.5,14.6-2v-31.9c0-1.4,0.7-2.6,1.9-3.3l1.5-0.8
			l-4-9.9l-8.9,4.3c0,0-0.7,3.3-6.4,3.3c-4.8,0.1-6.1-2.2-6.1-2.2l-9.9-4.7l-3.9,9.7l2.4,1.2c1.3,0.6,2.1,2,2.1,3.5L66.2,143.4z"/>
		<path id="Shape-8" class="st1" d="M91.1,85.6c1.2,6.6-1.1,12.1-6.5,13.1s-10.8-3.6-12-10.2c-1.2-6.6,2.2-12.8,7.6-13.8
			C85.6,73.9,89.9,79,91.1,85.6z"/>
		<path id="Shape-9" class="st0" d="M88.9,78.7c0,0-6.4,0.4-9.9,0.7c-3.5,0.3-3.9,3.7-3.6,5.5c0.3,1.8-2.3-0.8-1.7,2.5
			c0.5,2.7,1.6,3.7,3.5,2.6c0.9-0.8,1.4,5.8,0.7,6.8c-0.7,0.9-4.8-2.1-5.4-4.7c-0.6-2.6-6.4-17.9,7.9-18.9
			C93.6,72.1,90.1,76.5,88.9,78.7z"/>
		<g id="Group" transform="translate(26.938 129.777)">
			<path id="Shape-10" class="st2" d="M0,13.8c0,0,5.1,0.3,8.2-2.2c1.6-1.3,3.1-2.7,4.5-4.2L12,0.2c0,0-2.4,3.8-5.7,4.4
				C4.4,4.9,2.5,5.1,0.5,5.1L0,13.8z"/>
			<path id="Shape-11" class="st3" d="M1.6,6.7l-0.2,4.7c0,0,0.9-0.4,1.3,0.1C3,12,2.9,12.4,2.7,12.8c0,0,4.2-0.8,5.8-2.3
				s3-3.1,3-3.1c-0.3-0.3-0.4-0.8-0.1-1.1c0.4-0.6,0.8-0.5,0.8-0.5l-0.3-3c0,0-0.4,0.4-0.5,0.1c-0.1-0.2-0.1-0.3-0.1-0.5
				c0,0-1.7,2.6-4,2.9C5.6,5.5,4.2,5.6,2.7,5.7C2.7,5.7,2.8,7,1.6,6.7z"/>
		</g>
		<g id="Group-2" transform="translate(64.44 33.499)">
			<path id="Shape-12" class="st2" d="M12.8,13.8c0,0-5.1,0.3-8.2-2.2C3,10.3,1.5,8.9,0.1,7.4l0.7-7.2c0,0,2.4,3.8,5.7,4.4
				C8.4,4.8,10.3,5,12.3,5L12.8,13.8z"/>
			<path id="Shape-13" class="st3" d="M11.2,6.6l0.2,4.7c0,0-0.9-0.4-1.3,0.1c-0.2,0.4-0.2,0.8,0.1,1.2c0,0-4.2-0.8-5.8-2.3
				s-3-3.1-3-3.1C1.7,7,1.8,6.5,1.5,6.2C1,5.6,0.7,5.7,0.7,5.7l0.3-3c0,0,0.4,0.4,0.5,0.1c0.1-0.2,0.1-0.3,0.1-0.5
				c0,0,1.7,2.6,4,2.9c1.5,0.2,2.9,0.4,4.4,0.4C10.1,5.6,10,6.9,11.2,6.6z"/>
		</g>
		<g id="Group-3" transform="translate(105.903 38.247)">
			<path id="Shape-14" class="st2" d="M0.2,11.6l8.1,3.3c0,0,5.9-4.6,8.4-8.6c1.2-1.7,2.2-3.6,2.8-5.6L12,0C12,0,4.4,10.8,0.2,11.6z
				"/>
			<path id="Shape-15" class="st3" d="M3.3,11.6l4,1.7c0,0,0.3-1,1.1-0.8s0.8,0.7,0.8,0.7s6.2-6,7.5-8.4c1.2-2.3,1.2-2.2,1.2-2.2
				s-1.1-0.3-0.8-0.9L17.4,1l-4-0.4c0,0-0.4,0.8-0.9,0.8c-0.3,0-0.5-0.1-0.7-0.3C10.7,3,9.4,4.7,8,6.4c-1.5,1.4-4.2,4-4.2,4
				S4.9,11.1,3.3,11.6z"/>
		</g>
		<g id="Group-4" transform="translate(39.879)">
			<path id="Shape-16" class="st2" d="M0.1,11.6l8.1,3.3c0,0,5.9-4.6,8.4-8.6c1.2-1.7,2.2-3.6,2.8-5.6L11.9,0
				C11.9,0,4.4,10.8,0.1,11.6z"/>
			<path id="Shape-17" class="st3" d="M3.2,11.5l4,1.7c0,0,0.3-1,1.1-0.8S9.1,13,9.1,13s6.2-6,7.5-8.4c1.2-2.3,1.2-2.2,1.2-2.2
				S16.7,2.1,17,1.5L17.3,1l-4-0.4c0,0-0.4,0.8-0.9,0.8c-0.3,0-0.5-0.1-0.7-0.3c-1.1,1.9-2.4,3.6-3.9,5.3c-1.5,1.4-4.2,4-4.2,4
				S4.8,11.1,3.2,11.5z"/>
		</g>
		<g id="Group-5" transform="translate(82.662 6.594)">
			<path id="Shape-18" class="st2" d="M19.2,11.7L11.1,15c0,0-5.9-4.6-8.4-8.6C1.6,4.7,0.6,2.8,0,0.8l7.4-0.6
				C7.4,0.2,15,11,19.2,11.7z"/>
			<path id="Shape-19" class="st3" d="M16.2,11.7l-4,1.7c0,0-0.3-1-1.1-0.8s-0.8,0.7-0.8,0.7S4,7.2,2.7,4.8C1.5,2.5,1.6,2.6,1.6,2.6
				s1.1-0.3,0.8-0.9S2,1.2,2,1.2l4-0.4c0,0,0.4,0.8,0.9,0.8c0.3,0,0.5-0.1,0.7-0.3c1.1,1.9,2.4,3.7,3.9,5.3c1.5,1.4,4.2,4,4.2,4
				S14.6,11.3,16.2,11.7z"/>
		</g>
		<g id="Group-6" transform="translate(0 82.825)">
			<path id="Shape-20" class="st2" d="M19.3,11.7l-8.1,3.3c0,0-5.9-4.6-8.4-8.6C1.6,4.6,0.7,2.7,0.1,0.7l7.4-0.6
				C7.5,0.1,15.1,10.9,19.3,11.7z"/>
			<path id="Shape-21" class="st3" d="M16.2,11.6l-4,1.7c0,0-0.3-1-1.1-0.8s-0.8,0.7-0.8,0.7s-6.2-6-7.5-8.4
				C1.6,2.4,1.6,2.5,1.6,2.5s1.1-0.3,0.8-0.9L2.1,1.1l4-0.4c0,0,0.4,0.8,0.9,0.8c0.3,0,0.5-0.1,0.7-0.3c1.1,1.9,2.4,3.7,3.9,5.3
				c1.5,1.4,4.2,4,4.2,4S14.6,11.2,16.2,11.6z"/>
		</g>
		<g id="Group-7" transform="translate(25.353 38.511)">
			<path id="Shape-22" class="st2" d="M2.4,3.1c0,0,0,4.6-1.2,6.6l-1.2,2.1c2.8,0.6,5.7,0.5,8.5-0.2c2.6-0.6,5.1-1.7,7.3-3.3V0.1
				c0,0-3.3,3-7.1,3S2.4,3.1,2.4,3.1z"/>
			<path id="Shape-23" class="st3" d="M4.5,4.1c0,0,4.5,0.2,6.1-0.3C12,3.3,13.2,2.7,14.4,2c0,0,0.1,0.7,0.5,0.6s0.4-0.3,0.4-0.3
				v4.7c0,0-0.9-0.5-1.1,0.3c-0.1,0.8,0.2,1,0.2,1c-1.3,0.9-2.8,1.7-4.4,2.2c-2.3,0.5-4.7,0.7-7,0.8c0,0,1-0.8,0.3-1.5
				C3,9.7,2.7,9.7,2.4,9.8c0,0,0.9-4.1,0.9-4.7C3.2,5,4.6,5.5,4.5,4.1z"/>
		</g>
		<g id="Group_3" transform="translate(147.366 66.118)">
			<g id="Group3" transform="translate(0.411 0.039)">
				<path id="Shape-24" class="st2" d="M0.2,13.6c0,0,5.1,0.3,8.2-2.2c1.6-1.3,3.1-2.7,4.5-4.2L12.1,0c0,0-2.4,3.8-5.7,4.4
					C4.6,4.7,2.6,4.9,0.7,4.9L0.2,13.6z"/>
				<path id="Shape-25" class="st3" d="M1.8,6.5l-0.2,4.7c0,0,0.9-0.4,1.3,0.1c0.2,0.4,0.2,0.8-0.1,1.2c0,0,4.2-0.8,5.8-2.3
					s3-3.1,3-3.1c-0.3-0.3-0.4-0.8-0.1-1.1c0.4-0.6,0.8-0.5,0.8-0.5l-0.3-3c0,0-0.4,0.4-0.5,0.1c-0.1-0.2-0.1-0.3-0.1-0.5
					c0,0-1.7,2.6-4,2.9C5.8,5.3,4.3,5.4,2.9,5.5C2.9,5.5,3,6.8,1.8,6.5z"/>
			</g>
			<path id="Shape-26" class="st2" d="M8.1,9.7L8.1,9.7L8,9.3c-0.1,0-0.1,0-0.1,0C7.4,9.3,7,9,6.9,8.6l0.4-0.2
				c0.1,0.3,0.3,0.5,0.6,0.5L7.8,8H7.7C7.2,8,6.9,7.7,6.8,7.3c0-0.5,0.2-0.9,0.7-1L7.4,5.9l0.3-0.1l0.1,0.4h0.1
				c0.4,0,0.7,0.2,0.9,0.6L8.4,7.1C8.3,6.9,8.1,6.7,7.9,6.7l0.2,0.9h0.1c0.4,0,0.8,0.2,0.9,0.7c0.1,0.5-0.2,0.9-0.7,1l0.1,0.4
				L8.1,9.7L8.1,9.7z M8.1,8L8.1,8l0.2,0.8c0.2-0.1,0.4-0.3,0.3-0.5C8.5,8.2,8.3,8,8.1,8L8.1,8z M7.5,6.8L7.5,6.8
				C7.3,6.8,7.2,7,7.2,7.3c0,0.2,0.2,0.3,0.4,0.3L7.5,6.8z"/>
		</g>
		<g id="Group_3-2" transform="translate(147.366 167.27)">
			<g id="Group3-2" transform="translate(0.411 0.039)">
				<path id="Shape-27" class="st2" d="M0.2,13.6c0,0,5.1,0.3,8.2-2.2c1.6-1.3,3.1-2.7,4.5-4.2L12.1,0c0,0-2.4,3.8-5.7,4.4
					C4.6,4.7,2.6,4.9,0.7,4.9L0.2,13.6z"/>
				<path id="Shape-28" class="st3" d="M1.8,6.5l-0.2,4.7c0,0,0.9-0.4,1.3,0.1c0.2,0.4,0.2,0.8-0.1,1.2c0,0,4.2-0.8,5.8-2.3
					s3-3.1,3-3.1c-0.3-0.3-0.4-0.8-0.1-1.1c0.4-0.6,0.8-0.5,0.8-0.5l-0.3-3c0,0-0.4,0.4-0.5,0.1c-0.1-0.2-0.1-0.3-0.1-0.5
					c0,0-1.7,2.6-4,2.9C5.8,5.3,4.3,5.4,2.9,5.5C2.9,5.5,3,6.8,1.8,6.5z"/>
			</g>
			<path id="Shape-29" class="st2" d="M8.1,9.7L8.1,9.7L8,9.3c-0.1,0-0.1,0-0.1,0C7.4,9.3,7,9,6.9,8.6l0.4-0.2
				c0.1,0.3,0.3,0.5,0.6,0.5L7.8,8H7.7C7.2,8,6.9,7.7,6.8,7.3c0-0.5,0.2-0.9,0.7-1L7.4,5.9l0.3-0.1l0.1,0.4h0.1
				c0.4,0,0.7,0.2,0.9,0.6L8.4,7.1C8.3,6.9,8.1,6.7,7.9,6.7l0.2,0.9h0.1c0.4,0,0.8,0.2,0.9,0.7c0.1,0.5-0.2,0.9-0.7,1l0.1,0.4
				L8.1,9.7L8.1,9.7z M8.1,8L8.1,8l0.2,0.8c0.2-0.1,0.4-0.3,0.3-0.5C8.5,8.2,8.3,8,8.1,8L8.1,8z M7.5,6.8L7.5,6.8
				C7.3,6.8,7.2,7,7.2,7.3c0,0.2,0.2,0.3,0.4,0.3L7.5,6.8z"/>
		</g>
		<g id="Group_4" transform="translate(117.695 114.474)">
			<g id="Group-8" transform="translate(0.356 0.268)">
				<path id="Shape-30" class="st2" d="M13.5,3.3c0,0,0,4.6,1.2,6.6s1.2,2.1,1.2,2.1c-2.8,0.6-5.7,0.5-8.5-0.2
					c-2.6-0.6-5.1-1.7-7.3-3.3V0.2c0,0,3.3,3,7.1,3S13.5,3.3,13.5,3.3z"/>
				<path id="Shape-31" class="st3" d="M11.4,4.3c0,0-4.5,0.2-6.1-0.3C4,3.4,2.7,2.8,1.5,2.1c0,0-0.1,0.7-0.5,0.6S0.7,2.5,0.7,2.5
					v4.7c0,0,0.9-0.5,1.1,0.3c0.1,0.8-0.2,1-0.2,1c1.3,0.9,2.8,1.7,4.4,2.2c2.3,0.5,4.7,0.7,7,0.8c0,0-1-0.8-0.3-1.5
					c0.3-0.2,0.6-0.2,0.9-0.1c0,0-0.9-4.1-0.9-4.7C12.7,5.2,11.3,5.7,11.4,4.3z"/>
			</g>
			<path id="Shape-32" class="st2" d="M6.9,9.7L6.9,9.7L6.5,9.6l0-0.4c-0.5,0-0.9-0.4-0.9-0.9l0.4-0.1c0,0.3,0.2,0.6,0.5,0.6l0-0.9
				l-0.1,0C6.1,7.8,5.8,7.5,5.8,7c0-0.5,0.4-0.8,0.9-0.8l0-0.4h0.3l0,0.5c0.4,0,0.7,0.3,0.8,0.7L7.4,7.2c0-0.2-0.2-0.4-0.4-0.5
				l0,0.9l0.1,0C7.5,7.7,7.8,8,7.8,8.4c0,0.5-0.4,0.8-0.9,0.8L6.9,9.7L6.9,9.7z M7,7.9l0,0.8c0.3-0.1,0.4-0.2,0.4-0.4
				C7.4,8.3,7.3,8,7,7.9z M6.7,6.6C6.4,6.6,6.3,6.8,6.2,7c0,0.2,0.1,0.4,0.4,0.4L6.7,6.6z"/>
		</g>
		<g id="Group_4_Copy" transform="translate(10.385 174.178)">
			<g id="Group-9" transform="translate(0.356 0.268)">
				<path id="Shape-33" class="st2" d="M13.5,3.3c0,0,0,4.6,1.2,6.6s1.2,2.1,1.2,2.1c-2.8,0.6-5.7,0.5-8.5-0.2
					c-2.6-0.6-5.1-1.7-7.3-3.3V0.2c0,0,3.3,3,7.1,3S13.5,3.3,13.5,3.3z"/>
				<path id="Shape-34" class="st3" d="M11.4,4.3c0,0-4.5,0.2-6.1-0.3C4,3.4,2.7,2.8,1.5,2.1c0,0-0.1,0.7-0.5,0.6S0.7,2.5,0.7,2.5
					v4.7c0,0,0.9-0.5,1.1,0.3c0.1,0.8-0.2,1-0.2,1c1.3,0.9,2.8,1.7,4.4,2.2c2.3,0.5,4.7,0.7,7,0.8c0,0-1-0.8-0.3-1.5
					c0.3-0.2,0.6-0.2,0.9-0.1c0,0-0.9-4.1-0.9-4.7C12.7,5.2,11.3,5.7,11.4,4.3z"/>
			</g>
			<path id="Shape-35" class="st2" d="M6.9,9.7L6.9,9.7L6.5,9.6l0-0.4c-0.5,0-0.9-0.4-0.9-0.9l0.4-0.1c0,0.3,0.2,0.6,0.5,0.6l0-0.9
				l-0.1,0C6.1,7.8,5.8,7.5,5.8,7c0-0.5,0.4-0.8,0.9-0.8l0-0.4h0.3l0,0.5c0.4,0,0.7,0.3,0.8,0.7L7.4,7.2c0-0.2-0.2-0.4-0.4-0.5
				l0,0.9l0.1,0C7.5,7.7,7.8,8,7.8,8.4c0,0.5-0.4,0.8-0.9,0.8L6.9,9.7L6.9,9.7z M7,7.9l0,0.8c0.3,0,0.4-0.2,0.4-0.4
				C7.4,8.3,7.3,8,7,7.9z M6.7,6.6C6.4,6.6,6.3,6.8,6.2,7c0,0.2,0.1,0.4,0.4,0.4L6.7,6.6z"/>
		</g>
		<path id="Shape-36" class="st2" d="M34.3,139.9L34.3,139.9l-0.1-0.4c-0.1,0-0.1,0-0.1,0c-0.4,0-0.8-0.2-0.9-0.6l0.4-0.2
			c0.1,0.3,0.3,0.5,0.6,0.5l-0.2-0.8h-0.1c-0.4,0-0.7-0.2-0.8-0.6c-0.1-0.4,0.2-0.8,0.6-0.9l-0.1-0.4l0.3-0.1l0.1,0.4h0.1
			c0.4,0,0.7,0.2,0.8,0.5l-0.3,0.2c-0.1-0.2-0.3-0.4-0.5-0.4l0.2,0.8h0.1c0.4,0,0.8,0.2,0.9,0.6c0.1,0.4-0.2,0.8-0.6,0.9l0.1,0.4
			L34.3,139.9z M34.3,138.3L34.3,138.3l0.2,0.8c0.2-0.1,0.3-0.3,0.3-0.5C34.8,138.4,34.6,138.3,34.3,138.3z M33.8,137.1L33.8,137.1
			c-0.2,0.1-0.3,0.3-0.3,0.5c0,0.1,0.1,0.3,0.4,0.3L33.8,137.1z"/>
		<path id="Shape-37" class="st2" d="M8.5,91.6c-0.3,0-0.6-0.2-0.7-0.4l-0.4,0.2l-0.1-0.3l0.4-0.2c-0.2-0.4-0.1-0.9,0.3-1.2L8.2,90
			c-0.2,0.2-0.4,0.5-0.3,0.7l0.8-0.4l0-0.1c-0.2-0.4,0-0.8,0.3-1c0.1-0.1,0.2-0.1,0.4-0.1c0.3,0,0.6,0.1,0.7,0.4l0.4-0.2l0.2,0.3
			l-0.4,0.2c0.2,0.3,0.1,0.8-0.2,1l-0.3-0.3c0.2-0.1,0.2-0.4,0.2-0.6l-0.7,0.4l0,0.1c0.2,0.4,0,0.8-0.3,1
			C8.7,91.5,8.6,91.6,8.5,91.6z M8.8,90.6L8.8,90.6L8.1,91c0.1,0.1,0.2,0.2,0.3,0.2c0.1,0,0.1,0,0.2-0.1C8.8,91,8.9,90.8,8.8,90.6
			L8.8,90.6z M9.4,89.5c-0.1,0-0.1,0-0.2,0.1C9,89.7,9,89.9,9.1,90.1l0.7-0.4C9.7,89.6,9.5,89.5,9.4,89.5z"/>
		<path id="Shape-38" class="st2" d="M34.7,47.5L34.7,47.5l-0.3-0.1l0.1-0.4c-0.5,0-0.8-0.4-0.8-0.9l0.4-0.1c0,0.3,0.2,0.5,0.4,0.6
			l0.1-0.9l-0.1,0c-0.4-0.1-0.7-0.4-0.6-0.8c0.1-0.4,0.4-0.7,0.9-0.7l0.1-0.4l0.3,0L35,44.3c0.4,0.1,0.7,0.4,0.7,0.7l-0.4,0.1
			c0-0.2-0.2-0.4-0.4-0.5l-0.1,0.8l0.1,0c0.4,0.1,0.7,0.4,0.7,0.8c-0.1,0.4-0.4,0.7-0.9,0.7L34.7,47.5L34.7,47.5z M34.9,45.9
			L34.9,45.9l-0.1,0.8c0.3,0,0.4-0.2,0.4-0.4C35.2,46.2,35.1,46,34.9,45.9z M34.7,44.6L34.7,44.6c-0.2,0-0.4,0.2-0.4,0.4
			c0,0.2,0.1,0.4,0.3,0.4L34.7,44.6z"/>
		<path id="Shape-39" class="st2" d="M70.1,43.3L70.1,43.3l-0.3-0.1l0.1-0.4c-0.5,0-0.8-0.4-0.8-0.9l0.4-0.1c0,0.3,0.2,0.5,0.4,0.6
			l0.1-0.9l-0.1,0c-0.4-0.1-0.7-0.4-0.6-0.8c0.1-0.4,0.4-0.7,0.9-0.7l0.1-0.4l0.3,0L70.4,40c0.4,0.1,0.7,0.4,0.7,0.7l-0.4,0.1
			c0-0.2-0.2-0.4-0.4-0.5l-0.1,0.8l0.1,0c0.4,0.1,0.7,0.4,0.7,0.8c-0.1,0.4-0.4,0.7-0.9,0.7L70.1,43.3L70.1,43.3z M70.2,41.6
			L70.2,41.6l-0.1,0.8c0.3,0,0.4-0.2,0.4-0.4C70.6,41.9,70.5,41.7,70.2,41.6z M70,40.3L70,40.3c-0.2,0-0.4,0.2-0.4,0.4
			c0,0.2,0.1,0.4,0.3,0.4L70,40.3z"/>
		<path id="Shape-40" class="st2" d="M117.5,46.4c-0.1,0-0.2,0-0.2,0l0.1-0.4c0.1,0,0.1,0,0.2,0c0.2,0,0.4-0.1,0.5-0.3l-0.8-0.3
			l0,0.1c-0.1,0.2-0.4,0.4-0.7,0.4c-0.1,0-0.2,0-0.3-0.1c-0.4-0.2-0.6-0.6-0.4-1.1l-0.4-0.2l0.1-0.3l0.4,0.2
			c0.1-0.3,0.4-0.5,0.8-0.5c0.1,0,0.1,0,0.2,0l0,0.4c-0.2,0-0.4,0-0.6,0.2l0.8,0.3l0-0.1c0.1-0.3,0.4-0.4,0.7-0.4
			c0.1,0,0.2,0,0.3,0.1c0.4,0.2,0.6,0.6,0.4,1.1l0.4,0.2l-0.1,0.3l-0.4-0.2C118.2,46.2,117.8,46.4,117.5,46.4L117.5,46.4z
			 M116.1,44.9c-0.1,0.2,0,0.4,0.2,0.5c0,0,0.1,0,0.2,0c0.2,0,0.3-0.1,0.3-0.3L116.1,44.9z M117.8,44.9c-0.2,0-0.3,0.1-0.4,0.2
			l0.7,0.3c0.1-0.2,0-0.4-0.2-0.5C117.9,44.9,117.8,44.9,117.8,44.9z"/>
		<path id="Shape-41" class="st2" d="M91.2,15.5c-0.3,0-0.5-0.1-0.7-0.3l-0.3,0.3L90,15.2l0.3-0.3c-0.3-0.4-0.2-0.9,0.1-1.2l0.3,0.2
			c-0.2,0.2-0.3,0.5-0.1,0.8l0.7-0.6l-0.1-0.1c-0.2-0.3-0.1-0.8,0.2-1c0.1-0.1,0.3-0.2,0.5-0.1c0.2,0,0.5,0.1,0.7,0.3l0.3-0.3
			l0.2,0.3l-0.3,0.3c0.2,0.3,0.2,0.7-0.1,1l-0.3-0.2c0.2-0.2,0.2-0.4,0.1-0.6l-0.7,0.5l0,0.1c0.2,0.3,0.2,0.8-0.2,1.1
			C91.5,15.4,91.3,15.5,91.2,15.5z M91.4,14.5L90.8,15c0.1,0.1,0.2,0.1,0.3,0.1c0.1,0,0.2,0,0.2-0.1C91.5,14.9,91.5,14.7,91.4,14.5
			L91.4,14.5z M91.9,13.3c-0.1,0-0.2,0-0.2,0.1c-0.2,0.1-0.2,0.4-0.1,0.6l0.6-0.5C92.2,13.3,92,13.3,91.9,13.3z"/>
		<path id="Shape-42" class="st2" d="M50.7,8.7c-0.1,0-0.3,0-0.4-0.1l0.1-0.4c0.1,0,0.2,0.1,0.3,0.1c0.2,0,0.3-0.1,0.5-0.2l-0.7-0.4
			l-0.1,0.1C50.2,7.9,50,8,49.7,8c-0.1,0-0.3,0-0.4-0.1c-0.4-0.2-0.5-0.7-0.3-1.1l-0.4-0.2l0.2-0.3l0.4,0.2c0.2-0.2,0.4-0.4,0.7-0.4
			c0.1,0,0.2,0,0.3,0l-0.1,0.4c-0.1,0-0.1,0-0.2,0c-0.1,0-0.3,0.1-0.4,0.2l0.7,0.4l0.1-0.1C50.5,7,50.8,6.9,51,6.9
			c0.1,0,0.3,0,0.4,0.1c0.4,0.2,0.5,0.7,0.3,1.1l0.4,0.2l-0.2,0.2l-0.4-0.2C51.3,8.5,51,8.7,50.7,8.7z M51,7.2
			c-0.1,0-0.3,0.1-0.4,0.2l0.7,0.4c0.1-0.2,0-0.4-0.1-0.5c0,0,0,0,0,0C51.1,7.2,51.1,7.2,51,7.2L51,7.2z M49.4,7
			c-0.1,0.2,0,0.4,0.2,0.6c0.1,0,0.1,0,0.2,0c0.1,0,0.3-0.1,0.4-0.2L49.4,7z"/>
	</g>
</g>
</svg>
