<?xml version="1.0" encoding="utf-8"?>
<!-- Generator: Adobe Illustrator 22.0.0, SVG Export Plug-In . SVG Version: 6.00 Build 0)  -->
<svg version="1.1" id="Layer_1" xmlns="http://www.w3.org/2000/svg" xmlns:xlink="http://www.w3.org/1999/xlink" x="0px" y="0px"
	 viewBox="0 0 472 472" style="enable-background:new 0 0 472 472;" xml:space="preserve">
<style type="text/css">
	.st0{fill:#FFFFFF;}
</style>
<g>
	<polygon class="st0" points="86,68.1 27.6,87.6 236,157 294.4,137.6 	"/>
	<polygon class="st0" points="444.4,87.6 236,18.1 177.6,37.6 386,107 	"/>
	<path class="st0" d="M329.5,128.3c0.1,0.1,0.4,0.2,0.6,0.3c0.5,0.3,1,0.6,1.5,0.9c0.4,0.2,0.8,0.5,1.2,0.8c0.2,0.1,0.3,0.3,0.4,0.4
		c0.3,0.4,0.6,0.8,0.9,1.3c0.3,0.4,0.6,0.9,0.9,1.3c0.1,0.2,0.2,0.5,0.3,0.7c0.1,0.2,0.1,0.2,0.2,0.3c0.1,0.4,0.1,0.8,0.1,1.1
		c0.2,0.5,0.2,1.1,0.3,1.6c0,0.1,0.1,0.2,0.1,0.4V207l40-13.3v-68.9L146,48.1l-28.4,9.5l211.5,70.5
		C329.3,128.1,329.4,128.2,329.5,128.3z"/>
	<path class="st0" d="M396,124.8v76.1c0,0.1-0.1,0.2-0.1,0.4c-0.2,1.3-0.5,2.5-0.9,3.8c-0.7,1.1-1.4,2.1-2.2,3.1
		c-0.4,0.4-0.9,0.7-1.4,1c-0.6,0.4-1.2,0.8-1.9,1.1c-0.1,0-0.2,0.2-0.3,0.2l-60,20c-1,0.3-2.1,0.5-3.2,0.5c-1.2,0-2.4-0.3-3.5-0.7
		c-0.4-0.1-0.7-0.3-1-0.5c-0.7-0.4-1.4-0.8-2-1.3c-0.3-0.3-0.6-0.6-0.9-0.9c-0.5-0.6-1-1.3-1.3-2c-0.2-0.4-0.4-0.7-0.6-1.1
		c0-0.1-0.1-0.2-0.2-0.4c-0.1-0.5-0.2-1-0.2-1.5c-0.2-0.5-0.3-1.1-0.3-1.6v-69.4l-70,23.3v253.1v19.7v5.6l18.4-5.6L466,380.4V101.5
		L396,124.8z"/>
	<polygon class="st0" points="6,380.4 202.8,446 202.8,446 202.8,446 207.6,447.6 208,447.6 226,453.1 226,447.6 226,443.8 
		226,174.8 6,101.5 	"/>
</g>
</svg>
