<svg xmlns="http://www.w3.org/2000/svg" width="50.424" height="50" viewBox="0 0 50.424 50"><g transform="translate(-208.289 -208.971)"><path d="M258.393,244.5a3.441,3.441,0,0,0-4.582-1.665l-11.725,5.459a3.448,3.448,0,0,1-1.458.322h-2.135a3.451,3.451,0,1,0,0-6.9H225.548a5.16,5.16,0,0,0-4.875,3.451h-3.755v11.219h23.4a3.463,3.463,0,0,0,1.458-.322l14.953-6.97a3.463,3.463,0,0,0,1.985-3.132A3.516,3.516,0,0,0,258.393,244.5Z" fill="#ffdaaa"/><path d="M241.479,246.889a3.433,3.433,0,0,1-2.986,1.726h-7.767v-1.726Z" fill="#ffdaaa"/><path d="M248.478,209.031l-1.355.362-24,6.429h27.452a1.731,1.731,0,0,1,1.726,1.726V233.03l2.433-.656a1.729,1.729,0,0,0,1.217-2.114l-5.359-20.013A1.725,1.725,0,0,0,248.478,209.031Z" fill="#6bdb9d"/><path d="M216.918,241.712h-8.629v17.259h8.629Z" fill="#239a58"/><path d="M221.233,215.822h29.342a1.726,1.726,0,0,1,1.726,1.726v17.26a1.726,1.726,0,0,1-1.726,1.726H221.233a1.726,1.726,0,0,1-1.726-1.726v-17.26A1.726,1.726,0,0,1,221.233,215.822Z" fill="#28c76f"/><path d="M225.548,219.274h-2.589v5.178h2.589Z" fill="#6bdb9d"/><path d="M225.548,219.274h4.315v2.589h-4.315Z" fill="#6bdb9d"/><path d="M225.548,221.863h4.315v2.589h-4.315Z" fill="#81fbb8"/><path d="M252.3,217.548v17.26a1.731,1.731,0,0,1-1.726,1.726H224.746a62.932,62.932,0,0,0,21.687-20.712h4.142A1.731,1.731,0,0,1,252.3,217.548Z" fill="#239a58"/><path d="M246.26,219.274a2.589,2.589,0,1,0,2.589,2.589A2.589,2.589,0,0,0,246.26,219.274Z" fill="#6bdb9d"/><path d="M244.534,219.939a2.562,2.562,0,0,0-1.726-.665,2.589,2.589,0,1,0,0,5.178,2.561,2.561,0,0,0,1.726-.664,2.577,2.577,0,0,1,0-3.849Z" fill="#81fbb8"/><path d="M216.918,245.163h1.726v11.219h-1.726Z" fill="#ffc477"/><path d="M227.274,228.767H229v1.726h-1.726Z" fill="#81fbb8"/><path d="M230.726,228.767h1.726v1.726h-1.726Z" fill="#81fbb8"/><path d="M234.178,228.767H235.9v1.726h-1.726Z" fill="#81fbb8"/><path d="M237.63,228.767h1.726v1.726H237.63Z" fill="#81fbb8"/><path d="M241.082,228.767h1.726v1.726h-1.726Z" fill="#81fbb8"/><path d="M244.534,228.767h1.726v1.726h-1.726Z" fill="#81fbb8"/><path d="M227.274,232.219h6.9v1.726h-6.9Z" fill="#237146"/><path d="M239.356,232.219h6.9v1.726h-6.9Z" fill="#237146"/><path d="M241.479,246.889a3.433,3.433,0,0,1-2.986,1.726h-7.767v-1.726Z" fill="#ffc477"/></g></svg>