<svg height="512pt" viewBox="0 -3 512.00106 512" width="512pt" xmlns="http://www.w3.org/2000/svg"><path d="m135.359375 143.925781h376.640625v218.828125h-376.640625zm0 0" fill="#32cc77"/><path d="m479.089844 289.398438v-72.117188c-22.335938 0-40.445313-18.109375-40.445313-40.449219h-229.929687c0 22.339844-18.109375 40.449219-40.445313 40.449219v72.117188c22.335938 0 40.445313 18.109374 40.445313 40.445312h229.929687c0-22.335938 18.109375-40.445312 40.445313-40.445312zm0 0" fill="#1fb25e"/><path d="m364.433594 253.339844c0 22.507812-18.246094 40.753906-40.753906 40.753906-22.507813 0-40.753907-18.246094-40.753907-40.753906 0-22.507813 18.246094-40.753906 40.753907-40.753906 22.507812 0 40.753906 18.246093 40.753906 40.753906zm0 0" fill="#32cc77"/><path d="m429.472656 261.175781h-25.078125c-4.328125 0-7.835937-3.507812-7.835937-7.835937s3.507812-7.835938 7.835937-7.835938h25.078125c4.328125 0 7.835938 3.507813 7.835938 7.835938s-3.507813 7.835937-7.835938 7.835937zm0 0" fill="#32cc77"/><path d="m479.089844 184.667969c-7.058594 0-10.476563-9.019531-5.203125-13.691407 2.648437-2.347656 6.609375-2.59375 9.550781-.65625 2.636719 1.738282 3.972656 5.039063 3.320312 8.125-.757812 3.582032-3.996093 6.222657-7.667968 6.222657zm0 0" fill="#1fb25e"/><path d="m479.089844 337.683594c-3.054688 0-5.929688-1.863282-7.160156-4.664063-1.386719-3.144531-.523438-6.925781 2.097656-9.148437 5.363281-4.546875 13.882812.105468 12.8125 7.125-.578125 3.785156-3.898438 6.6875-7.75 6.6875zm0 0" fill="#1fb25e"/><path d="m279.238281 506.679688h-242.109375c-20.507812 0-37.128906-16.625-37.128906-37.128907v-432.421875c0-20.503906 16.621094-37.128906 37.128906-37.128906h242.109375c20.503907 0 37.128907 16.621094 37.128907 37.128906v432.421875c0 20.503907-16.625 37.128907-37.128907 37.128907zm0 0" fill="#3c3f4d"/><path d="m266.707031 64.953125h-217.050781c-10.339844 0-18.726562 8.382813-18.726562 18.726563v338.992187c0 10.34375 8.386718 18.726563 18.726562 18.726563h217.050781c10.34375 0 18.730469-8.382813 18.730469-18.726563v-338.992187c0-10.34375-8.386719-18.726563-18.730469-18.726563zm0 0" fill="#c4e2f2"/><path d="m285.4375 83.675781v339c0 10.34375-8.390625 18.726563-18.726562 18.726563h-26.488282c10.34375 0 18.734375-8.382813 18.734375-18.726563v-339c0-10.34375-8.390625-18.722656-18.734375-18.722656h26.488282c10.335937 0 18.726562 8.378906 18.726562 18.722656zm0 0" fill="#83b2c6"/><path d="m74.128906 121.878906h211.308594v260.765625h-211.308594zm0 0" fill="#32cc77"/><path d="m285.4375 161.09375v182.335938h-123.894531c0-26.621094-21.574219-48.199219-48.199219-48.199219v-85.933594c26.625 0 48.199219-21.589844 48.199219-48.203125zm0 0" fill="#1fb25e"/><path d="m285.4375 205.484375v93.558594c-20.457031-5.726563-35.460938-24.503907-35.460938-46.78125 0-22.277344 15.003907-41.054688 35.460938-46.777344zm0 0" fill="#32cc77"/><path d="m202.359375 262.1875h-29.882813c-5.484374 0-9.929687-4.441406-9.929687-9.925781s4.445313-9.925781 9.929687-9.925781h29.882813c5.480469 0 9.925781 4.441406 9.925781 9.925781s-4.445312 9.925781-9.925781 9.925781zm0 0" fill="#32cc77"/><path d="m113.34375 353.355469c-4.058594 0-7.757812-2.550781-9.238281-6.3125-1.546875-3.945313-.347657-8.601563 2.941406-11.28125 3.265625-2.660157 7.945313-2.972657 11.53125-.761719 3.457031 2.136719 5.324219 6.378906 4.503906 10.375-.941406 4.578125-5.046875 7.980469-9.738281 7.980469zm0 0" fill="#1fb25e"/><path d="m113.34375 171.019531c-4.054688 0-7.761719-2.554687-9.238281-6.3125-1.542969-3.9375-.351563-8.613281 2.941406-11.285156 3.261719-2.648437 7.953125-2.976563 11.53125-.757813 3.453125 2.140626 5.324219 6.371094 4.503906 10.371094-.941406 4.578125-5.046875 7.984375-9.738281 7.984375zm0 0" fill="#1fb25e"/><g fill="#2d303b"><path d="m185.871094 42.496094h-55.378906c-4.332032 0-7.839844-3.507813-7.839844-7.835938s3.507812-7.835937 7.839844-7.835937h55.378906c4.328125 0 7.835937 3.507812 7.835937 7.835937s-3.507812 7.835938-7.835937 7.835938zm0 0"/><path d="m181.261719 474.039062c0 12.746094-10.335938 23.078126-23.082031 23.078126-12.746094 0-23.078126-10.332032-23.078126-23.078126 0-12.746093 10.332032-23.078124 23.078126-23.078124 12.746093 0 23.082031 10.332031 23.082031 23.078124zm0 0"/></g></svg>