<?xml version="1.0" encoding="utf-8"?>
<!-- Generator: Adobe Illustrator 21.1.0, SVG Export Plug-In . SVG Version: 6.00 Build 0)  -->
<svg version="1.1" id="Layer_1" xmlns="http://www.w3.org/2000/svg" xmlns:xlink="http://www.w3.org/1999/xlink" x="0px" y="0px"
	 viewBox="0 0 512 512" style="enable-background:new 0 0 512 512;" xml:space="preserve">
<style type="text/css">
	.st0{fill:#1FBCC4;}
	.st1{fill:#119696;}
	.st2{fill:#FFFFFF;}
</style>
<g>
	<g>
		<path class="st0" d="M297.3,415.6c0-65.5,53.1-118.6,118.6-118.6c11.1,0,21.8,1.6,32,4.5V143.4L303.8,0H32.2
			c-17.6,0-32,14.3-32,32v447.6c0,17.7,14.3,32,32,32h314.2C316.7,490,297.3,455.2,297.3,415.6z"/>
		<path class="st1" d="M447.4,143.9H335.9c-17.6,0-32-14.3-32-32V0.3L447.4,143.9z"/>
		<path class="st0" d="M415.9,320.2c53,0,95.9,43,95.9,95.9S468.9,512,415.9,512c-52.9,0-95.9-43-95.9-95.9
			C319.9,363.1,362.9,320.2,415.9,320.2z"/>
		<path class="st2" d="M447.8,400.1h-16v-16c0-8.8-7.1-16-16-16c-8.8,0-16,7.1-16,16v16h-16c-8.8,0-16,7.1-16,16s7.1,16,16,16h16v16
			c0,8.9,7.1,16,16,16c8.8,0,16-7.1,16-16v-16h16c8.8,0,16-7.1,16-16C463.8,407.3,456.7,400.1,447.8,400.1z"/>
		<path class="st2" d="M327.9,242.4c5.4,0,8-4.7,8-9.2c0-4.7-2.7-9.2-8-9.2h-30.5c-6,0-9.3,4.9-9.3,10.4v75c0,6.7,3.8,10.4,9,10.4
			c5.1,0,8.9-3.7,8.9-10.4v-20.6h18.4c5.7,0,8.6-4.7,8.6-9.3c0-4.6-2.9-9.1-8.6-9.1H306v-28H327.9z M224.8,224h-22.3
			c-6.1,0-10.4,4.2-10.4,10.3v75.1c0,7.7,6.2,10.1,10.6,10.1h23.4c27.7,0,46-18.2,46-46.4C272.2,243.3,254.9,224,224.8,224z
			 M225.9,301h-13.6v-58.4h12.3c18.6,0,26.6,12.5,26.6,29.6C251.2,288.2,243.2,301,225.9,301z M144.1,224H122
			c-6.3,0-9.7,4.1-9.7,10.4v75c0,6.7,4,10.4,9.4,10.4s9.4-3.7,9.4-10.4v-21.9H145c17.1,0,31.2-12.1,31.2-31.6
			C176.1,236.8,162.5,224,144.1,224z M143.8,269.9H131v-28.3h12.7c7.9,0,12.9,6.1,12.9,14.1C156.6,263.7,151.6,269.9,143.8,269.9z"
			/>
	</g>
</g>
</svg>
