<?xml version="1.0" encoding="utf-8"?>
<!-- Generator: Adobe Illustrator 21.1.0, SVG Export Plug-In . SVG Version: 6.00 Build 0)  -->
<svg version="1.1" id="Capa_1" xmlns="http://www.w3.org/2000/svg" xmlns:xlink="http://www.w3.org/1999/xlink" x="0px" y="0px"
	 viewBox="0 0 512 512" style="enable-background:new 0 0 512 512;" xml:space="preserve">
<style type="text/css">
	.st0{fill:#1FBCC4;}
	.st1{fill:#FFFFFF;}
	.st2{fill:#F9F9F9;}
</style>
<g>
	<g>
		<path class="st0" d="M59,31.2h298.4c32.5,0,59,26.5,59,59v307.1c0,32.5-26.5,59-59,59H59c-32.5,0-59-26.5-59-59V89.5
			C0,57.7,26.5,31.2,59,31.2z"/>
		<path class="st1" d="M193,309.1l-87.5-87.5L0,327v21.9v47.8c0,32.5,26.5,59,59,59h298.4c32.5,0,59-26.5,59-59v-47.8v-65.7
			l-98.8-99.5L193,309.1z"/>
		
			<ellipse transform="matrix(0.1602 -0.9871 0.9871 0.1602 -9.7277 332.2035)" class="st2" cx="190.4" cy="171.8" rx="37.1" ry="37.1"/>
		<circle class="st0" cx="416.5" cy="385.3" r="95.5"/>
	</g>
	<g>
		<path class="st1" d="M402.6,340.9c0-8,6-13.9,13.9-13.9c7.3,0,13.9,6,13.9,13.9v90.2c0,8-6,13.9-13.9,13.9s-13.9-6-13.9-13.9
			V340.9L402.6,340.9z"/>
		<path class="st1" d="M406.5,350.2c-5.3-5.3-5.3-13.9,0-19.2s13.9-5.3,19.2,0l31.8,31.8c5.3,5.3,5.3,13.9,0,19.2
			c-5.3,5.3-13.9,5.3-19.2,0L406.5,350.2z"/>
		<path class="st1" d="M406.5,330.9c5.3-5.3,13.9-5.3,19.2,0s5.3,13.9,0,19.2L394.6,382c-5.3,5.3-13.9,5.3-19.2,0s-5.3-13.9,0-19.2
			L406.5,330.9z"/>
	</g>
</g>
</svg>
