<svg xmlns="http://www.w3.org/2000/svg" width="49.863" height="50" viewBox="0 0 49.863 50"><g transform="translate(-204.74 -204.5)"><path d="M221.269,204.5H237.8v45.237H221.269Z" fill="#26c66d"/><path d="M204.74,204.5h16.529v45.237H204.74Z" fill="#28c76f"/><path d="M237.8,209.72v28.551a1.71,1.71,0,0,0,.948-1.044l1.749-5.376a1.739,1.739,0,0,1,3.305,0l1.749,5.376a1.748,1.748,0,0,0,1.653,1.2h3.645V209.72Z" fill="#239a58"/><path d="M211.7,212.33h19.138a.87.87,0,0,0,0-1.74H211.7a.87.87,0,0,0,0,1.74Z" fill="#f1f2f2"/><path d="M211.7,219.289h19.138a.87.87,0,0,0,0-1.74H211.7a.87.87,0,0,0,0,1.74Z" fill="#f1f2f2"/><path d="M211.7,226.249h19.138a.87.87,0,0,0,0-1.74H211.7a.87.87,0,0,0,0,1.74Z" fill="#f1f2f2"/><path d="M231.708,232.338a.87.87,0,0,0-.87-.87H211.7a.87.87,0,0,0,0,1.74h19.138A.869.869,0,0,0,231.708,232.338Z" fill="#f1f2f2"/><path d="M245.549,237.227l-1.749-5.376a1.739,1.739,0,0,0-3.305,0l-1.749,5.376a1.71,1.71,0,0,1-.948,1.044,1.606,1.606,0,0,1-.705.157h-5.655a1.74,1.74,0,0,0-1.026,3.149l4.576,3.323a1.735,1.735,0,0,1,.635,1.94l-.348,1.07L245.688,237.5A1.641,1.641,0,0,1,245.549,237.227Z" fill="#81fbb8"/><path d="M252.856,238.428H247.2a1.732,1.732,0,0,1-1.514-.931L235.275,247.91l-.592,1.827-.809,2.479a1.74,1.74,0,0,0,2.679,1.949l4.568-3.323a1.749,1.749,0,0,1,2.053,0l4.567,3.323a1.74,1.74,0,0,0,2.679-1.949l-1.748-5.376a1.732,1.732,0,0,1,.635-1.94l4.576-3.323a1.74,1.74,0,0,0-1.027-3.149Z" fill="#6bdb9d"/><path d="M246.5,214.939a.87.87,0,0,0-.87-.869H237.8v1.739h7.829A.87.87,0,0,0,246.5,214.939Z" fill="#f1f2f2"/><path d="M237.8,221.029h7.829a.87.87,0,0,0,0-1.74H237.8" fill="#f1f2f2"/><path d="M245.627,226.249a.87.87,0,0,0,0-1.74H237.8v1.74Z" fill="#f1f2f2"/></g></svg>