<svg xmlns="http://www.w3.org/2000/svg" width="49.152" height="50" viewBox="0 0 49.152 50"><g transform="translate(-4.924 -4.5)"><path d="M42.695,54.5a.847.847,0,1,1,0-1.695H44.33a.873.873,0,0,1,.878.847.822.822,0,0,1-.818.847v-.847l-.025.847Zm-3.39,0H37.61a.847.847,0,0,1,0-1.695h1.695a.847.847,0,1,1,0,1.695Zm-5.085,0H32.525a.847.847,0,0,1,0-1.695H34.22a.847.847,0,1,1,0,1.695Zm-5.084,0H27.441a.847.847,0,1,1,0-1.695h1.695a.847.847,0,0,1,0,1.695Zm-5.085,0H22.356a.847.847,0,0,1,0-1.695h1.695a.847.847,0,0,1,0,1.695Zm-5.085,0H17.271a.847.847,0,0,1,0-1.695h1.695a.847.847,0,1,1,0,1.695Zm28.362-1.456a.847.847,0,0,1-.665-1.371,2.956,2.956,0,0,0,.562-1.18.847.847,0,1,1,1.653.372,4.665,4.665,0,0,1-.883,1.854A.842.842,0,0,1,47.328,53.044Zm0-4.714a.844.844,0,0,1-.667-.324,2.989,2.989,0,0,0-1.015-.826.847.847,0,0,1,.755-1.517,4.7,4.7,0,0,1,1.593,1.3.849.849,0,0,1-.666,1.372ZM42.7,46.873H41a.847.847,0,1,1,0-1.695H42.7a.847.847,0,0,1,0,1.695Zm-5.085,0H35.916a.847.847,0,0,1,0-1.695h1.695a.847.847,0,0,1,0,1.695Zm-5.036-.344a.846.846,0,0,1-.351-.077,4.712,4.712,0,0,1-1.633-1.244.847.847,0,1,1,1.3-1.09,3.006,3.006,0,0,0,1.041.793.847.847,0,0,1-.354,1.618Zm-2.16-4.19a.867.867,0,0,1-.16-.015.849.849,0,0,1-.673-.993,4.641,4.641,0,0,1,.825-1.883.847.847,0,0,1,1.365,1,2.942,2.942,0,0,0-.525,1.2A.848.848,0,0,1,30.415,42.339Zm3.563-3.089a.847.847,0,0,1-.034-1.694c.072,0,.144-.005.217-.005h1.513a.847.847,0,0,1,0,1.695l-1.66,0Zm15.437,0h-.182a.847.847,0,0,1,0-1.695h.182a2.936,2.936,0,0,0,1.146-.23.848.848,0,0,1,.656,1.563A4.632,4.632,0,0,1,49.415,39.246Zm-3.572,0H44.148a.847.847,0,0,1,0-1.695h1.695a.847.847,0,1,1,0,1.695Zm-5.085,0H39.064a.847.847,0,1,1,0-1.695h1.694a.847.847,0,1,1,0,1.695Zm12.316-2.738a.893.893,0,0,1-.238-.033.849.849,0,0,1-.575-1.052,2.956,2.956,0,0,0,.12-.837,2.847,2.847,0,0,0-.035-.468.847.847,0,0,1,1.673-.269,4.449,4.449,0,0,1,.057.742,4.653,4.653,0,0,1-.188,1.308A.848.848,0,0,1,53.074,36.508ZM51.322,32.13a.843.843,0,0,1-.425-.114,2.914,2.914,0,0,0-1.245-.388.848.848,0,0,1,.132-1.69,4.587,4.587,0,0,1,1.963.612.847.847,0,0,1-.425,1.58Zm-4.994-.511H44.633a.847.847,0,0,1,0-1.695h1.695a.847.847,0,0,1,0,1.695Zm-5.085,0H39.548a.847.847,0,0,1,0-1.695h1.695a.847.847,0,1,1,0,1.695Zm-5.085,0H34.464a.847.847,0,1,1,0-1.695h1.694a.847.847,0,1,1,0,1.695Zm-5.084,0h-.3a4.7,4.7,0,0,1-1.663-.306.848.848,0,1,1,.6-1.584,2.979,2.979,0,0,0,1.061.195h.3a.847.847,0,0,1,0,1.695ZM27.147,29a.85.85,0,0,1-.805-.583,4.65,4.65,0,0,1-.231-1.456,5.1,5.1,0,0,1,.037-.588.848.848,0,0,1,1.682.212,3.177,3.177,0,0,0-.024.38,2.969,2.969,0,0,0,.147.922.848.848,0,0,1-.54,1.07A.823.823,0,0,1,27.147,29Zm1.614-4.432A.848.848,0,0,1,28.311,23a4.594,4.594,0,0,1,1.944-.672.848.848,0,1,1,.186,1.685,2.939,2.939,0,0,0-1.233.426A.84.84,0,0,1,28.761,24.564Zm11.756-.572H38.822a.847.847,0,0,1,0-1.695h1.695a.847.847,0,0,1,0,1.695Zm-5.085,0H33.737a.847.847,0,0,1,0-1.695h1.695a.847.847,0,1,1,0,1.695Z" fill="#6bdb9d"/><path d="M49.813,6.762h0a6.318,6.318,0,0,0-9.688,0h0a8.432,8.432,0,0,0,0,10.921l4.844,5.461,4.844-5.461A8.432,8.432,0,0,0,49.813,6.762Zm-4.635,8.755A3.814,3.814,0,1,1,48.991,11.7,3.815,3.815,0,0,1,45.178,15.517Z" fill="#239a58"/><path d="M20.837,28.771a8.585,8.585,0,0,0-13.183,0h0a11.519,11.519,0,0,0,0,14.892l6.592,7.447,6.591-7.447A11.517,11.517,0,0,0,20.837,28.771ZM14.246,39.246a4.237,4.237,0,1,1,4.237-4.238A4.238,4.238,0,0,1,14.246,39.246Z" fill="#28c76f"/></g></svg>