<svg xmlns="http://www.w3.org/2000/svg" width="98.967" height="35.214" viewBox="0 0 98.967 35.214">
  <g id="sedan-car-model" transform="translate(0.001 -31.876)">
    <g id="Group_7" data-name="Group 7">
      <path id="Path_176" data-name="Path 176" d="M17.275,52.156a7.468,7.468,0,0,0-7.468,7.468,7.254,7.254,0,0,0,.066.938,7.462,7.462,0,0,0,14.838-.3c.017-.209.031-.422.031-.637A7.466,7.466,0,0,0,17.275,52.156ZM13.537,56.81l1.522,1.523a2.578,2.578,0,0,0-.271.656H12.642A4.612,4.612,0,0,1,13.537,56.81Zm-.9,3.472H14.8a2.5,2.5,0,0,0,.271.648L13.54,62.455A4.672,4.672,0,0,1,12.632,60.282Zm4,3.981a4.652,4.652,0,0,1-2.166-.9l1.518-1.519a2.57,2.57,0,0,0,.648.263Zm0-7.123a2.594,2.594,0,0,0-.66.275l-1.521-1.521a4.641,4.641,0,0,1,2.181-.9Zm1.293-2.15a4.648,4.648,0,0,1,2.181.9l-1.52,1.521a2.594,2.594,0,0,0-.66-.275V54.99Zm0,9.271V62.109a2.551,2.551,0,0,0,.647-.264l1.519,1.519A4.654,4.654,0,0,1,17.922,64.261Zm3.092-1.8-1.531-1.533a2.523,2.523,0,0,0,.278-.646h2.146A4.659,4.659,0,0,1,21.014,62.462Zm-1.25-3.473a2.615,2.615,0,0,0-.271-.656l1.524-1.523a4.661,4.661,0,0,1,.894,2.18H19.764Z" fill="#fff"/>
      <path id="Path_177" data-name="Path 177" d="M79.284,52.156a7.468,7.468,0,0,0-7.468,7.468,7.253,7.253,0,0,0,.066.938,7.462,7.462,0,0,0,14.838-.3c.017-.209.031-.422.031-.637A7.465,7.465,0,0,0,79.284,52.156ZM75.546,56.81l1.521,1.523a2.579,2.579,0,0,0-.271.656H74.65A4.624,4.624,0,0,1,75.546,56.81Zm-.9,3.472h2.163a2.5,2.5,0,0,0,.271.648l-1.525,1.525A4.633,4.633,0,0,1,74.642,60.282Zm4,3.981a4.652,4.652,0,0,1-2.166-.9l1.518-1.519a2.57,2.57,0,0,0,.648.263Zm0-7.123a2.594,2.594,0,0,0-.66.275l-1.521-1.521a4.636,4.636,0,0,1,2.181-.9V57.14Zm1.294-2.15a4.648,4.648,0,0,1,2.181.9l-1.521,1.521a2.525,2.525,0,0,0-.66-.275V54.99Zm0,9.271V62.109a2.551,2.551,0,0,0,.647-.264L82.1,63.364A4.658,4.658,0,0,1,79.932,64.261Zm3.091-1.8-1.531-1.531a2.5,2.5,0,0,0,.278-.647h2.146A4.649,4.649,0,0,1,83.023,62.462Zm-1.25-3.473a2.578,2.578,0,0,0-.271-.656l1.523-1.523a4.663,4.663,0,0,1,.895,2.18H81.773Z" fill="#fff"/>
      <path id="Path_178" data-name="Path 178" d="M97.216,48.29V42.764a1.8,1.8,0,0,0-1.524-1.779,73.565,73.565,0,0,1-7.52-1.47c-2.406-.742-11.7-4.678-14.921-5.417s-17.738-4.685-31.643.135c-2.353.815-12.938,5.875-19.162,8.506-1.833.04-19.976,3.822-20.942,6.414A41.92,41.92,0,0,0,.057,53.662a10.631,10.631,0,0,0,1.348,6c1.374.777,4.019,1.3,7.077,1.649-.035-.187-.073-.371-.1-.56a8.6,8.6,0,0,1-.078-1.125,8.968,8.968,0,1,1,17.936,0c0,.254-.017.506-.036.754a8.728,8.728,0,0,1-.292,1.613h.024l44.516-.9c-.02-.115-.046-.229-.061-.346a8.565,8.565,0,0,1-.078-1.125,8.969,8.969,0,0,1,17.937,0c0,.019,0,.035,0,.053l.19-.016,7.611-1.433a6.481,6.481,0,0,0,2.915-5.822A5.135,5.135,0,0,0,97.216,48.29ZM53.057,43.051l-16.625.509c.306-2.491-1.169-3.05-1.169-3.05,6.609-6,19.929-6.2,19.929-6.2Zm18.658-.761-15.15.509,1.373-8.49c7.83-.1,12.3,1.626,12.3,1.626l2.237,3.61Zm8.541-.052H76.035l-4.22-5.795c3.166,1.26,5.7,2.5,7.209,3.287A2.354,2.354,0,0,1,80.256,42.238Z" fill="#fff"/>
    </g>
  </g>
</svg>
