<?xml version="1.0" encoding="utf-8"?>
<!-- Generator: Adobe Illustrator 23.0.1, SVG Export Plug-In . SVG Version: 6.00 Build 0)  -->
<svg version="1.1" id="Layer_1" xmlns="http://www.w3.org/2000/svg" xmlns:xlink="http://www.w3.org/1999/xlink" x="0px" y="0px"
	 viewBox="0 0 48 48" style="enable-background:new 0 0 48 48;" xml:space="preserve">
<style type="text/css">
	.st0{fill-rule:evenodd;clip-rule:evenodd;fill:#FFA200;}
	.st1{fill-rule:evenodd;clip-rule:evenodd;fill:#FFFFFF;}
</style>
<title>Icons/shield</title>
<desc>Created with Sketch.</desc>
<path id="Rectangle-2" class="st0" d="M6,0h36c3.3,0,6,2.7,6,6v36c0,3.3-2.7,6-6,6H6c-3.3,0-6-2.7-6-6V6C0,2.7,2.7,0,6,0z"/>
<g id="Group-6" transform="translate(11.000000, 8.000000)">
	<g id="Rectangle" transform="translate(0.234043, 0.191489)">
		<g id="Mask">
			<path class="st1" d="M24.8,8.3l-0.2-1.5l-1.6,0.1c-1.1,0-6.3-0.2-8.6-4.1l-1.5-2.3l-1.5,2.4c-2.4,3.8-7.6,4-8.6,4L1.1,6.8
				L0.7,8.3C0.7,8.7,0,12.5,1,17.1c1,4.4,3.7,10.5,11.1,13.7l0.7,0.3l0.7-0.3c7.5-3.3,10.2-9.3,11-13.7C25.5,12.5,24.9,8.7,24.8,8.3
				L24.8,8.3z M18.7,15l-6.8,6.9l-4.5-4.5l2.3-2.3l2.2,2.2l4.8-4.8l2.3,2.3L18.7,15z"/>
		</g>
	</g>
</g>
</svg>
