<svg xmlns="http://www.w3.org/2000/svg" width="45.308" height="50" viewBox="0 0 45.308 50"><g transform="translate(-233.369 -231.022)"><rect width="10.937" height="10.155" transform="translate(250.533 261.493)" fill="#fcb47e"/><path d="M259.148,271.838a8.923,8.923,0,0,1-3.125,1.373,8.921,8.921,0,0,1-3.124-1.372s-1.129-2.86-.8-2.534,3.927,0,3.927,0l3.1.781Z" fill="#4296d9"/><path d="M265.376,265.4l8.13,1.369a7.4,7.4,0,0,1,5.171,7.14v5.062a2.212,2.212,0,0,1-2.343,2.052H235.712a2.212,2.212,0,0,1-2.343-2.052v-5.062a7.4,7.4,0,0,1,5.171-7.14l8.087-1.369,9.4,3.906Z" fill="#28c76f"/><path d="M242.995,266.014c.012.025.012.053.026.077,5.939,9.577,11.721,10.844,12.36,10.956l.506.089a.775.775,0,0,0,.272,0l.506-.089c.639-.112,6.421-1.379,12.36-10.956.014-.022.013-.05.025-.074l-3.674-.618-9.353,3.9-9.4-3.9Z" fill="#239a58"/><path d="M248.992,261.493l-2.948,3.906,4.762,7.029a.781.781,0,0,0,1.2.114l4.018-3.237Z" fill="#81fbb8"/><path d="M263.054,261.493,266,265.4l-4.761,7.029a.782.782,0,0,1-1.2.114l-4.018-3.237Z" fill="#81fbb8"/><path d="M266.978,248.068l-1.581-3.761s-6.835-3.776-17.967-2.344h-.021a14.649,14.649,0,0,0-3.125,9.374c0,7.766,5.246,14.062,11.718,14.062s11.717-6.3,11.717-14.062a16.687,16.687,0,0,0-.41-3.637C267.107,247.926,266.978,248.068,266.978,248.068Z" fill="#ffdcad"/><circle cx="3.125" cy="3.125" r="3.125" transform="translate(248.19 248.213)" fill="#81fbb8"/><path d="M251.315,248.213a3.112,3.112,0,0,0-2.2.9l4.417,4.417a3.123,3.123,0,0,0-2.219-5.322Z" fill="#fff"/><circle cx="3.125" cy="3.125" r="3.125" transform="translate(257.564 248.213)" fill="#81fbb8"/><path d="M260.71,248.213a3.116,3.116,0,0,0-2.2.9l4.417,4.417a3.123,3.123,0,0,0-2.219-5.322Z" fill="#fff"/><path d="M268.456,233.055a.781.781,0,0,0-.826-.458,21.732,21.732,0,0,1-6.841-.7c-4.211-.845-8.564-1.719-11.966.708a.783.783,0,0,0-.155-.015c-3.489,0-5.925,2.891-5.925,7.031,0,3.371,1.494,9.818,1.558,10.091a.781.781,0,0,0,.732.6h.029a.782.782,0,0,0,.745-.548l2.218-7.09c9.329-1.077,15.516,1.6,16.763,2.2l1.47,3.5a.757.757,0,0,0,.754.478.781.781,0,0,0,.71-.543C270.064,240.969,269.206,234.761,268.456,233.055Z" fill="#239a58"/><path d="M257.585,252.119a.782.782,0,0,1-.781-.782.781.781,0,1,0-1.562,0,.782.782,0,1,1-1.563,0,2.344,2.344,0,0,1,4.688,0A.782.782,0,0,1,257.585,252.119Z" fill="#5c546a"/><path d="M248.211,251.337h-3.927a.781.781,0,0,1,0-1.562h3.927a.781.781,0,0,1,0,1.562Z" fill="#5c546a"/><path d="M267.719,251.337h-3.884a.781.781,0,0,1,0-1.562h3.884a.781.781,0,1,1,0,1.562Z" fill="#5c546a"/><path d="M251.336,255.243a3.905,3.905,0,1,1,3.906-3.906A3.91,3.91,0,0,1,251.336,255.243Zm0-6.249a2.343,2.343,0,1,0,2.343,2.343A2.346,2.346,0,0,0,251.336,248.994Z" fill="#868491"/><path d="M260.71,255.243a3.905,3.905,0,1,1,3.906-3.906A3.91,3.91,0,0,1,260.71,255.243Zm0-6.249a2.343,2.343,0,1,0,2.344,2.343A2.346,2.346,0,0,0,260.71,248.994Z" fill="#868491"/><path d="M241.181,281.022V275.8a6.987,6.987,0,0,0-2.059-4.971l-2.887-2.886a7.083,7.083,0,0,0-1.117,1.092l2.9,2.9a5.431,5.431,0,0,1,1.6,3.866v5.223Z" fill="#239a58"/><path d="M275.811,267.942l-2.887,2.886a6.981,6.981,0,0,0-2.059,4.971v5.223h1.563V275.8a5.429,5.429,0,0,1,1.6-3.866l2.9-2.9A7.083,7.083,0,0,0,275.811,267.942Z" fill="#239a58"/></g></svg>