<svg xmlns="http://www.w3.org/2000/svg" width="49.152" height="50" viewBox="0 0 49.152 50"><g transform="translate(-211.424 -211)"><path d="M211.424,216.932c0,3.28,5.932,11.017,5.932,11.017V211A5.932,5.932,0,0,0,211.424,216.932Z" fill="#26c66d"/><path d="M217.356,211v16.949s5.932-7.737,5.932-11.017A5.932,5.932,0,0,0,217.356,211Z" fill="#28c76f"/><path d="M260.576,251.678a9.322,9.322,0,1,1-9.322-9.322A9.322,9.322,0,0,1,260.576,251.678Z" fill="#28c76f"/><path d="M251.254,244.9a6.776,6.776,0,0,0-5.563,10.649l9.432-9.433A6.75,6.75,0,0,0,251.254,244.9Z" fill="#f7f8f8"/><path d="M255.123,246.114l-9.432,9.433a6.78,6.78,0,1,0,9.432-9.433Z" fill="#fafafa"/><path d="M239.39,257.61H219.9a8.474,8.474,0,0,1-8.474-8.474v-6.78a8.474,8.474,0,0,1,8.474-8.475h30.509a5.085,5.085,0,0,0,5.085-5.084v-3.39a5.085,5.085,0,0,0-5.085-5.085H224.983v-5.085h26.271a9.322,9.322,0,0,1,9.322,9.322v5.933a8.474,8.474,0,0,1-8.474,8.474H221.593a5.085,5.085,0,0,0-5.085,5.085v3.39a5.085,5.085,0,0,0,5.085,5.084h17.8Z" fill="#e6e7e8"/><path d="M252.1,252.175v-4.734a.848.848,0,1,0-1.7,0v5.084a.848.848,0,0,0,.248.6l2.542,2.542a.848.848,0,0,0,1.2-1.2Z" fill="#239a58"/><path d="M258.881,224.559a7.715,7.715,0,0,0-.144-1.486.848.848,0,0,0-1.664.328,6,6,0,0,1,.113,1.158v.365a.848.848,0,0,0,1.7,0Z" fill="#6bdb9d"/><path d="M256.918,231.418a5.922,5.922,0,0,1-.615,1.344.847.847,0,0,0,1.44.891,7.574,7.574,0,0,0,.791-1.729.848.848,0,1,0-1.617-.509Z" fill="#6bdb9d"/><path d="M258.881,229.161v-1.695a.848.848,0,0,0-1.7,0v1.695a.848.848,0,1,0,1.7,0Z" fill="#6bdb9d"/><path d="M253.427,219.037a.873.873,0,0,0,.311.06.848.848,0,0,0,.313-1.637,7.673,7.673,0,0,0-1.844-.469.848.848,0,1,0-.21,1.682A5.936,5.936,0,0,1,253.427,219.037Z" fill="#6bdb9d"/><path d="M256.452,218.978a.847.847,0,1,0-1.155,1.24,5.958,5.958,0,0,1,.95,1.134.847.847,0,1,0,1.424-.917A7.625,7.625,0,0,0,256.452,218.978Z" fill="#6bdb9d"/><path d="M254.808,234.394a5.939,5.939,0,0,1-1.284.733.847.847,0,1,0,.65,1.565,7.628,7.628,0,0,0,1.651-.942.848.848,0,1,0-1.017-1.356Z" fill="#6bdb9d"/><path d="M226.678,218.627h1.7a.847.847,0,0,0,0-1.695h-1.7a.847.847,0,0,0,0,1.695Z" fill="#6bdb9d"/><path d="M232.61,218.627a.847.847,0,1,0,0-1.695h-1.7a.847.847,0,0,0,0,1.695Z" fill="#6bdb9d"/><path d="M236.847,218.627a.847.847,0,1,0,0-1.695h-1.694a.847.847,0,1,0,0,1.695Z" fill="#6bdb9d"/><path d="M251.357,235.576h-1.676a.847.847,0,1,0,0,1.695h1.711a.848.848,0,0,0-.017-1.695Z" fill="#6bdb9d"/><path d="M241.085,218.627a.847.847,0,0,0,0-1.695h-1.7a.847.847,0,1,0,0,1.695Z" fill="#6bdb9d"/><path d="M249.559,218.627a.847.847,0,1,0,0-1.695h-1.7a.847.847,0,0,0,0,1.695Z" fill="#6bdb9d"/><path d="M245.322,218.627a.847.847,0,0,0,0-1.695h-1.7a.847.847,0,0,0,0,1.695Z" fill="#6bdb9d"/><path d="M228.98,255.915a.847.847,0,0,0,0-1.695h-1.695a.847.847,0,1,0,0,1.695Z" fill="#6bdb9d"/><path d="M220.476,255.91h.029a.848.848,0,0,0,.028-1.7,5.919,5.919,0,0,1-1.459-.235.848.848,0,0,0-.475,1.628A7.6,7.6,0,0,0,220.476,255.91Z" fill="#6bdb9d"/><path d="M216.068,254.312a.848.848,0,0,0,1.041-1.338,5.935,5.935,0,0,1-1.047-1.042.848.848,0,1,0-1.333,1.037A7.7,7.7,0,0,0,216.068,254.312Z" fill="#6bdb9d"/><path d="M216.782,238.791a5.932,5.932,0,0,1,1.214-.848.847.847,0,1,0-.787-1.5,7.757,7.757,0,0,0-1.561,1.085.848.848,0,0,0,1.134,1.261Z" fill="#6bdb9d"/><path d="M214.239,251.047a.879.879,0,0,0,.239-.034.849.849,0,0,0,.575-1.052,5.879,5.879,0,0,1-.239-1.46.826.826,0,0,0-.878-.816.848.848,0,0,0-.816.877,7.64,7.64,0,0,0,.3,1.875A.848.848,0,0,0,214.239,251.047Z" fill="#6bdb9d"/><path d="M233.217,255.915a.847.847,0,0,0,0-1.695h-1.695a.847.847,0,1,0,0,1.695Z" fill="#6bdb9d"/><path d="M245.443,235.576a.847.847,0,0,0,0,1.695h1.7a.847.847,0,1,0,0-1.695Z" fill="#6bdb9d"/><path d="M213.941,242.592a.834.834,0,0,0,.18.02.846.846,0,0,0,.827-.668,5.906,5.906,0,0,1,.492-1.4.849.849,0,0,0-1.516-.763,7.614,7.614,0,0,0-.636,1.8.846.846,0,0,0,.653,1.007Z" fill="#6bdb9d"/><path d="M224.742,255.915a.847.847,0,1,0,0-1.695h-1.7a.847.847,0,0,0,0,1.695Z" fill="#6bdb9d"/><path d="M237.454,255.915a.847.847,0,1,0,0-1.695h-1.695a.847.847,0,0,0,0,1.695Z" fill="#6bdb9d"/><path d="M232.731,235.576a.847.847,0,0,0,0,1.695h1.695a.847.847,0,1,0,0-1.695Z" fill="#6bdb9d"/><path d="M236.969,235.576a.847.847,0,1,0,0,1.695h1.7a.847.847,0,0,0,0-1.695Z" fill="#6bdb9d"/><path d="M241.206,235.576a.847.847,0,0,0,0,1.695h1.7a.847.847,0,0,0,0-1.695Z" fill="#6bdb9d"/><path d="M213.119,245.989a.847.847,0,1,0,1.695,0v-1.695a.847.847,0,0,0-1.695,0Z" fill="#6bdb9d"/><path d="M224.257,235.576a.847.847,0,1,0,0,1.695h1.695a.847.847,0,0,0,0-1.695Z" fill="#6bdb9d"/><path d="M220.746,235.576q-.408,0-.813.043a.848.848,0,0,0,.085,1.69.606.606,0,0,0,.085-.005,6.263,6.263,0,0,1,.643-.033h.968a.847.847,0,1,0,0-1.695Z" fill="#6bdb9d"/><path d="M228.494,235.576a.847.847,0,0,0,0,1.695h1.695a.847.847,0,0,0,0-1.695Z" fill="#6bdb9d"/><path d="M215.661,216.932a1.7,1.7,0,0,0,1.7,1.695v-3.39A1.7,1.7,0,0,0,215.661,216.932Z" fill="#f1f2f2"/><path d="M217.356,215.237v3.39a1.695,1.695,0,0,0,0-3.39Z" fill="#f6f6f6"/></g></svg>