<?xml version="1.0" encoding="UTF-8"?>
<svg width="518px" height="659px" viewBox="0 0 518 659" version="1.1" xmlns="http://www.w3.org/2000/svg" xmlns:xlink="http://www.w3.org/1999/xlink">
    <!-- Generator: Sketch 53 (72520) - https://sketchapp.com -->
    <title>Group 6</title>
    <desc>Created with Sketch.</desc>
    <defs>
        <path d="M3.89530461,19.7063708 L38.4256613,2.26544429 C42.8516886,-0.491039498 50.0131077,-0.491039498 54.4107631,2.26544429 L201.68966,94.5995491 C206.09566,97.3632347 206.063951,101.831943 201.636254,104.588427 L167.107567,122.027553 C162.671526,124.789438 155.528465,124.789438 151.122465,122.027553 L3.84356749,29.6952487 C-0.554087889,26.9369644 -0.539067434,22.4682559 3.89530461,19.7063708 Z" id="path-1"></path>
        <linearGradient x1="4.84766947%" y1="31.6312622%" x2="99.111288%" y2="65.0998148%" id="linearGradient-3">
            <stop stop-color="#FFA914" offset="0%"></stop>
            <stop stop-color="#FFCD76" offset="100%"></stop>
        </linearGradient>
        <path d="M24.877211,0.307876373 C24.6452285,0.30967682 24.4215906,0.333082626 24.1929459,0.342084859 L24.1929459,0.342084859 C24.0177072,0.349286646 23.8391307,0.358288879 23.6638921,0.369091559 L23.6638921,0.369091559 C23.4819777,0.381694685 23.2950565,0.379894238 23.11648,0.397898705 L23.11648,0.397898705 C22.4489042,0.462714783 21.7963489,0.565340241 21.158814,0.702174185 L21.158814,0.702174185 C21.1471314,0.705775078 21.1354489,0.711176418 21.1237663,0.714777311 L21.1237663,0.714777311 C20.9819064,0.745384904 20.8483913,0.802999196 20.7065314,0.837207682 L20.7065314,0.837207682 C20.0523072,0.999247878 19.4047587,1.17029031 18.7855821,1.40974971 L18.7855821,1.40974971 C18.7138178,1.43675641 18.6437223,1.47456579 18.5719579,1.50337293 L18.5719579,1.50337293 C18.4668147,1.54298276 18.3683473,1.59339527 18.2632041,1.63840643 L18.2632041,1.63840643 C17.493823,1.96248682 16.7461382,2.33517928 16.0368389,2.77988959 L16.0368389,2.77988959 L0.851159106,12.2988509 C1.5621273,11.8541406 2.3114811,11.4832486 3.08086218,11.1555673 L3.08086218,11.1555673 C3.18433642,11.1123566 3.28447279,11.0637445 3.38794703,11.0205338 L3.38794703,11.0205338 C4.07555007,10.7450655 4.79486296,10.5362137 5.52585843,10.3543686 L5.52585843,10.3543686 C5.66604934,10.3219605 5.79622662,10.2643462 5.93975541,10.2337386 L5.93975541,10.2337386 C6.75920466,10.053694 7.61203271,9.94926806 8.47988121,9.88805288 L8.47988121,9.88805288 C8.65511985,9.87544975 8.83202743,9.86824797 9.01060395,9.86104618 L9.01060395,9.86104618 C9.85174942,9.82683769 10.7095843,9.83764037 11.5907843,9.91686002 L11.5907843,9.91686002 C11.6942585,9.92586226 11.8010707,9.94026583 11.9062138,9.95106851 L11.9062138,9.95106851 C12.8241305,10.0464922 13.7620745,10.1977297 14.7183768,10.4173842 L14.7183768,10.4173842 C14.8168442,10.4389895 14.9136427,10.4641958 15.0121101,10.4876016 L15.0121101,10.4876016 C15.9917776,10.7234601 16.9864655,11.0223343 18.0028496,11.3914258 L18.0028496,11.3914258 C18.0712761,11.4148316 18.1413715,11.4382374 18.211467,11.4634437 L18.211467,11.4634437 C19.2695746,11.855941 20.3427026,12.3186558 21.4325201,12.8551889 L21.4325201,12.8551889 C21.5076223,12.8929983 21.5810557,12.9308077 21.654489,12.9668166 L21.654489,12.9668166 C22.7609959,13.5231546 23.8808542,14.1443087 25.017402,14.8500838 L25.017402,14.8500838 L169.991494,105.147883 C171.139724,105.862661 172.271265,106.642254 173.389455,107.477661 L173.389455,107.477661 C173.456212,107.526273 173.521301,107.578486 173.589727,107.628899 L173.589727,107.628899 C174.629477,108.413894 175.659212,109.251101 176.668921,110.13332 L176.668921,110.13332 C176.782408,110.232345 176.895896,110.33317 177.009384,110.432194 L177.009384,110.432194 C177.987383,111.296409 178.950361,112.205634 179.896649,113.152669 L179.896649,113.152669 C180.008468,113.266097 180.123625,113.377725 180.233775,113.492954 L180.233775,113.492954 C181.190077,114.465195 182.12969,115.477046 183.049276,116.524906 L183.049276,116.524906 C183.127716,116.614928 183.206156,116.70135 183.284596,116.789571 L183.284596,116.789571 C184.264264,117.920252 185.222235,119.086941 186.151834,120.296841 L186.151834,120.296841 C186.163517,120.309445 186.173531,120.323848 186.183544,120.336451 L186.183544,120.336451 C187.138178,121.575159 188.061101,122.849875 188.955653,124.158799 L188.955653,124.158799 C188.955653,124.158799 188.955653,124.158799 188.957322,124.1606 L188.957322,124.1606 C189.773433,125.356096 190.557834,126.587602 191.323878,127.835311 L191.323878,127.835311 C191.796187,128.609503 192.243463,129.405301 192.695746,130.195697 L192.695746,130.195697 C193.071257,130.85286 193.461789,131.501021 193.82228,132.170787 L193.82228,132.170787 C193.990843,132.485865 194.15273,132.809945 194.319624,133.130425 L194.319624,133.130425 C194.910428,134.255704 195.48955,135.391786 196.031956,136.542271 L196.031956,136.542271 C196.090369,136.666502 196.15045,136.790733 196.210532,136.914964 L196.210532,136.914964 C196.863088,138.317512 197.485602,139.732663 198.064724,141.160417 L198.064724,141.160417 C198.094765,141.234235 198.121468,141.306253 198.151509,141.378271 L198.151509,141.378271 C201.763094,150.339094 203.864288,159.719421 203.840923,168.395773 L203.840923,168.395773 L219.024934,158.878612 C219.043292,151.185304 217.372684,142.94826 214.48375,134.936273 L214.48375,134.936273 L214.507115,134.920069 C214.293491,134.325922 214.071522,133.731774 213.844546,133.141228 L213.844546,133.141228 C213.679321,132.712721 213.505751,132.286016 213.333851,131.85931 L213.333851,131.85931 C213.305479,131.787292 213.277107,131.713473 213.248735,131.641456 L213.248735,131.641456 C213.213687,131.560436 213.183646,131.477615 213.150267,131.394794 L213.150267,131.394794 C212.908271,130.802447 212.65793,130.213701 212.404251,129.626756 L212.404251,129.626756 C212.122201,128.978595 211.831805,128.334035 211.534734,127.691276 L211.534734,127.691276 C211.489673,127.592251 211.441273,127.495027 211.394543,127.396002 L211.394543,127.396002 C211.33613,127.269971 211.276048,127.147541 211.215967,127.02511 L211.215967,127.02511 C210.975639,126.511983 210.733643,126.000656 210.481633,125.49293 L210.481633,125.49293 C210.167873,124.855572 209.830747,124.232618 209.500297,123.604262 L209.500297,123.604262 C209.335072,123.287383 209.174854,122.966904 209.006291,122.653626 L209.006291,122.653626 C208.939533,122.529395 208.879451,122.401564 208.811025,122.277333 L208.811025,122.277333 C208.512285,121.731797 208.183504,121.207867 207.876419,120.671334 L207.876419,120.671334 C207.425805,119.882739 206.980198,119.088742 206.507888,118.318151 L206.507888,118.318151 C206.432786,118.19392 206.36436,118.064288 206.289257,117.941857 L206.289257,117.941857 C205.594979,116.821979 204.877335,115.720106 204.141332,114.641639 L204.141332,114.641639 L204.139663,114.641639 L204.139663,114.638038 C203.645657,113.916059 203.141638,113.203082 202.629273,112.502708 L202.629273,112.502708 C202.215376,111.933767 201.794804,111.372027 201.365886,110.81929 L201.365886,110.81929 C201.357541,110.804887 201.347528,110.788683 201.335845,110.77608 L201.335845,110.77608 C201.332507,110.770678 201.325832,110.761676 201.319156,110.756275 L201.319156,110.756275 C200.890238,110.196336 200.451307,109.643599 200.007369,109.099864 L200.007369,109.099864 C199.573445,108.565131 199.132845,108.0376 198.688907,107.520872 L198.688907,107.520872 C198.615474,107.436251 198.540372,107.355231 198.468607,107.272411 L198.468607,107.272411 C198.388498,107.182388 198.310058,107.094166 198.231618,107.004144 L198.231618,107.004144 C197.922864,106.651256 197.61411,106.294768 197.298681,105.950883 L197.298681,105.950883 C196.826371,105.432354 196.350723,104.922828 195.866731,104.424104 L195.866731,104.424104 C195.719864,104.271066 195.567991,104.12523 195.417786,103.973992 L195.417786,103.973992 C195.305967,103.858764 195.19081,103.745336 195.077322,103.630107 L195.077322,103.630107 C194.843671,103.397849 194.611688,103.154789 194.374699,102.926132 L194.374699,102.926132 C193.875686,102.441812 193.371666,101.966494 192.864309,101.50378 L192.864309,101.50378 C192.64234,101.302129 192.415364,101.111282 192.193395,100.913233 L192.193395,100.913233 C192.079907,100.812408 191.966419,100.711583 191.8546,100.612558 L191.8546,100.612558 C191.686037,100.466722 191.522481,100.317285 191.353919,100.17505 L191.353919,100.17505 C190.859912,99.7537454 190.364237,99.345044 189.861887,98.9471453 L189.861887,98.9471453 C189.501396,98.6590738 189.135898,98.385406 188.772069,98.1099376 L188.772069,98.1099376 C188.705312,98.0595251 188.640223,98.0073122 188.573465,97.9568997 L188.573465,97.9568997 C188.510046,97.9118885 188.448295,97.861476 188.386544,97.8146644 L188.386544,97.8146644 C187.907559,97.4617768 187.428573,97.1178915 186.944581,96.7866094 L186.944581,96.7866094 C186.468933,96.4589281 185.989947,96.1420495 185.507624,95.837774 L185.507624,95.837774 C185.397474,95.7675566 185.285655,95.6973391 185.173836,95.6271217 L185.173836,95.6271217 L40.1997439,5.33292291 C39.837584,5.10606664 39.4787621,4.89001304 39.121609,4.68116123 L39.121609,4.68116123 C38.6559749,4.40929379 38.1903408,4.15002948 37.7297135,3.90336829 L37.7297135,3.90336829 C37.4293044,3.74312854 37.1322332,3.59729236 36.836831,3.44785529 L36.836831,3.44785529 C36.7633976,3.41184636 36.6916332,3.37223653 36.6181999,3.33802805 L36.6181999,3.33802805 C36.531415,3.29481733 36.4412923,3.24440482 36.3561764,3.20299455 L36.3561764,3.20299455 C35.898887,2.98334006 35.4466044,2.7762887 34.9959908,2.58184046 L34.9959908,2.58184046 C34.5370324,2.38379133 34.081412,2.19834533 33.6257915,2.0273029 L33.6257915,2.0273029 C33.5473513,1.99669531 33.4722491,1.9732895 33.3938089,1.9462828 L33.3938089,1.9462828 C33.3237135,1.91747566 33.2552869,1.8958703 33.1851915,1.87066405 L33.1851915,1.87066405 C32.8781066,1.75903636 32.5693528,1.64560822 32.2656059,1.54658365 L32.2656059,1.54658365 C31.794965,1.39354569 31.325993,1.25311085 30.8636968,1.12888004 L30.8636968,1.12888004 C30.6383899,1.0694653 30.4180899,1.02265368 30.196121,0.968640286 L30.196121,0.968640286 C30.0993225,0.945234479 30.0008551,0.920028227 29.9040566,0.898422867 L29.9040566,0.898422867 C29.7588589,0.866014828 29.6136611,0.824604555 29.4701323,0.793996963 L29.4701323,0.793996963 C28.9694505,0.689571058 28.4754444,0.601349174 27.9831073,0.531131755 L27.9831073,0.531131755 C27.6826982,0.487921036 27.385627,0.462714783 27.0885558,0.432107191 L27.0885558,0.432107191 C26.9834126,0.421304511 26.8782694,0.405100491 26.7731262,0.397898705 L26.7731262,0.397898705 C26.6746588,0.388896472 26.5711846,0.372692452 26.4727171,0.363690219 L26.4727171,0.363690219 C25.9703664,0.32588084 25.4730224,0.307876373 24.9840232,0.307876373 L24.9840232,0.307876373 L24.877211,0.307876373 Z" id="path-4"></path>
        <path d="M6.39673952,10.0505755 C6.61203271,10.6465233 6.8189812,11.2442716 7.02092287,11.8438203 L7.02092287,11.8438203 C7.2295403,12.4667749 7.43148197,13.087929 7.62341,13.7126839 L7.62341,13.7126839 C7.81867591,14.3428403 8.00726607,14.974797 8.18751153,15.6067538 L8.18751153,15.6067538 C8.37109486,16.2495132 8.54466456,16.8958736 8.7115585,17.5404335 L8.7115585,17.5404335 C8.87678351,18.1885943 9.03533275,18.836755 9.1855373,19.4849158 L9.1855373,19.4849158 C9.33240397,20.1240744 9.47092594,20.7650334 9.59943428,21.4041919 L9.59943428,21.4041919 C9.72794261,22.0433505 9.84810625,22.6771077 9.95992519,23.3144658 L9.95992519,23.3144658 C10.0667373,23.9338195 10.1652047,24.5495722 10.2553275,25.1653249 L10.2553275,25.1653249 C10.3454502,25.7810777 10.4255593,26.39503 10.4989926,27.0053814 L10.4989926,27.0053814 C10.5690881,27.6049301 10.6308388,28.2026784 10.6842449,28.8004267 L10.6842449,28.8004267 C10.735982,29.3963745 10.7793744,29.9905219 10.8144222,30.5828688 L10.8144222,30.5828688 C10.8494699,31.1752158 10.8761729,31.7657623 10.8911934,32.3527079 L10.8911934,32.3527079 C10.9062138,32.9072454 10.9128896,33.4581821 10.9128896,34.0055179 L10.9128896,34.0055179 L9.92487746,409.272608 C9.92153959,410.664354 9.85978883,411.998485 9.74796989,413.289405 L9.74796989,413.289405 C9.73795625,413.404633 9.72627367,413.519862 9.7145911,413.636891 L9.7145911,413.636891 C9.6044411,414.819785 9.44922973,415.957667 9.25229488,417.052338 L9.25229488,417.052338 C9.22726079,417.198175 9.20055776,417.344011 9.17218578,417.488046 L9.17218578,417.488046 C8.96857518,418.546709 8.72324108,419.56036 8.44285926,420.532602 L8.44285926,420.532602 C8.3894532,420.714447 8.33270926,420.890891 8.27596531,421.069135 L8.27596531,421.069135 C7.99391455,421.985562 7.68015394,422.860579 7.32633878,423.690585 L7.32633878,423.690585 C7.28962212,423.778807 7.25958121,423.877832 7.21952666,423.967854 L7.21952666,423.967854 C6.80729862,424.913088 6.35000922,425.802509 5.85600315,426.636116 L5.85600315,426.636116 C5.78757663,426.749544 5.70913648,426.846768 5.64070997,426.958396 L5.64070997,426.958396 C5.22848193,427.61916 4.7912198,428.242114 4.32725464,428.82906 L4.32725464,428.82906 C4.15869176,429.041512 3.98178418,429.244963 3.80654554,429.448413 L3.80654554,429.448413 C3.39765538,429.91833 2.97374477,430.36124 2.53147582,430.775343 L2.53147582,430.775343 C2.35123036,430.949986 2.16931596,431.12823 1.97905687,431.292071 L1.97905687,431.292071 C1.35487353,431.830404 0.705656091,432.332729 0.0163841088,432.766637 L0.0163841088,432.766637 L15.200395,423.247675 C15.887998,422.815568 16.5372155,422.311443 17.1630677,421.771309 L17.1630677,421.771309 C17.3549958,421.607468 17.5319034,421.431025 17.7171556,421.258182 L17.7171556,421.258182 C18.1577556,420.840478 18.5816663,420.401169 18.9888875,419.929452 L18.9888875,419.929452 C19.1641261,419.724201 19.3427026,419.522551 19.5112655,419.308298 L19.5112655,419.308298 C19.9752307,418.723153 20.4124928,418.101999 20.8247208,417.439434 L20.8247208,417.439434 C20.8914784,417.326006 20.9715875,417.230583 21.0383451,417.115354 L21.0383451,417.115354 C21.0533655,417.091948 21.0717239,417.068542 21.0867443,417.043336 L21.0867443,417.043336 C21.5507095,416.256541 21.9796269,415.422934 22.3701587,414.537114 L22.3701587,414.537114 C22.3801724,414.508307 22.390186,414.4777 22.4035375,414.450693 L22.4035375,414.450693 C22.4419231,414.35887 22.4753019,414.259846 22.5120186,414.166222 L22.5120186,414.166222 C22.749008,413.609884 22.9759838,413.048145 23.1829322,412.453998 L23.1829322,412.453998 C23.2830686,412.162325 23.3665156,411.852648 23.4583072,411.553774 L23.4583072,411.553774 C23.5150512,411.371929 23.5734641,411.193685 23.6268701,411.01184 L23.6268701,411.01184 C23.6752694,410.847999 23.7303444,410.693161 23.7754057,410.525719 L23.7754057,410.525719 C23.9422997,409.920769 24.0908353,409.297815 24.2276883,408.656856 L24.2276883,408.656856 C24.2744186,408.4336 24.3128042,408.199542 24.3545277,407.972686 L24.3545277,407.972686 C24.3845686,407.825049 24.4096027,407.679213 24.4363058,407.531577 L24.4363058,407.531577 C24.4780292,407.308321 24.5230906,407.092268 24.5614762,406.865411 L24.5614762,406.865411 C24.6532679,406.292869 24.733377,405.709525 24.8034724,405.115377 L24.8034724,405.115377 C24.841858,404.789496 24.8668921,404.451012 24.898602,404.11793 L24.898602,404.11793 C24.9102845,404.000901 24.9219671,403.887473 24.9303118,403.770444 L24.9303118,403.770444 C24.9436633,403.630009 24.9620217,403.494975 24.9720353,403.35454 L24.9720353,403.35454 C25.0154277,402.7892 25.0471376,402.213057 25.0721717,401.627912 L25.0721717,401.627912 C25.0938679,401.048168 25.1072194,400.457622 25.1088883,399.858073 L25.1088883,399.858073 C25.1105573,399.823865 25.1105573,399.789656 25.1105573,399.753647 L25.1105573,399.753647 L26.0969005,24.488357 C26.0985694,23.9392208 26.0902247,23.3882841 26.0752043,22.835547 L26.0752043,22.835547 C26.0585149,22.246801 26.0334808,21.6562545 25.9984331,21.0621071 L25.9984331,21.0621071 C25.9633853,20.4715606 25.9199929,19.8756128 25.8665868,19.2814654 L25.8665868,19.2814654 C25.8131808,18.6855175 25.753099,18.0877693 25.6813346,17.4864201 L25.6813346,17.4864201 C25.6112391,16.8760687 25.5277921,16.2603159 25.4393383,15.6463636 L25.4393383,15.6463636 C25.3492156,15.0306109 25.2507482,14.4130577 25.1422671,13.7955045 L25.1422671,13.7955045 C25.0321171,13.1599468 24.9119535,12.5225887 24.7834452,11.8834302 L24.7834452,11.8834302 C24.6549368,11.2460721 24.5164148,10.6051131 24.3695482,9.96595451 L24.3695482,9.96595451 C24.2193436,9.31779373 24.0607944,8.66963294 23.8939004,8.02147216 L23.8939004,8.02147216 C23.7270065,7.37691226 23.5534368,6.73235237 23.3715224,6.08599203 L23.3715224,6.08599203 C23.1912769,5.45403527 23.0043557,4.8220785 22.8074209,4.19192218 L22.8074209,4.19192218 C22.6154928,3.56896765 22.4135512,2.94601311 22.2049337,2.32485903 L22.2049337,2.32485903 C22.0029921,1.7253103 21.7960436,1.12756202 21.5790815,0.52981374 L21.5790815,0.52981374 L6.39673952,10.0505755 Z" id="path-6"></path>
        <path d="M1.56547883,26.7942467 L0.580804571,402.061337 C0.519053812,425.299702 15.6830374,453.63333 34.430234,465.309227 L34.430234,465.309227 L179.404326,555.607027 C198.151522,567.282923 213.413973,557.900796 213.474055,534.660631 L213.474055,534.660631 L214.462067,159.39354 C214.522149,136.137171 199.359835,107.821547 180.612638,96.1456504 L180.612638,96.1456504 L35.6385461,5.84785065 C30.1644248,2.43780473 24.9890436,0.822804109 20.4011292,0.824604555 L20.4011292,0.824604555 C9.27597897,0.824604555 1.60887126,10.3273619 1.56547883,26.7942467" id="path-8"></path>
        <path d="M0.522391691,3.20347698 C0.514046994,6.03377908 2.34988036,9.4672308 4.62130691,10.8805814 L4.62130691,10.8805814 L42.00555,34.1657576 C44.2753076,35.5773078 46.1244925,34.4430264 46.1328372,31.6109239 L46.1328372,31.6109239 C46.1395129,28.7986262 44.3020106,25.3651745 42.032253,23.9518239 L42.032253,23.9518239 L4.64800995,0.666647684 C3.98544099,0.254345406 3.35958871,0.0580967235 2.80383188,0.0598971701 L2.80383188,0.0598971701 C1.45532883,0.0598971701 0.52739851,1.21038257 0.522391691,3.20347698" id="path-10"></path>
        <path d="M0.625852284,9.55316981 C0.605825011,17.1420523 5.55589934,26.3909467 11.6759002,30.2024922 L11.6759002,30.2024922 C17.79757,34.0158381 22.7793542,30.9532784 22.7993815,23.3643959 L22.7993815,23.3643959 C22.8194087,15.7755134 17.8693344,6.53021992 11.7493335,2.71507351 L11.7493335,2.71507351 C9.96189942,1.60419795 8.27460166,1.07666708 6.77589406,1.07666708 L6.77589406,1.07666708 C3.14261293,1.07666708 0.639203799,4.18063707 0.625852284,9.55316981" id="path-12"></path>
        <path d="M3.45303567,8.61153622 C3.25443188,8.99503135 3.0691796,9.39112961 2.88893414,9.79983099 L2.88893414,9.79983099 C1.99772049,11.8433379 1.35184093,14.201923 0.989681078,16.8539809 L0.989681078,16.8539809 C0.774387892,18.4419748 0.659231072,20.139796 0.654224254,21.9366417 L0.654224254,21.9366417 C0.652555315,22.4713744 0.66423789,23.0115083 0.682596224,23.5516423 L0.682596224,23.5516423 C0.684265164,23.66327 0.687603042,23.7766982 0.6942788,23.8901263 L0.6942788,23.8901263 C0.714306073,24.4176572 0.744346983,24.9469885 0.78273259,25.4799207 L0.78273259,25.4799207 C0.791077287,25.5717435 0.799421984,25.6653667 0.806097741,25.7571895 L0.806097741,25.7571895 C0.847821227,26.2667158 0.892882591,26.7762422 0.967984866,27.4730151 L0.967984866,27.4730151 C1.02973562,28.0185504 1.10316896,28.5640857 1.18160911,29.1114215 L1.18160911,29.1114215 C1.19829851,29.230251 1.21665684,29.3454796 1.23501517,29.4643091 L1.23501517,29.4643091 C1.31512427,30.0116448 1.40524699,30.5625815 1.54043109,31.2917624 L1.54043109,31.2917624 C1.6338917,31.8120915 1.73736594,32.3306201 1.84751594,32.8509492 L1.84751594,32.8509492 C1.86921215,32.9499737 1.88757049,33.0471978 1.9092667,33.144422 L1.9092667,33.144422 C2.0277614,33.6917577 2.15626973,34.240894 2.28978489,34.7882297 L2.28978489,34.7882297 C2.31648792,34.9016579 2.34485989,35.0114851 2.37156292,35.1231128 L2.37156292,35.1231128 C2.65528262,36.2537933 2.97238111,37.3844738 3.31952051,38.5133538 L3.31952051,38.5133538 C3.3528993,38.6249815 3.38627809,38.7348087 3.42132582,38.844636 L3.42132582,38.844636 C3.59489552,39.3955727 3.7718031,39.9465093 3.95872431,40.4956455 L3.95872431,40.4956455 C3.99043416,40.5838674 4.01880613,40.6702889 4.05051598,40.7549099 L4.05051598,40.7549099 C4.2290925,41.2788398 4.41601371,41.7991689 4.67970614,42.5103453 L4.67970614,42.5103453 C4.88498569,43.0594815 5.09860994,43.6068173 5.31890994,44.1541531 L5.31890994,44.1541531 C5.36397131,44.2675812 5.40903267,44.3792089 5.45576297,44.4926371 L5.45576297,44.4926371 C5.67940086,45.0399728 5.90804556,45.5837077 6.21012359,46.2750792 L6.21012359,46.2750792 C6.43376148,46.7882065 6.66574406,47.2995334 6.90273345,47.8090597 L6.90273345,47.8090597 C6.94612588,47.9062839 6.99118724,48.0017075 7.03624861,48.0989317 L7.03624861,48.0989317 C7.28658952,48.6300634 7.54193725,49.1557938 7.8022918,49.6797238 L7.8022918,49.6797238 C7.85402893,49.7805488 7.90576605,49.8813738 7.95583423,49.9821988 L7.95583423,49.9821988 C8.22286454,50.5079292 8.49156379,51.0282583 8.79364182,51.595399 L8.79364182,51.595399 C9.07402364,52.1229299 9.3644191,52.6432589 9.65481456,53.1599871 L9.65481456,53.1599871 C9.71823426,53.2680139 9.77831608,53.3760407 9.84006684,53.4840675 L9.84006684,53.4840675 C10.1287934,53.9863921 10.4191888,54.4851158 10.7195979,54.9820391 L10.7195979,54.9820391 C10.771335,55.0648597 10.8214032,55.1476802 10.8731403,55.2323012 L10.8731403,55.2323012 C11.1551911,55.695016 11.4422487,56.1523294 11.8628214,56.8130933 L11.8628214,56.8130933 C12.0797835,57.1515773 12.3050904,57.481059 12.5253904,57.8141417 L12.5253904,57.8141417 C12.0230396,56.9895371 11.7626851,56.521421 11.7510025,56.4962147 L11.7510025,56.4962147 C11.7810434,44.8347219 19.4398064,40.126554 28.8626384,45.9942095 L28.8626384,45.9942095 C38.1886719,51.8042508 45.7472985,65.8315305 45.845766,77.4390099 L45.845766,77.4390099 C46.0026463,77.3831961 46.1628644,77.334584 46.4115364,77.2373599 L46.4115364,77.2373599 C46.7152834,77.1149295 47.0090167,76.979896 47.3010811,76.8358603 L47.3010811,76.8358603 C47.3628319,76.8088536 47.4212448,76.778246 47.4796577,76.7494388 L47.4796577,76.7494388 C47.7617084,76.6036027 48.0420902,76.4505647 48.3141274,76.2831232 L48.3141274,76.2831232 C48.3675334,76.2525156 48.4192705,76.2183071 48.4710077,76.1840986 L48.4710077,76.1840986 C48.7513895,76.0094553 49.0267645,75.8258097 49.3505387,75.5845499 L49.3505387,75.5845499 C49.6125622,75.3919021 49.866241,75.1866512 50.114913,74.9705976 L50.114913,74.9705976 C50.1532986,74.9381895 50.1916842,74.9057815 50.2317388,74.871573 L50.2317388,74.871573 C50.4787418,74.653719 50.720738,74.4214613 50.9577274,74.1820019 L50.9577274,74.1820019 C51.0027888,74.1351903 51.0478501,74.0901792 51.0912426,74.0433676 L51.0912426,74.0433676 C51.328232,73.7985068 51.5552077,73.5446438 51.7771767,73.2781777 L51.7771767,73.2781777 C51.8105555,73.2403684 51.8422653,73.1989581 51.8739752,73.1611487 L51.8739752,73.1611487 C52.1026199,72.880279 52.3262577,72.594008 52.5482267,72.2807303 L52.5482267,72.2807303 C52.7618509,71.9800557 52.9671305,71.6631771 53.1640653,71.3408972 L53.1640653,71.3408972 C53.1957752,71.2904847 53.227485,71.2418726 53.255857,71.1914601 L53.255857,71.1914601 C53.4461161,70.8799828 53.6246926,70.5577029 53.7965934,70.2264207 L53.7965934,70.2264207 C53.8316411,70.1634051 53.8650199,70.0967886 53.8983987,70.0319725 L53.8983987,70.0319725 C54.0702994,69.695289 54.2338555,69.3496032 54.4541555,68.8508795 L54.4541555,68.8508795 C54.606029,68.4979919 54.7495578,68.1379026 54.9298032,67.6553829 L54.9298032,67.6553829 C55.0683252,67.2718878 55.1985025,66.8757895 55.322004,66.470689 L55.322004,66.470689 C55.3437002,66.3986712 55.3670654,66.3248529 55.3887616,66.252835 L55.3887616,66.252835 C55.5072563,65.8549363 55.6157373,65.4444345 55.7192116,65.0267308 L55.7192116,65.0267308 C55.7392389,64.9529125 55.7559283,64.8790942 55.7742866,64.8034755 L55.7742866,64.8034755 C55.874423,64.3731687 55.9712214,63.9338597 56.0763646,63.3631182 L56.0763646,63.3631182 C56.1581427,62.9220087 56.2282381,62.4718971 56.3183608,61.8399403 L56.3183608,61.8399403 C56.3801116,61.3754251 56.4351866,60.8983067 56.478579,60.4175875 L56.478579,60.4175875 C56.4869237,60.3239643 56.4969374,60.2321415 56.5052821,60.1367178 L56.5052821,60.1367178 C56.5453366,59.6523977 56.5787154,59.1626762 56.6037495,58.662152 L56.6037495,58.662152 C56.6054184,58.5811319 56.6070874,58.5001118 56.6120942,58.4190917 L56.6120942,58.4190917 C56.6337904,57.8933613 56.6488108,57.3586287 56.6488108,56.8130933 L56.6488108,56.8130933 C56.6538177,55.0144472 56.5486745,53.1815925 56.3400571,51.3271325 L56.3400571,51.3271325 C55.9929177,48.2357656 55.3620585,45.0795827 54.4841964,41.9342024 L54.4841964,41.9342024 C54.1320502,40.6738898 53.7398494,39.4189785 53.3126009,38.1658676 L53.3126009,38.1658676 C53.0205365,37.3160568 52.705107,36.4698469 52.3830017,35.6272379 L52.3830017,35.6272379 C47.4446099,22.8026565 38.709381,10.8836999 28.735799,4.67035855 L28.735799,4.67035855 C24.2229868,1.85986137 19.9571776,0.529331308 16.1753609,0.529331308 L16.1753609,0.529331308 C10.6461646,0.529331308 6.15671753,3.37763787 3.45303567,8.61153622 M29.2548392,42.8092195 C23.5186944,39.2353329 18.8740359,30.5499784 18.8890564,23.4418151 L18.8890564,23.4418151 C18.9090837,16.3138469 23.5887898,13.4529372 29.3232657,17.0268238 L29.3232657,17.0268238 C35.072762,20.6079121 39.7074068,29.2662599 39.6890484,36.3942281 L39.6890484,36.3942281 C39.674028,41.4300773 37.330837,44.3468009 33.9195248,44.3468009 L33.9195248,44.3468009 C32.5159468,44.3468009 30.9321233,43.8516781 29.2548392,42.8092195" id="path-14"></path>
        <linearGradient x1="81.1174551%" y1="79.6736277%" x2="28.4668725%" y2="44.7827231%" id="linearGradient-16">
            <stop stop-color="#FFA914" offset="0%"></stop>
            <stop stop-color="#FFCD76" offset="100%"></stop>
        </linearGradient>
        <path d="M0.927930319,7.93816918 L0.919585622,11.9963759 C0.902896228,18.3393493 5.041866,26.0560636 10.1588343,29.2446546 L10.1588343,29.2446546 L58.6448624,59.4435459 C63.7618307,62.6303364 67.912483,60.0773031 67.9308413,53.7325292 L67.9308413,53.7325292 L67.9425239,49.6761229 C67.9575444,43.3493535 63.8302572,35.6218365 58.7149579,32.4368464 L58.7149579,32.4368464 L10.2305987,2.23615471 C8.73689788,1.30712425 7.32497513,0.866014828 6.07160162,0.866014828 L6.07160162,0.866014828 C3.03413187,0.866014828 0.941281835,3.45865797 0.927930319,7.93816918" id="path-17"></path>
        <linearGradient x1="108.70416%" y1="73.7406765%" x2="9.37700694%" y2="45.8258665%" id="linearGradient-19">
            <stop stop-color="#FFA914" offset="0%"></stop>
            <stop stop-color="#FFCD76" offset="100%"></stop>
        </linearGradient>
        <path d="M111.051229,35.5448998 C111.051229,55.0491381 86.3843045,70.8606604 55.956201,70.8606604 C25.5297664,70.8606604 0.862841682,55.0491381 0.862841682,35.5448998 C0.862841682,16.0406614 25.5297664,0.229139153 55.956201,0.229139153" id="path-20"></path>
        <linearGradient x1="0.0003324599%" y1="49.9992373%" x2="99.9989613%" y2="49.9992373%" id="linearGradient-22">
            <stop stop-color="#FFA914" offset="0%"></stop>
            <stop stop-color="#FFCD76" offset="100%"></stop>
        </linearGradient>
        <path d="M7.72552059,121.536031 C8.54997667,124.942476 17.1149738,126.899562 18.7038041,121.487419 L18.7038041,121.487419 C19.7118435,118.053967 22.1985633,9.24217497 22.1985633,9.24217497 L22.1985633,9.24217497 L0.298740157,0.549618653 C0.298740157,0.549618653 6.90106452,118.129586 7.72552059,121.536031" id="path-23"></path>
        <linearGradient x1="45.0330549%" y1="-42.2176997%" x2="51.5243055%" y2="91.1019391%" id="linearGradient-25">
            <stop stop-color="#FFA200" offset="0%"></stop>
            <stop stop-color="#C47D00" offset="100%"></stop>
        </linearGradient>
        <path d="M25.2577292,0.648194297 C15.7330919,0.0936567355 0.98467426,0.534766159 0.467303039,8.50714383 L0.467303039,8.50714383 C-0.298740157,20.3180737 4.83324857,28.7423635 9.7833229,34.4749855 L9.7833229,34.4749855 C13.4399692,38.709636 15.8749518,46.8116458 16.8980117,50.7618257 L16.8980117,50.7618257 C17.7658602,81.9437609 19.6801337,125.91967 20.8767632,130.129114 L20.8767632,130.129114 C22.8027193,136.907796 32.2839642,136.60172 32.7112127,130.001282 L32.7112127,130.001282 C34.632162,107.690148 36.147559,5.45898769 36.147559,5.45898769 L36.147559,5.45898769 C35.7920749,1.82028505 32.6961922,0.0108361906 29.0762626,0.0108361906 L29.0762626,0.0108361906 C27.8345717,0.0108361906 26.532799,0.223288893 25.2577292,0.648194297" id="path-26"></path>
        <linearGradient x1="38.7856078%" y1="-42.2176997%" x2="53.4415842%" y2="91.1019391%" id="linearGradient-28">
            <stop stop-color="#FFA200" offset="0%"></stop>
            <stop stop-color="#C47D00" offset="100%"></stop>
        </linearGradient>
        <path d="M110.92439,35.8000807 C110.92439,55.3061195 86.2591341,71.1158413 55.8326995,71.1158413 C25.4045959,71.1158413 0.737671225,55.3061195 0.737671225,35.8000807 C0.737671225,16.2958424 25.4045959,0.484320143 55.8326995,0.484320143" id="path-29"></path>
        <linearGradient x1="0.00048589864%" y1="50.0002598%" x2="100.000479%" y2="50.0002598%" id="linearGradient-31">
            <stop stop-color="#FFA914" offset="0%"></stop>
            <stop stop-color="#FFCD76" offset="100%"></stop>
        </linearGradient>
        <path d="M2.39994854,27.1363316 C7.94917212,36.8659451 21.4725883,48.8371148 27.3689513,48.8371148 L27.3689513,48.8371148 C33.2653142,48.8371148 63.4364011,45.8447725 65.864708,42.8506297 L65.864708,42.8506297 C68.2913459,39.856487 66.2118474,35.740666 64.4761504,35.740666 L64.4761504,35.740666 C62.7437913,35.740666 40.8940363,36.8659451 35.6936211,35.740666 L35.6936211,35.740666 C30.489868,34.6207882 25.9820626,33.49911 22.8795042,21.0850305 L22.8795042,21.0850305 C17.6924405,2.31357392 9.68153125,0.948835373 9.68153125,0.948835373 L9.68153125,0.948835373 C9.52798882,0.932631353 9.37444639,0.92362912 9.2225729,0.92362912 L9.2225729,0.92362912 C2.17130384,0.92362912 -3.03078034,17.6155698 2.39994854,27.1363316" id="path-32"></path>
        <polygon id="path-34" points="0 0.934333263 81.8441411 0.934333263 81.8441411 111.606798 0 111.606798"></polygon>
        <path d="M21.2072133,0.797597856 C21.2072133,0.797597856 4.05385386,14.0200779 2.35821141,18.418569 L2.35821141,18.418569 C0.662568951,22.8170601 -1.735697,36.5040554 3.83355386,43.2161204 L3.83355386,43.2161204 C13.4783548,54.8398038 7.67044559,74.8103578 8.94217743,80.6834147 L8.94217743,80.6834147 C10.2172471,86.5582721 23.3034012,87.2856525 32.3874384,85.3915827 L32.3874384,85.3915827 C41.4714757,83.4975128 49.8845994,78.4850694 49.5407978,67.0576346 L49.5407978,67.0576346 C49.1969963,55.6301999 51.9991456,39.9555116 52.5765987,34.8080347 L52.5765987,34.8080347 C53.1507138,29.6605577 52.5248615,16.7315505 50.3101789,8.06600089 L50.3101789,8.06600089 C49.8428759,6.23494667 44.136772,4.31747101 44.136772,4.31747101 L44.136772,4.31747101 C44.136772,4.31747101 39.068203,0.703974631 25.1776201,0.703974631 L25.1776201,0.703974631 C23.9259156,0.703974631 22.6041155,0.734582224 21.2072133,0.797597856" id="path-36"></path>
        <linearGradient x1="31.993963%" y1="0%" x2="69.5401763%" y2="100%" id="linearGradient-38">
            <stop stop-color="#FFA200" offset="0%"></stop>
            <stop stop-color="#C47D00" offset="100%"></stop>
        </linearGradient>
        <path d="M1.08314169,0.952436266 L22.6358254,8.28025404 L42.7131667,2.22715248 C42.4177644,3.18318964 37.1038613,20.7015353 25.5898482,23.8865254 C17.3119086,26.1748931 7.53693044,18.2781342 2.67864777,13.6473854 C2.41161747,10.4065815 1.77074473,7.17658026 0.587466677,4.1662335 L1.08314169,0.952436266 Z" id="path-39"></path>
        <path d="M2.12122201,14.4611873 C6.97783573,31.2953633 23.2766981,43.6428263 29.1730611,42.8956409 L29.1730611,42.8956409 C35.0694241,42.1466551 58.9986776,14.8356802 58.9986776,11.4670446 L58.9986776,11.4670446 C58.9986776,8.10200982 56.2232313,5.85685288 53.447785,6.60403823 L53.447785,6.60403823 C50.6740077,7.35302403 32.2939778,28.6793143 30.5599498,27.9303285 L30.5599498,27.9303285 C28.8259217,27.1795423 18.074614,7.72751693 8.71186379,0.61935364 L8.71186379,0.61935364 C8.71186379,0.61935364 7.92412438,0.412302278 6.84932739,0.412302278 L6.84932739,0.412302278 C3.82854704,0.412302278 -1.45865306,2.04170648 2.12122201,14.4611873" id="path-41"></path>
        <linearGradient x1="1.95919003%" y1="23.2046341%" x2="102.133954%" y2="76.7953659%" id="linearGradient-43">
            <stop stop-color="#FFA200" offset="0%"></stop>
            <stop stop-color="#C47D00" offset="100%"></stop>
            <stop stop-color="#C47D00" offset="100%"></stop>
        </linearGradient>
    </defs>
    <g id="Page-1" stroke="none" stroke-width="1" fill="none" fill-rule="evenodd">
        <g id="Mobile_Screen1-Copy-15" transform="translate(-116.000000, -228.000000)">
            <g id="Group-6" transform="translate(116.000000, 228.000000)">
                <g id="Group-141" transform="translate(0.000000, 0.039161)">
                    <path d="M239.883592,9.91775839 C252.173919,0.437685848 261.92131,-2.19162088 269.125763,2.0298382 C276.330216,6.25129728 326.37793,37.8406122 419.268904,96.7977829 C441.202939,115.293525 452.169956,136.221075 452.169956,159.580434 C452.169956,182.939793 452.169956,309.265792 452.169956,538.558433 C451.15169,554.766099 444.989864,564.652015 433.684478,568.216182 C422.379091,571.780348 357.778795,385.680874 239.883592,9.91775839 Z" id="Path-1243" fill="#FFBF4E" fill-rule="nonzero"></path>
                    <path d="M227.14641,30.2091271 L227.14641,412.774982 L259.656255,478.872686 L399.32133,567.153185 C423.983767,577.302412 436.314986,573.997365 436.314986,557.238045 C436.314986,540.478725 437.000438,411.016741 438.371342,168.852094 C433.699699,136.575679 422.162743,115.006057 403.760474,104.143228 C385.358205,93.2803995 338.665583,64.1879094 263.682608,16.8657577 C248.0979,6.82677534 237.393901,6.82677534 231.57061,16.8657577 C228.621143,21.0387999 227.14641,25.4865897 227.14641,30.2091271 Z" id="Path-1242" fill="#FFBF4E" fill-rule="nonzero"></path>
                    <g id="Group-20" transform="translate(115.156820, 112.398697)">
                        <g id="Group-3" transform="translate(91.791668, 380.051443)">
                            <mask id="mask-2" fill="white">
                                <use xlink:href="#path-1"></use>
                            </mask>
                            <g id="Clip-2"></g>
                            <path d="M3.89530461,19.7063708 C-0.539067434,22.4682559 -0.554087889,26.9369644 3.84356749,29.6952487 L151.122465,122.027553 C155.528465,124.789438 162.671526,124.789438 167.107567,122.027553 L201.636254,104.588427 C206.063951,101.831943 206.09566,97.3632347 201.68966,94.5995491 L54.4107631,2.26544429 C50.0131077,-0.491039498 42.8516886,-0.491039498 38.4256613,2.26544429 L3.89530461,19.7063708 Z" id="Fill-1" fill="url(#linearGradient-3)" mask="url(#mask-2)"></path>
                        </g>
                        <path d="M55.1335807,13.935425 L55.1435944,17.9018089 C55.1502701,20.2387886 57.4984679,21.6935495 59.3726869,20.5214587 L76.7129675,9.666566 C77.5841539,9.12283112 78.1182145,8.1181819 78.1165455,7.03251258 L78.1065319,3.06432822 C78.0998561,0.727348494 75.7516584,-0.727412381 73.8774394,0.446478821 L56.5354899,11.2995711 C55.6659724,11.8451064 55.1302429,12.8497556 55.1335807,13.935425" id="Fill-4" fill="#FFA200"></path>
                        <path d="M0.277878414,67.8152306 L0.287892051,71.7906168 C0.294567808,74.1239956 2.63775876,75.5787565 4.51197773,74.4120671 L76.7603654,29.4117041 C77.6348896,28.8679692 78.1706192,27.8615195 78.1689502,26.7722493 L78.1589366,22.7986636 C78.1522608,20.4634843 75.807401,19.0087235 73.9348509,20.1772133 L1.68646329,65.1757759 C0.811939029,65.7195108 0.274540535,66.7277609 0.277878414,67.8152306" id="Fill-6" fill="#FFA200"></path>
                        <path d="M30.1679159,88.7533447 L30.1779295,92.7287308 C30.1846053,95.0621096 32.5277963,96.5168705 34.4036842,95.3501811 L76.863172,68.9034206 C77.7376963,68.3596857 78.2750948,67.353236 78.2717569,66.2639658 L78.2617433,62.2903801 C78.2550675,59.9552008 75.9118766,58.50044 74.0376576,59.6671294 L31.5765008,86.1138899 C30.7019765,86.6576248 30.166247,87.6658749 30.1679159,88.7533447" id="Fill-8" fill="#FFA200"></path>
                        <path d="M11.5325383,80.5827378 L11.5425519,84.558124 C11.5492277,86.8915028 13.8940876,88.3462637 15.7666376,87.1795743 L76.8114349,49.1577424 C77.6859592,48.6140075 78.2216887,47.6075578 78.2200198,46.5182876 L78.2100061,42.5447019 C78.2033304,40.2095226 75.8601394,38.7547618 73.9859205,39.9214512 L12.9411232,77.9432831 C12.0665989,78.4870179 11.5308694,79.495268 11.5325383,80.5827378" id="Fill-10" fill="#FFA200"></path>
                        <path d="M389.31183,74.0058863 C390.107914,74.5010091 390.750456,75.701907 390.747118,76.6903522 L390.677023,103.697052 C390.673685,104.683696 390.027805,105.081595 389.231721,104.586472 L357.536893,84.844575 C356.73914,84.3476518 356.096598,83.1467539 356.099936,82.1601091 L356.170031,55.1534097 C356.173369,54.1649645 356.819249,53.7670658 357.617002,54.2639891 L389.31183,74.0058863 Z" id="Fill-12" fill="#FFA200"></path>
                        <path d="M400.953684,122.054405 C401.749768,122.549528 402.39231,123.752227 402.388972,124.738871 L402.317208,151.747371 C402.315539,152.732216 401.669659,153.130114 400.873575,152.634991 L369.177078,132.893094 C368.379325,132.397971 367.738452,131.195273 367.74179,130.210429 L367.811885,103.201929 C367.815223,102.213484 368.461103,101.817385 369.258856,102.312508 L400.953684,122.054405 Z" id="Fill-14" fill="#FFDB9D"></path>
                        <path d="M78.5835148,147.543869 C79.0975481,147.864348 79.513114,148.640341 79.5114451,149.277699 L79.4647148,166.727627 C79.4630459,167.364985 79.045811,167.620649 78.5317777,167.30197 L58.0538909,154.547606 C57.5381887,154.225326 57.1226227,153.449333 57.1242917,152.811975 L57.1693531,135.363847 C57.171022,134.724689 57.5899258,134.467225 58.1039591,134.789505 L78.5835148,147.543869 Z" id="Fill-16" fill="#FFA200"></path>
                        <path d="M86.105091,178.58843 C86.6191243,178.908909 87.0346902,179.684902 87.0330213,180.32226 L86.986291,197.772188 C86.9846221,198.409547 86.5673872,198.66521 86.0533539,198.346531 L65.5754671,185.592167 C65.0597649,185.269887 64.6441989,184.493895 64.6458679,183.856536 L64.6909292,166.408408 C64.6925982,165.76925 65.111502,165.511786 65.6255353,165.834066 L86.105091,178.58843 Z" id="Fill-18" fill="#FFDB9D"></path>
                    </g>
                    <g id="Group-23" transform="translate(233.651519, 1.571453)">
                        <mask id="mask-5" fill="white">
                            <use xlink:href="#path-4"></use>
                        </mask>
                        <use id="Clip-22" fill="#C47D00" xlink:href="#path-4"></use>
                        <path d="M24.877211,0.307876373 C24.6452285,0.30967682 24.4215906,0.333082626 24.1929459,0.342084859 L24.1929459,0.342084859 C24.0177072,0.349286646 23.8391307,0.358288879 23.6638921,0.369091559 L23.6638921,0.369091559 C23.4819777,0.381694685 23.2950565,0.379894238 23.11648,0.397898705 L23.11648,0.397898705 C22.4489042,0.462714783 21.7963489,0.565340241 21.158814,0.702174185 L21.158814,0.702174185 C21.1471314,0.705775078 21.1354489,0.711176418 21.1237663,0.714777311 L21.1237663,0.714777311 C20.9819064,0.745384904 20.8483913,0.802999196 20.7065314,0.837207682 L20.7065314,0.837207682 C20.0523072,0.999247878 19.4047587,1.17029031 18.7855821,1.40974971 L18.7855821,1.40974971 C18.7138178,1.43675641 18.6437223,1.47456579 18.5719579,1.50337293 L18.5719579,1.50337293 C18.4668147,1.54298276 18.3683473,1.59339527 18.2632041,1.63840643 L18.2632041,1.63840643 C17.493823,1.96248682 16.7461382,2.33517928 16.0368389,2.77988959 L16.0368389,2.77988959 L0.851159106,12.2988509 C1.5621273,11.8541406 2.3114811,11.4832486 3.08086218,11.1555673 L3.08086218,11.1555673 C3.18433642,11.1123566 3.28447279,11.0637445 3.38794703,11.0205338 L3.38794703,11.0205338 C4.07555007,10.7450655 4.79486296,10.5362137 5.52585843,10.3543686 L5.52585843,10.3543686 C5.66604934,10.3219605 5.79622662,10.2643462 5.93975541,10.2337386 L5.93975541,10.2337386 C6.75920466,10.053694 7.61203271,9.94926806 8.47988121,9.88805288 L8.47988121,9.88805288 C8.65511985,9.87544975 8.83202743,9.86824797 9.01060395,9.86104618 L9.01060395,9.86104618 C9.85174942,9.82683769 10.7095843,9.83764037 11.5907843,9.91686002 L11.5907843,9.91686002 C11.6942585,9.92586226 11.8010707,9.94026583 11.9062138,9.95106851 L11.9062138,9.95106851 C12.8241305,10.0464922 13.7620745,10.1977297 14.7183768,10.4173842 L14.7183768,10.4173842 C14.8168442,10.4389895 14.9136427,10.4641958 15.0121101,10.4876016 L15.0121101,10.4876016 C15.9917776,10.7234601 16.9864655,11.0223343 18.0028496,11.3914258 L18.0028496,11.3914258 C18.0712761,11.4148316 18.1413715,11.4382374 18.211467,11.4634437 L18.211467,11.4634437 C19.2695746,11.855941 20.3427026,12.3186558 21.4325201,12.8551889 L21.4325201,12.8551889 C21.5076223,12.8929983 21.5810557,12.9308077 21.654489,12.9668166 L21.654489,12.9668166 C22.7609959,13.5231546 23.8808542,14.1443087 25.017402,14.8500838 L25.017402,14.8500838 L169.991494,105.147883 C171.139724,105.862661 172.271265,106.642254 173.389455,107.477661 L173.389455,107.477661 C173.456212,107.526273 173.521301,107.578486 173.589727,107.628899 L173.589727,107.628899 C174.629477,108.413894 175.659212,109.251101 176.668921,110.13332 L176.668921,110.13332 C176.782408,110.232345 176.895896,110.33317 177.009384,110.432194 L177.009384,110.432194 C177.987383,111.296409 178.950361,112.205634 179.896649,113.152669 L179.896649,113.152669 C180.008468,113.266097 180.123625,113.377725 180.233775,113.492954 L180.233775,113.492954 C181.190077,114.465195 182.12969,115.477046 183.049276,116.524906 L183.049276,116.524906 C183.127716,116.614928 183.206156,116.70135 183.284596,116.789571 L183.284596,116.789571 C184.264264,117.920252 185.222235,119.086941 186.151834,120.296841 L186.151834,120.296841 C186.163517,120.309445 186.173531,120.323848 186.183544,120.336451 L186.183544,120.336451 C187.138178,121.575159 188.061101,122.849875 188.955653,124.158799 L188.955653,124.158799 C188.955653,124.158799 188.955653,124.158799 188.957322,124.1606 L188.957322,124.1606 C189.773433,125.356096 190.557834,126.587602 191.323878,127.835311 L191.323878,127.835311 C191.796187,128.609503 192.243463,129.405301 192.695746,130.195697 L192.695746,130.195697 C193.071257,130.85286 193.461789,131.501021 193.82228,132.170787 L193.82228,132.170787 C193.990843,132.485865 194.15273,132.809945 194.319624,133.130425 L194.319624,133.130425 C194.910428,134.255704 195.48955,135.391786 196.031956,136.542271 L196.031956,136.542271 C196.090369,136.666502 196.15045,136.790733 196.210532,136.914964 L196.210532,136.914964 C196.863088,138.317512 197.485602,139.732663 198.064724,141.160417 L198.064724,141.160417 C198.094765,141.234235 198.121468,141.306253 198.151509,141.378271 L198.151509,141.378271 C201.763094,150.339094 203.864288,159.719421 203.840923,168.395773 L203.840923,168.395773 L219.024934,158.878612 C219.043292,151.185304 217.372684,142.94826 214.48375,134.936273 L214.48375,134.936273 L214.507115,134.920069 C214.293491,134.325922 214.071522,133.731774 213.844546,133.141228 L213.844546,133.141228 C213.679321,132.712721 213.505751,132.286016 213.333851,131.85931 L213.333851,131.85931 C213.305479,131.787292 213.277107,131.713473 213.248735,131.641456 L213.248735,131.641456 C213.213687,131.560436 213.183646,131.477615 213.150267,131.394794 L213.150267,131.394794 C212.908271,130.802447 212.65793,130.213701 212.404251,129.626756 L212.404251,129.626756 C212.122201,128.978595 211.831805,128.334035 211.534734,127.691276 L211.534734,127.691276 C211.489673,127.592251 211.441273,127.495027 211.394543,127.396002 L211.394543,127.396002 C211.33613,127.269971 211.276048,127.147541 211.215967,127.02511 L211.215967,127.02511 C210.975639,126.511983 210.733643,126.000656 210.481633,125.49293 L210.481633,125.49293 C210.167873,124.855572 209.830747,124.232618 209.500297,123.604262 L209.500297,123.604262 C209.335072,123.287383 209.174854,122.966904 209.006291,122.653626 L209.006291,122.653626 C208.939533,122.529395 208.879451,122.401564 208.811025,122.277333 L208.811025,122.277333 C208.512285,121.731797 208.183504,121.207867 207.876419,120.671334 L207.876419,120.671334 C207.425805,119.882739 206.980198,119.088742 206.507888,118.318151 L206.507888,118.318151 C206.432786,118.19392 206.36436,118.064288 206.289257,117.941857 L206.289257,117.941857 C205.594979,116.821979 204.877335,115.720106 204.141332,114.641639 L204.141332,114.641639 L204.139663,114.641639 L204.139663,114.638038 C203.645657,113.916059 203.141638,113.203082 202.629273,112.502708 L202.629273,112.502708 C202.215376,111.933767 201.794804,111.372027 201.365886,110.81929 L201.365886,110.81929 C201.357541,110.804887 201.347528,110.788683 201.335845,110.77608 L201.335845,110.77608 C201.332507,110.770678 201.325832,110.761676 201.319156,110.756275 L201.319156,110.756275 C200.890238,110.196336 200.451307,109.643599 200.007369,109.099864 L200.007369,109.099864 C199.573445,108.565131 199.132845,108.0376 198.688907,107.520872 L198.688907,107.520872 C198.615474,107.436251 198.540372,107.355231 198.468607,107.272411 L198.468607,107.272411 C198.388498,107.182388 198.310058,107.094166 198.231618,107.004144 L198.231618,107.004144 C197.922864,106.651256 197.61411,106.294768 197.298681,105.950883 L197.298681,105.950883 C196.826371,105.432354 196.350723,104.922828 195.866731,104.424104 L195.866731,104.424104 C195.719864,104.271066 195.567991,104.12523 195.417786,103.973992 L195.417786,103.973992 C195.305967,103.858764 195.19081,103.745336 195.077322,103.630107 L195.077322,103.630107 C194.843671,103.397849 194.611688,103.154789 194.374699,102.926132 L194.374699,102.926132 C193.875686,102.441812 193.371666,101.966494 192.864309,101.50378 L192.864309,101.50378 C192.64234,101.302129 192.415364,101.111282 192.193395,100.913233 L192.193395,100.913233 C192.079907,100.812408 191.966419,100.711583 191.8546,100.612558 L191.8546,100.612558 C191.686037,100.466722 191.522481,100.317285 191.353919,100.17505 L191.353919,100.17505 C190.859912,99.7537454 190.364237,99.345044 189.861887,98.9471453 L189.861887,98.9471453 C189.501396,98.6590738 189.135898,98.385406 188.772069,98.1099376 L188.772069,98.1099376 C188.705312,98.0595251 188.640223,98.0073122 188.573465,97.9568997 L188.573465,97.9568997 C188.510046,97.9118885 188.448295,97.861476 188.386544,97.8146644 L188.386544,97.8146644 C187.907559,97.4617768 187.428573,97.1178915 186.944581,96.7866094 L186.944581,96.7866094 C186.468933,96.4589281 185.989947,96.1420495 185.507624,95.837774 L185.507624,95.837774 C185.397474,95.7675566 185.285655,95.6973391 185.173836,95.6271217 L185.173836,95.6271217 L40.1997439,5.33292291 C39.837584,5.10606664 39.4787621,4.89001304 39.121609,4.68116123 L39.121609,4.68116123 C38.6559749,4.40929379 38.1903408,4.15002948 37.7297135,3.90336829 L37.7297135,3.90336829 C37.4293044,3.74312854 37.1322332,3.59729236 36.836831,3.44785529 L36.836831,3.44785529 C36.7633976,3.41184636 36.6916332,3.37223653 36.6181999,3.33802805 L36.6181999,3.33802805 C36.531415,3.29481733 36.4412923,3.24440482 36.3561764,3.20299455 L36.3561764,3.20299455 C35.898887,2.98334006 35.4466044,2.7762887 34.9959908,2.58184046 L34.9959908,2.58184046 C34.5370324,2.38379133 34.081412,2.19834533 33.6257915,2.0273029 L33.6257915,2.0273029 C33.5473513,1.99669531 33.4722491,1.9732895 33.3938089,1.9462828 L33.3938089,1.9462828 C33.3237135,1.91747566 33.2552869,1.8958703 33.1851915,1.87066405 L33.1851915,1.87066405 C32.8781066,1.75903636 32.5693528,1.64560822 32.2656059,1.54658365 L32.2656059,1.54658365 C31.794965,1.39354569 31.325993,1.25311085 30.8636968,1.12888004 L30.8636968,1.12888004 C30.6383899,1.0694653 30.4180899,1.02265368 30.196121,0.968640286 L30.196121,0.968640286 C30.0993225,0.945234479 30.0008551,0.920028227 29.9040566,0.898422867 L29.9040566,0.898422867 C29.7588589,0.866014828 29.6136611,0.824604555 29.4701323,0.793996963 L29.4701323,0.793996963 C28.9694505,0.689571058 28.4754444,0.601349174 27.9831073,0.531131755 L27.9831073,0.531131755 C27.6826982,0.487921036 27.385627,0.462714783 27.0885558,0.432107191 L27.0885558,0.432107191 C26.9834126,0.421304511 26.8782694,0.405100491 26.7731262,0.397898705 L26.7731262,0.397898705 C26.6746588,0.388896472 26.5711846,0.372692452 26.4727171,0.363690219 L26.4727171,0.363690219 C25.9703664,0.32588084 25.4730224,0.307876373 24.9840232,0.307876373 L24.9840232,0.307876373 L24.877211,0.307876373 Z" id="Fill-21" mask="url(#mask-5)"></path>
                    </g>
                    <g id="Group-26" transform="translate(426.579553, 135.961708)">
                        <mask id="mask-7" fill="white">
                            <use xlink:href="#path-6"></use>
                        </mask>
                        <use id="Clip-25" fill="#C47D00" xlink:href="#path-6"></use>
                        <path d="M6.39673952,10.0505755 C6.61203271,10.6465233 6.8189812,11.2442716 7.02092287,11.8438203 L7.02092287,11.8438203 C7.2295403,12.4667749 7.43148197,13.087929 7.62341,13.7126839 L7.62341,13.7126839 C7.81867591,14.3428403 8.00726607,14.974797 8.18751153,15.6067538 L8.18751153,15.6067538 C8.37109486,16.2495132 8.54466456,16.8958736 8.7115585,17.5404335 L8.7115585,17.5404335 C8.87678351,18.1885943 9.03533275,18.836755 9.1855373,19.4849158 L9.1855373,19.4849158 C9.33240397,20.1240744 9.47092594,20.7650334 9.59943428,21.4041919 L9.59943428,21.4041919 C9.72794261,22.0433505 9.84810625,22.6771077 9.95992519,23.3144658 L9.95992519,23.3144658 C10.0667373,23.9338195 10.1652047,24.5495722 10.2553275,25.1653249 L10.2553275,25.1653249 C10.3454502,25.7810777 10.4255593,26.39503 10.4989926,27.0053814 L10.4989926,27.0053814 C10.5690881,27.6049301 10.6308388,28.2026784 10.6842449,28.8004267 L10.6842449,28.8004267 C10.735982,29.3963745 10.7793744,29.9905219 10.8144222,30.5828688 L10.8144222,30.5828688 C10.8494699,31.1752158 10.8761729,31.7657623 10.8911934,32.3527079 L10.8911934,32.3527079 C10.9062138,32.9072454 10.9128896,33.4581821 10.9128896,34.0055179 L10.9128896,34.0055179 L9.92487746,409.272608 C9.92153959,410.664354 9.85978883,411.998485 9.74796989,413.289405 L9.74796989,413.289405 C9.73795625,413.404633 9.72627367,413.519862 9.7145911,413.636891 L9.7145911,413.636891 C9.6044411,414.819785 9.44922973,415.957667 9.25229488,417.052338 L9.25229488,417.052338 C9.22726079,417.198175 9.20055776,417.344011 9.17218578,417.488046 L9.17218578,417.488046 C8.96857518,418.546709 8.72324108,419.56036 8.44285926,420.532602 L8.44285926,420.532602 C8.3894532,420.714447 8.33270926,420.890891 8.27596531,421.069135 L8.27596531,421.069135 C7.99391455,421.985562 7.68015394,422.860579 7.32633878,423.690585 L7.32633878,423.690585 C7.28962212,423.778807 7.25958121,423.877832 7.21952666,423.967854 L7.21952666,423.967854 C6.80729862,424.913088 6.35000922,425.802509 5.85600315,426.636116 L5.85600315,426.636116 C5.78757663,426.749544 5.70913648,426.846768 5.64070997,426.958396 L5.64070997,426.958396 C5.22848193,427.61916 4.7912198,428.242114 4.32725464,428.82906 L4.32725464,428.82906 C4.15869176,429.041512 3.98178418,429.244963 3.80654554,429.448413 L3.80654554,429.448413 C3.39765538,429.91833 2.97374477,430.36124 2.53147582,430.775343 L2.53147582,430.775343 C2.35123036,430.949986 2.16931596,431.12823 1.97905687,431.292071 L1.97905687,431.292071 C1.35487353,431.830404 0.705656091,432.332729 0.0163841088,432.766637 L0.0163841088,432.766637 L15.200395,423.247675 C15.887998,422.815568 16.5372155,422.311443 17.1630677,421.771309 L17.1630677,421.771309 C17.3549958,421.607468 17.5319034,421.431025 17.7171556,421.258182 L17.7171556,421.258182 C18.1577556,420.840478 18.5816663,420.401169 18.9888875,419.929452 L18.9888875,419.929452 C19.1641261,419.724201 19.3427026,419.522551 19.5112655,419.308298 L19.5112655,419.308298 C19.9752307,418.723153 20.4124928,418.101999 20.8247208,417.439434 L20.8247208,417.439434 C20.8914784,417.326006 20.9715875,417.230583 21.0383451,417.115354 L21.0383451,417.115354 C21.0533655,417.091948 21.0717239,417.068542 21.0867443,417.043336 L21.0867443,417.043336 C21.5507095,416.256541 21.9796269,415.422934 22.3701587,414.537114 L22.3701587,414.537114 C22.3801724,414.508307 22.390186,414.4777 22.4035375,414.450693 L22.4035375,414.450693 C22.4419231,414.35887 22.4753019,414.259846 22.5120186,414.166222 L22.5120186,414.166222 C22.749008,413.609884 22.9759838,413.048145 23.1829322,412.453998 L23.1829322,412.453998 C23.2830686,412.162325 23.3665156,411.852648 23.4583072,411.553774 L23.4583072,411.553774 C23.5150512,411.371929 23.5734641,411.193685 23.6268701,411.01184 L23.6268701,411.01184 C23.6752694,410.847999 23.7303444,410.693161 23.7754057,410.525719 L23.7754057,410.525719 C23.9422997,409.920769 24.0908353,409.297815 24.2276883,408.656856 L24.2276883,408.656856 C24.2744186,408.4336 24.3128042,408.199542 24.3545277,407.972686 L24.3545277,407.972686 C24.3845686,407.825049 24.4096027,407.679213 24.4363058,407.531577 L24.4363058,407.531577 C24.4780292,407.308321 24.5230906,407.092268 24.5614762,406.865411 L24.5614762,406.865411 C24.6532679,406.292869 24.733377,405.709525 24.8034724,405.115377 L24.8034724,405.115377 C24.841858,404.789496 24.8668921,404.451012 24.898602,404.11793 L24.898602,404.11793 C24.9102845,404.000901 24.9219671,403.887473 24.9303118,403.770444 L24.9303118,403.770444 C24.9436633,403.630009 24.9620217,403.494975 24.9720353,403.35454 L24.9720353,403.35454 C25.0154277,402.7892 25.0471376,402.213057 25.0721717,401.627912 L25.0721717,401.627912 C25.0938679,401.048168 25.1072194,400.457622 25.1088883,399.858073 L25.1088883,399.858073 C25.1105573,399.823865 25.1105573,399.789656 25.1105573,399.753647 L25.1105573,399.753647 L26.0969005,24.488357 C26.0985694,23.9392208 26.0902247,23.3882841 26.0752043,22.835547 L26.0752043,22.835547 C26.0585149,22.246801 26.0334808,21.6562545 25.9984331,21.0621071 L25.9984331,21.0621071 C25.9633853,20.4715606 25.9199929,19.8756128 25.8665868,19.2814654 L25.8665868,19.2814654 C25.8131808,18.6855175 25.753099,18.0877693 25.6813346,17.4864201 L25.6813346,17.4864201 C25.6112391,16.8760687 25.5277921,16.2603159 25.4393383,15.6463636 L25.4393383,15.6463636 C25.3492156,15.0306109 25.2507482,14.4130577 25.1422671,13.7955045 L25.1422671,13.7955045 C25.0321171,13.1599468 24.9119535,12.5225887 24.7834452,11.8834302 L24.7834452,11.8834302 C24.6549368,11.2460721 24.5164148,10.6051131 24.3695482,9.96595451 L24.3695482,9.96595451 C24.2193436,9.31779373 24.0607944,8.66963294 23.8939004,8.02147216 L23.8939004,8.02147216 C23.7270065,7.37691226 23.5534368,6.73235237 23.3715224,6.08599203 L23.3715224,6.08599203 C23.1912769,5.45403527 23.0043557,4.8220785 22.8074209,4.19192218 L22.8074209,4.19192218 C22.6154928,3.56896765 22.4135512,2.94601311 22.2049337,2.32485903 L22.2049337,2.32485903 C22.0029921,1.7253103 21.7960436,1.12756202 21.5790815,0.52981374 L21.5790815,0.52981374 L6.39673952,10.0505755 Z" id="Fill-24" mask="url(#mask-7)"></path>
                    </g>
                    <g id="Group-29" transform="translate(223.030375, 10.573686)">
                        <mask id="mask-9" fill="white">
                            <use xlink:href="#path-8"></use>
                        </mask>
                        <use id="Clip-28" fill="#FFBF4E" xlink:href="#path-8"></use>
                        <path d="M1.56547883,26.7942467 L0.580804571,402.061337 C0.519053812,425.299702 15.6830374,453.63333 34.430234,465.309227 L34.430234,465.309227 L179.404326,555.607027 C198.151522,567.282923 213.413973,557.900796 213.474055,534.660631 L213.474055,534.660631 L214.462067,159.39354 C214.522149,136.137171 199.359835,107.821547 180.612638,96.1456504 L180.612638,96.1456504 L35.6385461,5.84785065 C30.1644248,2.43780473 24.9890436,0.822804109 20.4011292,0.824604555 L20.4011292,0.824604555 C9.27597897,0.824604555 1.60887126,10.3273619 1.56547883,26.7942467" id="Fill-27" mask="url(#mask-9)"></path>
                    </g>
                    <g id="Group-32" transform="translate(308.146286, 85.549203)">
                        <mask id="mask-11" fill="white">
                            <use xlink:href="#path-10"></use>
                        </mask>
                        <g id="Clip-31"></g>
                        <path d="M0.522391691,3.20347698 C0.514046994,6.03377908 2.34988036,9.4672308 4.62130691,10.8805814 L4.62130691,10.8805814 L42.00555,34.1657576 C44.2753076,35.5773078 46.1244925,34.4430264 46.1328372,31.6109239 L46.1328372,31.6109239 C46.1395129,28.7986262 44.3020106,25.3651745 42.032253,23.9518239 L42.032253,23.9518239 L4.64800995,0.666647684 C3.98544099,0.254345406 3.35958871,0.0580967235 2.80383188,0.0598971701 L2.80383188,0.0598971701 C1.45532883,0.0598971701 0.52739851,1.21038257 0.522391691,3.20347698" id="Fill-30" mask="url(#mask-11)"></path>
                    </g>
                    <g id="Group-35" transform="translate(318.767430, 464.286236)">
                        <mask id="mask-13" fill="white">
                            <use xlink:href="#path-12"></use>
                        </mask>
                        <g id="Clip-34"></g>
                        <path d="M0.625852284,9.55316981 C0.605825011,17.1420523 5.55589934,26.3909467 11.6759002,30.2024922 L11.6759002,30.2024922 C17.79757,34.0158381 22.7793542,30.9532784 22.7993815,23.3643959 L22.7993815,23.3643959 C22.8194087,15.7755134 17.8693344,6.53021992 11.7493335,2.71507351 L11.7493335,2.71507351 C9.96189942,1.60419795 8.27460166,1.07666708 6.77589406,1.07666708 L6.77589406,1.07666708 C3.14261293,1.07666708 0.639203799,4.18063707 0.625852284,9.55316981" id="Fill-33" mask="url(#mask-13)"></path>
                    </g>
                    <g id="Group-48" transform="translate(235.320459, 72.946076)">
                        <path d="M187.287047,114.713059 C189.17128,115.88695 190.693352,118.729855 190.686677,121.066835 L189.86222,434.627218 C189.855545,436.960597 188.325127,437.904031 186.439226,436.73014 L4.02581568,323.114756 C2.14158307,321.940865 0.619510314,319.097959 0.626186072,316.76098 L1.44897321,3.20059627 C1.45564896,0.865416991 2.98773536,-0.0762165949 4.87196796,1.09767461 L187.287047,114.713059 Z" id="Fill-36" fill="#F9FBFC"></path>
                        <path d="M210.127317,223.494964 L210.127317,223.494964 C208.937364,223.494964 207.972717,222.454305 207.972717,221.170587 L207.972717,151.448291 C207.972717,150.164573 208.937364,149.123915 210.127317,149.123915 C211.317271,149.123915 212.281918,150.164573 212.281918,151.448291 L212.281918,221.170587 C212.281918,222.454305 211.317271,223.494964 210.127317,223.494964" id="Fill-38" fill="#F9FBFC"></path>
                        <path d="M210.127317,310.260287 L210.127317,310.260287 C208.937364,310.260287 207.972717,309.221429 207.972717,307.937711 L207.972717,238.213615 C207.972717,236.929896 208.937364,235.889238 210.127317,235.889238 C211.317271,235.889238 212.281918,236.929896 212.281918,238.213615 L212.281918,307.937711 C212.281918,309.221429 211.317271,310.260287 210.127317,310.260287" id="Fill-40" fill="#F9FBFC"></path>
                        <path d="M210.127317,416.878595 L210.127317,416.878595 C208.937364,416.878595 207.972717,415.837937 207.972717,414.554219 L207.972717,378.433658 C207.972717,377.15174 208.937364,376.109282 210.127317,376.109282 C211.317271,376.109282 212.281918,377.15174 212.281918,378.433658 L212.281918,414.554219 C212.281918,415.837937 211.317271,416.878595 210.127317,416.878595" id="Fill-42" fill="#F7B844"></path>
                        <path d="M93.9502745,136.660503 C103.282984,142.474145 110.84161,156.506826 110.935071,168.116106 C110.935071,168.209729 110.93674,168.306953 110.93674,168.400577 C110.544539,168.569819 103.102738,171.769212 93.6381829,166.079801 C93.5280329,166.014985 93.4178829,165.946568 93.3077329,165.878151 C85.9093244,161.269007 79.8494053,152.12994 77.6881288,148.601065 C77.1373788,147.699041 76.8536591,147.189515 76.8386386,147.162508 C76.8703485,135.501015 84.5274425,130.792847 93.9502745,136.660503" id="Fill-44" fill="#FFFFFF"></path>
                        <path d="M170.741015,237.808154 C172.900622,239.153088 174.641326,242.406495 174.63465,245.065755 L174.58792,262.747941 C174.581244,265.425205 172.828858,266.503673 170.667581,265.156938 L20.7567665,171.785776 C18.5971589,170.440843 16.8547861,167.185635 16.8631308,164.510172 L16.9098611,146.827985 C16.9165369,144.168726 18.6689233,143.092058 20.8285309,144.436992 L170.741015,237.808154 Z" id="Fill-46" fill="#FFEFD4"></path>
                    </g>
                    <g id="Group-51" transform="translate(300.409096, 163.611650)">
                        <mask id="mask-15" fill="white">
                            <use xlink:href="#path-14"></use>
                        </mask>
                        <g id="Clip-50"></g>
                        <path d="M3.45303567,8.61153622 C3.25443188,8.99503135 3.0691796,9.39112961 2.88893414,9.79983099 L2.88893414,9.79983099 C1.99772049,11.8433379 1.35184093,14.201923 0.989681078,16.8539809 L0.989681078,16.8539809 C0.774387892,18.4419748 0.659231072,20.139796 0.654224254,21.9366417 L0.654224254,21.9366417 C0.652555315,22.4713744 0.66423789,23.0115083 0.682596224,23.5516423 L0.682596224,23.5516423 C0.684265164,23.66327 0.687603042,23.7766982 0.6942788,23.8901263 L0.6942788,23.8901263 C0.714306073,24.4176572 0.744346983,24.9469885 0.78273259,25.4799207 L0.78273259,25.4799207 C0.791077287,25.5717435 0.799421984,25.6653667 0.806097741,25.7571895 L0.806097741,25.7571895 C0.847821227,26.2667158 0.892882591,26.7762422 0.967984866,27.4730151 L0.967984866,27.4730151 C1.02973562,28.0185504 1.10316896,28.5640857 1.18160911,29.1114215 L1.18160911,29.1114215 C1.19829851,29.230251 1.21665684,29.3454796 1.23501517,29.4643091 L1.23501517,29.4643091 C1.31512427,30.0116448 1.40524699,30.5625815 1.54043109,31.2917624 L1.54043109,31.2917624 C1.6338917,31.8120915 1.73736594,32.3306201 1.84751594,32.8509492 L1.84751594,32.8509492 C1.86921215,32.9499737 1.88757049,33.0471978 1.9092667,33.144422 L1.9092667,33.144422 C2.0277614,33.6917577 2.15626973,34.240894 2.28978489,34.7882297 L2.28978489,34.7882297 C2.31648792,34.9016579 2.34485989,35.0114851 2.37156292,35.1231128 L2.37156292,35.1231128 C2.65528262,36.2537933 2.97238111,37.3844738 3.31952051,38.5133538 L3.31952051,38.5133538 C3.3528993,38.6249815 3.38627809,38.7348087 3.42132582,38.844636 L3.42132582,38.844636 C3.59489552,39.3955727 3.7718031,39.9465093 3.95872431,40.4956455 L3.95872431,40.4956455 C3.99043416,40.5838674 4.01880613,40.6702889 4.05051598,40.7549099 L4.05051598,40.7549099 C4.2290925,41.2788398 4.41601371,41.7991689 4.67970614,42.5103453 L4.67970614,42.5103453 C4.88498569,43.0594815 5.09860994,43.6068173 5.31890994,44.1541531 L5.31890994,44.1541531 C5.36397131,44.2675812 5.40903267,44.3792089 5.45576297,44.4926371 L5.45576297,44.4926371 C5.67940086,45.0399728 5.90804556,45.5837077 6.21012359,46.2750792 L6.21012359,46.2750792 C6.43376148,46.7882065 6.66574406,47.2995334 6.90273345,47.8090597 L6.90273345,47.8090597 C6.94612588,47.9062839 6.99118724,48.0017075 7.03624861,48.0989317 L7.03624861,48.0989317 C7.28658952,48.6300634 7.54193725,49.1557938 7.8022918,49.6797238 L7.8022918,49.6797238 C7.85402893,49.7805488 7.90576605,49.8813738 7.95583423,49.9821988 L7.95583423,49.9821988 C8.22286454,50.5079292 8.49156379,51.0282583 8.79364182,51.595399 L8.79364182,51.595399 C9.07402364,52.1229299 9.3644191,52.6432589 9.65481456,53.1599871 L9.65481456,53.1599871 C9.71823426,53.2680139 9.77831608,53.3760407 9.84006684,53.4840675 L9.84006684,53.4840675 C10.1287934,53.9863921 10.4191888,54.4851158 10.7195979,54.9820391 L10.7195979,54.9820391 C10.771335,55.0648597 10.8214032,55.1476802 10.8731403,55.2323012 L10.8731403,55.2323012 C11.1551911,55.695016 11.4422487,56.1523294 11.8628214,56.8130933 L11.8628214,56.8130933 C12.0797835,57.1515773 12.3050904,57.481059 12.5253904,57.8141417 L12.5253904,57.8141417 C12.0230396,56.9895371 11.7626851,56.521421 11.7510025,56.4962147 L11.7510025,56.4962147 C11.7810434,44.8347219 19.4398064,40.126554 28.8626384,45.9942095 L28.8626384,45.9942095 C38.1886719,51.8042508 45.7472985,65.8315305 45.845766,77.4390099 L45.845766,77.4390099 C46.0026463,77.3831961 46.1628644,77.334584 46.4115364,77.2373599 L46.4115364,77.2373599 C46.7152834,77.1149295 47.0090167,76.979896 47.3010811,76.8358603 L47.3010811,76.8358603 C47.3628319,76.8088536 47.4212448,76.778246 47.4796577,76.7494388 L47.4796577,76.7494388 C47.7617084,76.6036027 48.0420902,76.4505647 48.3141274,76.2831232 L48.3141274,76.2831232 C48.3675334,76.2525156 48.4192705,76.2183071 48.4710077,76.1840986 L48.4710077,76.1840986 C48.7513895,76.0094553 49.0267645,75.8258097 49.3505387,75.5845499 L49.3505387,75.5845499 C49.6125622,75.3919021 49.866241,75.1866512 50.114913,74.9705976 L50.114913,74.9705976 C50.1532986,74.9381895 50.1916842,74.9057815 50.2317388,74.871573 L50.2317388,74.871573 C50.4787418,74.653719 50.720738,74.4214613 50.9577274,74.1820019 L50.9577274,74.1820019 C51.0027888,74.1351903 51.0478501,74.0901792 51.0912426,74.0433676 L51.0912426,74.0433676 C51.328232,73.7985068 51.5552077,73.5446438 51.7771767,73.2781777 L51.7771767,73.2781777 C51.8105555,73.2403684 51.8422653,73.1989581 51.8739752,73.1611487 L51.8739752,73.1611487 C52.1026199,72.880279 52.3262577,72.594008 52.5482267,72.2807303 L52.5482267,72.2807303 C52.7618509,71.9800557 52.9671305,71.6631771 53.1640653,71.3408972 L53.1640653,71.3408972 C53.1957752,71.2904847 53.227485,71.2418726 53.255857,71.1914601 L53.255857,71.1914601 C53.4461161,70.8799828 53.6246926,70.5577029 53.7965934,70.2264207 L53.7965934,70.2264207 C53.8316411,70.1634051 53.8650199,70.0967886 53.8983987,70.0319725 L53.8983987,70.0319725 C54.0702994,69.695289 54.2338555,69.3496032 54.4541555,68.8508795 L54.4541555,68.8508795 C54.606029,68.4979919 54.7495578,68.1379026 54.9298032,67.6553829 L54.9298032,67.6553829 C55.0683252,67.2718878 55.1985025,66.8757895 55.322004,66.470689 L55.322004,66.470689 C55.3437002,66.3986712 55.3670654,66.3248529 55.3887616,66.252835 L55.3887616,66.252835 C55.5072563,65.8549363 55.6157373,65.4444345 55.7192116,65.0267308 L55.7192116,65.0267308 C55.7392389,64.9529125 55.7559283,64.8790942 55.7742866,64.8034755 L55.7742866,64.8034755 C55.874423,64.3731687 55.9712214,63.9338597 56.0763646,63.3631182 L56.0763646,63.3631182 C56.1581427,62.9220087 56.2282381,62.4718971 56.3183608,61.8399403 L56.3183608,61.8399403 C56.3801116,61.3754251 56.4351866,60.8983067 56.478579,60.4175875 L56.478579,60.4175875 C56.4869237,60.3239643 56.4969374,60.2321415 56.5052821,60.1367178 L56.5052821,60.1367178 C56.5453366,59.6523977 56.5787154,59.1626762 56.6037495,58.662152 L56.6037495,58.662152 C56.6054184,58.5811319 56.6070874,58.5001118 56.6120942,58.4190917 L56.6120942,58.4190917 C56.6337904,57.8933613 56.6488108,57.3586287 56.6488108,56.8130933 L56.6488108,56.8130933 C56.6538177,55.0144472 56.5486745,53.1815925 56.3400571,51.3271325 L56.3400571,51.3271325 C55.9929177,48.2357656 55.3620585,45.0795827 54.4841964,41.9342024 L54.4841964,41.9342024 C54.1320502,40.6738898 53.7398494,39.4189785 53.3126009,38.1658676 L53.3126009,38.1658676 C53.0205365,37.3160568 52.705107,36.4698469 52.3830017,35.6272379 L52.3830017,35.6272379 C47.4446099,22.8026565 38.709381,10.8836999 28.735799,4.67035855 L28.735799,4.67035855 C24.2229868,1.85986137 19.9571776,0.529331308 16.1753609,0.529331308 L16.1753609,0.529331308 C10.6461646,0.529331308 6.15671753,3.37763787 3.45303567,8.61153622 M29.2548392,42.8092195 C23.5186944,39.2353329 18.8740359,30.5499784 18.8890564,23.4418151 L18.8890564,23.4418151 C18.9090837,16.3138469 23.5887898,13.4529372 29.3232657,17.0268238 L29.3232657,17.0268238 C35.072762,20.6079121 39.7074068,29.2662599 39.6890484,36.3942281 L39.6890484,36.3942281 C39.674028,41.4300773 37.330837,44.3468009 33.9195248,44.3468009 L33.9195248,44.3468009 C32.5159468,44.3468009 30.9321233,43.8516781 29.2548392,42.8092195" id="Fill-49" fill="url(#linearGradient-16)" mask="url(#mask-15)"></path>
                    </g>
                    <g id="Group-56" transform="translate(252.009853, 179.015223)">
                        <path d="M77.7221752,1.62415096 C83.4716715,5.2052393 88.1063162,13.8635871 88.0879579,20.9897549 C88.0679306,28.1015191 83.4049139,30.9858346 77.6554176,27.4047462 C71.9192728,23.8308597 67.2712765,15.1473056 67.2913038,8.03734185 C67.3096621,0.911174095 71.9860304,-1.94793515 77.7221752,1.62415096" id="Fill-52" fill="#FFFFFF"></path>
                        <path d="M153.95065,170.221754 C156.108588,171.566688 157.850961,174.820095 157.844285,177.497359 L157.797555,195.177745 C157.790879,197.856809 156.036824,198.917272 153.877216,197.570538 L3.96640143,104.199376 C1.80679382,102.854443 0.0644210617,99.6172396 0.0727657589,96.9399755 L0.119496063,79.2595896 C0.12617182,76.5823254 1.87855821,75.5056584 4.03816583,76.850592 L153.95065,170.221754 Z" id="Fill-54" fill="#FFEFD4"></path>
                    </g>
                    <g id="Group-59" transform="translate(288.726520, 345.456759)">
                        <mask id="mask-18" fill="white">
                            <use xlink:href="#path-17"></use>
                        </mask>
                        <g id="Clip-58"></g>
                        <path d="M0.927930319,7.93816918 L0.919585622,11.9963759 C0.902896228,18.3393493 5.041866,26.0560636 10.1588343,29.2446546 L10.1588343,29.2446546 L58.6448624,59.4435459 C63.7618307,62.6303364 67.912483,60.0773031 67.9308413,53.7325292 L67.9308413,53.7325292 L67.9425239,49.6761229 C67.9575444,43.3493535 63.8302572,35.6218365 58.7149579,32.4368464 L58.7149579,32.4368464 L10.2305987,2.23615471 C8.73689788,1.30712425 7.32497513,0.866014828 6.07160162,0.866014828 L6.07160162,0.866014828 C3.03413187,0.866014828 0.941281835,3.45865797 0.927930319,7.93816918" id="Fill-57" fill="url(#linearGradient-19)" mask="url(#mask-18)"></path>
                    </g>
                    <g id="Group-69" transform="translate(186.921215, 361.017537)">
                        <g id="Group-62" transform="translate(0.000000, 226.856275)">
                            <mask id="mask-21" fill="white">
                                <use xlink:href="#path-20"></use>
                            </mask>
                            <g id="Clip-61"></g>
                            <path d="M111.051229,35.5448998 C111.051229,55.0491381 86.3843045,70.8606604 55.956201,70.8606604 C25.5297664,70.8606604 0.862841682,55.0491381 0.862841682,35.5448998 C0.862841682,16.0406614 25.5297664,0.229139153 55.956201,0.229139153 C86.3843045,0.229139153 111.051229,16.0406614 111.051229,35.5448998" id="Fill-60" fill="url(#linearGradient-22)" mask="url(#mask-21)"></path>
                        </g>
                        <path d="M111.886533,22.4084811 C111.886533,22.4084811 115.177682,20.0426942 116.000469,18.8580003 C116.823256,17.6751069 117.91808,10.8712191 116.823256,10.5759458 C115.725094,10.2788721 114.903976,15.0122463 114.903976,15.0122463 C114.903976,15.0122463 114.628601,2.58736415 113.256733,0.812123771 C111.886533,-0.961316157 107.498892,7.91128482 107.225186,9.3930524 C106.949811,10.8712191 105.853317,17.0827599 105.853317,17.0827599 C105.853317,17.0827599 107.498892,22.4084811 111.886533,22.4084811" id="Fill-63" fill="#FF9D6F"></path>
                        <path d="M28.0728963,58.0782095 C28.0728963,58.0782095 19.4745203,67.3739154 25.5077364,78.6141037 C31.5409524,89.8560925 72.6736334,62.0481943 77.0612751,57.907167 C81.4472479,53.7643394 110.239791,25.9582416 111.887034,22.4077609 C113.532608,18.8590806 109.966085,15.3085998 105.578443,15.8991463 C101.19247,16.4914933 83.6419033,36.6078834 69.9315659,46.0746318 C69.9315659,46.0746318 37.2186843,54.1064242 28.0728963,58.0782095" id="Fill-65" fill="#7B4F00"></path>
                        <path d="M33.1122588,254.794468 C33.1122588,254.794468 32.4046285,260.393857 33.3475793,262.685825 C34.292199,264.723931 38.06734,266.248909 40.6625408,264.212604 C43.2594105,262.178099 47.7421818,257.084636 47.7421818,257.084636 C47.7421818,257.084636 55.2941327,252.758163 56.0000941,250.467995 C56.7093933,248.176026 54.1125236,246.13792 51.9896327,246.649247 C49.8667417,247.158774 43.7300515,251.231384 40.8995302,251.231384 C38.06734,251.231384 34.0552096,251.992973 33.1122588,254.794468" id="Fill-67" fill="#9E6C13"></path>
                    </g>
                    <g id="Group-72" transform="translate(211.955307, 496.051034)">
                        <mask id="mask-24" fill="white">
                            <use xlink:href="#path-23"></use>
                        </mask>
                        <g id="Clip-71"></g>
                        <path d="M7.72552059,121.536031 C8.54997667,124.942476 17.1149738,126.899562 18.7038041,121.487419 L18.7038041,121.487419 C19.7118435,118.053967 22.1985633,9.24217497 22.1985633,9.24217497 L22.1985633,9.24217497 L0.298740157,0.549618653 C0.298740157,0.549618653 6.90106452,118.129586 7.72552059,121.536031" id="Fill-70" fill="url(#linearGradient-25)" mask="url(#mask-24)"></path>
                    </g>
                    <path d="M241.872214,622.80818 C241.50171,623.152066 241.298099,623.65259 241.293092,624.180121 C241.279741,625.795121 241.348167,629.399615 242.195988,630.802163 C243.304164,632.638619 246.770551,634.581301 250.397157,632.454973 C253.452985,630.665329 262.860796,623.078247 264.770063,621.400231 C265.929976,620.381178 266.444009,619.120866 266.670985,618.155826 C266.876265,617.28621 266.465706,616.387788 265.704669,616.022297 C264.372855,615.381338 262.091415,614.58194 260.051971,615.321923 C256.936061,616.452604 253.012385,620.093107 248.769941,619.896858 C245.580598,619.749221 242.972045,621.787327 241.872214,622.80818" id="Fill-73" fill="#9E6C13"></path>
                    <g id="Group-77" transform="translate(220.300004, 492.410980)">
                        <mask id="mask-27" fill="white">
                            <use xlink:href="#path-26"></use>
                        </mask>
                        <g id="Clip-76"></g>
                        <path d="M25.2577292,0.648194297 C15.7330919,0.0936567355 0.98467426,0.534766159 0.467303039,8.50714383 L0.467303039,8.50714383 C-0.298740157,20.3180737 4.83324857,28.7423635 9.7833229,34.4749855 L9.7833229,34.4749855 C13.4399692,38.709636 15.8749518,46.8116458 16.8980117,50.7618257 L16.8980117,50.7618257 C17.7658602,81.9437609 19.6801337,125.91967 20.8767632,130.129114 L20.8767632,130.129114 C22.8027193,136.907796 32.2839642,136.60172 32.7112127,130.001282 L32.7112127,130.001282 C34.632162,107.690148 36.147559,5.45898769 36.147559,5.45898769 L36.147559,5.45898769 C35.7920749,1.82028505 32.6961922,0.0108361906 29.0762626,0.0108361906 L29.0762626,0.0108361906 C27.8345717,0.0108361906 26.532799,0.223288893 25.2577292,0.648194297" id="Fill-75" fill="url(#linearGradient-28)" mask="url(#mask-27)"></path>
                    </g>
                    <g id="Group-105" transform="translate(13.351515, 359.860332)">
                        <path d="M243.121582,141.691909 C242.003393,147.725205 226.063352,150.740954 216.742326,149.133155 C207.421299,147.523555 197.382628,142.590332 197.714747,130.930639 C197.714747,130.930639 199.485492,103.057925 198.776193,98.0940937 C198.068562,93.1284619 196.299487,84.3458833 196.299487,75.1834104 C196.299487,66.019137 201.641762,59.2350541 201.641762,59.2350541 C201.641762,59.2350541 206.862204,52.7984574 223.267879,56.4191556 C223.267879,56.4191556 236.632746,59.560935 242.784456,70.219579 C242.784456,70.219579 247.031907,81.9296839 245.616647,106.367146 C244.199717,130.804608 243.121582,141.691909 243.121582,141.691909" id="Fill-78" fill="#7B4F00"></path>
                        <path d="M210.457434,43.4901484 C210.457434,43.4901484 211.872694,52.3987583 210.457434,56.473169 C210.220444,58.5094741 218.480025,65.3817789 225.794987,63.6011372 C230.042438,62.5820844 229.807117,60.2901159 229.807117,60.2901159 C229.807117,60.2901159 226.267297,53.9273375 226.739607,47.8166216 C227.211916,41.7077062 215.412515,42.2172326 210.457434,43.4901484" id="Fill-80" fill="#FF7C40"></path>
                        <path d="M238.06503,25.5438365 C238.06503,37.1423137 229.349828,46.544246 218.59852,46.544246 C207.847212,46.544246 199.130342,37.1423137 199.130342,25.5438365 C199.130342,13.9453594 207.847212,4.54162662 218.59852,4.54162662 C229.349828,4.54162662 238.06503,13.9453594 238.06503,25.5438365" id="Fill-82" fill="#FF9D6F"></path>
                        <path d="M238.06503,26.9433237 C238.06503,26.9433237 238.302019,47.9815425 234.054568,52.2269957 C229.807117,56.4724488 223.286571,48.2516095 212.859037,45.6157557 C202.434842,42.7260388 221.312216,20.8524128 221.312216,20.8524128 L238.06503,26.9433237 Z" id="Fill-84" fill="#FF9D6F"></path>
                        <path d="M281.274038,58.029115 C281.274038,58.029115 279.423184,49.8190784 280.040692,49.1529131 C280.656531,48.4885483 283.124892,52.0390291 283.124892,52.0390291 C283.124892,52.0390291 284.359907,43.6075375 285.387974,42.7199173 C286.41604,41.8322971 290.529976,46.2703981 291.145815,48.7100032 C291.763322,51.1514089 288.679122,60.9134305 287.444107,61.1366859 C286.210761,61.3581408 281.891546,62.0225056 281.274038,58.029115" id="Fill-86" fill="#FF9D6F"></path>
                        <path d="M237.056156,67.7909566 C237.056156,67.7909566 228.419394,72.2290575 232.119433,83.7663195 C235.822809,95.3035815 263.382006,99.739882 266.673155,96.1894012 C269.962634,92.6407209 284.358906,74.4472077 288.472841,60.6917955 C288.472841,60.6917955 286.827267,55.3678748 280.24497,57.5860251 C280.24497,57.5860251 264.615352,78.8853087 262.14866,81.1052594 C259.67863,83.3216092 241.170091,66.9033364 237.056156,67.7909566" id="Fill-88" fill="#7B4F00"></path>
                        <path d="M201.939167,9.54020659 C201.939167,9.54020659 208.005762,1.54262267 218.453322,0.813441786 C228.899214,0.0860613488 233.956101,3.72296354 237.999941,3.35927332 C242.043781,2.9955831 245.750496,6.63248529 244.401993,12.0842377 C243.055158,17.5377905 240.021027,22.9931438 233.281849,22.9931438 C226.541003,22.9931438 224.855374,21.9002727 224.855374,21.9002727 C224.855374,21.9002727 230.247717,24.4461042 230.921969,29.5359668 C231.59622,34.6276299 231.59622,42.2615236 231.59622,42.2615236 L229.910592,42.2615236 C229.910592,42.2615236 228.563757,33.898449 225.866751,33.898449 C223.171414,33.898449 223.171414,42.988904 225.529626,44.4436649 L227.889506,45.8966253 C227.889506,45.8966253 223.363342,54.9438696 220.908332,55.3291652 C218.453322,55.7144608 210.363973,49.1698373 210.363973,49.1698373 C210.363973,49.1698373 196.883949,42.2615236 195.535446,30.9907277 C194.186943,19.7199318 201.939167,9.54020659 201.939167,9.54020659" id="Fill-90" fill="#895700"></path>
                        <g id="Group-94" transform="translate(0.000000, 169.241983)">
                            <mask id="mask-30" fill="white">
                                <use xlink:href="#path-29"></use>
                            </mask>
                            <g id="Clip-93"></g>
                            <path d="M110.92439,35.8000807 C110.92439,55.3061195 86.2591341,71.1158413 55.8326995,71.1158413 C25.4045959,71.1158413 0.737671225,55.3061195 0.737671225,35.8000807 C0.737671225,16.2958424 25.4045959,0.484320143 55.8326995,0.484320143 C86.2591341,0.484320143 110.92439,16.2958424 110.92439,35.8000807" id="Fill-92" fill="url(#linearGradient-31)" mask="url(#mask-30)"></path>
                        </g>
                        <path d="M27.925362,108.452243 C27.925362,108.452243 31.6270696,133.744917 34.7112697,147.721785 C34.7112697,147.721785 35.3287773,171.017763 35.9462849,179.004545 C36.5637925,186.991326 38.4146463,204.295419 38.4146463,204.295419 C38.4146463,204.295419 40.5742539,206.293914 43.0409464,204.963384 C43.0409464,204.963384 46.1268154,155.375483 46.742654,147.388702 C47.3601616,139.401921 49.5197692,103.461405 49.5197692,103.461405 C49.5197692,103.461405 42.4251077,96.4720713 27.925362,108.452243" id="Fill-95" fill="#F5B697"></path>
                        <path d="M51.0623699,98.4689467 C51.0623699,98.4689467 54.7640776,123.761621 57.8482776,137.738488 C57.8482776,137.738488 58.4657852,161.034467 59.0832928,169.021248 C59.6991314,177.008029 61.5499852,194.312122 61.5499852,194.312122 C61.5499852,194.312122 63.7095929,196.310618 66.1779543,194.980088 C66.1779543,194.980088 69.2621543,145.392187 69.8796619,137.405405 C70.4971695,129.416824 70.8059233,93.8093908 70.8059233,93.8093908 C70.8059233,93.8093908 65.5621156,86.4887748 51.0623699,98.4689467" id="Fill-97" fill="#F5B697"></path>
                        <path d="M32.5523297,74.2858877 C32.5523297,74.2858877 23.8120939,84.6006464 28.850622,119.545515 C29.1593758,124.536353 32.2435759,137.405946 32.2435759,137.405946 C32.2435759,137.405946 43.6574526,139.402641 57.2326059,133.743837 C70.8044212,128.086834 71.113175,125.092691 71.113175,125.092691 C71.113175,125.092691 71.7306826,81.2734211 68.6448136,69.9594145 C65.5606136,58.6436074 32.5523297,74.2858877 32.5523297,74.2858877" id="Fill-99" fill="#7B4F00"></path>
                        <path d="M66.3321643,192.64941 C66.3321643,192.64941 66.0234105,195.144829 68.4917719,197.141524 C70.9584644,199.138219 75.5864334,202.800328 76.3574834,204.962664 C76.3574834,206.626277 70.4961681,204.795222 67.8742643,203.299051 C65.2523605,201.80108 62.7839991,198.306413 62.7839991,198.306413 L62.9392104,199.804384 C62.9392104,199.804384 62.012949,199.804384 61.241899,198.972578 C60.470849,198.140772 61.3954415,192.982492 61.3954415,192.982492 L66.3321643,192.64941 Z" id="Fill-101" fill="#C07B01"></path>
                        <path d="M43.1951564,204.130858 C43.1951564,204.130858 42.8864026,206.626277 45.354764,208.622972 C47.8231254,210.619667 52.4494255,214.281776 53.2204755,216.444112 C53.2204755,218.107725 47.3608292,216.276671 44.7372564,214.780499 C42.1170215,213.282528 39.6486601,209.787861 39.6486601,209.787861 L39.8022025,211.285833 C39.8022025,211.285833 38.8776101,211.285833 38.1048911,210.454026 C37.3338411,209.62222 38.2601025,204.46394 38.2601025,204.46394 L43.1951564,204.130858 Z" id="Fill-103" fill="#C07B01"></path>
                    </g>
                    <g id="Group-108" transform="translate(69.487948, 367.062119)">
                        <mask id="mask-33" fill="white">
                            <use xlink:href="#path-32"></use>
                        </mask>
                        <g id="Clip-107"></g>
                        <path d="M2.39994854,27.1363316 C7.94917212,36.8659451 21.4725883,48.8371148 27.3689513,48.8371148 L27.3689513,48.8371148 C33.2653142,48.8371148 63.4364011,45.8447725 65.864708,42.8506297 L65.864708,42.8506297 C68.2913459,39.856487 66.2118474,35.740666 64.4761504,35.740666 L64.4761504,35.740666 C62.7437913,35.740666 40.8940363,36.8659451 35.6936211,35.740666 L35.6936211,35.740666 C30.489868,34.6207882 25.9820626,33.49911 22.8795042,21.0850305 L22.8795042,21.0850305 C17.6924405,2.31357392 9.68153125,0.948835373 9.68153125,0.948835373 L9.68153125,0.948835373 C9.52798882,0.932631353 9.37444639,0.92362912 9.2225729,0.92362912 L9.2225729,0.92362912 C2.17130384,0.92362912 -3.03078034,17.6155698 2.39994854,27.1363316" id="Fill-106" mask="url(#mask-33)"></path>
                    </g>
                    <g id="Group-111" transform="translate(0.000000, 314.849166)">
                        <mask id="mask-35" fill="white">
                            <use xlink:href="#path-34"></use>
                        </mask>
                        <g id="Clip-110"></g>
                        <path d="M75.3556191,6.39554651 C75.3556191,6.39554651 83.3314806,17.4304839 81.5974525,29.7779469 C79.8634244,42.1236094 69.8063955,41.5636705 68.0723674,48.2973409 C66.3383393,55.0310113 72.9273122,64.7606248 63.9117014,71.1198023 C54.8944217,77.4789798 50.7320868,75.9828087 48.3054489,89.4519499 C45.877142,102.921091 37.2070017,110.029254 22.295028,111.525426 C7.38138528,113.021597 -3.02111414,93.5677709 0.792412438,79.3496439 C4.60760796,65.1351177 17.7855536,69.6236312 20.559331,58.025154 C23.3347772,46.4266768 22.295028,37.260603 31.6577781,32.7720896 C41.0221972,28.2817757 37.5541411,11.2585529 46.9168913,6.02105361 C56.4815831,0.671926681 68.4195068,-2.20878792 75.3556191,6.39554651" id="Fill-109" fill="#895700" mask="url(#mask-35)"></path>
                    </g>
                    <g id="Group-114" transform="translate(33.378788, 363.461225)">
                        <mask id="mask-37" fill="white">
                            <use xlink:href="#path-36"></use>
                        </mask>
                        <g id="Clip-113"></g>
                        <path d="M21.2072133,0.797597856 C21.2072133,0.797597856 4.05385386,14.0200779 2.35821141,18.418569 L2.35821141,18.418569 C0.662568951,22.8170601 -1.735697,36.5040554 3.83355386,43.2161204 L3.83355386,43.2161204 C13.4783548,54.8398038 7.67044559,74.8103578 8.94217743,80.6834147 L8.94217743,80.6834147 C10.2172471,86.5582721 23.3034012,87.2856525 32.3874384,85.3915827 L32.3874384,85.3915827 C41.4714757,83.4975128 49.8845994,78.4850694 49.5407978,67.0576346 L49.5407978,67.0576346 C49.1969963,55.6301999 51.9991456,39.9555116 52.5765987,34.8080347 L52.5765987,34.8080347 C53.1507138,29.6605577 52.5248615,16.7315505 50.3101789,8.06600089 L50.3101789,8.06600089 C49.8428759,6.23494667 44.136772,4.31747101 44.136772,4.31747101 L44.136772,4.31747101 C44.136772,4.31747101 39.068203,0.703974631 25.1776201,0.703974631 L25.1776201,0.703974631 C23.9259156,0.703974631 22.6041155,0.734582224 21.2072133,0.797597856" id="Fill-112" fill="url(#linearGradient-38)" mask="url(#mask-37)"></path>
                    </g>
                    <g id="Group-124" transform="translate(40.054546, 318.450060)">
                        <path d="M29.4467672,43.3162252 C29.4467672,43.3162252 29.4033748,43.5466824 29.4534429,43.9121731 C29.6420331,45.2679094 30.2678854,48.73737 30.3847111,50.1849291 C30.4965301,51.5748739 29.0362081,53.9802706 25.5598073,53.9046519 C22.0850754,53.8290331 16.1870435,52.2608441 14.2243707,47.7921355 C14.3845889,46.9981386 14.1359169,38.7232859 13.6469177,34.5984627 L29.4467672,43.3162252 Z" id="Fill-115" fill="#FF7C40"></path>
                        <path d="M39.0813876,18.38238 C37.2205201,7.65531902 29.343126,1.56800897 20.4343274,3.81496636 C20.4343274,3.81496636 10.7778439,4.8592254 6.48700064,14.0090952 C2.19448845,23.1607654 8.49807265,30.8558743 12.5335682,35.7080779 C14.2358864,37.6993719 15.5209697,39.2387538 16.3320743,40.2163963 C16.6258076,40.5854878 16.9145342,40.9617812 17.2199501,41.2984647 C17.276694,41.3668817 17.3067349,41.4028906 17.3067349,41.4028906 L17.3167486,41.3938884 C20.0721675,44.3664258 23.2348078,46.0498433 25.5713229,46.7988291 C29.4566139,48.0483391 34.0512042,47.3335618 36.5312481,44.4798539 C39.0112921,41.626146 40.942255,29.1076406 39.0813876,18.38238" id="Fill-117" fill="#FF9D6F"></path>
                        <path d="M40.6762261,25.6158544 C40.6762261,25.6158544 33.5665442,26.3648402 29.4058782,21.127341 C25.2435432,15.8898417 19.3471803,21.127341 14.4922355,16.6370271 C14.4922355,16.6370271 16.5734029,22.2490192 14.4922355,27.8610113 C12.411068,33.4730035 11.7184582,42.0791384 11.7184582,42.0791384 L2.70117846,26.7393331 L2.70117846,13.2701919 L14.146765,1.67171469 L29.4058782,0.924529343 L36.6874609,8.40538508 C36.6874609,8.40538508 41.3705049,20.0038623 40.6762261,25.6158544" id="Fill-119" fill="#895700"></path>
                        <g id="Group-123" transform="translate(0.000000, 90.022331)">
                            <mask id="mask-40" fill="white">
                                <use xlink:href="#path-39"></use>
                            </mask>
                            <g id="Clip-122"></g>
                        </g>
                    </g>
                    <g id="Group-127" transform="translate(33.378788, 386.867031)">
                        <mask id="mask-42" fill="white">
                            <use xlink:href="#path-41"></use>
                        </mask>
                        <g id="Clip-126"></g>
                        <path d="M2.12122201,14.4611873 C6.97783573,31.2953633 23.2766981,43.6428263 29.1730611,42.8956409 L29.1730611,42.8956409 C35.0694241,42.1466551 58.9986776,14.8356802 58.9986776,11.4670446 L58.9986776,11.4670446 C58.9986776,8.10200982 56.2232313,5.85685288 53.447785,6.60403823 L53.447785,6.60403823 C50.6740077,7.35302403 32.2939778,28.6793143 30.5599498,27.9303285 L30.5599498,27.9303285 C28.8259217,27.1795423 18.074614,7.72751693 8.71186379,0.61935364 L8.71186379,0.61935364 C8.71186379,0.61935364 7.92412438,0.412302278 6.84932739,0.412302278 L6.84932739,0.412302278 C3.82854704,0.412302278 -1.45865306,2.04170648 2.12122201,14.4611873" id="Fill-125" fill="url(#linearGradient-43)" mask="url(#mask-42)"></path>
                    </g>
                    <g id="Group-140" transform="translate(86.177342, 299.802351)">
                        <path d="M2.94452348,99.7626899 C2.94452348,99.7626899 -0.301563702,98.7328345 0.653069648,95.0239144 C1.607703,91.3149944 7.9112872,88.4306789 8.86592055,88.2254279 C9.8205539,88.020177 19.1799662,90.0780875 19.5604844,91.3149944 C19.9426715,92.5519012 17.8414768,93.1694544 15.5500229,92.5519012 C13.2585691,91.9325475 9.8205539,91.7272966 9.8205539,91.7272966 C9.8205539,91.7272966 12.3022668,94.6116121 12.1120077,95.848519 C11.9217486,97.0854258 10.5849282,99.557439 8.67399252,100.587294 C6.76472582,101.61715 4.47327199,99.3503877 4.47327199,99.3503877 L2.94452348,99.7626899 Z" id="Fill-128" fill="#FF9D6F"></path>
                        <path d="M44.9076688,103.555151 C44.9076688,103.555151 52.4696333,96.6126285 52.8935439,97.8531362 C53.3157856,99.093644 50.3100257,102.541499 50.3100257,102.541499 C50.3100257,102.541499 60.4321433,98.3572613 60.550638,99.7760132 C60.6674637,101.196566 55.2066939,105.643669 53.7630613,106.69513 C52.3177598,107.748391 47.1624059,109.255365 47.1624059,109.255365 C47.1624059,109.255365 44.3318847,105.16475 44.9076688,103.555151" id="Fill-130" fill="#FF9D6F"></path>
                        <path d="M10.5892674,41.5628926 C8.1042166,43.1094763 6.0764552,46.9120195 6.0847999,50.0069873 L6.38520899,164.709841 C6.40523626,172.019654 11.2217954,175.008396 17.0897865,171.35529 L80.4243686,131.907504 C82.9110884,130.357319 84.9388498,126.556577 84.9305051,123.459808 L84.628427,8.75875505 C84.6100687,1.44894174 79.7935095,-1.53979966 73.9255185,2.11330655 L10.5892674,41.5628926 Z" id="Fill-132" fill="#FFBF4E"></path>
                        <path d="M20.3080023,83.1296239 C19.5636554,83.5941391 18.9645061,84.7140169 18.966175,85.6304442 L18.9828644,91.7213552 C18.9845334,92.6431838 19.5886895,93.0140758 20.3330364,92.5513611 L71.975029,60.3863821 C72.7177071,59.9218668 73.3185252,58.801989 73.3151874,57.8819608 L73.3001669,51.7892494 C73.296829,50.8728221 72.6943419,50.5019301 71.9499949,50.9664453 L20.3080023,83.1296239 Z" id="Fill-134" fill="#FFFFFF"></path>
                        <path d="M20.3428832,96.3868525 C19.5985362,96.8513677 18.9993869,97.9712455 19.0010559,98.8948747 L19.0177453,104.983985 C19.0194142,105.905814 19.6235703,106.271304 20.3679173,105.806789 L72.0099098,73.6436107 C72.7525879,73.1790955 73.3534061,72.064619 73.3500682,71.1427903 L73.3333788,65.0536798 C73.3317099,64.1300507 72.7292227,63.7591587 71.9848758,64.2218735 L20.3428832,96.3868525 Z" id="Fill-136" fill="#FFFFFF"></path>
                        <path d="M40.5015018,106.257621 C38.7374328,107.355894 37.3171654,110.018754 37.3221722,112.197295 L37.327179,113.594441 C37.3321858,115.780183 38.7624669,116.658801 40.5248669,115.562329 L57.2276127,105.159349 C58.9900127,104.061076 60.4169559,101.401817 60.4119491,99.2178748 L60.4069423,97.8189278 C60.4019355,95.6403873 58.9649786,94.756368 57.2025786,95.8564409 L40.5015018,106.257621 Z" id="Fill-138" fill="#FFFFFF"></path>
                    </g>
                </g>
            </g>
        </g>
    </g>
</svg>