<?xml version="1.0"?>
<svg xmlns="http://www.w3.org/2000/svg" height="512px" viewBox="-21 -21 682.66669 682.66669" width="512px"><path d="m320.082031 428.429688c59.742188 0 108.347657-48.605469 108.347657-108.347657 0-59.738281-48.605469-108.34375-108.347657-108.34375-59.738281 0-108.34375 48.605469-108.34375 108.34375 0 59.742188 48.605469 108.347657 108.34375 108.347657zm0-85.671876c-12.503906 0-22.675781-10.167968-22.675781-22.675781 0-12.503906 10.171875-22.675781 22.675781-22.675781 12.507813 0 22.675781 10.171875 22.675781 22.675781 0 12.507813-10.167968 22.675781-22.675781 22.675781zm0 0" fill="#FFFFFF"/><path d="m546.359375 93.808594c-60.441406-60.4375-140.800781-93.7265628-226.277344-93.7265628-85.472656 0-165.832031 33.2890628-226.273437 93.7265628-60.4375 60.441406-93.7265628 140.800781-93.7265628 226.273437 0 85.476563 33.2890628 165.835938 93.7265628 226.277344 60.441406 60.4375 140.800781 93.722656 226.273437 93.722656 85.476563 0 165.835938-33.285156 226.277344-93.722656 60.4375-60.441406 93.722656-140.800781 93.722656-226.277344 0-85.472656-33.285156-165.832031-93.722656-226.273437zm-226.277344 80.132812c80.582031 0 146.144531 65.5625 146.144531 146.140625 0 80.582031-65.5625 146.140625-146.144531 146.140625-80.578125 0-146.136719-65.558594-146.136719-146.140625 0-80.578125 65.558594-146.140625 146.136719-146.140625zm0 341.414063c10.441407 0 18.898438 8.464843 18.898438 18.898437s-8.457031 18.894532-18.898438 18.894532c-128.507812 0-233.066406-104.554688-233.066406-233.066407 0-10.4375 8.464844-18.894531 18.898437-18.894531 10.433594 0 18.894532 8.457031 18.894532 18.894531 0 107.675781 87.597656 195.273438 195.273437 195.273438zm0-390.546875c-10.433593 0-18.894531-8.460938-18.894531-18.894532 0-10.441406 8.460938-18.898437 18.894531-18.898437 128.515625 0 233.066407 104.550781 233.066407 233.066406 0 10.4375-8.457032 18.898438-18.894532 18.898438-10.433594 0-18.898437-8.460938-18.898437-18.898438 0-107.675781-87.597657-195.273437-195.273438-195.273437zm0 0" fill="#FFFFFF"/></svg>
