<?xml version="1.0" encoding="utf-8"?>
<!-- Generator: Adobe Illustrator 23.0.1, SVG Export Plug-In . SVG Version: 6.00 Build 0)  -->
<svg version="1.1" id="Layer_1" xmlns="http://www.w3.org/2000/svg" xmlns:xlink="http://www.w3.org/1999/xlink" x="0px" y="0px"
	 viewBox="0 0 78 71" style="enable-background:new 0 0 78 71;" xml:space="preserve">
<style type="text/css">
	.st0{fill:#364BEA;}
	.st1{fill:#FFA200;}
	.st2{fill:#E59F2E;}
	.st3{fill:#8896EA;}
	.st4{fill:#FFFFFF;}
	.st5{fill:#F7F7F7;}
</style>
<title>AF1C21EA-627A-491B-9774-3895AB639C50</title>
<desc>Created with sketchtool.</desc>
<g id="Dashboard_user">
	<g id="profile_info" transform="translate(-621.000000, -338.000000)">
		<g id="wallet" transform="translate(621.000000, 338.150000)">
			<path id="Shape" class="st0" d="M6.1,8h60.8c3.3,0,6.1,2.8,6.1,6.3v7.5c0,3.4-2.7,6.3-6.1,6.3H6.1C2.7,28,0,25.2,0,21.7v-7.5
				C0,10.8,2.7,8,6.1,8z"/>
			<path class="st1" d="M19.5,15.3L57.6,5.1c1.3-0.4,2.6,0.4,3,1.7l6.3,23.7c0.4,1.3-0.4,2.7-1.7,3L15.6,46.9
				c-1.3,0.4-2.6-0.4-3-1.7L8,27.8L19.5,15.3z"/>
			<path class="st2" d="M60.1,29.7l-8.2,2.2c-0.7,0.2-1.3-0.2-1.5-0.8c-0.2-0.7,0.2-1.3,0.9-1.4l7-1.9l-3.8-14l-7,1.9
				c-0.7,0.2-1.3-0.2-1.5-0.8c-0.2-0.7,0.2-1.3,0.9-1.4l8.2-2.2c0.7-0.2,1.3,0.2,1.5,0.8L61,28.2C61.1,28.9,60.8,29.5,60.1,29.7z
				 M26.1,38.8L17.9,41c-0.7,0.2-1.3-0.2-1.5-0.8L12,23.8c-0.2-0.7,0.2-1.3,0.9-1.4l8.2-2.2c0.7-0.2,1.3,0.2,1.5,0.8
				c0.2,0.7-0.2,1.3-0.9,1.4l-7,1.9l3.8,14l7-1.9c0.7-0.2,1.3,0.2,1.5,0.8C27.1,37.9,26.7,38.6,26.1,38.8z"/>
			<path class="st1" d="M0.1,24C10.9,17.7,40.1,0.3,40.1,0.3c1.2-0.7,2.7-0.3,3.4,0.9l12.2,21.2c0.7,1.2,0.2,2.7-0.9,3.3L10.2,51.7
				C9,52.3,7.5,52,6.8,50.8c0,0-3.4-7-6.8-13C0,24,0.1,28.5,0.1,24z"/>
			<path class="st2" d="M49.8,21.3L41.3,6.6c-0.4-0.6-1.1-0.8-1.6-0.4l-7.4,4.3c-0.6,0.4-0.8,1.1-0.4,1.6c0.4,0.6,1.1,0.8,1.6,0.4
				l6.3-3.6l7.3,12.6l-6.3,3.6c-0.6,0.4-0.8,1.1-0.4,1.6c0.4,0.6,1.1,0.8,1.6,0.4l7.4-4.3C49.9,22.6,50.2,21.9,49.8,21.3z
				 M17.5,38.5l-6.3,3.6L3.9,29.5l6.3-3.6c0.6-0.4,0.8-1.1,0.4-1.6c-0.4-0.6-1.1-0.8-1.6-0.4l-7.4,4.3c-0.6,0.4-0.8,1.1-0.4,1.6
				l8.5,14.7c0.4,0.6,1.1,0.8,1.6,0.4l7.4-4.3c0.6-0.4,0.8-1.1,0.4-1.6C18.9,38.4,18.1,38.1,17.5,38.5z M20.6,17.1
				c-4.7,2.7-6.3,8.6-3.6,13.3c2.7,4.7,8.7,6.3,13.3,3.6c4.7-2.7,6.3-8.6,3.6-13.3C31.2,16,25.3,14.4,20.6,17.1z M49.8,21.3
				L41.3,6.6c-0.4-0.6-1.1-0.8-1.6-0.4l-7.4,4.3c-0.6,0.4-0.8,1.1-0.4,1.6c0.4,0.6,1.1,0.8,1.6,0.4l6.3-3.6l7.3,12.6l-6.3,3.6
				c-0.6,0.4-0.8,1.1-0.4,1.6c0.4,0.6,1.1,0.8,1.6,0.4l7.4-4.3C49.9,22.6,50.2,21.9,49.8,21.3z M17.5,38.5l-6.3,3.6L3.9,29.5
				l6.3-3.6c0.6-0.4,0.8-1.1,0.4-1.6c-0.4-0.6-1.1-0.8-1.6-0.4l-7.4,4.3c-0.6,0.4-0.8,1.1-0.4,1.6l8.5,14.7c0.4,0.6,1.1,0.8,1.6,0.4
				l7.4-4.3c0.6-0.4,0.8-1.1,0.4-1.6C18.9,38.4,18.1,38.1,17.5,38.5z M20.6,17.1c-4.7,2.7-6.3,8.6-3.6,13.3
				c2.7,4.7,8.7,6.3,13.3,3.6c4.7-2.7,6.3-8.6,3.6-13.3C31.2,16,25.3,14.4,20.6,17.1z"/>
			<path class="st0" d="M69,70H6c-3.3,0-6-2.7-6-6.1v-44h69c3.3,0,6,2.7,6,6.1v37.9C75,67.3,72.3,70,69,70z M4.8,19.9H0V15
				C0,17.7,2.2,19.9,4.8,19.9z"/>
			<path class="st3" d="M75.5,55h-9.9c-4.8,0-8.6-3.8-8.6-8.5s3.9-8.5,8.6-8.5h9.9c1.4,0,2.5,1.1,2.5,2.4v12.1
				C78,53.9,76.9,55,75.5,55z"/>
			<path class="st4" d="M66,41c2.7,0,5,2.2,5,5s-2.2,5-5,5c-2.7,0-5-2.2-5-5S63.3,41,66,41z"/>
			<path class="st5" d="M67.2,49.8c-2.7,0-4.9-2.2-4.9-4.9c0-1,0.3-2,0.9-2.8c-1.3,0.9-2.1,2.3-2.1,4.1c0,2.7,2.2,4.9,4.9,4.9
				c1.7,0,3.1-0.9,4.1-2.1C69.2,49.5,68.2,49.8,67.2,49.8z"/>
			<path class="st3" d="M69,67.4H6c-3.3,0-6-2.9-6-6.4v2.6C0,67.1,2.7,70,6,70H69c3.3,0,6-2.9,6-6.4V61C75,64.5,72.3,67.4,69,67.4z"
				/>
			<path class="st3" d="M69,19.7H4.8C2.2,19.7,0,17.6,0,15v2.4c0,2.6,2.2,4.7,4.8,4.7H69c3.3,0,6,2.7,6,5.9v-2.4
				C75,22.4,72.3,19.7,69,19.7z"/>
		</g>
	</g>
</g>
</svg>
